<svg width="152" height="58" viewBox="0 0 152 58" fill="none" xmlns="http://www.w3.org/2000/svg">
<path d="M4.3608 17.9432L5.51989 11.0909H35.0256L33.8665 17.9432H23.2812L18.6449 46H10.3267L14.9631 17.9432H4.3608ZM30.6321 46L34.9957 19.8182H43.0923L42.2912 24.5909H42.5639C43.3253 22.8636 44.3196 21.5795 45.5469 20.7386C46.7741 19.8864 48.1037 19.4602 49.5355 19.4602C49.9219 19.4602 50.3082 19.4886 50.6946 19.5455C51.0923 19.5909 51.4673 19.6591 51.8196 19.75L50.5923 27.0114C50.206 26.8636 49.7003 26.7557 49.0753 26.6875C48.4503 26.608 47.8821 26.5682 47.3707 26.5682C46.3821 26.5682 45.4616 26.7898 44.6094 27.233C43.7685 27.6648 43.0526 28.2727 42.4616 29.0568C41.8821 29.8295 41.5014 30.7386 41.3196 31.7841L38.9673 46H30.6321ZM57.1634 46.4432C55.5043 46.4432 54.0724 46.1648 52.8679 45.608C51.6747 45.0398 50.7997 44.1818 50.2429 43.0341C49.6974 41.8864 49.5668 40.4545 49.8509 38.7386C50.1009 37.2841 50.5611 36.0625 51.2315 35.0739C51.9134 34.0739 52.7486 33.2614 53.7372 32.6364C54.7372 32.0114 55.8509 31.5341 57.0781 31.2045C58.3054 30.875 59.5895 30.6534 60.9304 30.5398C62.4304 30.4034 63.6463 30.2557 64.5781 30.0966C65.5213 29.9375 66.2259 29.7159 66.6918 29.4318C67.1577 29.1364 67.4418 28.7273 67.544 28.2045V28.1193C67.6804 27.2443 67.4929 26.5682 66.9815 26.0909C66.4702 25.6136 65.7031 25.375 64.6804 25.375C63.5895 25.375 62.6577 25.6136 61.8849 26.0909C61.1122 26.5682 60.5724 27.2273 60.2656 28.0682L52.6293 27.7955C53.1065 26.2045 53.9247 24.7841 55.0838 23.5341C56.2429 22.2727 57.7145 21.2841 59.4986 20.5682C61.294 19.8409 63.3679 19.4773 65.7202 19.4773C67.3793 19.4773 68.8793 19.6761 70.2202 20.0739C71.5611 20.4602 72.6918 21.0284 73.6122 21.7784C74.544 22.517 75.2088 23.4261 75.6065 24.5057C76.0043 25.5852 76.0895 26.8182 75.8622 28.2045L72.8793 46H65.0384L65.652 42.3523H65.4474C64.8338 43.2386 64.1122 43.9886 63.2827 44.6023C62.4645 45.2159 61.544 45.6761 60.5213 45.983C59.4986 46.2898 58.3793 46.4432 57.1634 46.4432ZM60.6747 40.9886C61.5497 40.9886 62.3793 40.8068 63.1634 40.4432C63.9474 40.0795 64.6065 39.5795 65.1406 38.9432C65.6861 38.2955 66.0327 37.5455 66.1804 36.6932L66.5724 34.2045C66.3338 34.3295 66.0327 34.4432 65.669 34.5455C65.3054 34.6477 64.919 34.7443 64.5099 34.8352C64.1009 34.9148 63.6804 34.9943 63.2486 35.0739C62.8281 35.142 62.4247 35.2045 62.0384 35.2614C61.2202 35.3864 60.5099 35.5795 59.9077 35.8409C59.3054 36.1023 58.8224 36.4432 58.4588 36.8636C58.1065 37.2727 57.8906 37.7614 57.8111 38.3295C57.6747 39.1818 57.8736 39.8409 58.4077 40.3068C58.9418 40.7614 59.6974 40.9886 60.6747 40.9886ZM76.3906 55.8182L82.4247 19.8182H90.6747L89.9418 24.3011H90.1974C90.652 23.5057 91.2543 22.7386 92.0043 22C92.7656 21.2614 93.6804 20.6591 94.7486 20.1932C95.8168 19.7159 97.0384 19.4773 98.4134 19.4773C100.232 19.4773 101.851 19.9545 103.271 20.9091C104.692 21.8636 105.726 23.3352 106.374 25.3239C107.021 27.3125 107.089 29.8466 106.578 32.9261C106.089 35.892 105.203 38.375 103.919 40.375C102.646 42.375 101.135 43.875 99.3849 44.875C97.6349 45.875 95.7997 46.375 93.8793 46.375C92.5611 46.375 91.4474 46.1591 90.5384 45.7273C89.6406 45.2955 88.9304 44.7273 88.4077 44.0227C87.8849 43.3182 87.5213 42.5625 87.3168 41.7557H87.0781L84.7599 55.8182H76.3906ZM88.4077 32.9091C88.1804 34.3182 88.169 35.5455 88.3736 36.5909C88.5781 37.6364 88.9929 38.4489 89.6179 39.0284C90.2543 39.5966 91.0781 39.8807 92.0895 39.8807C93.1122 39.8807 94.0213 39.5966 94.8168 39.0284C95.6236 38.4489 96.2997 37.6364 96.8452 36.5909C97.3906 35.5455 97.7884 34.3182 98.0384 32.9091C98.2543 31.5 98.2599 30.2784 98.0554 29.2443C97.8622 28.2102 97.4588 27.4091 96.8452 26.8409C96.2315 26.2727 95.4077 25.9886 94.3736 25.9886C93.3622 25.9886 92.4418 26.267 91.6122 26.8239C90.794 27.3807 90.1122 28.1761 89.5668 29.2102C89.0213 30.2443 88.6349 31.4773 88.4077 32.9091ZM122.903 11.0909L117.108 46H108.773L114.568 11.0909H122.903ZM134.584 46.4943C131.845 46.4943 129.572 45.9545 127.766 44.875C125.97 43.7841 124.709 42.233 123.982 40.2216C123.254 38.1989 123.124 35.7955 123.589 33.0114C124.044 30.3068 124.97 27.9432 126.368 25.9205C127.777 23.8864 129.55 22.3068 131.686 21.1818C133.822 20.0455 136.203 19.4773 138.828 19.4773C140.692 19.4773 142.345 19.767 143.788 20.3466C145.232 20.9261 146.425 21.7898 147.368 22.9375C148.311 24.0739 148.953 25.4716 149.294 27.1307C149.635 28.7898 149.624 30.6932 149.26 32.8409L148.936 34.9205H126.197L126.964 30.0795H141.964C142.101 29.1932 142.027 28.4034 141.743 27.7102C141.459 27.017 140.999 26.4773 140.362 26.0909C139.737 25.6932 138.97 25.4943 138.061 25.4943C137.141 25.4943 136.277 25.7102 135.47 26.142C134.675 26.5625 133.999 27.1307 133.442 27.8466C132.885 28.5625 132.521 29.3693 132.351 30.267L131.447 35.2273C131.266 36.3295 131.317 37.2727 131.601 38.0568C131.885 38.8409 132.374 39.4432 133.067 39.8636C133.76 40.2727 134.652 40.4773 135.743 40.4773C136.47 40.4773 137.152 40.3807 137.788 40.1875C138.425 39.983 138.993 39.6818 139.493 39.2841C140.004 38.875 140.419 38.3807 140.737 37.8011L148.339 38.0227C147.726 39.7386 146.777 41.233 145.493 42.5057C144.209 43.767 142.641 44.75 140.788 45.4545C138.947 46.1477 136.879 46.4943 134.584 46.4943Z" fill="#599CFF"/>
</svg>
