<svg width="294" height="122" viewBox="0 0 294 122" fill="none" xmlns="http://www.w3.org/2000/svg">
<g filter="url(#filter0_d_2665_10680)">
<path fill-rule="evenodd" clip-rule="evenodd" d="M289.791 7.95582C289.531 7.98501 289.267 8 289 8C285.134 8 282 4.86599 282 1C282 0.732603 282.015 0.468708 282.044 0.20911C281.384 0.0720385 280.701 0 280 0H14C12.9474 0 11.9327 0.162645 10.9798 0.464173C10.9932 0.641028 11 0.819718 11 1C11 4.7989 7.97383 7.891 4.20061 7.99718C4.06906 8.64428 4 9.31407 4 10V67C7.86599 67 11 70.134 11 74C11 77.866 7.86599 81 4 81V104C4 109.523 8.47715 114 14 114H280C285.523 114 290 109.523 290 104V81C286.134 81 283 77.866 283 74C283 70.134 286.134 67 290 67V10C290 9.29945 289.928 8.61572 289.791 7.95582Z" fill="#67A4FD"/>
</g>
<path d="M84.9016 94.92H101.682V97.02H84.9016V94.92ZM91.9016 95.98H94.5416V102.78H91.9016V95.98ZM86.8216 84.96H89.4616V87.06H97.0616V84.96H99.7016V93.16H86.8216V84.96ZM89.4616 89.14V91.04H97.0616V89.14H89.4616ZM107.46 85.4H109.64V87.4C109.64 91.08 107.98 94.24 104.44 95.46L103.02 93.38C106.16 92.38 107.46 89.9 107.46 87.4V85.4ZM107.98 85.4H110.14V87.42C110.14 89.74 111.4 92.06 114.38 93.04L113.02 95.1C109.58 93.96 107.98 90.9 107.98 87.42V85.4ZM115.22 84.26H117.88V97.8H115.22V84.26ZM117.12 89.62H120.34V91.82H117.12V89.62ZM105.94 100.34H118.54V102.46H105.94V100.34ZM105.94 96.52H108.62V101.46H105.94V96.52Z" fill="white"/>
<path d="M170.922 93.08H173.582V95.66H170.922V93.08ZM172.282 84.44C176.502 84.44 178.982 85.54 178.982 87.58C178.982 89.62 176.502 90.74 172.282 90.74C168.042 90.74 165.582 89.62 165.582 87.58C165.582 85.54 168.042 84.44 172.282 84.44ZM172.282 86.38C169.602 86.38 168.342 86.76 168.342 87.58C168.342 88.44 169.602 88.8 172.282 88.8C174.962 88.8 176.222 88.44 176.222 87.58C176.222 86.76 174.962 86.38 172.282 86.38ZM163.902 91.54H180.642V93.64H163.902V91.54ZM165.822 94.84H178.622V99.6H168.462V101.24H165.842V97.76H176.002V96.82H165.822V94.84ZM165.842 100.66H179.102V102.66H165.842V100.66ZM186.46 85.4H188.64V87.4C188.64 91.08 186.98 94.24 183.44 95.46L182.02 93.38C185.16 92.38 186.46 89.9 186.46 87.4V85.4ZM186.98 85.4H189.14V87.42C189.14 89.74 190.4 92.06 193.38 93.04L192.02 95.1C188.58 93.96 186.98 90.9 186.98 87.42V85.4ZM194.22 84.26H196.88V97.8H194.22V84.26ZM196.12 89.62H199.34V91.82H196.12V89.62ZM184.94 100.34H197.54V102.46H184.94V100.34ZM184.94 96.52H187.62V101.46H184.94V96.52Z" fill="white"/>
<path d="M249.822 87.18H254.162V89.3H249.822V87.18ZM249.682 91.02H254.022V93.14H249.682V91.02ZM253.742 84.26H256.402V94.92H253.742V84.26ZM247.702 85.52H250.542C250.542 90.56 247.702 93.8 242.082 95.34L241.042 93.24C245.742 92.02 247.702 89.7 247.702 86.8V85.52ZM242.062 85.52H249.562V87.64H242.062V85.52ZM250.262 95.16C254.022 95.16 256.522 96.6 256.522 98.92C256.522 101.24 254.022 102.7 250.262 102.7C246.502 102.7 244.002 101.24 244.002 98.92C244.002 96.6 246.502 95.16 250.262 95.16ZM250.262 97.2C248.002 97.2 246.642 97.78 246.642 98.92C246.642 100.06 248.002 100.62 250.262 100.62C252.542 100.62 253.902 100.06 253.902 98.92C253.902 97.78 252.542 97.2 250.262 97.2ZM266.16 86.32H268.46V86.86C268.46 90.12 265.8 92.78 261.1 93.42L260.12 91.34C264.2 90.84 266.16 88.76 266.16 86.86V86.32ZM266.92 86.32H269.22V86.86C269.22 88.76 271.18 90.84 275.26 91.34L274.3 93.42C269.58 92.78 266.92 90.12 266.92 86.86V86.32ZM266.3 96H268.94V102.8H266.3V96ZM259.32 94.48H276.06V96.6H259.32V94.48ZM260.8 85.2H274.54V87.3H260.8V85.2Z" fill="white"/>
<path d="M17 75H277" stroke="#ABCFFF" stroke-linecap="round" stroke-dasharray="2 5"/>
<path d="M152.176 43L153.608 34.2727H154.46L153.028 43H152.176ZM148.205 40.5795L148.341 39.7273H154.852L154.716 40.5795H148.205ZM149.108 43L150.54 34.2727H151.392L149.96 43H149.108ZM148.716 37.5455L148.852 36.6932H155.364L155.227 37.5455H148.716ZM156.474 43V42.233L159.354 39.0795C159.692 38.7102 159.971 38.3892 160.19 38.1165C160.408 37.8409 160.57 37.5824 160.675 37.3409C160.783 37.0966 160.837 36.8409 160.837 36.5739C160.837 36.267 160.763 36.0014 160.616 35.777C160.471 35.5526 160.272 35.3793 160.019 35.2571C159.766 35.1349 159.482 35.0739 159.167 35.0739C158.832 35.0739 158.539 35.1435 158.289 35.2827C158.042 35.419 157.85 35.6108 157.714 35.858C157.58 36.1051 157.513 36.3949 157.513 36.7273H156.508C156.508 36.2159 156.626 35.767 156.862 35.3807C157.097 34.9943 157.418 34.6932 157.825 34.4773C158.234 34.2614 158.692 34.1534 159.201 34.1534C159.712 34.1534 160.165 34.2614 160.56 34.4773C160.955 34.6932 161.265 34.9844 161.489 35.3509C161.714 35.7173 161.826 36.125 161.826 36.5739C161.826 36.8949 161.768 37.2088 161.651 37.5156C161.538 37.8196 161.339 38.1591 161.055 38.5341C160.773 38.9062 160.383 39.3608 159.883 39.8977L157.923 41.9943V42.0625H161.979V43H156.474ZM170.852 33.088H171.848V39.628H170.852V33.088ZM171.572 35.896H173.456V36.736H171.572V35.896ZM164.804 40.204H171.848V43.936H170.852V41.02H164.804V40.204ZM163.88 33.76H164.864V35.452H167.924V33.76H168.896V38.896H163.88V33.76ZM164.864 36.244V38.104H167.924V36.244H164.864ZM177.727 43.1193C177.165 43.1193 176.663 43.0227 176.223 42.8295C175.786 42.6364 175.438 42.3679 175.179 42.0241C174.923 41.6776 174.784 41.2756 174.761 40.8182H175.835C175.858 41.0994 175.955 41.3423 176.125 41.5469C176.295 41.7486 176.518 41.9048 176.794 42.0156C177.07 42.1264 177.375 42.1818 177.71 42.1818C178.085 42.1818 178.418 42.1165 178.707 41.9858C178.997 41.8551 179.224 41.6733 179.389 41.4403C179.554 41.2074 179.636 40.9375 179.636 40.6307C179.636 40.3097 179.557 40.027 179.398 39.7827C179.239 39.5355 179.006 39.3423 178.699 39.2031C178.392 39.0639 178.017 38.9943 177.574 38.9943H176.875V38.0568H177.574C177.92 38.0568 178.224 37.9943 178.486 37.8693C178.75 37.7443 178.956 37.5682 179.104 37.3409C179.254 37.1136 179.33 36.8466 179.33 36.5398C179.33 36.2443 179.264 35.9872 179.134 35.7685C179.003 35.5497 178.818 35.3793 178.58 35.2571C178.344 35.1349 178.065 35.0739 177.744 35.0739C177.443 35.0739 177.159 35.1293 176.892 35.2401C176.628 35.348 176.412 35.5057 176.244 35.7131C176.077 35.9176 175.986 36.1648 175.972 36.4545H174.949C174.966 35.9972 175.104 35.5966 175.362 35.2528C175.621 34.9062 175.959 34.6364 176.376 34.4432C176.797 34.25 177.259 34.1534 177.761 34.1534C178.301 34.1534 178.764 34.2628 179.151 34.4815C179.537 34.6974 179.834 34.983 180.041 35.3381C180.249 35.6932 180.352 36.0767 180.352 36.4886C180.352 36.9801 180.223 37.3991 179.964 37.7457C179.709 38.0923 179.361 38.3324 178.92 38.4659V38.5341C179.472 38.625 179.902 38.8594 180.212 39.2372C180.521 39.6122 180.676 40.0767 180.676 40.6307C180.676 41.1051 180.547 41.5312 180.288 41.9091C180.033 42.2841 179.683 42.5795 179.24 42.7955C178.797 43.0114 178.293 43.1193 177.727 43.1193ZM185.152 33.484C186.772 33.484 187.96 34.468 187.96 35.896C187.96 37.312 186.772 38.296 185.152 38.296C183.544 38.296 182.356 37.312 182.356 35.896C182.356 34.468 183.544 33.484 185.152 33.484ZM185.152 34.3C184.108 34.3 183.316 34.96 183.316 35.896C183.316 36.832 184.108 37.48 185.152 37.48C186.208 37.48 186.988 36.832 186.988 35.896C186.988 34.96 186.208 34.3 185.152 34.3ZM190 33.088H191.008V38.644H190V33.088ZM183.988 39.172H191.008V41.812H184.984V43.444H184.012V41.068H190.024V39.976H183.988V39.172ZM184.012 43H191.368V43.792H184.012V43ZM200.106 43L201.538 34.2727H202.39L200.958 43H200.106ZM196.134 40.5795L196.271 39.7273H202.782L202.646 40.5795H196.134ZM197.038 43L198.469 34.2727H199.322L197.89 43H197.038ZM196.646 37.5455L196.782 36.6932H203.293L203.157 37.5455H196.646ZM211.984 33.1H212.992V41.116H211.984V33.1ZM206.02 42.88H213.316V43.696H206.02V42.88ZM206.02 40.36H207.004V43.312H206.02V40.36ZM207.04 35.164H207.856V35.62C207.856 37.564 206.62 39.172 204.808 39.796L204.316 39.016C205.924 38.488 207.04 37.12 207.04 35.62V35.164ZM207.208 35.164H208.024V35.62C208.024 37.036 209.152 38.32 210.772 38.824L210.292 39.604C208.456 39.016 207.208 37.48 207.208 35.62V35.164ZM204.568 34.54H210.472V35.344H204.568V34.54ZM207.04 33.136H208.024V34.924H207.04V33.136ZM216.363 33.796H223.143V34.6H216.363V33.796ZM215.139 38.452H224.943V39.268H215.139V38.452ZM219.519 38.992H220.515V43.948H219.519V38.992ZM222.675 33.796H223.647V34.732C223.647 35.86 223.647 37.132 223.239 38.968L222.255 38.836C222.675 37.084 222.675 35.824 222.675 34.732V33.796Z" fill="#F2F7FA"/>
<path d="M152.176 63L153.608 54.2727H154.46L153.028 63H152.176ZM148.205 60.5795L148.341 59.7273H154.852L154.716 60.5795H148.205ZM149.108 63L150.54 54.2727H151.392L149.96 63H149.108ZM148.716 57.5455L148.852 56.6932H155.364L155.227 57.5455H148.716ZM161.102 54.684H164.414V55.5H161.102V54.684ZM161.102 57.108H164.414V57.936H161.102V57.108ZM157.85 60.084H165.086V63.936H164.09V60.888H157.85V60.084ZM164.09 53.088H165.086V59.484H164.09V53.088ZM159.122 53.688C160.718 53.688 161.918 54.768 161.918 56.304C161.918 57.84 160.718 58.908 159.122 58.908C157.514 58.908 156.326 57.84 156.326 56.304C156.326 54.768 157.514 53.688 159.122 53.688ZM159.122 54.54C158.066 54.54 157.286 55.272 157.286 56.304C157.286 57.336 158.066 58.056 159.122 58.056C160.178 58.056 160.97 57.336 160.97 56.304C160.97 55.272 160.178 54.54 159.122 54.54ZM169.861 54.024H170.677V55.968C170.677 58.368 169.381 60.708 167.665 61.62L167.053 60.828C168.625 60.036 169.861 57.948 169.861 55.968V54.024ZM170.041 54.024H170.845V55.968C170.845 57.876 172.057 59.856 173.593 60.624L172.981 61.416C171.301 60.516 170.041 58.296 170.041 55.968V54.024ZM174.541 53.088H175.549V63.936H174.541V53.088ZM175.309 57.48H177.325V58.32H175.309V57.48ZM185.2 63L186.631 54.2727H187.484L186.052 63H185.2ZM181.228 60.5795L181.364 59.7273H187.876L187.739 60.5795H181.228ZM182.131 63L183.563 54.2727H184.415L182.984 63H182.131ZM181.739 57.5455L181.876 56.6932H188.387L188.251 57.5455H181.739ZM191.726 60.54H192.734V63.96H191.726V60.54ZM195.458 60.54H196.454V63.96H195.458V60.54ZM189.698 54.288H198.422V55.092H189.698V54.288ZM189.194 60.024H199.022V60.84H189.194V60.024ZM194.09 55.704C196.298 55.704 197.606 56.352 197.606 57.492C197.606 58.644 196.298 59.292 194.09 59.292C191.87 59.292 190.562 58.644 190.562 57.492C190.562 56.352 191.87 55.704 194.09 55.704ZM194.09 56.46C192.506 56.46 191.594 56.832 191.594 57.492C191.594 58.164 192.506 58.536 194.09 58.536C195.674 58.536 196.586 58.164 196.586 57.492C196.586 56.832 195.674 56.46 194.09 56.46ZM193.586 53.028H194.582V54.864H193.586V53.028ZM208.345 54.708H210.229V55.536H208.345V54.708ZM208.345 57.012H210.229V57.84H208.345V57.012ZM203.257 53.724C204.889 53.724 206.089 54.78 206.089 56.292C206.089 57.792 204.889 58.836 203.257 58.836C201.625 58.836 200.425 57.792 200.425 56.292C200.425 54.78 201.625 53.724 203.257 53.724ZM203.257 54.564C202.177 54.564 201.397 55.272 201.397 56.292C201.397 57.312 202.177 58.008 203.257 58.008C204.337 58.008 205.117 57.312 205.117 56.292C205.117 55.272 204.337 54.564 203.257 54.564ZM207.649 53.088H208.645V59.508H207.649V53.088ZM205.189 59.856C207.397 59.856 208.753 60.612 208.753 61.884C208.753 63.168 207.397 63.912 205.189 63.912C202.981 63.912 201.625 63.168 201.625 61.884C201.625 60.612 202.981 59.856 205.189 59.856ZM205.189 60.66C203.581 60.66 202.597 61.104 202.597 61.884C202.597 62.664 203.581 63.12 205.189 63.12C206.797 63.12 207.781 62.664 207.781 61.884C207.781 61.104 206.797 60.66 205.189 60.66ZM218.223 63L219.655 54.2727H220.507L219.075 63H218.223ZM214.251 60.5795L214.388 59.7273H220.899L220.763 60.5795H214.251ZM215.155 63L216.587 54.2727H217.439L216.007 63H215.155ZM214.763 57.5455L214.899 56.6932H221.411L221.274 57.5455H214.763ZM226.597 53.472H227.473V54.072C227.473 56.148 225.361 57.636 223.105 58.02L222.709 57.216C224.689 56.916 226.597 55.62 226.597 54.072V53.472ZM226.777 53.472H227.641V54.072C227.641 55.584 229.573 56.916 231.529 57.216L231.133 58.02C228.901 57.636 226.777 56.124 226.777 54.072V53.472ZM226.597 59.808H227.581V63.936H226.597V59.808ZM222.217 59.196H232.021V60.024H222.217V59.196ZM235.884 53.652H236.712V54.756C236.712 56.844 235.536 58.572 233.724 59.28L233.196 58.476C234.828 57.876 235.884 56.412 235.884 54.756V53.652ZM236.064 53.652H236.88V54.828C236.88 56.292 237.96 57.648 239.52 58.188L238.992 58.968C237.252 58.32 236.064 56.712 236.064 54.828V53.652ZM240.672 53.088H241.668V59.664H240.672V53.088ZM241.392 55.884H243.276V56.724H241.392V55.884ZM238.212 59.964C240.432 59.964 241.776 60.696 241.776 61.944C241.776 63.192 240.432 63.912 238.212 63.912C235.992 63.912 234.648 63.192 234.648 61.944C234.648 60.696 235.992 59.964 238.212 59.964ZM238.212 60.756C236.604 60.756 235.62 61.188 235.62 61.944C235.62 62.7 236.604 63.132 238.212 63.132C239.82 63.132 240.804 62.7 240.804 61.944C240.804 61.188 239.82 60.756 238.212 60.756ZM244.643 60.444H245.363C246.683 60.444 247.907 60.396 249.395 60.144L249.479 60.96C247.955 61.224 246.731 61.272 245.363 61.272H244.643V60.444ZM244.619 54.276H248.495V58.056H245.615V60.78H244.643V57.252H247.535V55.092H244.619V54.276ZM252.539 53.088H253.499V63.936H252.539V53.088ZM249.011 56.976H250.763V57.804H249.011V56.976ZM250.355 53.352H251.279V63.372H250.355V53.352ZM255.334 61.764H265.162V62.592H255.334V61.764ZM259.714 58.956H260.71V62.136H259.714V58.956ZM256.186 54.12H264.238V54.936H256.186V54.12ZM256.21 58.488H264.226V59.292H256.21V58.488ZM257.878 54.78H258.874V58.632H257.878V54.78ZM261.574 54.78H262.558V58.632H261.574V54.78ZM266.373 61.728H276.201V62.556H266.373V61.728ZM270.777 55.392H271.653V55.632C271.653 57.924 269.673 59.46 267.345 59.928L266.949 59.112C269.025 58.74 270.777 57.384 270.777 55.632V55.392ZM270.909 55.392H271.773V55.632C271.773 57.384 273.525 58.74 275.601 59.112L275.205 59.928C272.877 59.46 270.909 57.924 270.909 55.632V55.392ZM267.273 54.816H275.265V55.632H267.273V54.816ZM270.777 53.34H271.773V55.116H270.777V53.34Z" fill="#F2F7FA"/>
<path d="M30.7095 38.28H33.3895V51.82H30.7095V38.28ZM21.0495 54.34H33.8495V56.46H21.0495V54.34ZM21.0495 50.62H23.7095V55.58H21.0495V50.62ZM22.5095 41.92H24.6895V42.58C24.6895 45.9 22.9895 48.84 19.4095 49.88L18.1495 47.8C21.1895 46.92 22.5095 44.74 22.5095 42.58V41.92ZM23.0095 41.92H25.1695V42.58C25.1695 44.6 26.5095 46.66 29.5495 47.5L28.3095 49.58C24.7095 48.58 23.0095 45.76 23.0095 42.58V41.92ZM18.7695 40.4H28.8895V42.48H18.7695V40.4ZM22.5095 38.36H25.1695V41.26H22.5095V38.36ZM38.3079 39.34H49.9279V41.44H38.3079V39.34ZM36.4079 47.22H53.1479V49.36H36.4079V47.22ZM43.3479 48.72H46.0279V56.8H43.3479V48.72ZM48.5679 39.34H51.1879V40.98C51.1879 42.98 51.1879 45.22 50.4679 48.5L47.8479 48.2C48.5679 45.1 48.5679 42.9 48.5679 40.98V39.34ZM58.9463 47.64H61.6063V52.02H58.9463V47.64ZM60.2463 39.34C63.1063 39.34 65.2863 41.24 65.2863 43.9C65.2863 46.56 63.1063 48.46 60.2463 48.46C57.3663 48.46 55.2063 46.56 55.2063 43.9C55.2063 41.24 57.3663 39.34 60.2463 39.34ZM60.2463 41.6C58.8463 41.6 57.8063 42.44 57.8063 43.9C57.8063 45.34 58.8463 46.2 60.2463 46.2C61.6463 46.2 62.6863 45.34 62.6863 43.9C62.6863 42.44 61.6463 41.6 60.2463 41.6ZM66.7463 38.26H69.4063V56.78H66.7463V38.26ZM68.5863 45.5H71.8463V47.72H68.5863V45.5ZM54.9063 53.1L54.5863 50.96C57.7863 50.94 62.1063 50.96 65.7863 50.46L65.9863 52.4C62.1463 53.12 58.0263 53.12 54.9063 53.1ZM81.6737 51.76H84.3537V56.82H81.6737V51.76ZM88.0737 51.76H90.7537V56.82H88.0737V51.76ZM78.6137 40.12H93.6937V42.2H78.6137V40.12ZM77.8337 50.12H94.5937V52.24H77.8337V50.12ZM86.1937 42.92C90.1737 42.92 92.5337 44.04 92.5337 46.06C92.5337 48.1 90.1737 49.24 86.1937 49.24C82.1937 49.24 79.8337 48.1 79.8337 46.06C79.8337 44.04 82.1937 42.92 86.1937 42.92ZM86.1937 44.88C83.7737 44.88 82.5937 45.24 82.5937 46.06C82.5937 46.9 83.7737 47.26 86.1937 47.26C88.6137 47.26 89.7937 46.9 89.7937 46.06C89.7937 45.24 88.6137 44.88 86.1937 44.88ZM84.8537 38.24H87.5137V41.58H84.8537V38.24ZM109.972 40.54H113.172V42.7H109.972V40.54ZM109.972 44.56H113.172V46.72H109.972V44.56ZM101.372 39.26C104.232 39.26 106.412 41.14 106.412 43.76C106.412 46.36 104.232 48.24 101.372 48.24C98.5121 48.24 96.3321 46.36 96.3321 43.76C96.3321 41.14 98.5121 39.26 101.372 39.26ZM101.372 41.48C99.9721 41.48 98.9321 42.34 98.9321 43.76C98.9321 45.2 99.9721 46.02 101.372 46.02C102.772 46.02 103.812 45.2 103.812 43.76C103.812 42.34 102.772 41.48 101.372 41.48ZM108.132 38.26H110.792V49.06H108.132V38.26ZM104.752 49.46C108.572 49.46 111.012 50.84 111.012 53.12C111.012 55.42 108.572 56.78 104.752 56.78C100.912 56.78 98.4721 55.42 98.4721 53.12C98.4721 50.84 100.912 49.46 104.752 49.46ZM104.752 51.56C102.392 51.56 101.112 52.06 101.112 53.12C101.112 54.2 102.392 54.7 104.752 54.7C107.112 54.7 108.372 54.2 108.372 53.12C108.372 52.06 107.112 51.56 104.752 51.56Z" fill="white"/>
<path d="M219.933 21.157C219.204 21.1539 218.581 20.9615 218.064 20.5799C217.547 20.1983 217.151 19.6428 216.877 18.9134C216.603 18.1839 216.466 17.3053 216.466 16.2773C216.466 15.2525 216.603 14.3769 216.877 13.6506C217.154 12.9242 217.551 12.3703 218.068 11.9886C218.588 11.607 219.21 11.4162 219.933 11.4162C220.657 11.4162 221.277 11.6085 221.794 11.9933C222.311 12.3749 222.706 12.9289 222.98 13.6552C223.257 14.3784 223.396 15.2525 223.396 16.2773C223.396 17.3084 223.259 18.1886 222.985 18.918C222.711 19.6443 222.316 20.1998 221.798 20.5845C221.281 20.9661 220.66 21.157 219.933 21.157ZM219.933 19.9244C220.574 19.9244 221.074 19.612 221.434 18.9872C221.797 18.3625 221.979 17.4592 221.979 16.2773C221.979 15.4925 221.895 14.8293 221.729 14.2876C221.566 13.7429 221.331 13.3305 221.023 13.0504C220.718 12.7673 220.355 12.6257 219.933 12.6257C219.296 12.6257 218.796 12.9396 218.433 13.5675C218.07 14.1953 217.887 15.0986 217.884 16.2773C217.884 17.0652 217.965 17.7315 218.128 18.2763C218.295 18.8179 218.53 19.2288 218.835 19.5089C219.139 19.7859 219.506 19.9244 219.933 19.9244ZM228.154 21.1293C227.576 21.1293 227.055 21.0185 226.594 20.7969C226.135 20.5722 225.769 20.2644 225.495 19.8736C225.221 19.4827 225.075 19.0365 225.057 18.5348H226.441C226.475 18.9411 226.655 19.275 226.982 19.5366C227.308 19.7982 227.699 19.929 228.154 19.929C228.517 19.929 228.839 19.8459 229.119 19.6797C229.402 19.5104 229.624 19.2781 229.784 18.9826C229.947 18.6871 230.028 18.3501 230.028 17.9716C230.028 17.5869 229.945 17.2437 229.779 16.9421C229.613 16.6405 229.384 16.4035 229.091 16.2312C228.802 16.0588 228.47 15.9711 228.094 15.968C227.808 15.968 227.52 16.0173 227.231 16.1158C226.942 16.2143 226.708 16.3435 226.529 16.5036L225.223 16.3097L225.754 11.5455H230.952V12.7688H226.94L226.64 15.4141H226.695C226.88 15.2356 227.125 15.0863 227.429 14.9663C227.737 14.8462 228.066 14.7862 228.417 14.7862C228.993 14.7862 229.505 14.9232 229.955 15.1971C230.407 15.471 230.763 15.8449 231.021 16.3189C231.283 16.7898 231.412 17.3314 231.409 17.9439C231.412 18.5563 231.273 19.1026 230.993 19.5827C230.716 20.0629 230.332 20.4414 229.839 20.7184C229.35 20.9923 228.788 21.1293 228.154 21.1293ZM233.68 21.0877C233.428 21.0877 233.211 20.9985 233.029 20.82C232.848 20.6384 232.757 20.4199 232.757 20.1644C232.757 19.9121 232.848 19.6966 233.029 19.5181C233.211 19.3365 233.428 19.2457 233.68 19.2457C233.932 19.2457 234.149 19.3365 234.331 19.5181C234.513 19.6966 234.603 19.9121 234.603 20.1644C234.603 20.3337 234.56 20.4891 234.474 20.6307C234.391 20.7692 234.28 20.88 234.142 20.9631C234.003 21.0462 233.849 21.0877 233.68 21.0877ZM238.878 11.5455V21H237.447V12.9766H237.392L235.13 14.4538V13.0874L237.489 11.5455H238.878ZM244.557 21.1293C243.978 21.1293 243.458 21.0185 242.996 20.7969C242.538 20.5722 242.171 20.2644 241.897 19.8736C241.624 19.4827 241.477 19.0365 241.459 18.5348H242.844C242.878 18.9411 243.058 19.275 243.384 19.5366C243.71 19.7982 244.101 19.929 244.557 19.929C244.92 19.929 245.241 19.8459 245.521 19.6797C245.805 19.5104 246.026 19.2781 246.186 18.9826C246.349 18.6871 246.431 18.3501 246.431 17.9716C246.431 17.5869 246.348 17.2437 246.182 16.9421C246.015 16.6405 245.786 16.4035 245.494 16.2312C245.204 16.0588 244.872 15.9711 244.497 15.968C244.21 15.968 243.923 16.0173 243.633 16.1158C243.344 16.2143 243.11 16.3435 242.932 16.5036L241.625 16.3097L242.156 11.5455H247.354V12.7688H243.342L243.042 15.4141H243.098C243.282 15.2356 243.527 15.0863 243.832 14.9663C244.14 14.8462 244.469 14.7862 244.82 14.7862C245.395 14.7862 245.908 14.9232 246.357 15.1971C246.809 15.471 247.165 15.8449 247.423 16.3189C247.685 16.7898 247.814 17.3314 247.811 17.9439C247.814 18.5563 247.676 19.1026 247.396 19.5827C247.119 20.0629 246.734 20.4414 246.242 20.7184C245.752 20.9923 245.191 21.1293 244.557 21.1293ZM250.082 21.0877C249.83 21.0877 249.613 20.9985 249.432 20.82C249.25 20.6384 249.159 20.4199 249.159 20.1644C249.159 19.9121 249.25 19.6966 249.432 19.5181C249.613 19.3365 249.83 19.2457 250.082 19.2457C250.335 19.2457 250.552 19.3365 250.733 19.5181C250.915 19.6966 251.006 19.9121 251.006 20.1644C251.006 20.3337 250.963 20.4891 250.877 20.6307C250.793 20.7692 250.683 20.88 250.544 20.9631C250.406 21.0462 250.252 21.0877 250.082 21.0877ZM256.544 17.076C256.544 15.9188 256.697 14.8539 257.001 13.8814C257.306 12.9089 257.751 12.0117 258.336 11.19H259.6C259.373 11.4947 259.16 11.8686 258.963 12.3118C258.766 12.755 258.594 13.2412 258.446 13.7706C258.299 14.2969 258.183 14.8432 258.1 15.4094C258.017 15.9727 257.975 16.5282 257.975 17.076C257.975 17.8085 258.048 18.5502 258.192 19.3011C258.337 20.0521 258.533 20.7492 258.779 21.3924C259.025 22.0356 259.299 22.5604 259.6 22.9666H258.336C257.751 22.1449 257.306 21.2478 257.001 20.2752C256.697 19.3027 256.544 18.2363 256.544 17.076ZM265.523 10.678H266.472V11.328C266.472 13.577 264.184 15.189 261.74 15.605L261.311 14.734C263.456 14.409 265.523 13.005 265.523 11.328V10.678ZM265.718 10.678H266.654V11.328C266.654 12.966 268.747 14.409 270.866 14.734L270.437 15.605C268.019 15.189 265.718 13.551 265.718 11.328V10.678ZM265.523 17.542H266.589V22.014H265.523V17.542ZM260.778 16.879H271.399V17.776H260.778V16.879ZM275.669 17.076C275.669 18.2363 275.517 19.3027 275.212 20.2752C274.908 21.2478 274.463 22.1449 273.878 22.9666H272.613C272.841 22.6619 273.053 22.288 273.25 21.8448C273.447 21.4016 273.62 20.9169 273.767 20.3906C273.915 19.8613 274.03 19.3134 274.114 18.7472C274.197 18.1809 274.238 17.6238 274.238 17.076C274.238 16.3466 274.166 15.6064 274.021 14.8555C273.877 14.1045 273.681 13.4074 273.435 12.7642C273.189 12.121 272.915 11.5962 272.613 11.19H273.878C274.463 12.0117 274.908 12.9089 275.212 13.8814C275.517 14.8539 275.669 15.9188 275.669 17.076Z" fill="white"/>
<path d="M84 16H210" stroke="#ABCFFF" stroke-width="1.5" stroke-linecap="round"/>
<path d="M128 94H158" stroke="#ABCFFF" stroke-width="1.5" stroke-linecap="round"/>
<path d="M205 94H235" stroke="#ABCFFF" stroke-width="1.5" stroke-linecap="round"/>
<path d="M21.3768 21.157C20.6474 21.1539 20.0241 20.9615 19.5071 20.5799C18.9901 20.1983 18.5946 19.6428 18.3207 18.9134C18.0468 18.1839 17.9098 17.3053 17.9098 16.2773C17.9098 15.2525 18.0468 14.3769 18.3207 13.6506C18.5977 12.9242 18.9947 12.3703 19.5117 11.9886C20.0318 11.607 20.6535 11.4162 21.3768 11.4162C22.1 11.4162 22.7202 11.6085 23.2372 11.9933C23.7543 12.3749 24.1497 12.9289 24.4237 13.6552C24.7006 14.3784 24.8391 15.2525 24.8391 16.2773C24.8391 17.3084 24.7022 18.1886 24.4283 18.918C24.1544 19.6443 23.7589 20.1998 23.2418 20.5845C22.7248 20.9661 22.1031 21.157 21.3768 21.157ZM21.3768 19.9244C22.0169 19.9244 22.517 19.612 22.8771 18.9872C23.2403 18.3625 23.4219 17.4592 23.4219 16.2773C23.4219 15.4925 23.3388 14.8293 23.1726 14.2876C23.0095 13.7429 22.774 13.3305 22.4663 13.0504C22.1616 12.7673 21.7984 12.6257 21.3768 12.6257C20.7397 12.6257 20.2396 12.9396 19.8764 13.5675C19.5133 14.1953 19.3301 15.0986 19.3271 16.2773C19.3271 17.0652 19.4086 17.7315 19.5717 18.2763C19.7379 18.8179 19.9734 19.2288 20.2781 19.5089C20.5827 19.7859 20.949 19.9244 21.3768 19.9244ZM29.5976 21.1293C29.019 21.1293 28.4988 21.0185 28.0372 20.7969C27.5786 20.5722 27.2124 20.2644 26.9385 19.8736C26.6646 19.4827 26.5184 19.0365 26.4999 18.5348H27.8849C27.9187 18.9411 28.0988 19.275 28.425 19.5366C28.7512 19.7982 29.1421 19.929 29.5976 19.929C29.9607 19.929 30.2823 19.8459 30.5624 19.6797C30.8456 19.5104 31.0671 19.2781 31.2272 18.9826C31.3903 18.6871 31.4719 18.3501 31.4719 17.9716C31.4719 17.5869 31.3888 17.2437 31.2226 16.9421C31.0564 16.6405 30.8271 16.4035 30.5347 16.2312C30.2454 16.0588 29.913 15.9711 29.5376 15.968C29.2513 15.968 28.9636 16.0173 28.6743 16.1158C28.385 16.2143 28.1511 16.3435 27.9726 16.5036L26.6661 16.3097L27.197 11.5455H32.3952V12.7688H28.3834L28.0834 15.4141H28.1388C28.3234 15.2356 28.5681 15.0863 28.8728 14.9663C29.1805 14.8462 29.5099 14.7862 29.8607 14.7862C30.4362 14.7862 30.9487 14.9232 31.398 15.1971C31.8504 15.471 32.2059 15.8449 32.4644 16.3189C32.726 16.7898 32.8553 17.3314 32.8522 17.9439C32.8553 18.5563 32.7168 19.1026 32.4367 19.5827C32.1597 20.0629 31.775 20.4414 31.2826 20.7184C30.7932 20.9923 30.2316 21.1293 29.5976 21.1293ZM35.1235 21.0877C34.8711 21.0877 34.6541 20.9985 34.4726 20.82C34.291 20.6384 34.2002 20.4199 34.2002 20.1644C34.2002 19.9121 34.291 19.6966 34.4726 19.5181C34.6541 19.3365 34.8711 19.2457 35.1235 19.2457C35.3759 19.2457 35.5928 19.3365 35.7744 19.5181C35.956 19.6966 36.0468 19.9121 36.0468 20.1644C36.0468 20.3337 36.0037 20.4891 35.9175 20.6307C35.8344 20.7692 35.7236 20.88 35.5851 20.9631C35.4466 21.0462 35.2928 21.0877 35.1235 21.0877ZM40.3216 11.5455V21H38.8905V12.9766H38.8351L36.5731 14.4538V13.0874L38.9321 11.5455H40.3216ZM46.1707 21.1293C45.5367 21.1293 44.9704 21.02 44.4719 20.8015C43.9764 20.583 43.584 20.2798 43.2947 19.892C43.0084 19.5012 42.8546 19.0488 42.833 18.5348H44.2826C44.301 18.8149 44.3949 19.058 44.5642 19.2642C44.7365 19.4673 44.9612 19.6243 45.2382 19.7351C45.5152 19.8459 45.8229 19.9013 46.1615 19.9013C46.5339 19.9013 46.8632 19.8366 47.1494 19.7074C47.4387 19.5781 47.6649 19.3981 47.828 19.1673C47.9912 18.9334 48.0727 18.6641 48.0727 18.3594C48.0727 18.0424 47.9912 17.7638 47.828 17.5238C47.668 17.2807 47.4326 17.0898 47.1217 16.9513C46.814 16.8129 46.4416 16.7436 46.0045 16.7436H45.2059V15.5803H46.0045C46.3554 15.5803 46.6631 15.5172 46.9278 15.391C47.1956 15.2648 47.4049 15.0894 47.5557 14.8647C47.7065 14.637 47.7819 14.3707 47.7819 14.0661C47.7819 13.7737 47.7157 13.5198 47.5834 13.3043C47.4541 13.0858 47.2694 12.915 47.0294 12.7919C46.7924 12.6688 46.5123 12.6072 46.1892 12.6072C45.8814 12.6072 45.5937 12.6642 45.3259 12.7781C45.0612 12.8888 44.8458 13.0489 44.6796 13.2582C44.5134 13.4644 44.4242 13.7121 44.4118 14.0014H43.0315C43.0469 13.4905 43.1977 13.0412 43.4839 12.6534C43.7732 12.2656 44.1549 11.9625 44.6288 11.744C45.1028 11.5254 45.6291 11.4162 46.2077 11.4162C46.814 11.4162 47.3372 11.5347 47.7773 11.7717C48.2204 12.0056 48.5621 12.3179 48.8021 12.7088C49.0452 13.0997 49.1653 13.5275 49.1622 13.9922C49.1653 14.5215 49.0175 14.9709 48.719 15.3402C48.4236 15.7095 48.0296 15.9573 47.5372 16.0835V16.1573C48.165 16.2527 48.6513 16.502 48.996 16.9052C49.3438 17.3084 49.5161 17.8085 49.5131 18.4055C49.5161 18.9257 49.3715 19.3919 49.0791 19.8043C48.7898 20.2167 48.3943 20.5414 47.8927 20.7784C47.391 21.0123 46.817 21.1293 46.1707 21.1293ZM51.9067 21.0877C51.6543 21.0877 51.4374 20.9985 51.2558 20.82C51.0742 20.6384 50.9834 20.4199 50.9834 20.1644C50.9834 19.9121 51.0742 19.6966 51.2558 19.5181C51.4374 19.3365 51.6543 19.2457 51.9067 19.2457C52.1591 19.2457 52.376 19.3365 52.5576 19.5181C52.7392 19.6966 52.83 19.9121 52.83 20.1644C52.83 20.3337 52.7869 20.4891 52.7007 20.6307C52.6176 20.7692 52.5068 20.88 52.3683 20.9631C52.2298 21.0462 52.076 21.0877 51.9067 21.0877ZM58.3686 17.076C58.3686 15.9188 58.521 14.8539 58.8256 13.8814C59.1303 12.9089 59.575 12.0117 60.1598 11.19H61.4247C61.197 11.4947 60.9846 11.8686 60.7876 12.3118C60.5907 12.755 60.4183 13.2412 60.2706 13.7706C60.1229 14.2969 60.0075 14.8432 59.9244 15.4094C59.8413 15.9727 59.7997 16.5282 59.7997 17.076C59.7997 17.8085 59.872 18.5502 60.0167 19.3011C60.1613 20.0521 60.3568 20.7492 60.603 21.3924C60.8492 22.0356 61.1231 22.5604 61.4247 22.9666H60.1598C59.575 22.1449 59.1303 21.2478 58.8256 20.2752C58.521 19.3027 58.3686 18.2363 58.3686 17.076ZM65.7481 15.124H66.8271V17.217H65.7481V15.124ZM71.1431 10.262H72.2221V17.178H71.1431V10.262ZM62.6931 15.488L62.5631 14.682C64.8251 14.682 67.6981 14.669 70.2071 14.383L70.2721 15.085C67.6981 15.462 64.8901 15.488 62.6931 15.488ZM64.3441 17.607H72.2221V20.051H65.4231V21.377H64.3701V19.336H71.1561V18.387H64.3441V17.607ZM64.3701 21.104H72.6121V21.884H64.3701V21.104ZM68.8031 15.852H71.4811V16.554H68.8031V15.852ZM66.3591 10.483C68.1011 10.483 69.2451 11.159 69.2451 12.251C69.2451 13.343 68.1011 14.019 66.3591 14.019C64.6041 14.019 63.4601 13.343 63.4601 12.251C63.4601 11.159 64.6041 10.483 66.3591 10.483ZM66.3591 11.237C65.2021 11.237 64.4611 11.627 64.4611 12.251C64.4611 12.875 65.2021 13.265 66.3591 13.265C67.4901 13.265 68.2311 12.875 68.2311 12.251C68.2311 11.627 67.4901 11.237 66.3591 11.237ZM77.4935 17.076C77.4935 18.2363 77.3412 19.3027 77.0365 20.2752C76.7318 21.2478 76.2871 22.1449 75.7023 22.9666H74.4374C74.6652 22.6619 74.8775 22.288 75.0745 21.8448C75.2715 21.4016 75.4438 20.9169 75.5915 20.3906C75.7393 19.8613 75.8547 19.3134 75.9378 18.7472C76.0209 18.1809 76.0624 17.6238 76.0624 17.076C76.0624 16.3466 75.9901 15.6064 75.8454 14.8555C75.7008 14.1045 75.5054 13.4074 75.2591 12.7642C75.0129 12.121 74.739 11.5962 74.4374 11.19H75.7023C76.2871 12.0117 76.7318 12.9089 77.0365 13.8814C77.3412 14.8539 77.4935 15.9188 77.4935 17.076Z" fill="white"/>
<rect x="18" y="81" width="60" height="27" rx="9" fill="white" stroke="#67A4FD" stroke-width="2"/>
<path d="M29.6409 99.1293C28.9515 99.1293 28.3375 99.0108 27.7989 98.7738C27.2634 98.5337 26.8402 98.2044 26.5294 97.7859C26.2216 97.3642 26.0631 96.878 26.0539 96.3271H28.0667C28.079 96.5579 28.1544 96.761 28.2929 96.9364C28.4345 97.1088 28.6222 97.2427 28.8561 97.3381C29.09 97.4335 29.3531 97.4812 29.6455 97.4812C29.9502 97.4812 30.2195 97.4273 30.4534 97.3196C30.6873 97.2119 30.8704 97.0626 31.0028 96.8718C31.1351 96.681 31.2013 96.4609 31.2013 96.2116C31.2013 95.9593 31.1305 95.7362 30.9889 95.5423C30.8504 95.3453 30.6504 95.1914 30.3888 95.0806C30.1302 94.9698 29.8225 94.9144 29.4655 94.9144H28.5837V93.4464H29.4655C29.7671 93.4464 30.0333 93.3941 30.2641 93.2894C30.498 93.1848 30.6796 93.0401 30.8089 92.8555C30.9381 92.6677 31.0028 92.4492 31.0028 92.1999C31.0028 91.9629 30.9458 91.7552 30.8319 91.5767C30.7211 91.3951 30.5642 91.2536 30.3611 91.152C30.161 91.0504 29.9271 90.9996 29.6594 90.9996C29.3885 90.9996 29.1408 91.0489 28.9161 91.1474C28.6914 91.2428 28.5114 91.3797 28.376 91.5582C28.2406 91.7367 28.1682 91.946 28.159 92.1861H26.2432C26.2524 91.6413 26.4078 91.1612 26.7094 90.7457C27.011 90.3303 27.4173 90.0056 27.9282 89.7717C28.4421 89.5347 29.0223 89.4162 29.6686 89.4162C30.3211 89.4162 30.892 89.5347 31.3813 89.7717C31.8707 90.0086 32.2507 90.3287 32.5216 90.7319C32.7955 91.132 32.9309 91.5813 32.9278 92.0799C32.9309 92.6093 32.7662 93.0509 32.4339 93.4048C32.1046 93.7588 31.6752 93.9834 31.1459 94.0788V94.1527C31.8414 94.242 32.3708 94.4835 32.7339 94.8775C33.1002 95.2683 33.2818 95.7577 33.2787 96.3455C33.2818 96.8841 33.1263 97.3627 32.8124 97.7812C32.5016 98.1998 32.0722 98.5291 31.5244 98.7692C30.9766 99.0092 30.3488 99.1293 29.6409 99.1293ZM41.1313 99H37.7797V89.5455H41.159C42.11 89.5455 42.9287 89.7347 43.615 90.1133C44.3013 90.4888 44.8291 91.0289 45.1984 91.7337C45.5708 92.4384 45.757 93.2817 45.757 94.2635C45.757 95.2483 45.5708 96.0947 45.1984 96.8026C44.8291 97.5104 44.2982 98.0536 43.6057 98.4322C42.9163 98.8107 42.0915 99 41.1313 99ZM39.7787 97.2873H41.0482C41.6391 97.2873 42.1362 97.1826 42.5393 96.9734C42.9456 96.761 43.2503 96.4332 43.4534 95.9901C43.6596 95.5438 43.7627 94.9683 43.7627 94.2635C43.7627 93.5649 43.6596 92.994 43.4534 92.5508C43.2503 92.1076 42.9471 91.7814 42.5439 91.5721C42.1408 91.3628 41.6437 91.2582 41.0528 91.2582H39.7787V97.2873ZM49.2228 99.1339C48.7704 99.1339 48.3672 99.0554 48.0133 98.8984C47.6594 98.7384 47.3793 98.503 47.1731 98.1921C46.97 97.8782 46.8684 97.4873 46.8684 97.0195C46.8684 96.6256 46.9408 96.2947 47.0854 96.027C47.2301 95.7592 47.427 95.5438 47.6763 95.3807C47.9256 95.2176 48.2087 95.0945 48.5257 95.0114C48.8458 94.9283 49.1813 94.8698 49.5321 94.8359C49.9445 94.7929 50.2769 94.7528 50.5293 94.7159C50.7817 94.6759 50.9648 94.6174 51.0787 94.5405C51.1925 94.4635 51.2495 94.3497 51.2495 94.1989V94.1712C51.2495 93.8788 51.1571 93.6526 50.9725 93.4925C50.7909 93.3325 50.5324 93.2525 50.1969 93.2525C49.843 93.2525 49.5614 93.331 49.3521 93.4879C49.1428 93.6418 49.0043 93.8357 48.9366 94.0696L47.1177 93.9219C47.21 93.491 47.3916 93.1186 47.6625 92.8047C47.9333 92.4877 48.2826 92.2446 48.7104 92.0753C49.1413 91.9029 49.6399 91.8168 50.2061 91.8168C50.6001 91.8168 50.9771 91.8629 51.3372 91.9553C51.7003 92.0476 52.022 92.1907 52.302 92.3846C52.5852 92.5785 52.8083 92.8278 52.9714 93.1325C53.1345 93.4341 53.2161 93.7957 53.2161 94.2173V99H51.351V98.0167H51.2956C51.1818 98.2383 51.0294 98.4337 50.8386 98.603C50.6478 98.7692 50.4185 98.9 50.1507 98.9954C49.883 99.0877 49.5737 99.1339 49.2228 99.1339ZM49.786 97.7766C50.0753 97.7766 50.3308 97.7197 50.5524 97.6058C50.774 97.4889 50.9479 97.3319 51.074 97.1349C51.2002 96.938 51.2633 96.7148 51.2633 96.4656V95.7131C51.2018 95.7531 51.1171 95.79 51.0094 95.8239C50.9048 95.8546 50.7863 95.8839 50.6539 95.9116C50.5216 95.9362 50.3893 95.9593 50.2569 95.9808C50.1246 95.9993 50.0046 96.0162 49.8968 96.0316C49.666 96.0655 49.4644 96.1193 49.2921 96.1932C49.1197 96.267 48.9859 96.3671 48.8904 96.4933C48.795 96.6164 48.7473 96.7702 48.7473 96.9549C48.7473 97.2227 48.8443 97.4273 49.0382 97.5689C49.2351 97.7074 49.4844 97.7766 49.786 97.7766ZM55.7021 101.659C55.4528 101.659 55.2189 101.639 55.0004 101.599C54.7849 101.562 54.6064 101.514 54.4648 101.456L54.908 99.9879C55.1388 100.059 55.3466 100.097 55.5312 100.103C55.719 100.109 55.8806 100.066 56.016 99.9741C56.1545 99.8817 56.2668 99.7248 56.353 99.5032L56.4684 99.2031L53.9247 91.9091H55.9929L57.4609 97.1165H57.5348L59.0167 91.9091H61.0987L58.3427 99.7663C58.2103 100.148 58.0303 100.48 57.8026 100.763C57.5779 101.05 57.2932 101.27 56.9485 101.424C56.6038 101.581 56.1883 101.659 55.7021 101.659ZM68.005 93.9311L66.2045 94.0419C66.1738 93.888 66.1076 93.7495 66.006 93.6264C65.9045 93.5002 65.7706 93.4002 65.6044 93.3263C65.4413 93.2494 65.2459 93.2109 65.0181 93.2109C64.7134 93.2109 64.4564 93.2756 64.2472 93.4048C64.0379 93.531 63.9332 93.7003 63.9332 93.9126C63.9332 94.0819 64.0009 94.225 64.1364 94.342C64.2718 94.4589 64.5041 94.5528 64.8335 94.6236L66.1168 94.8821C66.8062 95.0237 67.3202 95.2514 67.6587 95.5653C67.9973 95.8793 68.1665 96.2917 68.1665 96.8026C68.1665 97.2673 68.0296 97.6751 67.7557 98.0259C67.4848 98.3768 67.1125 98.6507 66.6385 98.8477C66.1676 99.0415 65.6244 99.1385 65.0089 99.1385C64.0702 99.1385 63.3223 98.9431 62.7653 98.5522C62.2113 98.1583 61.8866 97.6228 61.7912 96.9457L63.7255 96.8441C63.784 97.1303 63.9255 97.3488 64.1502 97.4996C64.3749 97.6474 64.6626 97.7212 65.0135 97.7212C65.3582 97.7212 65.6352 97.6551 65.8445 97.5227C66.0568 97.3873 66.1645 97.2134 66.1676 97.0011C66.1645 96.8226 66.0891 96.6764 65.9414 96.5625C65.7937 96.4455 65.5659 96.3563 65.2582 96.2947L64.0302 96.0501C63.3377 95.9116 62.8222 95.6715 62.4837 95.3299C62.1482 94.9883 61.9805 94.5528 61.9805 94.0234C61.9805 93.5679 62.1036 93.1755 62.3498 92.8462C62.5991 92.5169 62.9484 92.263 63.3977 92.0845C63.8501 91.906 64.3795 91.8168 64.9858 91.8168C65.8814 91.8168 66.5862 92.006 67.1001 92.3846C67.6172 92.7631 67.9188 93.2786 68.005 93.9311Z" fill="#337FED"/>
<defs>
<filter id="filter0_d_2665_10680" x="0" y="0" width="294" height="122" filterUnits="userSpaceOnUse" color-interpolation-filters="sRGB">
<feFlood flood-opacity="0" result="BackgroundImageFix"/>
<feColorMatrix in="SourceAlpha" type="matrix" values="0 0 0 0 0 0 0 0 0 0 0 0 0 0 0 0 0 0 127 0" result="hardAlpha"/>
<feOffset dy="4"/>
<feGaussianBlur stdDeviation="2"/>
<feComposite in2="hardAlpha" operator="out"/>
<feColorMatrix type="matrix" values="0 0 0 0 0 0 0 0 0 0 0 0 0 0 0 0 0 0 0.25 0"/>
<feBlend mode="normal" in2="BackgroundImageFix" result="effect1_dropShadow_2665_10680"/>
<feBlend mode="normal" in="SourceGraphic" in2="effect1_dropShadow_2665_10680" result="shape"/>
</filter>
</defs>
</svg>
