<svg xmlns="http://www.w3.org/2000/svg" width="125" height="124" fill="none"><g filter="url(#a)"><rect width="102" height="107" x="3" fill="#0538FF" rx="30"/></g><path fill="#fff" d="M15.529 32.04h7.161v1.144h-7.161zm-1.078 2.585h9.218v1.188h-9.218zm1.078-7.095h7.073v1.177h-5.588v3.652h-1.485zm1.034 2.244h5.808v1.133h-5.808zm8.271 3.751h.715c1.21 0 2.277-.022 3.531-.22l.11 1.177c-1.298.22-2.398.253-3.64.253h-.716zm-.01-5.742h3.86v3.938h-2.43v2.244h-1.42v-3.399h2.431v-1.617h-2.442zm7.094-.99h1.386v10.186h-1.386zm-1.364 3.85h1.694v1.166h-1.694zm-.913-3.674h1.353v9.526h-1.353zm5.84.099h7.59v1.089h-7.59zm.077 2.387h7.436v1.089h-7.436zm1.221-1.958h1.463v2.662H36.78zm3.531 0h1.463v2.662H40.31zm-5.632 3.575h9.207v1.144h-9.207zm1.056 1.705h7.04v2.53h-5.588v.946h-1.44v-1.925h5.587v-.506h-5.599zm.011 3.069h7.293v1.067h-7.293zm16.114-9.064h1.463v10.219H51.86zm-1.595 3.674h1.892v1.177h-1.892zm-5.115 2.981h.836c1.65 0 2.96-.033 4.433-.286l.132 1.188c-1.507.253-2.87.308-4.565.308h-.836zm-.022-5.786h4.587v3.828h-3.113V33.8H45.15v-3.476h3.124v-1.507h-3.146zm9.8 3.091h9.219v1.155h-9.218zm1.134-1.694h6.996v1.144H56.06zm0-2.068h6.908v1.166h-5.456v1.892H56.06zm-.088 5.489h7.04v2.695h-5.588v.88h-1.441V34.13h5.588v-.561h-5.6zm.01 3.311h7.294v1.122h-7.293zm12.33-8.316c1.607 0 2.806 1.045 2.806 2.508 0 1.474-1.2 2.519-2.805 2.519-1.595 0-2.816-1.045-2.816-2.519 0-1.463 1.22-2.508 2.816-2.508m0 1.254c-.78 0-1.374.462-1.374 1.254 0 .803.594 1.265 1.375 1.265.78 0 1.375-.462 1.375-1.265 0-.792-.594-1.254-1.375-1.254m3.763-1.936h1.463v10.219h-1.463zm-6.82 8.151-.176-1.177c1.793 0 4.29-.022 6.435-.341l.11 1.056c-2.211.44-4.61.462-6.37.462m-43.82 14.86h1.474v5.148h-1.474zm-5.324 5.599h6.798v2.761h-5.346v1.023h-1.43v-2.079h5.324v-.594h-5.346zm.022 3.388h7.029v1.133h-7.029zm.693-8.756h1.21v.77c0 1.881-.946 3.586-2.937 4.191l-.704-1.155c1.705-.517 2.431-1.793 2.431-3.036zm.297 0h1.199v.77c0 1.21.715 2.398 2.376 2.871l-.704 1.133c-1.958-.572-2.871-2.167-2.871-4.004zm9.921.55h1.188v1.485c0 2.618-.902 4.983-2.926 5.918l-.869-1.21c1.771-.77 2.607-2.728 2.607-4.708zm.286 0h1.188v1.485c0 1.881.803 3.751 2.541 4.499l-.858 1.177c-1.969-.902-2.87-3.168-2.87-5.676zm4.213-.792h1.474v10.219h-1.474zm9.68.011h1.473v7.293h-1.474zm1.055 2.838h1.771v1.199h-1.77zm-3.894-2.079h1.562c0 2.772-1.694 4.675-4.73 5.555l-.616-1.166c2.497-.682 3.784-2.046 3.784-3.663zm-3.344 0h4.136v1.177h-4.136zm1.067 8.085h6.93v1.166h-6.93zm0-2.288h1.474v2.805h-1.474zm13.244-4.609h1.089v.297c0 1.617-.66 3.113-2.255 3.707l-.671-1.078c1.287-.495 1.837-1.551 1.837-2.629zm.297 0h1.078v.297c0 1.012.56 1.991 1.837 2.442l-.65 1.078c-1.605-.55-2.265-1.969-2.265-3.52zm-1.848-.836h4.466v1.144H47.8zm1.55-.99h1.376v1.573h-1.375zm5.468-.11h1.386v6.886h-1.386zm-1.177 2.409h1.617v1.188h-1.617zm-.946-2.255h1.364v5.841h-1.364zm-.726 6.259h1.243v.154c0 1.771-1.408 3.212-3.96 3.575l-.517-1.133c2.2-.286 3.234-1.397 3.234-2.442zm.209 0h1.243v.154c0 1.045 1.045 2.156 3.234 2.442l-.517 1.133c-2.552-.363-3.96-1.804-3.96-3.575zm10.075-6.281c2.321 0 3.685.616 3.685 1.738s-1.364 1.738-3.685 1.738c-2.332 0-3.685-.616-3.685-1.738s1.353-1.738 3.685-1.738m0 1.067c-1.474 0-2.167.22-2.167.671 0 .473.693.671 2.167.671s2.167-.198 2.167-.671c0-.451-.693-.671-2.167-.671m-4.609 2.882h9.207v1.155h-9.207zm1.056 1.727h7.04v2.618h-5.588v.902h-1.44v-1.914H64.3v-.517h-5.599zm.011 3.201h7.293v1.1h-7.293zm16.335-6.941h2.772v1.177h-2.772zm0 3.157h2.772v1.177h-2.772zm-1.76-4.532c1.518 0 2.629 1.408 2.629 3.63 0 2.244-1.111 3.652-2.63 3.652-1.528 0-2.628-1.408-2.628-3.652 0-2.222 1.1-3.63 2.629-3.63m0 1.331c-.737 0-1.243.803-1.243 2.299 0 1.518.506 2.332 1.243 2.332.748 0 1.243-.814 1.243-2.332 0-1.496-.495-2.299-1.243-2.299m4.3-2.046h1.453v10.219h-1.452zm10.043.011h1.474v10.186H87.63zm-3.003 1.056h1.452c0 3.113-1.056 5.665-4.675 7.414l-.76-1.166c2.927-1.408 3.983-3.256 3.983-5.984zm-3.443 0h4.136v1.155h-4.136zm14.684 2.123h2.684v1.177h-2.684zm-2.772-2.398h1.188v1.474c0 2.563-.869 4.928-2.783 5.885l-.913-1.177c1.738-.803 2.508-2.772 2.508-4.708zm.308 0h1.166v1.474c0 1.936.737 3.795 2.42 4.543l-.869 1.166c-1.914-.924-2.717-3.168-2.717-5.709zm4.422-.792h1.452v10.219h-1.452zM16.75 77.446h1.463v1.463H16.75zm4.312-4.642h1.463v6.93h-1.463zm.946 2.904h1.793v1.199h-1.793zm-7.524 3.828-.165-1.133c1.826 0 4.235-.011 6.292-.264l.11 1.001c-2.123.363-4.455.385-6.237.396m1.133.605h6.908v2.838h-1.463v-1.716h-5.445zm-1.034-6.6h5.775v1.045h-5.775zm2.893 1.287c1.496 0 2.475.583 2.475 1.518s-.979 1.518-2.475 1.518c-1.507 0-2.486-.583-2.486-1.518s.979-1.518 2.486-1.518m0 .957c-.693 0-1.1.176-1.1.561 0 .363.407.561 1.1.561.682 0 1.089-.198 1.089-.561 0-.385-.407-.561-1.089-.561m-.726-3.069h1.463v1.298H16.75zm14.805.088h1.474v7.315h-1.474zm-5.313 8.833h7.04v1.166h-7.04zm0-2.255h1.463v2.728h-1.463zm1.243-5.94c1.562 0 2.761 1.078 2.761 2.585 0 1.496-1.199 2.585-2.76 2.585-1.563 0-2.773-1.089-2.773-2.585 0-1.507 1.21-2.585 2.772-2.585m0 1.265c-.759 0-1.342.484-1.342 1.32 0 .825.583 1.309 1.342 1.309.748 0 1.331-.484 1.331-1.309 0-.836-.583-1.32-1.33-1.32m7.182-.385h4.873v1.166h-4.873zm2.453 1.617c1.298 0 2.233 1.001 2.233 2.431 0 1.419-.935 2.42-2.233 2.42-1.287 0-2.233-1.001-2.233-2.42 0-1.43.946-2.431 2.233-2.431m0 1.221c-.55 0-.935.44-.935 1.21s.385 1.199.935 1.199.946-.429.946-1.199-.396-1.21-.946-1.21m4.917-4.367h1.397v10.186h-1.397zm-1.22 4.136h1.682v1.177h-1.683zm-.914-3.949h1.364v9.57h-1.364zm-3.498.088h1.441v1.991h-1.44zm8.403 7.546h9.218v1.188h-9.218zm3.861-2.178h1.463V80.9H48.67zm-2.893-4.994h1.452v1.562h4.345v-1.562h1.452v5.302h-7.249zm1.452 2.706v1.43h4.345v-1.43zm11.704.066h1.683v1.188h-1.683zm-2.178-2.541h1.122v1.716c0 2.31-.638 4.565-2.266 5.566l-.88-1.1c1.496-.924 2.024-2.739 2.024-4.466zm.319 0h1.1v1.65c0 1.661.429 3.355 1.815 4.257l-.792 1.144c-1.617-1.001-2.123-3.201-2.123-5.401zm5.203-.88h1.397v10.186h-1.397zm-2.068.154h1.364v9.57h-1.364zm6.863 5.016h1.452v2.86H67.07zm3.696 0h1.463v2.86h-1.463zm-5.72 2.651h9.218v1.188h-9.218zm4.598-7.326c2.189 0 3.806 1.078 3.806 2.739s-1.617 2.728-3.806 2.728c-2.2 0-3.806-1.067-3.806-2.728s1.606-2.739 3.806-2.739m0 1.144c-1.42 0-2.365.583-2.365 1.595 0 1.001.946 1.595 2.365 1.595s2.365-.594 2.365-1.595c0-1.012-.946-1.595-2.365-1.595M79.9 74l-.129 5.648h-1.257L78.389 74zm-.757 8.086a.84.84 0 0 1-.61-.25.83.83 0 0 1-.25-.61.82.82 0 0 1 .25-.601.84.84 0 0 1 .61-.25q.347 0 .601.25a.8.8 0 0 1 .258.602q0 .237-.121.433a.9.9 0 0 1-.313.313.8.8 0 0 1-.425.113"/><circle cx="13" cy="10" r="10" fill="#EA0404"/><defs><filter id="a" width="116" height="124" x="0" y="0" color-interpolation-filters="sRGB" filterUnits="userSpaceOnUse"><feFlood flood-opacity="0" result="BackgroundImageFix"/><feColorMatrix in="SourceAlpha" result="hardAlpha" values="0 0 0 0 0 0 0 0 0 0 0 0 0 0 0 0 0 0 127 0"/><feOffset dx="4" dy="10"/><feGaussianBlur stdDeviation="3.5"/><feComposite in2="hardAlpha" operator="out"/><feColorMatrix values="0 0 0 0 0 0 0 0 0 0 0 0 0 0 0 0 0 0 0.1 0"/><feBlend in2="BackgroundImageFix" result="effect1_dropShadow_3157_920"/><feBlend in="SourceGraphic" in2="effect1_dropShadow_3157_920" result="shape"/></filter></defs></svg>