<svg xmlns="http://www.w3.org/2000/svg" width="178" height="178" fill="none"><path fill="#000" stroke="#fff" d="M113.8 91.554a35.09 35.09 0 0 1-49.63 0 35.095 35.095 0 1 1 49.63 0Zm-24.815 2.38a27.195 27.195 0 1 0 0-54.39 27.196 27.196 0 0 0 0 54.39Z"/><path fill="#000" stroke="#fff" d="m132.101 157.082.063-.04 5.764-11.025.5.003v-.002a9.73 9.73 0 0 0-2.355-6.412 9.73 9.73 0 0 0-5.988-3.289l-.004-.001c-30.536-4.228-51.553-4.612-82.06-.155-4.858.709-8.477 4.942-8.477 9.975a10.04 10.04 0 0 0 2.055 6.111l.002.001a271 271 0 0 0 3.254 4.146l.05.062.066.044a80.2 80.2 0 0 0 44.015 13.073 80.2 80.2 0 0 0 43.115-12.491Zm14.161-12.589.094 1.099.764-.794a80.32 80.32 0 0 0 22.453-55.813c0-44.506-36.081-80.586-80.587-80.586S8.399 44.479 8.399 88.985a80.32 80.32 0 0 0 22.462 55.822l.76.789.098-1.092c.727-8.129 6.855-14.948 15.16-16.159 31.337-4.579 53.109-4.167 84.284.148l.069-.496-.068.496c8.255 1.141 14.405 7.897 15.098 16Zm31.21-55.507c0 48.871-39.615 88.486-88.486 88.486C40.116 177.472.5 137.857.5 88.986.5 40.116 40.115.5 88.986.5s88.486 39.615 88.486 88.486Z"/></svg>