<svg width="400" height="300" viewBox="0 0 400 300" fill="none" xmlns="http://www.w3.org/2000/svg">
<path d="M0 30C0 13.4315 13.4315 0 30 0H370C386.569 0 400 13.4315 400 30V270C400 286.569 386.569 300 370 300H30C13.4315 300 0 286.569 0 270V30Z" fill="white" fill-opacity="0.5"/>
<path d="M31.6066 38.312H50.0646V40.622H31.6066V38.312ZM39.3066 39.478H42.2106V46.958H39.3066V39.478ZM33.7186 27.356H36.6226V29.666H44.9826V27.356H47.8866V36.376H33.7186V27.356ZM36.6226 31.954V34.044H44.9826V31.954H36.6226ZM56.4208 27.84H58.8188V30.04C58.8188 34.088 56.9928 37.564 53.0988 38.906L51.5368 36.618C54.9908 35.518 56.4208 32.79 56.4208 30.04V27.84ZM56.9928 27.84H59.3688V30.062C59.3688 32.614 60.7548 35.166 64.0328 36.244L62.5368 38.51C58.7528 37.256 56.9928 33.89 56.9928 30.062V27.84ZM64.9568 26.586H67.8828V41.48H64.9568V26.586ZM67.0468 32.482H70.5888V34.902H67.0468V32.482ZM54.7488 44.274H68.6088V46.606H54.7488V44.274ZM54.7488 40.072H57.6968V45.506H54.7488V40.072ZM82.8301 28.3984V48.3281H77.6973V46.4766H80.5957V30.25H77.6973V28.3984H82.8301Z" fill="black"/>
<path d="M26.882 90.762H41.642V91.986H26.882V90.762ZM33.47 91.338H34.946V97.404H33.47V91.338ZM28.736 81.78H30.23V84.012H38.276V81.78H39.752V88.818H28.736V81.78ZM30.23 85.218V87.612H38.276V85.218H30.23ZM47.4546 82.122H48.6786V84.12C48.6786 87.306 46.9146 89.844 44.1786 90.906L43.3866 89.718C45.8706 88.836 47.4546 86.64 47.4546 84.12V82.122ZM47.7066 82.122H48.9306V84.174C48.9306 86.388 50.5506 88.476 52.9266 89.322L52.1886 90.492C49.5066 89.52 47.7066 87.036 47.7066 84.174V82.122ZM54.5826 81.114H56.0766V93.138H54.5826V81.114ZM55.6086 86.118H58.4886V87.36H55.6086V86.118ZM45.9786 95.82H56.7966V97.044H45.9786V95.82ZM45.9786 92.004H47.4726V96.414H45.9786V92.004ZM72.1069 84.75H77.0209V85.992H72.1069V84.75ZM72.1069 89.898H77.0209V91.14H72.1069V89.898ZM69.1189 82.374C71.4769 82.374 73.1689 84.588 73.1689 88.044C73.1689 91.518 71.4769 93.732 69.1189 93.732C66.7429 93.732 65.0689 91.518 65.0689 88.044C65.0689 84.588 66.7429 82.374 69.1189 82.374ZM69.1189 83.724C67.5529 83.724 66.4729 85.416 66.4729 88.044C66.4729 90.69 67.5529 92.418 69.1189 92.418C70.6849 92.418 71.7649 90.69 71.7649 88.044C71.7649 85.416 70.6849 83.724 69.1189 83.724ZM76.6969 81.114H78.1729V97.422H76.6969V81.114ZM93.6155 81.132H95.0375V91.428H93.6155V81.132ZM90.9695 85.542H94.0475V86.784H90.9695V85.542ZM90.1415 81.456H91.5455V90.852H90.1415V81.456ZM81.2495 83.076H89.4935V84.264H81.2495V83.076ZM85.3895 85.092C87.4235 85.092 88.8455 86.208 88.8455 87.882C88.8455 89.574 87.4235 90.672 85.3895 90.672C83.3375 90.672 81.9155 89.574 81.9155 87.882C81.9155 86.208 83.3375 85.092 85.3895 85.092ZM85.3895 86.208C84.1115 86.208 83.2475 86.874 83.2475 87.882C83.2475 88.908 84.1115 89.556 85.3895 89.556C86.6495 89.556 87.5135 88.908 87.5135 87.882C87.5135 86.874 86.6495 86.208 85.3895 86.208ZM84.6515 81.258H86.1095V83.742H84.6515V81.258ZM89.7095 91.716C93.0935 91.716 95.1275 92.724 95.1275 94.542C95.1275 96.342 93.0935 97.368 89.7095 97.368C86.2895 97.368 84.2735 96.342 84.2735 94.542C84.2735 92.724 86.2895 91.716 89.7095 91.716ZM89.7095 92.868C87.2075 92.868 85.7495 93.462 85.7495 94.542C85.7495 95.622 87.2075 96.234 89.7095 96.234C92.1755 96.234 93.6515 95.622 93.6515 94.542C93.6515 93.462 92.1755 92.868 89.7095 92.868ZM104.012 81.618H115.964V82.788H104.012V81.618ZM104.084 85.884H115.892V87.036H104.084V85.884ZM106.478 82.068H107.972V86.64H106.478V82.068ZM112.022 82.068H113.498V86.64H112.022V82.068ZM102.644 88.386H117.35V89.592H102.644V88.386ZM104.426 91.014H115.478V94.578H105.938V96.54H104.462V93.516H114.002V92.13H104.426V91.014ZM104.462 96.09H115.964V97.224H104.462V96.09ZM119.742 92.274H120.822C122.802 92.274 124.602 92.202 126.798 91.824L126.924 93.066C124.674 93.462 122.838 93.516 120.822 93.516H119.742V92.274ZM119.706 82.896H125.808V88.62H121.2V92.742H119.742V87.396H124.35V84.12H119.706V82.896ZM131.586 81.132H133.026V97.404H131.586V81.132ZM128.832 87.558H131.964V88.782H128.832V87.558ZM127.896 81.492H129.3V96.576H127.896V81.492ZM147.695 81.132H149.189V97.44H147.695V81.132ZM142.691 86.496H148.181V87.72H142.691V86.496ZM136.661 82.95H138.137V93.03H136.661V82.95ZM136.661 92.238H137.921C140.441 92.238 142.691 92.094 145.193 91.572L145.373 92.832C142.781 93.336 140.495 93.498 137.921 93.498H136.661V92.238ZM159.896 82.9091L159.73 92.2351H157.959L157.793 82.9091H159.896ZM158.847 96.1214C158.494 96.1214 158.191 95.9979 157.94 95.7507C157.688 95.4993 157.565 95.1967 157.569 94.843C157.565 94.4936 157.688 94.1953 157.94 93.9482C158.191 93.6967 158.494 93.571 158.847 93.571C159.193 93.571 159.491 93.6967 159.742 93.9482C159.994 94.1953 160.122 94.4936 160.126 94.843C160.122 95.0774 160.06 95.2926 159.941 95.4886C159.825 95.6804 159.672 95.8338 159.48 95.9489C159.289 96.0639 159.078 96.1214 158.847 96.1214ZM27.0355 131V129.543C27.0355 129.138 27.1143 128.729 27.272 128.315C27.4339 127.898 27.6428 127.51 27.8984 127.152C28.1584 126.79 28.4268 126.491 28.7038 126.257L30.0334 126.986C29.8033 127.361 29.62 127.753 29.4837 128.162C29.3473 128.567 29.2813 129.025 29.2855 129.536V131H27.0355ZM30.2443 131V129.543C30.2443 129.138 30.3232 128.729 30.4808 128.315C30.6428 127.898 30.8516 127.51 31.1072 127.152C31.3672 126.79 31.6357 126.491 31.9126 126.257L33.2422 126.986C33.0121 127.361 32.8288 127.753 32.6925 128.162C32.5561 128.567 32.4901 129.025 32.4943 129.536V131H30.2443ZM34.5598 134.528H49.6618V136.418H34.5598V134.528ZM40.8598 135.482H43.2358V141.602H40.8598V135.482ZM36.2878 125.564H38.6638V127.454H45.5038V125.564H47.8798V132.944H36.2878V125.564ZM38.6638 129.326V131.036H45.5038V129.326H38.6638ZM54.8624 125.96H56.8244V127.76C56.8244 131.072 55.3304 133.916 52.1444 135.014L50.8664 133.142C53.6924 132.242 54.8624 130.01 54.8624 127.76V125.96ZM55.3304 125.96H57.2744V127.778C57.2744 129.866 58.4084 131.954 61.0904 132.836L59.8664 134.69C56.7704 133.664 55.3304 130.91 55.3304 127.778V125.96ZM61.8464 124.934H64.2404V137.12H61.8464V124.934ZM63.5564 129.758H66.4544V131.738H63.5564V129.758ZM53.4944 139.406H64.8344V141.314H53.4944V139.406ZM53.4944 135.968H55.9064V140.414H53.4944V135.968ZM68.2994 136.587C68.2695 135.743 68.3612 135.021 68.5742 134.42C68.7873 133.819 69.1112 133.359 69.5458 133.039C69.9805 132.719 70.511 132.56 71.1374 132.56C71.5252 132.56 71.9023 132.638 72.2688 132.796C72.6353 132.954 73.0529 133.239 73.5217 133.653C73.7475 133.849 73.9414 134.004 74.1033 134.119C74.2653 134.234 74.457 134.292 74.6786 134.292C74.9599 134.292 75.1964 134.179 75.3881 133.953C75.5799 133.723 75.6673 133.35 75.6502 132.835H77.9705C78.0046 133.674 77.9109 134.394 77.6893 134.995C77.4677 135.596 77.1374 136.058 76.6985 136.382C76.2638 136.702 75.7418 136.862 75.1325 136.862C74.7148 136.862 74.3185 136.776 73.9435 136.606C73.5728 136.435 73.1658 136.156 72.7227 135.768C72.4755 135.547 72.2773 135.385 72.1282 135.283C71.9833 135.18 71.8043 135.129 71.5913 135.129C71.3058 135.129 71.0692 135.242 70.8817 135.468C70.6942 135.69 70.6069 136.062 70.6197 136.587H68.2994ZM94.5576 124.934H96.9696V141.602H94.5576V124.934ZM96.4296 131.144H99.3816V133.124H96.4296V131.144ZM84.4056 126.248H86.7816V130.298H90.1296V126.248H92.5056V137.75H84.4056V126.248ZM86.7816 132.152V135.824H90.1296V132.152H86.7816ZM106.58 125.978H109.064C109.064 130.604 106.832 133.736 101.522 135.446L100.568 133.592C104.942 132.224 106.58 129.956 106.58 126.968V125.978ZM101.432 125.978H108.11V127.886H101.432V125.978ZM106.868 129.146V130.766L100.91 131.198L100.586 129.344L106.868 129.146ZM111.188 124.934H113.582V134.726H111.188V124.934ZM112.916 128.894H115.796V130.874H112.916V128.894ZM108.182 134.978C111.566 134.978 113.762 136.256 113.762 138.29C113.762 140.324 111.566 141.602 108.182 141.602C104.798 141.602 102.566 140.324 102.566 138.29C102.566 136.256 104.798 134.978 108.182 134.978ZM108.182 136.832C106.13 136.832 104.942 137.3 104.942 138.29C104.942 139.262 106.13 139.766 108.182 139.766C110.216 139.766 111.422 139.262 111.422 138.29C111.422 137.3 110.216 136.832 108.182 136.832ZM123.211 125.888H125.299V127.094C125.299 130.712 122.725 133.916 118.405 134.762L117.379 132.782C121.141 132.134 123.211 129.488 123.211 127.094V125.888ZM123.697 125.888H125.767V127.094C125.767 129.542 127.819 132.134 131.599 132.782L130.573 134.762C126.253 133.916 123.697 130.766 123.697 127.094V125.888ZM117.037 137.624H132.121V139.568H117.037V137.624ZM137.038 138.21L136.98 138.92C136.929 139.508 136.825 140.081 136.667 140.639C136.514 141.202 136.35 141.707 136.175 142.154C136 142.602 135.862 142.949 135.759 143.196H133.791C133.859 142.949 133.95 142.602 134.066 142.154C134.185 141.707 134.296 141.202 134.398 140.639C134.5 140.077 134.558 139.506 134.57 138.926L134.583 138.21H137.038ZM148.868 131.072H151.604V132.998H148.868V131.072ZM154.25 124.934H156.536V141.602H154.25V124.934ZM150.848 125.186H153.098V140.846H150.848V125.186ZM145.952 126.104C148.166 126.104 149.588 128.39 149.588 132.152C149.588 135.932 148.166 138.218 145.952 138.218C143.756 138.218 142.352 135.932 142.352 132.152C142.352 128.39 143.756 126.104 145.952 126.104ZM145.952 128.354C145.052 128.354 144.53 129.614 144.53 132.152C144.53 134.708 145.052 135.95 145.952 135.95C146.888 135.95 147.41 134.708 147.41 132.152C147.41 129.614 146.888 128.354 145.952 128.354ZM160.693 125.222H163.051V126.32H169.549V125.222H171.925V130.802H160.693V125.222ZM163.051 128.066V129.038H169.549V128.066H163.051ZM158.767 131.702H173.833V133.574H158.767V131.702ZM160.495 134.528H172.015V138.758H162.871V140.27H160.513V137.12H169.657V136.274H160.495V134.528ZM160.513 139.712H172.447V141.494H160.513V139.712ZM185.981 124.934H188.393V141.602H185.981V124.934ZM187.853 131.144H190.805V133.124H187.853V131.144ZM175.829 126.248H178.205V130.298H181.553V126.248H183.929V137.75H175.829V126.248ZM178.205 132.152V135.824H181.553V132.152H178.205ZM203.368 124.916H205.762V141.638H203.368V124.916ZM192.784 135.806H194.26C197.212 135.806 199.57 135.698 202.216 135.248L202.45 137.174C199.75 137.66 197.302 137.75 194.26 137.75H192.784V135.806ZM192.766 126.338H200.632V132.782H195.214V136.526H192.784V130.892H198.184V128.246H192.766V126.338ZM220.968 129.092H224.172V131.018H220.968V129.092ZM218.574 125.744H221.076C221.076 130.334 218.916 133.376 213.498 135.014L212.562 133.142C217.098 131.828 218.574 129.632 218.574 126.77V125.744ZM213.426 125.744H220.122V127.634H213.426V125.744ZM218.862 128.804V130.442L212.922 130.892L212.58 129.02L218.862 128.804ZM223.866 124.934H226.26V134.438H223.866V124.934ZM215.28 135.194H226.26V141.422H215.28V135.194ZM223.902 137.066H217.638V139.532H223.902V137.066ZM228.868 134.816H243.952V136.76H228.868V134.816ZM235.204 135.5H237.58V141.62H235.204V135.5ZM230.74 131.72H242.386V133.61H230.74V131.72ZM230.74 125.6H242.206V127.472H233.098V132.17H230.74V125.6ZM232.432 128.678H241.846V130.496H232.432V128.678ZM249.276 127.436H257.25V129.344H249.276V127.436ZM253.29 130.082C255.414 130.082 256.944 131.72 256.944 134.06C256.944 136.382 255.414 138.02 253.29 138.02C251.184 138.02 249.636 136.382 249.636 134.06C249.636 131.72 251.184 130.082 253.29 130.082ZM253.29 132.08C252.39 132.08 251.76 132.8 251.76 134.06C251.76 135.32 252.39 136.022 253.29 136.022C254.19 136.022 254.838 135.32 254.838 134.06C254.838 132.8 254.19 132.08 253.29 132.08ZM261.336 124.934H263.622V141.602H261.336V124.934ZM259.338 131.702H262.092V133.628H259.338V131.702ZM257.844 125.24H260.076V140.9H257.844V125.24ZM252.12 125.384H254.478V128.642H252.12V125.384ZM265.853 133.034H280.955V134.924H265.853V133.034ZM272.315 134.276H274.745V137.786H272.315V134.276ZM267.617 139.388H279.299V141.314H267.617V139.388ZM267.617 136.328H270.029V139.874H267.617V136.328ZM273.395 125.24C276.977 125.24 279.389 126.59 279.389 128.696C279.389 130.82 276.977 132.152 273.395 132.152C269.795 132.152 267.401 130.82 267.401 128.696C267.401 126.59 269.795 125.24 273.395 125.24ZM273.395 127.13C271.289 127.13 269.975 127.67 269.975 128.696C269.975 129.722 271.289 130.244 273.395 130.244C275.501 130.244 276.815 129.722 276.815 128.696C276.815 127.67 275.501 127.13 273.395 127.13ZM294.453 124.934H296.721V141.602H294.453V124.934ZM292.221 131.342H294.993V133.268H292.221V131.342ZM290.727 125.222H292.941V140.81H290.727V125.222ZM282.879 135.878H284.049C286.101 135.878 287.811 135.806 289.791 135.446L289.971 137.39C287.955 137.786 286.191 137.84 284.049 137.84H282.879V135.878ZM282.879 126.86H289.035V128.786H285.255V136.814H282.879V126.86ZM301.842 126.909V128.366C301.842 128.771 301.761 129.18 301.599 129.594C301.442 130.003 301.235 130.386 300.979 130.744C300.724 131.102 300.453 131.405 300.168 131.652L298.838 130.923C299.034 130.599 299.209 130.235 299.362 129.83C299.516 129.421 299.592 128.935 299.592 128.373V126.909H301.842ZM305.032 126.909V128.366C305.032 128.771 304.951 129.18 304.789 129.594C304.631 130.003 304.425 130.386 304.169 130.744C303.913 131.102 303.643 131.405 303.357 131.652L302.028 130.923C302.224 130.599 302.398 130.235 302.552 129.83C302.705 129.421 302.782 128.935 302.782 128.373V126.909H305.032ZM33.488 175.45H36.566V176.692H33.488V175.45ZM39.284 169.132H40.724V185.404H39.284V169.132ZM36.062 169.474H37.484V184.594H36.062V169.474ZM30.554 170.482C32.66 170.482 34.028 172.66 34.028 176.152C34.028 179.644 32.66 181.822 30.554 181.822C28.448 181.822 27.098 179.644 27.098 176.152C27.098 172.66 28.448 170.482 30.554 170.482ZM30.554 171.868C29.276 171.868 28.466 173.524 28.466 176.152C28.466 178.78 29.276 180.436 30.554 180.436C31.85 180.436 32.66 178.78 32.66 176.152C32.66 173.524 31.85 171.868 30.554 171.868ZM45.4026 169.42H46.8786V170.932H54.7446V169.42H56.2386V174.784H45.4026V169.42ZM46.8786 172.084V173.632H54.7446V172.084H46.8786ZM43.4406 176.152H58.1466V177.358H43.4406V176.152ZM45.2226 178.834H56.2746V182.47H46.7346V184.468H45.2586V181.39H54.7986V179.968H45.2226V178.834ZM45.2586 184.072H56.7606V185.224H45.2586V184.072ZM71.0152 169.132H72.5272V185.404H71.0152V169.132ZM72.1672 175.522H75.1912V176.8H72.1672V175.522ZM60.6472 170.5H62.1232V174.802H66.7672V170.5H68.2432V181.498H60.6472V170.5ZM62.1232 175.99V180.274H66.7672V175.99H62.1232ZM88.4198 169.114H89.9138V185.422H88.4198V169.114ZM77.5118 180.256H78.8618C81.5798 180.256 84.0098 180.148 86.8898 179.68L87.0518 180.904C84.0998 181.39 81.6518 181.498 78.8618 181.498H77.5118V180.256ZM77.4758 170.644H84.9998V176.458H79.0058V180.724H77.5118V175.234H83.4878V171.868H77.4758V170.644ZM106.25 173.434H110.048V174.658H106.25V173.434ZM104.738 170.068H106.286C106.286 174.208 103.982 177.214 98.924 178.762L98.312 177.574C102.812 176.224 104.738 173.794 104.738 170.644V170.068ZM99.05 170.068H105.62V171.274H99.05V170.068ZM104.72 173.02V174.064L98.492 174.55L98.24 173.326L104.72 173.02ZM109.778 169.132H111.272V178.51H109.778V169.132ZM100.778 179.392H111.272V185.188H100.778V179.392ZM109.814 180.58H102.254V183.982H109.814V180.58ZM119.202 178.978H133.944V180.22H119.202V178.978ZM125.826 179.338H127.302V185.422H125.826V179.338ZM121.164 176.098H132.306V177.322H121.164V176.098ZM121.164 169.888H132.126V171.094H122.64V176.458H121.164V169.888ZM122.208 172.966H131.73V174.136H122.208V172.966ZM141.407 170.14H148.607V171.364H141.407V170.14ZM143.855 173.668H145.331V177.556H143.855V173.668ZM148.013 170.14H149.471V171.022C149.471 172.048 149.471 173.506 149.057 175.432L147.599 175.306C148.013 173.398 148.013 172.048 148.013 171.022V170.14ZM151.703 169.132H153.197V179.284H151.703V169.132ZM152.513 173.56H155.519V174.82H152.513V173.56ZM140.597 178.168L140.417 176.926C143.369 176.926 147.311 176.872 150.605 176.44L150.713 177.538C147.347 178.096 143.495 178.168 140.597 178.168ZM147.941 179.482C151.289 179.482 153.359 180.562 153.359 182.416C153.359 184.288 151.289 185.368 147.941 185.368C144.593 185.368 142.559 184.288 142.559 182.416C142.559 180.562 144.593 179.482 147.941 179.482ZM147.941 180.652C145.529 180.652 144.053 181.3 144.053 182.416C144.053 183.532 145.529 184.18 147.941 184.18C150.371 184.18 151.829 183.532 151.829 182.416C151.829 181.3 150.371 180.652 147.941 180.652ZM172.989 169.114H174.483V181.102H172.989V169.114ZM174.015 174.064H176.895V175.306H174.015V174.064ZM164.349 183.82H175.221V185.044H164.349V183.82ZM164.349 179.878H165.843V184.306H164.349V179.878ZM166.401 170.266C168.831 170.266 170.649 171.94 170.649 174.28C170.649 176.638 168.831 178.294 166.401 178.294C163.971 178.294 162.153 176.638 162.153 174.28C162.153 171.94 163.971 170.266 166.401 170.266ZM166.401 171.58C164.817 171.58 163.611 172.696 163.611 174.28C163.611 175.882 164.817 176.98 166.401 176.98C167.985 176.98 169.191 175.882 169.191 174.28C169.191 172.696 167.985 171.58 166.401 171.58ZM195.031 169.114H196.525V185.422H195.031V169.114ZM184.123 180.256H185.473C188.191 180.256 190.621 180.148 193.501 179.68L193.663 180.904C190.711 181.39 188.263 181.498 185.473 181.498H184.123V180.256ZM184.087 170.644H191.611V176.458H185.617V180.724H184.123V175.234H190.099V171.868H184.087V170.644ZM205.054 178.899C205.037 178.162 205.146 177.557 205.38 177.084C205.619 176.611 205.938 176.261 206.339 176.036C206.739 175.805 207.18 175.69 207.662 175.69C208.088 175.69 208.482 175.782 208.844 175.965C209.207 176.144 209.62 176.438 210.085 176.847C210.374 177.099 210.611 177.282 210.794 177.397C210.977 177.508 211.182 177.563 211.408 177.563C211.753 177.563 212.028 177.435 212.232 177.18C212.441 176.92 212.541 176.536 212.533 176.029H214.15C214.167 176.771 214.056 177.378 213.817 177.851C213.583 178.324 213.263 178.673 212.859 178.899C212.458 179.125 212.019 179.238 211.542 179.238C211.112 179.238 210.715 179.146 210.353 178.963C209.991 178.776 209.58 178.482 209.119 178.081C208.821 177.821 208.582 177.638 208.403 177.531C208.224 177.42 208.022 177.365 207.796 177.365C207.468 177.365 207.195 177.484 206.978 177.723C206.765 177.957 206.663 178.349 206.671 178.899H205.054ZM220.79 170.909H223.033L226.453 176.86H226.594L230.013 170.909H232.257L227.508 178.861V184H225.539V178.861L220.79 170.909ZM236.583 184.198C235.615 184.198 234.782 183.991 234.083 183.578C233.389 183.161 232.852 182.575 232.473 181.82C232.098 181.062 231.91 180.173 231.91 179.155C231.91 178.149 232.098 177.263 232.473 176.496C232.852 175.729 233.38 175.13 234.058 174.7C234.74 174.269 235.537 174.054 236.449 174.054C237.002 174.054 237.539 174.146 238.059 174.329C238.579 174.512 239.046 174.8 239.459 175.192C239.873 175.584 240.199 176.093 240.437 176.719C240.676 177.342 240.795 178.098 240.795 178.989V179.666H232.99V178.234H238.922C238.922 177.732 238.82 177.286 238.615 176.898C238.411 176.506 238.123 176.197 237.752 175.972C237.386 175.746 236.956 175.633 236.461 175.633C235.924 175.633 235.456 175.765 235.055 176.029C234.659 176.289 234.352 176.63 234.135 177.052C233.922 177.469 233.815 177.923 233.815 178.413V179.532C233.815 180.188 233.93 180.746 234.16 181.207C234.395 181.667 234.721 182.018 235.138 182.261C235.556 182.5 236.044 182.619 236.602 182.619C236.964 182.619 237.294 182.568 237.593 182.466C237.891 182.359 238.149 182.202 238.366 181.993C238.583 181.784 238.75 181.526 238.865 181.219L240.674 181.545C240.529 182.078 240.269 182.545 239.894 182.945C239.523 183.342 239.056 183.651 238.494 183.872C237.936 184.089 237.299 184.198 236.583 184.198ZM245.773 184.217C245.151 184.217 244.588 184.102 244.085 183.872C243.583 183.638 243.184 183.299 242.89 182.856C242.6 182.413 242.455 181.869 242.455 181.226C242.455 180.672 242.562 180.216 242.775 179.858C242.988 179.5 243.276 179.217 243.638 179.008C244 178.799 244.405 178.641 244.852 178.535C245.3 178.428 245.756 178.347 246.22 178.292C246.808 178.224 247.286 178.168 247.652 178.126C248.019 178.079 248.285 178.004 248.451 177.902C248.617 177.8 248.7 177.634 248.7 177.403V177.359C248.7 176.8 248.543 176.368 248.227 176.061C247.916 175.754 247.452 175.601 246.834 175.601C246.191 175.601 245.683 175.744 245.313 176.029C244.946 176.31 244.693 176.624 244.552 176.969L242.756 176.56C242.969 175.963 243.28 175.482 243.689 175.115C244.102 174.744 244.578 174.476 245.115 174.31C245.651 174.139 246.216 174.054 246.808 174.054C247.2 174.054 247.616 174.101 248.055 174.195C248.498 174.284 248.911 174.45 249.295 174.693C249.683 174.936 250 175.283 250.247 175.735C250.494 176.183 250.618 176.764 250.618 177.48V184H248.752V182.658H248.675C248.551 182.905 248.366 183.148 248.119 183.386C247.872 183.625 247.554 183.823 247.166 183.981C246.779 184.138 246.314 184.217 245.773 184.217ZM246.188 182.683C246.717 182.683 247.169 182.579 247.544 182.37C247.923 182.161 248.21 181.888 248.406 181.552C248.607 181.211 248.707 180.847 248.707 180.459V179.193C248.639 179.261 248.507 179.325 248.311 179.385C248.119 179.44 247.899 179.489 247.652 179.532C247.405 179.57 247.164 179.607 246.93 179.641C246.695 179.67 246.499 179.696 246.342 179.717C245.971 179.764 245.632 179.843 245.325 179.954C245.023 180.065 244.78 180.224 244.597 180.433C244.418 180.638 244.328 180.911 244.328 181.251C244.328 181.724 244.503 182.082 244.852 182.325C245.202 182.564 245.647 182.683 246.188 182.683ZM255.075 178.17V184H253.164V170.909H255.049V175.78H255.171C255.401 175.251 255.752 174.832 256.225 174.521C256.699 174.21 257.316 174.054 258.079 174.054C258.752 174.054 259.341 174.192 259.843 174.469C260.35 174.746 260.743 175.16 261.02 175.71C261.301 176.255 261.441 176.937 261.441 177.755V184H259.53V177.985C259.53 177.265 259.345 176.707 258.974 176.31C258.603 175.91 258.088 175.71 257.427 175.71C256.975 175.71 256.571 175.805 256.213 175.997C255.859 176.189 255.58 176.47 255.375 176.841C255.175 177.207 255.075 177.651 255.075 178.17ZM266.402 170.909L266.235 180.235H264.465L264.299 170.909H266.402ZM265.353 184.121C265 184.121 264.697 183.998 264.446 183.751C264.194 183.499 264.071 183.197 264.075 182.843C264.071 182.494 264.194 182.195 264.446 181.948C264.697 181.697 265 181.571 265.353 181.571C265.699 181.571 265.997 181.697 266.248 181.948C266.5 182.195 266.627 182.494 266.632 182.843C266.627 183.077 266.566 183.293 266.446 183.489C266.331 183.68 266.178 183.834 265.986 183.949C265.794 184.064 265.583 184.121 265.353 184.121ZM281.366 177.088H287.234V178.312H281.366V177.088ZM273.644 181.948H288.404V183.19H273.644V181.948ZM281.366 170.842H287.072V172.048H282.86V177.484H281.366V170.842ZM274.958 170.86H280.484V172.084H276.452V177.43H274.958V170.86ZM274.958 177.088H275.858C277.442 177.088 278.918 177.034 280.61 176.638L280.754 177.88C278.99 178.258 277.514 178.312 275.858 178.312H274.958V177.088ZM302.1 169.132H303.594V185.404H302.1V169.132ZM298.302 175.648H302.766V176.89H298.302V175.648ZM296.88 170.878H298.356C298.356 175.522 296.43 179.626 291.03 182.326L290.202 181.156C294.936 178.834 296.88 175.378 296.88 171.13V170.878ZM290.904 170.878H297.672V172.102H290.904V170.878ZM306.761 177.376H321.521V178.6H306.761V177.376ZM313.493 178.15H315.005V181.894H313.493V178.15ZM308.633 183.802H319.883V185.044H308.633V183.802ZM308.633 180.292H310.127V184.144H308.633V180.292ZM314.123 169.528C317.561 169.528 319.829 170.788 319.829 172.804C319.829 174.82 317.561 176.08 314.123 176.08C310.667 176.08 308.417 174.82 308.417 172.804C308.417 170.788 310.667 169.528 314.123 169.528ZM314.123 170.752C311.639 170.752 310.001 171.544 310.001 172.804C310.001 174.082 311.639 174.856 314.123 174.856C316.607 174.856 318.245 174.082 318.245 172.804C318.245 171.544 316.607 170.752 314.123 170.752ZM335.427 172.75H340.341V173.992H335.427V172.75ZM335.427 177.898H340.341V179.14H335.427V177.898ZM332.439 170.374C334.797 170.374 336.489 172.588 336.489 176.044C336.489 179.518 334.797 181.732 332.439 181.732C330.063 181.732 328.389 179.518 328.389 176.044C328.389 172.588 330.063 170.374 332.439 170.374ZM332.439 171.724C330.873 171.724 329.793 173.416 329.793 176.044C329.793 178.69 330.873 180.418 332.439 180.418C334.005 180.418 335.085 178.69 335.085 176.044C335.085 173.416 334.005 171.724 332.439 171.724ZM340.017 169.114H341.493V185.422H340.017V169.114ZM344.642 177.52H359.402V178.744H344.642V177.52ZM346.514 169.528H357.494V173.38H348.026V175.54H346.55V172.282H356.036V170.698H346.514V169.528ZM346.55 174.964H357.854V176.134H346.55V174.964ZM346.622 180.22H357.512V185.188H346.622V180.22ZM356.054 181.408H348.08V183.982H356.054V181.408ZM368.562 169.402C372.144 169.402 374.286 170.41 374.286 172.228C374.286 174.046 372.144 175.054 368.562 175.054C364.962 175.054 362.838 174.046 362.838 172.228C362.838 170.41 364.962 169.402 368.562 169.402ZM368.562 170.536C365.898 170.536 364.368 171.148 364.368 172.228C364.368 173.308 365.898 173.92 368.562 173.92C371.208 173.92 372.738 173.308 372.738 172.228C372.738 171.148 371.208 170.536 368.562 170.536ZM361.2 176.134H375.906V177.34H361.2V176.134ZM362.982 178.726H374.034V182.398H364.494V184.378H363.018V181.318H372.558V179.878H362.982V178.726ZM363.018 184.054H374.52V185.224H363.018V184.054ZM26.9 204.092H41.642V205.334H26.9V204.092ZM33.488 200.204H34.982V204.452H33.488V200.204ZM28.628 192.284H30.104V195.182H38.402V192.284H39.878V200.6H28.628V192.284ZM30.104 196.388V199.376H38.402V196.388H30.104ZM55.8066 191.132H57.2466V207.404H55.8066V191.132ZM53.0706 197.756H56.2026V198.98H53.0706V197.756ZM52.1166 191.492H53.5206V206.576H52.1166V191.492ZM44.2326 193.094H45.7266V202.49H44.2326V193.094ZM44.2326 201.896H45.2766C46.9506 201.896 48.8226 201.788 50.9466 201.374L51.1086 202.67C48.8946 203.102 47.0226 203.192 45.2766 203.192H44.2326V201.896ZM61.5652 192.752H72.0412V193.994H61.5652V192.752ZM60.0172 203.894H74.7232V205.136H60.0172V203.894ZM65.7232 198.08H67.2172V204.506H65.7232V198.08ZM71.4832 192.752H72.9592V194.372C72.9592 196.388 72.9592 198.62 72.3652 201.914L70.8712 201.716C71.4832 198.602 71.4832 196.316 71.4832 194.372V192.752ZM88.4018 191.15H89.9138V200.168H88.4018V191.15ZM80.8058 191.726H82.0478V193.31C82.0478 196.316 80.1758 198.854 77.4218 199.844L76.6658 198.674C79.1138 197.81 80.8058 195.65 80.8058 193.31V191.726ZM81.0758 191.726H82.2998V193.31C82.2998 195.578 84.0098 197.576 86.4218 198.368L85.6838 199.556C82.9478 198.62 81.0758 196.226 81.0758 193.31V191.726ZM79.1498 201.14H90.0038V202.364H79.1498V201.14ZM78.9878 205.982H90.1838V207.188H78.9878V205.982ZM81.3818 201.662H82.8398V206.684H81.3818V201.662ZM86.3138 201.662H87.7898V206.684H86.3138V201.662ZM93.1164 199.682H107.822V200.906H93.1164V199.682ZM95.0244 205.82H106.202V207.044H95.0244V205.82ZM95.0244 202.328H96.5184V206.198H95.0244V202.328ZM100.478 191.672C103.952 191.672 106.202 192.896 106.202 194.93C106.202 196.946 103.952 198.17 100.478 198.17C96.9864 198.17 94.7544 196.946 94.7544 194.93C94.7544 192.896 96.9864 191.672 100.478 191.672ZM100.478 192.896C97.9224 192.896 96.2844 193.652 96.2844 194.93C96.2844 196.208 97.9224 196.964 100.478 196.964C103.034 196.964 104.672 196.208 104.672 194.93C104.672 193.652 103.034 192.896 100.478 192.896ZM118.471 193.454H119.659V196.1C119.659 199.484 117.589 202.976 115.051 204.272L114.187 203.084C116.509 201.95 118.471 198.854 118.471 196.1V193.454ZM118.741 193.454H119.929V196.1C119.929 198.674 121.765 201.572 124.123 202.688L123.277 203.876C120.703 202.598 118.741 199.322 118.741 196.1V193.454ZM114.763 192.788H123.529V194.048H114.763V192.788ZM125.455 191.132H126.967V207.404H125.455V191.132ZM126.607 197.702H129.631V198.962H126.607V197.702ZM138.341 194.75H143.255V195.992H138.341V194.75ZM138.341 199.898H143.255V201.14H138.341V199.898ZM135.353 192.374C137.711 192.374 139.403 194.588 139.403 198.044C139.403 201.518 137.711 203.732 135.353 203.732C132.977 203.732 131.303 201.518 131.303 198.044C131.303 194.588 132.977 192.374 135.353 192.374ZM135.353 193.724C133.787 193.724 132.707 195.416 132.707 198.044C132.707 200.69 133.787 202.418 135.353 202.418C136.919 202.418 137.999 200.69 137.999 198.044C137.999 195.416 136.919 193.724 135.353 193.724ZM142.931 191.114H144.407V207.422H142.931V191.114ZM152.32 200.762H167.08V201.986H152.32V200.762ZM158.908 201.338H160.384V207.404H158.908V201.338ZM154.174 191.78H155.668V194.012H163.714V191.78H165.19V198.818H154.174V191.78ZM155.668 195.218V197.612H163.714V195.218H155.668ZM172.892 192.122H174.116V194.12C174.116 197.306 172.352 199.844 169.616 200.906L168.824 199.718C171.308 198.836 172.892 196.64 172.892 194.12V192.122ZM173.144 192.122H174.368V194.174C174.368 196.388 175.988 198.476 178.364 199.322L177.626 200.492C174.944 199.52 173.144 197.036 173.144 194.174V192.122ZM180.02 191.114H181.514V203.138H180.02V191.114ZM181.046 196.118H183.926V197.36H181.046V196.118ZM171.416 205.82H182.234V207.044H171.416V205.82ZM171.416 202.004H172.91V206.414H171.416V202.004ZM192.799 192.158C196.183 192.158 198.703 193.958 198.703 196.658C198.703 199.376 196.183 201.158 192.799 201.158C189.415 201.158 186.877 199.376 186.877 196.658C186.877 193.958 189.415 192.158 192.799 192.158ZM192.799 193.382C190.225 193.382 188.317 194.696 188.317 196.658C188.317 198.602 190.225 199.934 192.799 199.934C195.373 199.934 197.281 198.602 197.281 196.658C197.281 194.696 195.373 193.382 192.799 193.382ZM185.455 204.002H200.197V205.262H185.455V204.002ZM202.013 204.164H216.755V205.406H202.013V204.164ZM208.601 200.672H210.095V204.686H208.601V200.672ZM203.795 192.338H214.937V197.27H205.325V200.528H203.849V196.064H213.461V193.544H203.795V192.338ZM203.849 199.898H215.315V201.122H203.849V199.898ZM229.924 200.33H231.418V204.38H229.924V200.33ZM230.68 192.194C234.118 192.194 236.584 193.868 236.584 196.46C236.584 199.052 234.118 200.726 230.68 200.726C227.242 200.726 224.758 199.052 224.758 196.46C224.758 193.868 227.242 192.194 230.68 192.194ZM230.68 193.382C228.088 193.382 226.198 194.606 226.198 196.46C226.198 198.314 228.088 199.538 230.68 199.538C233.254 199.538 235.144 198.314 235.144 196.46C235.144 194.606 233.254 193.382 230.68 193.382ZM223.336 204.092H238.078V205.334H223.336V204.092ZM250.91 191.114H252.404V207.422H250.91V191.114ZM252.044 197.594H255.068V198.854H252.044V197.594ZM240.542 202.256H241.838C244.898 202.256 247.022 202.148 249.488 201.68L249.65 202.922C247.112 203.372 244.952 203.498 241.838 203.498H240.542V202.256ZM240.506 192.644H247.868V198.476H242.018V202.76H240.542V197.252H246.392V193.868H240.506V192.644ZM258.097 206.121C257.747 206.121 257.447 205.998 257.195 205.751C256.944 205.499 256.818 205.197 256.818 204.843C256.818 204.494 256.944 204.195 257.195 203.948C257.447 203.697 257.747 203.571 258.097 203.571C258.446 203.571 258.747 203.697 258.998 203.948C259.249 204.195 259.375 204.494 259.375 204.843C259.375 205.077 259.316 205.293 259.196 205.489C259.081 205.68 258.928 205.834 258.736 205.949C258.544 206.064 258.331 206.121 258.097 206.121ZM266.067 193.904H274.131V195.128H266.067V193.904ZM270.099 196.208C272.133 196.208 273.609 197.738 273.609 199.934C273.609 202.112 272.133 203.642 270.099 203.642C268.083 203.642 266.607 202.112 266.607 199.934C266.607 197.738 268.083 196.208 270.099 196.208ZM270.099 197.486C268.857 197.486 267.957 198.494 267.957 199.934C267.957 201.374 268.857 202.382 270.099 202.382C271.359 202.382 272.277 201.374 272.277 199.934C272.277 198.494 271.359 197.486 270.099 197.486ZM278.433 191.132H279.873V207.404H278.433V191.132ZM275.841 197.972H278.919V199.214H275.841V197.972ZM274.959 191.492H276.363V206.612H274.959V191.492ZM269.379 191.6H270.855V194.66H269.379V191.6ZM289.232 191.708H290.546V192.608C290.546 195.722 287.378 197.954 283.994 198.53L283.4 197.324C286.37 196.874 289.232 194.93 289.232 192.608V191.708ZM289.502 191.708H290.798V192.608C290.798 194.876 293.696 196.874 296.63 197.324L296.036 198.53C292.688 197.954 289.502 195.686 289.502 192.608V191.708ZM289.232 201.212H290.708V207.404H289.232V201.212ZM282.662 200.294H297.368V201.536H282.662V200.294ZM302.838 196.766H304.314V199.844H302.838V196.766ZM308.814 196.766H310.29V199.844H308.814V196.766ZM306.564 191.474C310.074 191.474 312.288 192.626 312.288 194.57C312.288 196.532 310.074 197.684 306.564 197.684C303.036 197.684 300.84 196.532 300.84 194.57C300.84 192.626 303.036 191.474 306.564 191.474ZM306.564 192.662C303.972 192.662 302.37 193.364 302.37 194.57C302.37 195.776 303.972 196.496 306.564 196.496C309.138 196.496 310.758 195.776 310.758 194.57C310.758 193.364 309.138 192.662 306.564 192.662ZM299.202 199.412H313.908V200.636H299.202V199.412ZM300.84 202.148H312.09V207.404H310.596V203.372H300.84V202.148ZM319.775 192.878H320.999V194.192C320.999 197.18 319.199 199.682 316.463 200.672L315.707 199.484C318.155 198.62 319.775 196.514 319.775 194.192V192.878ZM320.045 192.878H321.269V194.174C321.269 196.298 322.817 198.206 325.211 198.998L324.491 200.168C321.773 199.268 320.045 196.946 320.045 194.174V192.878ZM316.157 192.338H324.851V193.562H316.157V192.338ZM326.903 191.132H328.397V200.942H326.903V191.132ZM327.983 195.254H330.809V196.514H327.983V195.254ZM323.213 201.374C326.525 201.374 328.559 202.472 328.559 204.362C328.559 206.27 326.525 207.368 323.213 207.368C319.901 207.368 317.867 206.27 317.867 204.362C317.867 202.472 319.901 201.374 323.213 201.374ZM323.213 202.58C320.801 202.58 319.325 203.228 319.325 204.362C319.325 205.514 320.801 206.198 323.213 206.198C325.625 206.198 327.101 205.514 327.101 204.362C327.101 203.228 325.625 202.58 323.213 202.58ZM332.32 200.762H347.08V201.986H332.32V200.762ZM338.908 201.338H340.384V207.404H338.908V201.338ZM334.174 191.78H335.668V194.012H343.714V191.78H345.19V198.818H334.174V191.78ZM335.668 195.218V197.612H343.714V195.218H335.668ZM360.812 191.114H362.288V207.422H360.812V191.114ZM357.428 197.252H361.028V198.494H357.428V197.252ZM349.634 202.274H350.876C353.936 202.274 355.862 202.22 358.148 201.788L358.292 203.012C355.952 203.426 353.972 203.516 350.876 203.516H349.634V202.274ZM349.634 192.608H357.158V193.85H351.11V202.706H349.634V192.608ZM350.732 197.18H356.456V198.386H350.732V197.18ZM31.22 214.374C33.614 214.374 35.306 216.588 35.306 220.044C35.306 223.518 33.614 225.732 31.22 225.732C28.826 225.732 27.134 223.518 27.134 220.044C27.134 216.588 28.826 214.374 31.22 214.374ZM31.22 215.724C29.636 215.724 28.556 217.416 28.556 220.044C28.556 222.69 29.636 224.418 31.22 224.418C32.786 224.418 33.884 222.69 33.884 220.044C33.884 217.416 32.786 215.724 31.22 215.724ZM38.996 217.218H41.984V218.478H38.996V217.218ZM38.996 222.06H41.984V223.32H38.996V222.06ZM37.898 213.132H39.41V229.404H37.898V213.132ZM51.2346 216.12H55.5906V217.344H51.2346V216.12ZM51.0906 219.504H55.4826V220.728H51.0906V219.504ZM55.3386 213.132H56.8326V222.888H55.3386V213.132ZM50.2446 214.356H51.8466C51.8466 218.55 48.9486 221.484 44.2686 222.888L43.6566 221.682C47.8146 220.476 50.2446 218.082 50.2446 215.004V214.356ZM44.5026 214.356H51.2706V215.58H44.5026V214.356ZM51.5406 223.068C54.8346 223.068 56.9226 224.238 56.9226 226.2C56.9226 228.162 54.8346 229.332 51.5406 229.332C48.2466 229.332 46.1586 228.162 46.1586 226.2C46.1586 224.238 48.2466 223.068 51.5406 223.068ZM51.5406 224.238C49.1646 224.238 47.6346 224.976 47.6346 226.2C47.6346 227.424 49.1646 228.144 51.5406 228.144C53.9346 228.144 55.4646 227.424 55.4646 226.2C55.4646 224.976 53.9346 224.238 51.5406 224.238ZM66.6349 220.926H77.8129V222.15H66.6349V220.926ZM64.7809 225.966H79.5229V227.208H64.7809V225.966ZM66.6349 214.626H77.6509V215.868H68.1289V221.466H66.6349V214.626ZM81.3215 222.42H96.0815V223.644H81.3215V222.42ZM83.2655 228.018H94.5335V229.242H83.2655V228.018ZM83.2655 224.724H84.7595V228.378H83.2655V224.724ZM87.9455 220.08H89.4395V222.942H87.9455V220.08ZM83.1935 213.654H94.1735V217.686H84.7055V219.882H83.2295V216.588H92.7155V214.824H83.1935V213.654ZM83.2295 219.486H94.5335V220.656H83.2295V219.486ZM101.894 222.438H103.37V226.776H101.894V222.438ZM107.15 222.438H108.626V226.776H107.15V222.438ZM97.898 226.092H112.64V227.334H97.898V226.092ZM104.414 214.194H105.71V215.436C105.71 218.856 102.362 221.43 99.05 222.078L98.42 220.854C101.318 220.368 104.414 218.082 104.414 215.436V214.194ZM104.684 214.194H105.98V215.436C105.98 218.082 109.076 220.368 111.974 220.854L111.362 222.078C108.032 221.43 104.684 218.856 104.684 215.436V214.194ZM125.743 213.132H127.219V229.404H125.743V213.132ZM126.751 219.828H129.649V221.088H126.751V219.828ZM117.949 214.878H119.317C119.317 218.802 118.489 222.6 115.573 225.75L114.367 224.904C117.049 222.114 117.949 218.73 117.949 215.04V214.878ZM114.889 214.878H118.507V216.12H114.889V214.878ZM122.377 214.878H123.763C123.763 218.82 123.205 223.284 120.217 226.83L119.011 226.002C121.765 222.816 122.377 218.784 122.377 215.022V214.878ZM119.839 214.878H122.989V216.12H119.839V214.878ZM135.317 215.454H136.523V218.1C136.523 221.538 134.453 224.994 131.861 226.272L130.997 225.084C133.355 223.968 135.317 220.908 135.317 218.1V215.454ZM135.605 215.454H136.811V218.1C136.811 220.854 138.773 223.662 141.167 224.688L140.321 225.876C137.693 224.652 135.605 221.484 135.605 218.1V215.454ZM131.537 214.788H140.627V216.048H131.537V214.788ZM142.823 213.132H144.317V229.404H142.823V213.132ZM150.445 226.21L150.349 226.907C150.285 227.418 150.177 227.951 150.023 228.505C149.874 229.063 149.719 229.581 149.557 230.058C149.399 230.536 149.269 230.915 149.167 231.196H147.812C147.867 230.932 147.944 230.574 148.042 230.122C148.14 229.675 148.236 229.174 148.329 228.62C148.423 228.066 148.493 227.501 148.54 226.926L148.604 226.21H150.445ZM159.166 220.728H170.344V221.952H159.166V220.728ZM157.312 226.11H172.054V227.37H157.312V226.11ZM163.9 221.25H165.394V226.614H163.9V221.25ZM159.166 214.428H170.182V215.652H160.66V221.268H159.166V214.428ZM174.069 214.878H183.123V216.102H174.069V214.878ZM173.835 225.39L173.655 224.112C176.589 224.112 180.531 224.076 183.879 223.662L183.969 224.778C180.567 225.336 176.697 225.39 173.835 225.39ZM175.815 215.796H177.273V224.454H175.815V215.796ZM179.919 215.796H181.377V224.454H179.919V215.796ZM184.869 213.132H186.381V229.404H184.869V213.132ZM186.021 219.63H189.045V220.89H186.021V219.63ZM191.275 214.536H198.853V222.114H191.275V214.536ZM197.413 215.742H192.715V220.908H197.413V215.742ZM202.255 213.15H203.767V224.832H202.255V213.15ZM193.309 227.64H204.253V228.882H193.309V227.64ZM193.309 223.716H194.785V228.144H193.309V223.716ZM219.078 216.75H223.992V217.992H219.078V216.75ZM219.078 221.898H223.992V223.14H219.078V221.898ZM216.09 214.374C218.448 214.374 220.14 216.588 220.14 220.044C220.14 223.518 218.448 225.732 216.09 225.732C213.714 225.732 212.04 223.518 212.04 220.044C212.04 216.588 213.714 214.374 216.09 214.374ZM216.09 215.724C214.524 215.724 213.444 217.416 213.444 220.044C213.444 222.69 214.524 224.418 216.09 224.418C217.656 224.418 218.736 222.69 218.736 220.044C218.736 217.416 217.656 215.724 216.09 215.724ZM223.668 213.114H225.144V229.422H223.668V213.114ZM240.586 213.132H242.008V223.428H240.586V213.132ZM237.94 217.542H241.018V218.784H237.94V217.542ZM237.112 213.456H238.516V222.852H237.112V213.456ZM228.22 215.076H236.464V216.264H228.22V215.076ZM232.36 217.092C234.394 217.092 235.816 218.208 235.816 219.882C235.816 221.574 234.394 222.672 232.36 222.672C230.308 222.672 228.886 221.574 228.886 219.882C228.886 218.208 230.308 217.092 232.36 217.092ZM232.36 218.208C231.082 218.208 230.218 218.874 230.218 219.882C230.218 220.908 231.082 221.556 232.36 221.556C233.62 221.556 234.484 220.908 234.484 219.882C234.484 218.874 233.62 218.208 232.36 218.208ZM231.622 213.258H233.08V215.742H231.622V213.258ZM236.68 223.716C240.064 223.716 242.098 224.724 242.098 226.542C242.098 228.342 240.064 229.368 236.68 229.368C233.26 229.368 231.244 228.342 231.244 226.542C231.244 224.724 233.26 223.716 236.68 223.716ZM236.68 224.868C234.178 224.868 232.72 225.462 232.72 226.542C232.72 227.622 234.178 228.234 236.68 228.234C239.146 228.234 240.622 227.622 240.622 226.542C240.622 225.462 239.146 224.868 236.68 224.868Z" fill="black"/>
<path d="M31.2202 275L33.0099 264.091H34.0753L32.2855 275H31.2202ZM26.2557 271.974L26.4261 270.909H34.5653L34.3949 271.974H26.2557ZM27.3849 275L29.1747 264.091H30.2401L28.4503 275H27.3849ZM26.8949 268.182L27.0653 267.116H35.2045L35.0341 268.182H26.8949ZM42.6929 265.1H46.3229V266.12H42.6929V265.1ZM42.5729 267.92H46.2329V268.94H42.5729V267.92ZM46.1129 262.61H47.3579V270.74H46.1129V262.61ZM41.8679 263.63H43.2029C43.2029 267.125 40.7879 269.57 36.8879 270.74L36.3779 269.735C39.8429 268.73 41.8679 266.735 41.8679 264.17V263.63ZM37.0829 263.63H42.7229V264.65H37.0829V263.63ZM42.9479 270.89C45.6929 270.89 47.4329 271.865 47.4329 273.5C47.4329 275.135 45.6929 276.11 42.9479 276.11C40.2029 276.11 38.4629 275.135 38.4629 273.5C38.4629 271.865 40.2029 270.89 42.9479 270.89ZM42.9479 271.865C40.9679 271.865 39.6929 272.48 39.6929 273.5C39.6929 274.52 40.9679 275.12 42.9479 275.12C44.9429 275.12 46.2179 274.52 46.2179 273.5C46.2179 272.48 44.9429 271.865 42.9479 271.865ZM53.2967 263.315H54.3317V264.695C54.3317 267.305 52.8617 269.465 50.5967 270.35L49.9367 269.345C51.9767 268.595 53.2967 266.765 53.2967 264.695V263.315ZM53.5217 263.315H54.5417V264.785C54.5417 266.615 55.8917 268.31 57.8417 268.985L57.1817 269.96C55.0067 269.15 53.5217 267.14 53.5217 264.785V263.315ZM59.2817 262.61H60.5267V270.83H59.2817V262.61ZM60.1817 266.105H62.5367V267.155H60.1817V266.105ZM56.2067 271.205C58.9817 271.205 60.6617 272.12 60.6617 273.68C60.6617 275.24 58.9817 276.14 56.2067 276.14C53.4317 276.14 51.7517 275.24 51.7517 273.68C51.7517 272.12 53.4317 271.205 56.2067 271.205ZM56.2067 272.195C54.1967 272.195 52.9667 272.735 52.9667 273.68C52.9667 274.625 54.1967 275.165 56.2067 275.165C58.2167 275.165 59.4467 274.625 59.4467 273.68C59.4467 272.735 58.2167 272.195 56.2067 272.195ZM65.3555 268.94H74.6705V269.96H65.3555V268.94ZM63.8105 273.425H76.0955V274.475H63.8105V273.425ZM69.3005 269.375H70.5455V273.845H69.3005V269.375ZM65.3555 263.69H74.5355V264.71H66.6005V269.39H65.3555V263.69ZM86.2983 275L88.0881 264.091H89.1534L87.3636 275H86.2983ZM81.3338 271.974L81.5043 270.909H89.6435L89.473 271.974H81.3338ZM82.4631 275L84.2528 264.091H85.3182L83.5284 275H82.4631ZM81.973 268.182L82.1435 267.116H90.2827L90.1122 268.182H81.973ZM91.276 270.635H103.576V271.655H91.276V270.635ZM96.766 271.115H97.996V276.17H96.766V271.115ZM92.821 263.15H94.066V265.01H100.771V263.15H102.001V269.015H92.821V263.15ZM94.066 266.015V268.01H100.771V266.015H94.066ZM108.42 263.435H109.44V265.1C109.44 267.755 107.97 269.87 105.69 270.755L105.03 269.765C107.1 269.03 108.42 267.2 108.42 265.1V263.435ZM108.63 263.435H109.65V265.145C109.65 266.99 111 268.73 112.98 269.435L112.365 270.41C110.13 269.6 108.63 267.53 108.63 265.145V263.435ZM114.36 262.595H115.605V272.615H114.36V262.595ZM115.215 266.765H117.615V267.8H115.215V266.765ZM107.19 274.85H116.205V275.87H107.19V274.85ZM107.19 271.67H108.435V275.345H107.19V271.67ZM127.578 275L129.367 264.091H130.433L128.643 275H127.578ZM122.613 271.974L122.784 270.909H130.923L130.752 271.974H122.613ZM123.742 275L125.532 264.091H126.597L124.808 275H123.742ZM123.252 268.182L123.423 267.116H131.562L131.392 268.182H123.252ZM134.115 269.105H143.43V270.125H134.115V269.105ZM132.57 273.305H144.855V274.34H132.57V273.305ZM134.115 263.855H143.295V264.89H135.36V269.555H134.115V263.855ZM146.354 270.35H158.654V271.37H146.354V270.35ZM147.974 275.015H157.364V276.035H147.974V275.015ZM147.974 272.27H149.219V275.315H147.974V272.27ZM151.874 268.4H153.119V270.785H151.874V268.4ZM147.914 263.045H157.064V266.405H149.174V268.235H147.944V265.49H155.849V264.02H147.914V263.045ZM147.944 267.905H157.364V268.88H147.944V267.905ZM163.498 270.365H164.728V273.98H163.498V270.365ZM167.878 270.365H169.108V273.98H167.878V270.365ZM160.168 273.41H172.453V274.445H160.168V273.41ZM165.598 263.495H166.678V264.53C166.678 267.38 163.888 269.525 161.128 270.065L160.603 269.045C163.018 268.64 165.598 266.735 165.598 264.53V263.495ZM165.823 263.495H166.903V264.53C166.903 266.735 169.483 268.64 171.898 269.045L171.388 270.065C168.613 269.525 165.823 267.38 165.823 264.53V263.495ZM182.656 275L184.445 264.091H185.511L183.721 275H182.656ZM177.691 271.974L177.862 270.909H186.001L185.83 271.974H177.691ZM178.82 275L180.61 264.091H181.676L179.886 275H178.82ZM178.33 268.182L178.501 267.116H186.64L186.47 268.182H178.33ZM196.813 262.61H198.073V276.17H196.813V262.61ZM197.773 267.935H200.293V269H197.773V267.935ZM188.173 263.75H189.403V267.335H193.273V263.75H194.503V272.915H188.173V263.75ZM189.403 268.325V271.895H193.273V268.325H189.403ZM207.042 263.57H208.317C208.317 267.065 206.292 269.615 202.197 270.965L201.687 269.99C205.287 268.82 207.042 266.735 207.042 264.035V263.57ZM202.272 263.57H207.747V264.59H202.272V263.57ZM207.012 266.09V266.96L201.807 267.35L201.597 266.33L207.012 266.09ZM210.717 262.61H211.962V270.845H210.717V262.61ZM211.617 266.195H213.972V267.23H211.617V266.195ZM207.717 271.055C210.417 271.055 212.112 272.015 212.112 273.605C212.112 275.18 210.417 276.14 207.717 276.14C205.002 276.14 203.292 275.18 203.292 273.605C203.292 272.015 205.002 271.055 207.717 271.055ZM207.717 272.045C205.752 272.045 204.522 272.615 204.522 273.605C204.522 274.58 205.752 275.165 207.717 275.165C209.667 275.165 210.912 274.58 210.912 273.605C210.912 272.615 209.667 272.045 207.717 272.045ZM220.676 263.54H221.756V264.575C221.756 267.53 219.011 269.825 216.296 270.44L215.741 269.405C218.126 268.955 220.676 266.885 220.676 264.575V263.54ZM220.901 263.54H221.981V264.575C221.981 266.9 224.546 268.955 226.916 269.405L226.361 270.44C223.661 269.825 220.901 267.545 220.901 264.575V263.54ZM215.246 273.32H227.531V274.34H215.246V273.32Z" fill="#262626"/>
</svg>
