<svg xmlns="http://www.w3.org/2000/svg" width="400" height="300" fill="none"><path fill="#fff" fill-opacity=".5" d="M0 30C0 13.432 13.432 0 30 0h340c16.569 0 30 13.432 30 30v240c0 16.569-13.431 30-30 30H30c-16.568 0-30-13.431-30-30z"/><path fill="#000" d="M31.607 38.312h18.458v2.31H31.607zm7.7 1.166h2.904v7.48h-2.904zm-5.588-12.122h2.904v2.31h8.36v-2.31h2.904v9.02H33.719zm2.904 4.598v2.09h8.36v-2.09zM56.42 27.84h2.398v2.2c0 4.048-1.826 7.524-5.72 8.866l-1.562-2.288c3.454-1.1 4.884-3.828 4.884-6.578zm.572 0h2.376v2.222c0 2.552 1.386 5.104 4.664 6.182l-1.496 2.266c-3.784-1.254-5.544-4.62-5.544-8.448zm7.964-1.254h2.926V41.48h-2.926zm2.09 5.896h3.542v2.42h-3.542zM54.749 44.274h13.86v2.332h-13.86zm0-4.202h2.948v5.434h-2.948zM82.83 28.398v19.93h-5.133v-1.851h2.899V30.25h-2.899v-1.852zM26.882 90.762h14.76v1.224h-14.76zm6.588.576h1.476v6.066H33.47zm-4.734-9.558h1.494v2.232h8.046V81.78h1.476v7.038H28.736zm1.494 3.438v2.394h8.046v-2.394zm17.225-3.096h1.224v1.998c0 3.186-1.764 5.724-4.5 6.786l-.792-1.188c2.484-.882 4.068-3.078 4.068-5.598zm.252 0h1.224v2.052c0 2.214 1.62 4.302 3.996 5.148l-.738 1.17c-2.682-.972-4.482-3.456-4.482-6.318zm6.876-1.008h1.494v12.024h-1.494zm1.026 5.004h2.88v1.242h-2.88zm-9.63 9.702h10.818v1.224H45.979zm0-3.816h1.494v4.41h-1.494zm26.128-7.254h4.914v1.242h-4.914zm0 5.148h4.914v1.242h-4.914zm-2.988-7.524c2.358 0 4.05 2.214 4.05 5.67 0 3.474-1.692 5.688-4.05 5.688-2.376 0-4.05-2.214-4.05-5.688 0-3.456 1.674-5.67 4.05-5.67m0 1.35c-1.566 0-2.646 1.692-2.646 4.32 0 2.646 1.08 4.374 2.646 4.374s2.646-1.728 2.646-4.374c0-2.628-1.08-4.32-2.646-4.32m7.578-2.61h1.476v16.308h-1.476zm16.918.018h1.422v10.296h-1.422zm-2.645 4.41h3.078v1.242h-3.079zm-.829-4.086h1.404v9.396h-1.404zm-8.892 1.62h8.245v1.188h-8.245zm4.14 2.016c2.035 0 3.457 1.116 3.457 2.79 0 1.692-1.422 2.79-3.457 2.79-2.051 0-3.474-1.098-3.474-2.79 0-1.674 1.422-2.79 3.474-2.79m0 1.116c-1.277 0-2.141.666-2.141 1.674 0 1.026.864 1.674 2.141 1.674 1.26 0 2.124-.648 2.124-1.674 0-1.008-.864-1.674-2.124-1.674m-.737-4.95h1.457v2.484h-1.457zm5.058 10.458c3.384 0 5.418 1.008 5.418 2.826 0 1.8-2.034 2.826-5.418 2.826-3.42 0-5.436-1.026-5.436-2.826 0-1.818 2.016-2.826 5.436-2.826m0 1.152c-2.502 0-3.96.594-3.96 1.674s1.457 1.692 3.96 1.692c2.466 0 3.942-.612 3.942-1.692s-1.477-1.674-3.942-1.674m14.302-11.25h11.952v1.17h-11.952zm.072 4.266h11.808v1.152h-11.808zm2.394-3.816h1.494v4.572h-1.494zm5.544 0h1.476v4.572h-1.476zm-9.378 6.318h14.706v1.206h-14.706zm1.782 2.628h11.052v3.564h-9.54v1.962h-1.476v-3.024h9.54V92.13h-9.576zm.036 5.076h11.502v1.134h-11.502zm15.28-3.816h1.08c1.98 0 3.78-.072 5.976-.45l.126 1.242c-2.25.396-4.086.45-6.102.45h-1.08zm-.036-9.378h6.102v5.724H121.2v4.122h-1.458v-5.346h4.608V84.12h-4.644zm11.88-1.764h1.44v16.272h-1.44zm-2.754 6.426h3.132v1.224h-3.132zm-.936-6.066h1.404v15.084h-1.404zm19.799-.36h1.494V97.44h-1.494zm-5.004 5.364h5.49v1.224h-5.49zm-6.03-3.546h1.476v10.08h-1.476zm0 9.288h1.26c2.52 0 4.77-.144 7.272-.666l.18 1.26c-2.592.504-4.878.666-7.452.666h-1.26zm23.235-9.329-.166 9.326h-1.771l-.166-9.326zm-1.049 13.212q-.53 0-.907-.37a1.21 1.21 0 0 1-.371-.908q-.006-.525.371-.895.377-.377.907-.377.519 0 .895.377a1.23 1.23 0 0 1 .199 1.54 1.3 1.3 0 0 1-.461.46 1.2 1.2 0 0 1-.633.173M27.035 131v-1.457q0-.607.237-1.228.242-.626.626-1.163.39-.543.806-.895l1.33.729q-.346.563-.55 1.176a4.2 4.2 0 0 0-.199 1.374V131zm3.21 0v-1.457q0-.607.236-1.228a5.3 5.3 0 0 1 .626-1.163q.39-.543.806-.895l1.33.729q-.346.563-.55 1.176a4.2 4.2 0 0 0-.199 1.374V131zm4.315 3.528h15.102v1.89H34.56zm6.3.954h2.376v6.12H40.86zm-4.572-9.918h2.376v1.89h6.84v-1.89h2.376v7.38H36.288zm2.376 3.762v1.71h6.84v-1.71zm16.198-3.366h1.962v1.8c0 3.312-1.494 6.156-4.68 7.254l-1.278-1.872c2.826-.9 3.996-3.132 3.996-5.382zm.468 0h1.944v1.818c0 2.088 1.134 4.176 3.816 5.058l-1.224 1.854c-3.096-1.026-4.536-3.78-4.536-6.912zm6.516-1.026h2.394v12.186h-2.394zm1.71 4.824h2.898v1.98h-2.898zm-10.062 9.648h11.34v1.908h-11.34zm0-3.438h2.412v4.446h-2.412zm14.805.619q-.045-1.266.275-2.167t.972-1.381 1.591-.479q.582 0 1.132.236t1.253.857q.338.294.581.466a.97.97 0 0 0 .576.173.9.9 0 0 0 .71-.339q.286-.345.261-1.118h2.32q.051 1.258-.28 2.16-.333.901-.992 1.387-.651.48-1.565.48-.626 0-1.19-.256-.555-.256-1.22-.838a6 6 0 0 0-.595-.485.9.9 0 0 0-.537-.154.88.88 0 0 0-.71.339q-.28.332-.261 1.119zm26.259-11.653h2.412v16.668h-2.412zm1.872 6.21h2.952v1.98H96.43zm-12.024-4.896h2.376v4.05h3.348v-4.05h2.376v11.502h-8.1zm2.376 5.904v3.672h3.348v-3.672zm19.798-6.174h2.484c0 4.626-2.232 7.758-7.542 9.468l-.954-1.854c4.374-1.368 6.012-3.636 6.012-6.624zm-5.148 0h6.678v1.908h-6.678zm5.436 3.168v1.62l-5.958.432-.324-1.854zm4.32-4.212h2.394v9.792h-2.394zm1.728 3.96h2.88v1.98h-2.88zm-4.734 6.084c3.384 0 5.58 1.278 5.58 3.312s-2.196 3.312-5.58 3.312-5.616-1.278-5.616-3.312 2.232-3.312 5.616-3.312m0 1.854c-2.052 0-3.24.468-3.24 1.458 0 .972 1.188 1.476 3.24 1.476 2.034 0 3.24-.504 3.24-1.476 0-.99-1.206-1.458-3.24-1.458m15.029-10.944h2.088v1.206c0 3.618-2.574 6.822-6.894 7.668l-1.026-1.98c3.762-.648 5.832-3.294 5.832-5.688zm.486 0h2.07v1.206c0 2.448 2.052 5.04 5.832 5.688l-1.026 1.98c-4.32-.846-6.876-3.996-6.876-7.668zm-6.66 11.736h15.084v1.944h-15.084zm20.001.586-.058.71a9.2 9.2 0 0 1-.313 1.719 15 15 0 0 1-.492 1.515 54 54 0 0 1-.416 1.042h-1.968q.101-.37.275-1.042.179-.67.332-1.515.153-.843.172-1.713l.013-.716zm11.83-7.138h2.736v1.926h-2.736zm5.382-6.138h2.286v16.668h-2.286zm-3.402.252h2.25v15.66h-2.25zm-4.896.918c2.214 0 3.636 2.286 3.636 6.048 0 3.78-1.422 6.066-3.636 6.066-2.196 0-3.6-2.286-3.6-6.066 0-3.762 1.404-6.048 3.6-6.048m0 2.25c-.9 0-1.422 1.26-1.422 3.798 0 2.556.522 3.798 1.422 3.798.936 0 1.458-1.242 1.458-3.798 0-2.538-.522-3.798-1.458-3.798m14.741-3.132h2.358v1.098h6.498v-1.098h2.376v5.58h-11.232zm2.358 2.844v.972h6.498v-.972zm-4.284 3.636h15.066v1.872h-15.066zm1.728 2.826h11.52v4.23h-9.144v1.512h-2.358v-3.15h9.144v-.846h-9.162zm.018 5.184h11.934v1.782h-11.934zm25.468-14.778h2.412v16.668h-2.412zm1.872 6.21h2.952v1.98h-2.952zm-12.024-4.896h2.376v4.05h3.348v-4.05h2.376v11.502h-8.1zm2.376 5.904v3.672h3.348v-3.672zm25.163-7.236h2.394v16.722h-2.394zm-10.584 10.89h1.476c2.952 0 5.31-.108 7.956-.558l.234 1.926c-2.7.486-5.148.576-8.19.576h-1.476zm-.018-9.468h7.866v6.444h-5.418v3.744h-2.43v-5.634h5.4v-2.646h-5.418zm28.202 2.754h3.204v1.926h-3.204zm-2.394-3.348h2.502c0 4.59-2.16 7.632-7.578 9.27l-.936-1.872c4.536-1.314 6.012-3.51 6.012-6.372zm-5.148 0h6.696v1.89h-6.696zm5.436 3.06v1.638l-5.94.45-.342-1.872zm5.004-3.87h2.394v9.504h-2.394zm-8.586 10.26h10.98v6.228h-10.98zm8.622 1.872h-6.264v2.466h6.264zm4.966-2.25h15.084v1.944h-15.084zm6.336.684h2.376v6.12h-2.376zm-4.464-3.78h11.646v1.89H230.74zm0-6.12h11.466v1.872h-9.108v4.698h-2.358zm1.692 3.078h9.414v1.818h-9.414zm16.844-1.242h7.974v1.908h-7.974zm4.014 2.646c2.124 0 3.654 1.638 3.654 3.978 0 2.322-1.53 3.96-3.654 3.96-2.106 0-3.654-1.638-3.654-3.96 0-2.34 1.548-3.978 3.654-3.978m0 1.998c-.9 0-1.53.72-1.53 1.98s.63 1.962 1.53 1.962 1.548-.702 1.548-1.962-.648-1.98-1.548-1.98m8.046-7.146h2.286v16.668h-2.286zm-1.998 6.768h2.754v1.926h-2.754zm-1.494-6.462h2.232v15.66h-2.232zm-5.724.144h2.358v3.258h-2.358zm13.733 7.65h15.102v1.89h-15.102zm6.462 1.242h2.43v3.51h-2.43zm-4.698 5.112h11.682v1.926h-11.682zm0-3.06h2.412v3.546h-2.412zm5.778-11.088c3.582 0 5.994 1.35 5.994 3.456 0 2.124-2.412 3.456-5.994 3.456-3.6 0-5.994-1.332-5.994-3.456 0-2.106 2.394-3.456 5.994-3.456m0 1.89c-2.106 0-3.42.54-3.42 1.566s1.314 1.548 3.42 1.548 3.42-.522 3.42-1.548-1.314-1.566-3.42-1.566m21.058-2.196h2.268v16.668h-2.268zm-2.232 6.408h2.772v1.926h-2.772zm-1.494-6.12h2.214v15.588h-2.214zm-7.848 10.656h1.17c2.052 0 3.762-.072 5.742-.432l.18 1.944c-2.016.396-3.78.45-5.922.45h-1.17zm0-9.018h6.156v1.926h-3.78v8.028h-2.376zm18.963.049v1.457q0 .607-.243 1.228a5.1 5.1 0 0 1-.62 1.15 5.1 5.1 0 0 1-.811.908l-1.33-.729q.294-.486.524-1.093.23-.614.23-1.457v-1.464zm3.19 0v1.457q0 .607-.243 1.228a5.2 5.2 0 0 1-.62 1.15 5.1 5.1 0 0 1-.812.908l-1.329-.729q.293-.486.524-1.093.23-.614.23-1.457v-1.464zM33.488 175.45h3.078v1.242h-3.078zm5.796-6.318h1.44v16.272h-1.44zm-3.222.342h1.422v15.12h-1.422zm-5.508 1.008c2.106 0 3.474 2.178 3.474 5.67s-1.368 5.67-3.474 5.67-3.456-2.178-3.456-5.67 1.35-5.67 3.456-5.67m0 1.386c-1.278 0-2.088 1.656-2.088 4.284s.81 4.284 2.088 4.284c1.296 0 2.106-1.656 2.106-4.284s-.81-4.284-2.106-4.284m14.849-2.448h1.476v1.512h7.866v-1.512h1.494v5.364H45.403zm1.476 2.664v1.548h7.866v-1.548zm-3.438 4.068h14.706v1.206H43.44zm1.782 2.682h11.052v3.636h-9.54v1.998h-1.476v-3.078h9.54v-1.422h-9.576zm.036 5.238H56.76v1.152H45.259zm25.756-14.94h1.512v16.272h-1.512zm1.152 6.39h3.024v1.278h-3.024zm-11.52-5.022h1.476v4.302h4.644V170.5h1.476v10.998h-7.596zm1.476 5.49v4.284h4.644v-4.284zm26.297-6.876h1.494v16.308H88.42zm-10.908 11.142h1.35c2.718 0 5.148-.108 8.028-.576l.162 1.224c-2.952.486-5.4.594-8.19.594h-1.35zm-.036-9.612H85v5.814h-5.994v4.266h-1.494v-5.49h5.976v-3.366h-6.012zm28.774 2.79h3.798v1.224h-3.798zm-1.512-3.366h1.548c0 4.14-2.304 7.146-7.362 8.694l-.612-1.188c4.5-1.35 6.426-3.78 6.426-6.93zm-5.688 0h6.57v1.206h-6.57zm5.67 2.952v1.044l-6.228.486-.252-1.224zm5.058-3.888h1.494v9.378h-1.494zm-9 10.26h10.494v5.796h-10.494zm9.036 1.188h-7.56v3.402h7.56zm9.388-1.602h14.742v1.242h-14.742zm6.624.36h1.476v6.084h-1.476zm-4.662-3.24h11.142v1.224h-11.142zm0-6.21h10.962v1.206h-9.486v5.364h-1.476zm1.044 3.078h9.522v1.17h-9.522zm19.199-2.826h7.2v1.224h-7.2zm2.448 3.528h1.476v3.888h-1.476zm4.158-3.528h1.458v.882c0 1.026 0 2.484-.414 4.41l-1.458-.126c.414-1.908.414-3.258.414-4.284zm3.69-1.008h1.494v10.152h-1.494zm.81 4.428h3.006v1.26h-3.006zm-11.916 4.608-.18-1.242c2.952 0 6.894-.054 10.188-.486l.108 1.098c-3.366.558-7.218.63-10.116.63m7.344 1.314c3.348 0 5.418 1.08 5.418 2.934 0 1.872-2.07 2.952-5.418 2.952s-5.382-1.08-5.382-2.952c0-1.854 2.034-2.934 5.382-2.934m0 1.17c-2.412 0-3.888.648-3.888 1.764s1.476 1.764 3.888 1.764c2.43 0 3.888-.648 3.888-1.764s-1.458-1.764-3.888-1.764m25.048-11.538h1.494v11.988h-1.494zm1.026 4.95h2.88v1.242h-2.88zm-9.666 9.756h10.872v1.224h-10.872zm0-3.942h1.494v4.428h-1.494zm2.052-9.612c2.43 0 4.248 1.674 4.248 4.014 0 2.358-1.818 4.014-4.248 4.014s-4.248-1.656-4.248-4.014c0-2.34 1.818-4.014 4.248-4.014m0 1.314c-1.584 0-2.79 1.116-2.79 2.7 0 1.602 1.206 2.7 2.79 2.7s2.79-1.098 2.79-2.7c0-1.584-1.206-2.7-2.79-2.7m28.63-2.466h1.494v16.308h-1.494zm-10.908 11.142h1.35c2.718 0 5.148-.108 8.028-.576l.162 1.224c-2.952.486-5.4.594-8.19.594h-1.35zm-.036-9.612h7.524v5.814h-5.994v4.266h-1.494v-5.49h5.976v-3.366h-6.012zm20.967 8.255q-.025-1.106.326-1.815.358-.71.959-1.048.6-.346 1.323-.346.639 0 1.182.275.544.269 1.241.882.434.378.709.55.275.166.614.166.518 0 .824-.383.313-.39.301-1.151h1.617q.025 1.113-.333 1.822-.352.71-.958 1.048-.602.339-1.317.339a2.6 2.6 0 0 1-1.189-.275q-.543-.28-1.234-.882a5.4 5.4 0 0 0-.716-.55 1.13 1.13 0 0 0-.607-.166q-.492 0-.818.358-.32.351-.307 1.176zm15.736-7.99h2.243l3.42 5.951h.141l3.419-5.951h2.244l-4.749 7.952V184h-1.969v-5.139zm15.793 13.289q-1.452 0-2.5-.62a4.2 4.2 0 0 1-1.61-1.758q-.563-1.137-.563-2.665 0-1.509.563-2.659.568-1.15 1.585-1.796 1.023-.646 2.391-.646.83 0 1.61.275t1.4.863.978 1.527q.358.934.358 2.27v.677h-7.805v-1.432h5.932q0-.754-.307-1.336a2.3 2.3 0 0 0-.863-.926q-.549-.339-1.291-.339-.805 0-1.406.396-.594.39-.92 1.023a2.95 2.95 0 0 0-.32 1.361v1.119q0 .984.345 1.675.353.69.978 1.054.627.358 1.464.358.543 0 .991-.153.447-.16.773-.473.326-.314.499-.774l1.809.326q-.218.8-.78 1.4a3.8 3.8 0 0 1-1.4.927q-.837.326-1.911.326m9.19.019a4 4 0 0 1-1.688-.345 2.85 2.85 0 0 1-1.195-1.016q-.435-.665-.435-1.63 0-.831.32-1.368a2.36 2.36 0 0 1 .863-.85 4.5 4.5 0 0 1 1.214-.473q.672-.16 1.368-.243l1.432-.166q.55-.07.799-.224.249-.153.249-.499v-.044q0-.838-.473-1.298-.466-.46-1.393-.46-.965 0-1.521.428-.55.422-.761.94l-1.796-.409q.32-.895.933-1.445a3.8 3.8 0 0 1 1.426-.805 5.5 5.5 0 0 1 1.693-.256q.588 0 1.247.141a3.6 3.6 0 0 1 1.24.498q.582.364.952 1.042.37.672.371 1.745V184h-1.866v-1.342h-.077q-.186.37-.556.728a3 3 0 0 1-.953.595q-.581.236-1.393.236m.415-1.534q.793 0 1.356-.313.568-.314.862-.818.301-.511.301-1.093v-1.266q-.102.102-.396.192a6 6 0 0 1-.659.147q-.37.057-.722.109l-.588.076q-.557.07-1.017.237-.453.166-.728.479-.269.308-.269.818 0 .71.524 1.074.525.358 1.336.358m8.887-4.513V184h-1.911v-13.091h1.885v4.871h.122q.345-.793 1.054-1.259.71-.467 1.854-.467 1.01 0 1.764.415.761.416 1.177 1.241.421.818.421 2.045V184h-1.911v-6.015q0-1.08-.556-1.675-.556-.6-1.547-.6-.678 0-1.214.287a2.1 2.1 0 0 0-.838.844q-.3.55-.3 1.329m11.327-7.261-.167 9.326h-1.77l-.166-9.326zm-1.049 13.212q-.53 0-.907-.37a1.22 1.22 0 0 1-.371-.908 1.19 1.19 0 0 1 .371-.895q.377-.377.907-.377.519 0 .895.377.377.371.384.895-.007.352-.186.646a1.3 1.3 0 0 1-.46.46 1.2 1.2 0 0 1-.633.172m16.013-7.033h5.868v1.224h-5.868zm-7.722 4.86h14.76v1.242h-14.76zm7.722-11.106h5.706v1.206h-4.212v5.436h-1.494zm-6.408.018h5.526v1.224h-4.032v5.346h-1.494zm0 6.228h.9c1.584 0 3.06-.054 4.752-.45l.144 1.242c-1.764.378-3.24.432-4.896.432h-.9zm27.142-7.956h1.494v16.272H302.1zm-3.798 6.516h4.464v1.242h-4.464zm-1.422-4.77h1.476c0 4.644-1.926 8.748-7.326 11.448l-.828-1.17c4.734-2.322 6.678-5.778 6.678-10.026zm-5.976 0h6.768v1.224h-6.768zm15.857 6.498h14.76v1.224h-14.76zm6.732.774h1.512v3.744h-1.512zm-4.86 5.652h11.25v1.242h-11.25zm0-3.51h1.494v3.852h-1.494zm5.49-10.764c3.438 0 5.706 1.26 5.706 3.276s-2.268 3.276-5.706 3.276c-3.456 0-5.706-1.26-5.706-3.276s2.25-3.276 5.706-3.276m0 1.224c-2.484 0-4.122.792-4.122 2.052 0 1.278 1.638 2.052 4.122 2.052s4.122-.774 4.122-2.052c0-1.26-1.638-2.052-4.122-2.052m21.304 1.998h4.914v1.242h-4.914zm0 5.148h4.914v1.242h-4.914zm-2.988-7.524c2.358 0 4.05 2.214 4.05 5.67 0 3.474-1.692 5.688-4.05 5.688-2.376 0-4.05-2.214-4.05-5.688 0-3.456 1.674-5.67 4.05-5.67m0 1.35c-1.566 0-2.646 1.692-2.646 4.32 0 2.646 1.08 4.374 2.646 4.374s2.646-1.728 2.646-4.374c0-2.628-1.08-4.32-2.646-4.32m7.578-2.61h1.476v16.308h-1.476zm4.625 8.406h14.76v1.224h-14.76zm1.872-7.992h10.98v3.852h-9.468v2.16h-1.476v-3.258h9.486v-1.584h-9.522zm.036 5.436h11.304v1.17H346.55zm.072 5.256h10.89v4.968h-10.89zm9.432 1.188h-7.974v2.574h7.974zm12.508-12.006c3.582 0 5.724 1.008 5.724 2.826s-2.142 2.826-5.724 2.826c-3.6 0-5.724-1.008-5.724-2.826s2.124-2.826 5.724-2.826m0 1.134c-2.664 0-4.194.612-4.194 1.692s1.53 1.692 4.194 1.692c2.646 0 4.176-.612 4.176-1.692s-1.53-1.692-4.176-1.692m-7.362 5.598h14.706v1.206H361.2zm1.782 2.592h11.052v3.672h-9.54v1.98h-1.476v-3.06h9.54v-1.44h-9.576zm.036 5.328h11.502v1.17h-11.502zM26.9 204.092h14.742v1.242H26.9zm6.588-3.888h1.494v4.248h-1.494zm-4.86-7.92h1.476v2.898h8.298v-2.898h1.476v8.316h-11.25zm1.476 4.104v2.988h8.298v-2.988zm25.703-5.256h1.44v16.272h-1.44zm-2.736 6.624h3.132v1.224H53.07zm-.954-6.264h1.404v15.084h-1.404zm-7.884 1.602h1.494v9.396h-1.494zm0 8.802h1.044c1.674 0 3.546-.108 5.67-.522l.162 1.296c-2.214.432-4.086.522-5.832.522h-1.044zm17.332-9.144h10.476v1.242H61.565zm-1.548 11.142h14.706v1.242H60.017zm5.706-5.814h1.494v6.426h-1.494zm5.76-5.328h1.476v1.62c0 2.016 0 4.248-.594 7.542l-1.494-.198c.612-3.114.612-5.4.612-7.344zm16.919-1.602h1.512v9.018h-1.512zm-7.596.576h1.242v1.584c0 3.006-1.872 5.544-4.626 6.534l-.756-1.17c2.448-.864 4.14-3.024 4.14-5.364zm.27 0H82.3v1.584c0 2.268 1.71 4.266 4.122 5.058l-.738 1.188c-2.736-.936-4.608-3.33-4.608-6.246zm-1.926 9.414h10.854v1.224H79.15zm-.162 4.842h11.196v1.206H78.988zm2.394-4.32h1.458v5.022h-1.458zm4.932 0h1.476v5.022h-1.476zm6.802-1.98h14.706v1.224H93.116zm1.908 6.138h11.178v1.224H95.024zm0-3.492h1.494v3.87h-1.494zm5.454-10.656c3.474 0 5.724 1.224 5.724 3.258 0 2.016-2.25 3.24-5.724 3.24-3.492 0-5.724-1.224-5.724-3.24 0-2.034 2.232-3.258 5.724-3.258m0 1.224c-2.556 0-4.194.756-4.194 2.034s1.638 2.034 4.194 2.034 4.194-.756 4.194-2.034-1.638-2.034-4.194-2.034m17.993.558h1.188v2.646c0 3.384-2.07 6.876-4.608 8.172l-.864-1.188c2.322-1.134 4.284-4.23 4.284-6.984zm.27 0h1.188v2.646c0 2.574 1.836 5.472 4.194 6.588l-.846 1.188c-2.574-1.278-4.536-4.554-4.536-7.776zm-3.978-.666h8.766v1.26h-8.766zm10.692-1.656h1.512v16.272h-1.512zm1.152 6.57h3.024v1.26h-3.024zm11.734-2.952h4.914v1.242h-4.914zm0 5.148h4.914v1.242h-4.914zm-2.988-7.524c2.358 0 4.05 2.214 4.05 5.67 0 3.474-1.692 5.688-4.05 5.688-2.376 0-4.05-2.214-4.05-5.688 0-3.456 1.674-5.67 4.05-5.67m0 1.35c-1.566 0-2.646 1.692-2.646 4.32 0 2.646 1.08 4.374 2.646 4.374s2.646-1.728 2.646-4.374c0-2.628-1.08-4.32-2.646-4.32m7.578-2.61h1.476v16.308h-1.476zm9.389 9.648h14.76v1.224h-14.76zm6.588.576h1.476v6.066h-1.476zm-4.734-9.558h1.494v2.232h8.046v-2.232h1.476v7.038h-11.016zm1.494 3.438v2.394h8.046v-2.394zm17.224-3.096h1.224v1.998c0 3.186-1.764 5.724-4.5 6.786l-.792-1.188c2.484-.882 4.068-3.078 4.068-5.598zm.252 0h1.224v2.052c0 2.214 1.62 4.302 3.996 5.148l-.738 1.17c-2.682-.972-4.482-3.456-4.482-6.318zm6.876-1.008h1.494v12.024h-1.494zm1.026 5.004h2.88v1.242h-2.88zm-9.63 9.702h10.818v1.224h-10.818zm0-3.816h1.494v4.41h-1.494zm21.383-9.846c3.384 0 5.904 1.8 5.904 4.5 0 2.718-2.52 4.5-5.904 4.5s-5.922-1.782-5.922-4.5c0-2.7 2.538-4.5 5.922-4.5m0 1.224c-2.574 0-4.482 1.314-4.482 3.276 0 1.944 1.908 3.276 4.482 3.276s4.482-1.332 4.482-3.276c0-1.962-1.908-3.276-4.482-3.276m-7.344 10.62h14.742v1.26h-14.742zm16.558.162h14.742v1.242h-14.742zm6.588-3.492h1.494v4.014h-1.494zm-4.806-8.334h11.142v4.932h-9.612v3.258h-1.476v-4.464h9.612v-2.52h-9.666zm.054 7.56h11.466v1.224h-11.466zm26.075.432h1.494v4.05h-1.494zm.756-8.136c3.438 0 5.904 1.674 5.904 4.266s-2.466 4.266-5.904 4.266-5.922-1.674-5.922-4.266 2.484-4.266 5.922-4.266m0 1.188c-2.592 0-4.482 1.224-4.482 3.078s1.89 3.078 4.482 3.078c2.574 0 4.464-1.224 4.464-3.078s-1.89-3.078-4.464-3.078m-7.344 10.71h14.742v1.242h-14.742zm27.574-12.978h1.494v16.308h-1.494zm1.134 6.48h3.024v1.26h-3.024zm-11.502 4.662h1.296c3.06 0 5.184-.108 7.65-.576l.162 1.242c-2.538.45-4.698.576-7.812.576h-1.296zm-.036-9.612h7.362v5.832h-5.85v4.284h-1.476v-5.508h5.85v-3.384h-5.886zm17.591 13.477q-.524 0-.902-.37a1.24 1.24 0 0 1-.377-.908q0-.524.377-.895.377-.377.902-.377.524 0 .901.377.377.371.377.895 0 .352-.179.646a1.3 1.3 0 0 1-.46.46 1.2 1.2 0 0 1-.639.172m7.97-12.217h8.064v1.224h-8.064zm4.032 2.304c2.034 0 3.51 1.53 3.51 3.726 0 2.178-1.476 3.708-3.51 3.708-2.016 0-3.492-1.53-3.492-3.708 0-2.196 1.476-3.726 3.492-3.726m0 1.278c-1.242 0-2.142 1.008-2.142 2.448s.9 2.448 2.142 2.448c1.26 0 2.178-1.008 2.178-2.448s-.918-2.448-2.178-2.448m8.334-6.354h1.44v16.272h-1.44zm-2.592 6.84h3.078v1.242h-3.078zm-.882-6.48h1.404v15.12h-1.404zm-5.58.108h1.476v3.06h-1.476zm19.853.108h1.314v.9c0 3.114-3.168 5.346-6.552 5.922l-.594-1.206c2.97-.45 5.832-2.394 5.832-4.716zm.27 0h1.296v.9c0 2.268 2.898 4.266 5.832 4.716l-.594 1.206c-3.348-.576-6.534-2.844-6.534-5.922zm-.27 9.504h1.476v6.192h-1.476zm-6.57-.918h14.706v1.242h-14.706zm20.176-3.528h1.476v3.078h-1.476zm5.976 0h1.476v3.078h-1.476zm-2.25-5.292c3.51 0 5.724 1.152 5.724 3.096 0 1.962-2.214 3.114-5.724 3.114-3.528 0-5.724-1.152-5.724-3.114 0-1.944 2.196-3.096 5.724-3.096m0 1.188c-2.592 0-4.194.702-4.194 1.908s1.602 1.926 4.194 1.926c2.574 0 4.194-.72 4.194-1.926s-1.62-1.908-4.194-1.908m-7.362 6.75h14.706v1.224h-14.706zm1.638 2.736h11.25v5.256h-1.494v-4.032h-9.756zm18.935-9.27h1.224v1.314c0 2.988-1.8 5.49-4.536 6.48l-.756-1.188c2.448-.864 4.068-2.97 4.068-5.292zm.27 0h1.224v1.296c0 2.124 1.548 4.032 3.942 4.824l-.72 1.17c-2.718-.9-4.446-3.222-4.446-5.994zm-3.888-.54h8.694v1.224h-8.694zm10.746-1.206h1.494v9.81h-1.494zm1.08 4.122h2.826v1.26h-2.826zm-4.77 6.12c3.312 0 5.346 1.098 5.346 2.988 0 1.908-2.034 3.006-5.346 3.006s-5.346-1.098-5.346-3.006c0-1.89 2.034-2.988 5.346-2.988m0 1.206c-2.412 0-3.888.648-3.888 1.782 0 1.152 1.476 1.836 3.888 1.836s3.888-.684 3.888-1.836c0-1.134-1.476-1.782-3.888-1.782m9.107-1.818h14.76v1.224h-14.76zm6.588.576h1.476v6.066h-1.476zm-4.734-9.558h1.494v2.232h8.046v-2.232h1.476v7.038h-11.016zm1.494 3.438v2.394h8.046v-2.394zm25.144-4.104h1.476v16.308h-1.476zm-3.384 6.138h3.6v1.242h-3.6zm-7.794 5.022h1.242c3.06 0 4.986-.054 7.272-.486l.144 1.224c-2.34.414-4.32.504-7.416.504h-1.242zm0-9.666h7.524v1.242h-6.048v8.856h-1.476zm1.098 4.572h5.724v1.206h-5.724zM31.22 214.374c2.394 0 4.086 2.214 4.086 5.67 0 3.474-1.692 5.688-4.086 5.688s-4.086-2.214-4.086-5.688c0-3.456 1.692-5.67 4.086-5.67m0 1.35c-1.584 0-2.664 1.692-2.664 4.32 0 2.646 1.08 4.374 2.664 4.374 1.566 0 2.664-1.728 2.664-4.374 0-2.628-1.098-4.32-2.664-4.32m7.776 1.494h2.988v1.26h-2.988zm0 4.842h2.988v1.26h-2.988zm-1.098-8.928h1.512v16.272h-1.512zm13.337 2.988h4.356v1.224h-4.356zm-.144 3.384h4.392v1.224H51.09zm4.248-6.372h1.494v9.756h-1.494zm-5.094 1.224h1.602c0 4.194-2.898 7.128-7.578 8.532l-.612-1.206c4.158-1.206 6.588-3.6 6.588-6.678zm-5.742 0h6.768v1.224h-6.768zm7.038 8.712c3.294 0 5.382 1.17 5.382 3.132s-2.088 3.132-5.382 3.132-5.382-1.17-5.382-3.132 2.088-3.132 5.382-3.132m0 1.17c-2.376 0-3.906.738-3.906 1.962s1.53 1.944 3.906 1.944c2.394 0 3.924-.72 3.924-1.944s-1.53-1.962-3.924-1.962m15.094-3.312h11.178v1.224H66.635zm-1.854 5.04h14.742v1.242H64.78zm1.854-11.34H77.65v1.242h-9.522v5.598h-1.494zm14.686 7.794h14.76v1.224h-14.76zm1.945 5.598h11.267v1.224H83.267zm0-3.294h1.493v3.654h-1.493zm4.68-4.644h1.493v2.862h-1.493zm-4.752-6.426h10.98v4.032h-9.469v2.196H83.23v-3.294h9.486v-1.764h-9.522zm.035 5.832h11.305v1.17H83.229zm18.665 2.952h1.476v4.338h-1.476zm5.256 0h1.476v4.338h-1.476zm-9.252 3.654h14.742v1.242H97.898zm6.516-11.898h1.296v1.242c0 3.42-3.348 5.994-6.66 6.642l-.63-1.224c2.898-.486 5.994-2.772 5.994-5.418zm.27 0h1.296v1.242c0 2.646 3.096 4.932 5.994 5.418l-.612 1.224c-3.33-.648-6.678-3.222-6.678-6.642zm21.059-1.062h1.476v16.272h-1.476zm1.008 6.696h2.898v1.26h-2.898zm-8.802-4.95h1.368c0 3.924-.828 7.722-3.744 10.872l-1.206-.846c2.682-2.79 3.582-6.174 3.582-9.864zm-3.06 0h3.618v1.242h-3.618zm7.488 0h1.386c0 3.942-.558 8.406-3.546 11.952l-1.206-.828c2.754-3.186 3.366-7.218 3.366-10.98zm-2.538 0h3.15v1.242h-3.15zm15.478.576h1.206v2.646c0 3.438-2.07 6.894-4.662 8.172l-.864-1.188c2.358-1.116 4.32-4.176 4.32-6.984zm.288 0h1.206v2.646c0 2.754 1.962 5.562 4.356 6.588l-.846 1.188c-2.628-1.224-4.716-4.392-4.716-7.776zm-4.068-.666h9.09v1.26h-9.09zm11.286-1.656h1.494v16.272h-1.494zm7.622 13.078-.096.697a11 11 0 0 1-.326 1.598 25 25 0 0 1-.466 1.553q-.237.717-.39 1.138h-1.355q.083-.396.23-1.074.147-.67.287-1.502.14-.831.211-1.694l.064-.716zm8.721-5.482h11.178v1.224h-11.178zm-1.854 5.382h14.742v1.26h-14.742zm6.588-4.86h1.494v5.364H163.9zm-4.734-6.822h11.016v1.224h-9.522v5.616h-1.494zm14.903.45h9.054v1.224h-9.054zm-.234 10.512-.18-1.278c2.934 0 6.876-.036 10.224-.45l.09 1.116c-3.402.558-7.272.612-10.134.612m1.98-9.594h1.458v8.658h-1.458zm4.104 0h1.458v8.658h-1.458zm4.95-2.664h1.512v16.272h-1.512zm1.152 6.498h3.024v1.26h-3.024zm5.254-5.094h7.578v7.578h-7.578zm6.138 1.206h-4.698v5.166h4.698zm4.842-2.592h1.512v11.682h-1.512zm-8.946 14.49h10.944v1.242h-10.944zm0-3.924h1.476v4.428h-1.476zm25.769-6.966h4.914v1.242h-4.914zm0 5.148h4.914v1.242h-4.914zm-2.988-7.524c2.358 0 4.05 2.214 4.05 5.67 0 3.474-1.692 5.688-4.05 5.688-2.376 0-4.05-2.214-4.05-5.688 0-3.456 1.674-5.67 4.05-5.67m0 1.35c-1.566 0-2.646 1.692-2.646 4.32 0 2.646 1.08 4.374 2.646 4.374s2.646-1.728 2.646-4.374c0-2.628-1.08-4.32-2.646-4.32m7.578-2.61h1.476v16.308h-1.476zm16.918.018h1.422v10.296h-1.422zm-2.646 4.41h3.078v1.242h-3.078zm-.828-4.086h1.404v9.396h-1.404zm-8.892 1.62h8.244v1.188h-8.244zm4.14 2.016c2.034 0 3.456 1.116 3.456 2.79 0 1.692-1.422 2.79-3.456 2.79-2.052 0-3.474-1.098-3.474-2.79 0-1.674 1.422-2.79 3.474-2.79m0 1.116c-1.278 0-2.142.666-2.142 1.674 0 1.026.864 1.674 2.142 1.674 1.26 0 2.124-.648 2.124-1.674 0-1.008-.864-1.674-2.124-1.674m-.738-4.95h1.458v2.484h-1.458zm5.058 10.458c3.384 0 5.418 1.008 5.418 2.826 0 1.8-2.034 2.826-5.418 2.826-3.42 0-5.436-1.026-5.436-2.826 0-1.818 2.016-2.826 5.436-2.826m0 1.152c-2.502 0-3.96.594-3.96 1.674s1.458 1.692 3.96 1.692c2.466 0 3.942-.612 3.942-1.692s-1.476-1.674-3.942-1.674"/><path fill="#262626" d="m31.22 275 1.79-10.909h1.065L32.285 275zm-4.964-3.026.17-1.065h8.14l-.171 1.065zM27.385 275l1.79-10.909h1.065L28.45 275zm-.49-6.818.17-1.066h8.14l-.17 1.066zm15.798-3.082h3.63v1.02h-3.63zm-.12 2.82h3.66v1.02h-3.66zm3.54-5.31h1.245v8.13h-1.245zm-4.245 1.02h1.335c0 3.495-2.415 5.94-6.315 7.11l-.51-1.005c3.465-1.005 5.49-3 5.49-5.565zm-4.785 0h5.64v1.02h-5.64zm5.865 7.26c2.745 0 4.485.975 4.485 2.61s-1.74 2.61-4.485 2.61-4.485-.975-4.485-2.61 1.74-2.61 4.485-2.61m0 .975c-1.98 0-3.255.615-3.255 1.635s1.275 1.62 3.255 1.62c1.995 0 3.27-.6 3.27-1.62s-1.275-1.635-3.27-1.635m10.349-8.55h1.035v1.38c0 2.61-1.47 4.77-3.735 5.655l-.66-1.005c2.04-.75 3.36-2.58 3.36-4.65zm.225 0h1.02v1.47c0 1.83 1.35 3.525 3.3 4.2l-.66.975c-2.175-.81-3.66-2.82-3.66-5.175zm5.76-.705h1.245v8.22h-1.245zm.9 3.495h2.355v1.05h-2.355zm-3.975 5.1c2.775 0 4.455.915 4.455 2.475s-1.68 2.46-4.455 2.46-4.455-.9-4.455-2.46 1.68-2.475 4.455-2.475m0 .99c-2.01 0-3.24.54-3.24 1.485s1.23 1.485 3.24 1.485 3.24-.54 3.24-1.485-1.23-1.485-3.24-1.485m9.149-3.255h9.315v1.02h-9.315zm-1.545 4.485h12.285v1.05H63.81zm5.49-4.05h1.245v4.47H69.3zm-3.945-5.685h9.18v1.02H66.6v4.68h-1.244zM86.298 275l1.79-10.909h1.065L87.363 275zm-4.964-3.026.17-1.065h8.14l-.171 1.065zm1.13 3.026 1.789-10.909h1.065L83.528 275zm-.491-6.818.17-1.066h8.14l-.17 1.066zm9.303 2.453h12.3v1.02h-12.3zm5.49.48h1.23v5.055h-1.23zm-3.945-7.965h1.245v1.86h6.705v-1.86h1.23v5.865h-9.18zm1.245 2.865v1.995h6.705v-1.995zm14.354-2.58h1.02v1.665c0 2.655-1.47 4.77-3.75 5.655l-.66-.99c2.07-.735 3.39-2.565 3.39-4.665zm.21 0h1.02v1.71c0 1.845 1.35 3.585 3.33 4.29l-.615.975c-2.235-.81-3.735-2.88-3.735-5.265zm5.73-.84h1.245v10.02h-1.245zm.855 4.17h2.4v1.035h-2.4zm-8.025 8.085h9.015v1.02h-9.015zm0-3.18h1.245v3.675h-1.245zm20.388 3.33 1.789-10.909h1.066L128.643 275zm-4.965-3.026.171-1.065h8.139l-.171 1.065zm1.129 3.026 1.79-10.909h1.065L124.808 275zm-.49-6.818.171-1.066h8.139l-.17 1.066zm10.863.923h9.315v1.02h-9.315zm-1.545 4.2h12.285v1.035H132.57zm1.545-9.45h9.18v1.035h-7.935v4.665h-1.245zm12.239 6.495h12.3v1.02h-12.3zm1.62 4.665h9.39v1.02h-9.39zm0-2.745h1.245v3.045h-1.245zm3.9-3.87h1.245v2.385h-1.245zm-3.96-5.355h9.15v3.36h-7.89v1.83h-1.23v-2.745h7.905v-1.47h-7.935zm.03 4.86h9.42v.975h-9.42zm15.554 2.46h1.23v3.615h-1.23zm4.38 0h1.23v3.615h-1.23zm-7.71 3.045h12.285v1.035h-12.285zm5.43-9.915h1.08v1.035c0 2.85-2.79 4.995-5.55 5.535l-.525-1.02c2.415-.405 4.995-2.31 4.995-4.515zm.225 0h1.08v1.035c0 2.205 2.58 4.11 4.995 4.515l-.51 1.02c-2.775-.54-5.565-2.685-5.565-5.535zM182.656 275l1.789-10.909h1.066L183.721 275zm-4.965-3.026.171-1.065h8.139l-.171 1.065zM178.82 275l1.79-10.909h1.066L179.886 275zm-.49-6.818.171-1.066h8.139l-.17 1.066zm18.483-5.572h1.26v13.56h-1.26zm.96 5.325h2.52V269h-2.52zm-9.6-4.185h1.23v3.585h3.87v-3.585h1.23v9.165h-6.33zm1.23 4.575v3.57h3.87v-3.57zm17.639-4.755h1.275c0 3.495-2.025 6.045-6.12 7.395l-.51-.975c3.6-1.17 5.355-3.255 5.355-5.955zm-4.77 0h5.475v1.02h-5.475zm4.74 2.52v.87l-5.205.39-.21-1.02zm3.705-3.48h1.245v8.235h-1.245zm.9 3.585h2.355v1.035h-2.355zm-3.9 4.86c2.7 0 4.395.96 4.395 2.55 0 1.575-1.695 2.535-4.395 2.535-2.715 0-4.425-.96-4.425-2.535 0-1.59 1.71-2.55 4.425-2.55m0 .99c-1.965 0-3.195.57-3.195 1.56 0 .975 1.23 1.56 3.195 1.56 1.95 0 3.195-.585 3.195-1.56 0-.99-1.245-1.56-3.195-1.56m12.959-8.505h1.08v1.035c0 2.955-2.745 5.25-5.46 5.865l-.555-1.035c2.385-.45 4.935-2.52 4.935-4.83zm.225 0h1.08v1.035c0 2.325 2.565 4.38 4.935 4.83l-.555 1.035c-2.7-.615-5.46-2.895-5.46-5.865zm-5.655 9.78h12.285v1.02h-12.285z"/></svg>