<svg xmlns="http://www.w3.org/2000/svg" width="71" height="71" fill="none"><circle cx="35.824" cy="35.476" r="35.176" fill="#337FED"/><path fill="#337FED" d="m18.953 45.117-2.41 9.64 9.64-2.41 27.925-27.924a4.82 4.82 0 0 0 0-6.816l-.414-.414a4.82 4.82 0 0 0-6.817 0zm24.102-24.102 7.23 7.23Zm-4.82 33.743h19.281Z"/><path stroke="#fff" stroke-linecap="round" stroke-linejoin="round" d="m43.055 21.015 7.23 7.23m-12.05 26.513h19.281m-38.563-9.641-2.41 9.64 9.64-2.41 27.925-27.924a4.82 4.82 0 0 0 0-6.816l-.414-.414a4.82 4.82 0 0 0-6.817 0z"/></svg>