<svg width="960" height="1080" viewBox="0 0 960 1080" fill="none" xmlns="http://www.w3.org/2000/svg">
<rect width="960" height="1080" fill="#ACD0FF"/>
<rect x="130" y="188" width="700" height="700" rx="15" fill="white"/>
<path d="M245.632 262.182H250.192V277.395C250.192 278.801 249.876 280.023 249.244 281.06C248.619 282.097 247.749 282.896 246.634 283.457C245.518 284.018 244.222 284.298 242.745 284.298C241.431 284.298 240.238 284.067 239.165 283.606C238.1 283.137 237.255 282.427 236.63 281.475C236.005 280.516 235.696 279.312 235.703 277.864H240.295C240.309 278.439 240.426 278.933 240.646 279.344C240.874 279.749 241.183 280.062 241.573 280.282C241.971 280.495 242.44 280.602 242.979 280.602C243.548 280.602 244.027 280.481 244.418 280.239C244.815 279.991 245.117 279.629 245.323 279.153C245.529 278.677 245.632 278.091 245.632 277.395V262.182ZM267.482 262.182H272.095V276.351C272.095 277.942 271.715 279.334 270.955 280.527C270.202 281.72 269.148 282.651 267.791 283.318C266.435 283.979 264.854 284.309 263.05 284.309C261.239 284.309 259.656 283.979 258.299 283.318C256.942 282.651 255.888 281.72 255.135 280.527C254.382 279.334 254.006 277.942 254.006 276.351V262.182H258.619V275.957C258.619 276.788 258.8 277.526 259.162 278.173C259.531 278.819 260.05 279.327 260.717 279.696C261.385 280.065 262.163 280.25 263.05 280.25C263.945 280.25 264.723 280.065 265.384 279.696C266.051 279.327 266.566 278.819 266.928 278.173C267.298 277.526 267.482 276.788 267.482 275.957V262.182ZM294.14 262.182V284H290.155L280.663 270.268H280.503V284H275.89V262.182H279.939L289.356 275.903H289.548V262.182H294.14ZM297.951 284V262.182H312.653V265.985H302.564V271.184H311.896V274.987H302.564V280.197H312.695V284H297.951ZM323.136 284V280.676L330.902 273.485C331.563 272.846 332.116 272.271 332.564 271.759C333.018 271.248 333.363 270.747 333.597 270.257C333.832 269.76 333.949 269.224 333.949 268.648C333.949 268.009 333.803 267.459 333.512 266.997C333.221 266.528 332.823 266.17 332.319 265.921C331.815 265.665 331.243 265.538 330.604 265.538C329.936 265.538 329.354 265.673 328.857 265.942C328.359 266.212 327.976 266.599 327.706 267.104C327.436 267.608 327.301 268.208 327.301 268.904H322.923C322.923 267.477 323.246 266.237 323.892 265.186C324.538 264.135 325.444 263.322 326.609 262.746C327.773 262.171 329.116 261.884 330.636 261.884C332.198 261.884 333.558 262.161 334.716 262.714C335.881 263.261 336.786 264.021 337.433 264.994C338.079 265.967 338.402 267.082 338.402 268.339C338.402 269.163 338.239 269.977 337.912 270.779C337.592 271.582 337.021 272.473 336.197 273.453C335.373 274.426 334.212 275.594 332.713 276.958L329.528 280.08V280.229H338.69V284H323.136ZM350.587 284.479C348.754 284.472 347.178 284.021 345.857 283.126C344.543 282.232 343.531 280.935 342.82 279.238C342.117 277.54 341.769 275.499 341.776 273.112C341.776 270.733 342.128 268.705 342.831 267.029C343.541 265.353 344.553 264.078 345.867 263.205C347.188 262.324 348.762 261.884 350.587 261.884C352.412 261.884 353.982 262.324 355.296 263.205C356.617 264.085 357.632 265.364 358.343 267.04C359.053 268.709 359.404 270.733 359.397 273.112C359.397 275.506 359.042 277.551 358.332 279.249C357.629 280.946 356.62 282.242 355.306 283.137C353.992 284.032 352.419 284.479 350.587 284.479ZM350.587 280.655C351.837 280.655 352.835 280.026 353.58 278.769C354.326 277.512 354.695 275.626 354.688 273.112C354.688 271.457 354.518 270.08 354.177 268.979C353.843 267.878 353.367 267.05 352.749 266.496C352.139 265.942 351.418 265.665 350.587 265.665C349.344 265.665 348.35 266.287 347.604 267.53C346.858 268.773 346.482 270.634 346.475 273.112C346.475 274.788 346.642 276.188 346.975 277.31C347.316 278.425 347.796 279.263 348.414 279.824C349.031 280.378 349.756 280.655 350.587 280.655ZM362.686 284V280.676L370.453 273.485C371.113 272.846 371.667 272.271 372.115 271.759C372.569 271.248 372.914 270.747 373.148 270.257C373.382 269.76 373.5 269.224 373.5 268.648C373.5 268.009 373.354 267.459 373.063 266.997C372.772 266.528 372.374 266.17 371.87 265.921C371.365 265.665 370.794 265.538 370.154 265.538C369.487 265.538 368.904 265.673 368.407 265.942C367.91 266.212 367.527 266.599 367.257 267.104C366.987 267.608 366.852 268.208 366.852 268.904H362.473C362.473 267.477 362.797 266.237 363.443 265.186C364.089 264.135 364.995 263.322 366.159 262.746C367.324 262.171 368.667 261.884 370.186 261.884C371.749 261.884 373.109 262.161 374.267 262.714C375.431 263.261 376.337 264.021 376.983 264.994C377.63 265.967 377.953 267.082 377.953 268.339C377.953 269.163 377.789 269.977 377.463 270.779C377.143 271.582 376.571 272.473 375.748 273.453C374.924 274.426 373.762 275.594 372.264 276.958L369.078 280.08V280.229H378.24V284H362.686ZM380.784 280.165V276.532L389.893 262.182H393.025V267.21H391.171L385.429 276.298V276.468H398.373V280.165H380.784ZM391.256 284V279.057L391.341 277.448V262.182H395.667V284H391.256Z" fill="black"/>
<path d="M256.309 375H253.73V364.014L249.658 372.539H247.578L243.525 364.062V375H240.947V360.352H244.229L248.623 369.717L253.008 360.352H256.309V375ZM263.457 375.195C262.461 375.195 261.569 374.974 260.781 374.531C260 374.089 259.382 373.486 258.926 372.725C258.477 371.956 258.252 371.087 258.252 370.117C258.252 369.147 258.477 368.281 258.926 367.52C259.382 366.751 260 366.146 260.781 365.703C261.569 365.26 262.461 365.039 263.457 365.039C264.447 365.039 265.332 365.26 266.113 365.703C266.895 366.146 267.507 366.751 267.949 367.52C268.398 368.281 268.623 369.147 268.623 370.117C268.623 371.087 268.398 371.956 267.949 372.725C267.507 373.486 266.895 374.089 266.113 374.531C265.332 374.974 264.447 375.195 263.457 375.195ZM263.438 373.037C263.958 373.037 264.424 372.91 264.834 372.656C265.244 372.402 265.566 372.054 265.801 371.611C266.042 371.169 266.162 370.667 266.162 370.107C266.162 369.554 266.042 369.059 265.801 368.623C265.566 368.18 265.244 367.832 264.834 367.578C264.424 367.324 263.958 367.197 263.438 367.197C262.923 367.197 262.458 367.324 262.041 367.578C261.631 367.832 261.305 368.18 261.064 368.623C260.83 369.059 260.713 369.554 260.713 370.107C260.713 370.667 260.83 371.169 261.064 371.611C261.305 372.054 261.631 372.402 262.041 372.656C262.458 372.91 262.923 373.037 263.438 373.037ZM323.018 375H320.439V362.617H315.986V360.352H327.461V362.617H323.018V375ZM337.188 375H335.205L335.127 373.428C334.775 374.001 334.313 374.44 333.74 374.746C333.167 375.046 332.49 375.195 331.709 375.195C330.452 375.195 329.46 374.811 328.73 374.043C328.008 373.268 327.646 372.204 327.646 370.85V365.234H330.049V370.391C330.049 371.204 330.254 371.849 330.664 372.324C331.081 372.793 331.644 373.027 332.354 373.027C333.089 373.027 333.678 372.777 334.121 372.275C334.564 371.774 334.785 371.107 334.785 370.273V365.234H337.188V375ZM405.869 375H403.525L400.312 364.648L397.1 375H394.756L389.99 360.352H392.695L395.918 370.752L399.141 360.352H401.484L404.697 370.723L407.91 360.352H410.615L405.869 375ZM420.254 373.867C419.036 374.753 417.705 375.195 416.26 375.195C415.212 375.195 414.271 374.967 413.438 374.512C412.604 374.056 411.943 373.434 411.455 372.646C410.973 371.852 410.732 370.96 410.732 369.971C410.732 369.027 410.951 368.184 411.387 367.441C411.829 366.699 412.432 366.113 413.193 365.684C413.962 365.254 414.827 365.039 415.791 365.039C416.794 365.039 417.673 365.277 418.428 365.752C419.189 366.221 419.782 366.875 420.205 367.715C420.628 368.548 420.84 369.518 420.84 370.625V370.938H413.32C413.438 371.38 413.643 371.771 413.936 372.109C414.235 372.448 414.606 372.712 415.049 372.9C415.492 373.089 415.99 373.184 416.543 373.184C417.585 373.184 418.548 372.845 419.434 372.168L420.254 373.867ZM413.223 369.531H418.613C418.561 369.043 418.411 368.617 418.164 368.252C417.923 367.887 417.607 367.604 417.217 367.402C416.833 367.194 416.4 367.09 415.918 367.09C415.43 367.09 414.993 367.194 414.609 367.402C414.225 367.611 413.913 367.9 413.672 368.271C413.431 368.636 413.281 369.056 413.223 369.531ZM475.244 375H472.666V362.617H468.213V360.352H479.688V362.617H475.244V375ZM481.24 375V360.352H483.643V366.484C484.359 365.521 485.41 365.039 486.797 365.039C488.047 365.039 489.023 365.423 489.727 366.191C490.43 366.953 490.781 368.014 490.781 369.375V375H488.379V369.99C488.379 369.105 488.174 368.418 487.764 367.93C487.354 367.435 486.777 367.188 486.035 367.188C485.286 367.188 484.701 367.438 484.277 367.939C483.854 368.434 483.643 369.118 483.643 369.99V375H481.24ZM548.975 375V360.352H558.018V362.617H551.553V366.475H557.627V368.73H551.553V375H548.975ZM562.334 375H559.932V365.234H562.021L562.109 367.012C562.448 366.387 562.904 365.902 563.477 365.557C564.056 365.212 564.72 365.039 565.469 365.039C565.664 365.039 565.863 365.052 566.064 365.078C566.273 365.104 566.478 365.143 566.68 365.195L566.387 367.363C565.983 367.246 565.592 367.188 565.215 367.188C564.642 367.188 564.137 367.321 563.701 367.588C563.271 367.855 562.936 368.226 562.695 368.701C562.454 369.17 562.334 369.717 562.334 370.342V375ZM623.193 373.477L624.414 371.504C624.863 371.855 625.296 372.148 625.713 372.383C626.13 372.611 626.549 372.78 626.973 372.891C627.396 373.001 627.826 373.057 628.262 373.057C628.822 373.057 629.307 372.972 629.717 372.803C630.133 372.627 630.456 372.386 630.684 372.08C630.911 371.774 631.025 371.416 631.025 371.006C631.025 370.544 630.885 370.16 630.605 369.854C630.332 369.541 629.971 369.274 629.521 369.053C629.072 368.825 628.59 368.604 628.076 368.389C627.607 368.193 627.132 367.982 626.65 367.754C626.175 367.526 625.742 367.256 625.352 366.943C624.961 366.624 624.645 366.24 624.404 365.791C624.17 365.342 624.053 364.798 624.053 364.16C624.053 363.333 624.261 362.614 624.678 362.002C625.094 361.383 625.671 360.908 626.406 360.576C627.142 360.238 627.982 360.068 628.926 360.068C629.59 360.068 630.27 360.156 630.967 360.332C631.67 360.501 632.363 360.762 633.047 361.113L632.021 363.193C631.559 362.92 631.068 362.708 630.547 362.559C630.026 362.402 629.528 362.324 629.053 362.324C628.584 362.324 628.171 362.399 627.812 362.549C627.461 362.692 627.184 362.9 626.982 363.174C626.787 363.441 626.689 363.753 626.689 364.111C626.689 364.535 626.82 364.893 627.08 365.186C627.347 365.479 627.695 365.739 628.125 365.967C628.555 366.188 629.014 366.406 629.502 366.621C629.99 366.836 630.479 367.067 630.967 367.314C631.462 367.555 631.911 367.842 632.314 368.174C632.725 368.506 633.05 368.903 633.291 369.365C633.538 369.827 633.662 370.384 633.662 371.035C633.662 371.882 633.441 372.627 632.998 373.271C632.562 373.91 631.947 374.408 631.152 374.766C630.358 375.117 629.43 375.293 628.369 375.293C627.419 375.293 626.507 375.14 625.635 374.834C624.762 374.528 623.949 374.076 623.193 373.477ZM644.209 375H642.119L641.982 373.799C641.624 374.242 641.178 374.587 640.645 374.834C640.111 375.075 639.518 375.195 638.867 375.195C638.177 375.195 637.562 375.062 637.021 374.795C636.481 374.521 636.055 374.15 635.742 373.682C635.436 373.213 635.283 372.679 635.283 372.08C635.283 371.449 635.449 370.895 635.781 370.42C636.12 369.938 636.579 369.561 637.158 369.287C637.744 369.014 638.411 368.877 639.16 368.877C639.616 368.877 640.072 368.929 640.527 369.033C640.99 369.137 641.416 369.284 641.807 369.473V369.16C641.807 368.73 641.689 368.359 641.455 368.047C641.221 367.734 640.905 367.493 640.508 367.324C640.111 367.148 639.665 367.061 639.17 367.061C638.721 367.061 638.271 367.139 637.822 367.295C637.373 367.445 636.953 367.669 636.562 367.969L635.879 366.084C636.504 365.739 637.142 365.479 637.793 365.303C638.451 365.127 639.092 365.039 639.717 365.039C640.635 365.039 641.429 365.221 642.1 365.586C642.77 365.944 643.288 366.458 643.652 367.129C644.023 367.793 644.209 368.577 644.209 369.482V375ZM639.365 373.262C639.788 373.262 640.179 373.174 640.537 372.998C640.902 372.822 641.198 372.578 641.426 372.266C641.66 371.947 641.784 371.582 641.797 371.172V371.064C641.491 370.843 641.146 370.674 640.762 370.557C640.378 370.433 639.99 370.371 639.6 370.371C639.001 370.371 638.509 370.508 638.125 370.781C637.741 371.048 637.549 371.4 637.549 371.836C637.549 372.103 637.627 372.347 637.783 372.568C637.939 372.783 638.154 372.952 638.428 373.076C638.708 373.2 639.02 373.262 639.365 373.262ZM692.412 373.477L693.633 371.504C694.082 371.855 694.515 372.148 694.932 372.383C695.348 372.611 695.768 372.78 696.191 372.891C696.615 373.001 697.044 373.057 697.48 373.057C698.04 373.057 698.525 372.972 698.936 372.803C699.352 372.627 699.674 372.386 699.902 372.08C700.13 371.774 700.244 371.416 700.244 371.006C700.244 370.544 700.104 370.16 699.824 369.854C699.551 369.541 699.189 369.274 698.74 369.053C698.291 368.825 697.809 368.604 697.295 368.389C696.826 368.193 696.351 367.982 695.869 367.754C695.394 367.526 694.961 367.256 694.57 366.943C694.18 366.624 693.864 366.24 693.623 365.791C693.389 365.342 693.271 364.798 693.271 364.16C693.271 363.333 693.48 362.614 693.896 362.002C694.313 361.383 694.889 360.908 695.625 360.576C696.361 360.238 697.201 360.068 698.145 360.068C698.809 360.068 699.489 360.156 700.186 360.332C700.889 360.501 701.582 360.762 702.266 361.113L701.24 363.193C700.778 362.92 700.286 362.708 699.766 362.559C699.245 362.402 698.747 362.324 698.271 362.324C697.803 362.324 697.389 362.399 697.031 362.549C696.68 362.692 696.403 362.9 696.201 363.174C696.006 363.441 695.908 363.753 695.908 364.111C695.908 364.535 696.038 364.893 696.299 365.186C696.566 365.479 696.914 365.739 697.344 365.967C697.773 366.188 698.232 366.406 698.721 366.621C699.209 366.836 699.697 367.067 700.186 367.314C700.68 367.555 701.13 367.842 701.533 368.174C701.943 368.506 702.269 368.903 702.51 369.365C702.757 369.827 702.881 370.384 702.881 371.035C702.881 371.882 702.66 372.627 702.217 373.271C701.781 373.91 701.165 374.408 700.371 374.766C699.577 375.117 698.649 375.293 697.588 375.293C696.637 375.293 695.726 375.14 694.854 374.834C693.981 374.528 693.167 374.076 692.412 373.477ZM714.336 375H712.354L712.275 373.428C711.924 374.001 711.462 374.44 710.889 374.746C710.316 375.046 709.639 375.195 708.857 375.195C707.601 375.195 706.608 374.811 705.879 374.043C705.156 373.268 704.795 372.204 704.795 370.85V365.234H707.197V370.391C707.197 371.204 707.402 371.849 707.812 372.324C708.229 372.793 708.792 373.027 709.502 373.027C710.238 373.027 710.827 372.777 711.27 372.275C711.712 371.774 711.934 371.107 711.934 370.273V365.234H714.336V375Z" fill="black"/>
<path d="M707.438 431H704.859V418.891L702.32 419.809L701.51 417.758L705.377 416.352H707.438V431Z" fill="#6F6F6F"/>
<path d="M252.801 496H243.641V494.467C244.812 493.432 245.799 492.51 246.6 491.703C247.407 490.896 248.055 490.167 248.543 489.516C249.038 488.858 249.396 488.249 249.617 487.689C249.839 487.13 249.949 486.586 249.949 486.059C249.949 485.505 249.845 485.023 249.637 484.613C249.435 484.197 249.152 483.874 248.787 483.646C248.423 483.419 247.999 483.305 247.518 483.305C246.958 483.305 246.421 483.464 245.906 483.783C245.398 484.096 244.975 484.532 244.637 485.092L243.299 483.451C243.846 482.696 244.533 482.11 245.359 481.693C246.193 481.27 247.068 481.059 247.986 481.059C248.852 481.059 249.63 481.247 250.32 481.625C251.017 481.996 251.567 482.517 251.971 483.188C252.381 483.858 252.586 484.649 252.586 485.561C252.586 486.231 252.469 486.908 252.234 487.592C252 488.275 251.652 488.962 251.189 489.652C250.734 490.342 250.174 491.029 249.51 491.713C248.846 492.396 248.087 493.074 247.234 493.744H252.801V496ZM319.939 494.691L320.945 492.787C321.473 493.197 322 493.51 322.527 493.725C323.055 493.933 323.576 494.037 324.09 494.037C324.604 494.037 325.057 493.939 325.447 493.744C325.844 493.542 326.154 493.266 326.375 492.914C326.603 492.562 326.717 492.156 326.717 491.693C326.717 490.945 326.414 490.362 325.809 489.945C325.203 489.522 324.363 489.311 323.289 489.311H322.713V487.504H323.289C323.875 487.504 324.396 487.406 324.852 487.211C325.307 487.016 325.665 486.749 325.926 486.41C326.186 486.065 326.316 485.674 326.316 485.238C326.316 484.867 326.222 484.538 326.033 484.252C325.844 483.959 325.581 483.731 325.242 483.568C324.91 483.399 324.529 483.314 324.1 483.314C323.67 483.314 323.224 483.409 322.762 483.598C322.306 483.78 321.844 484.05 321.375 484.408L320.223 482.621C320.789 482.12 321.424 481.736 322.127 481.469C322.837 481.195 323.576 481.059 324.344 481.059C325.197 481.059 325.955 481.218 326.619 481.537C327.283 481.856 327.804 482.292 328.182 482.846C328.566 483.399 328.758 484.034 328.758 484.75C328.758 485.551 328.517 486.27 328.035 486.908C327.56 487.546 326.938 488.021 326.17 488.334C327.173 488.594 327.96 489.05 328.533 489.701C329.113 490.346 329.402 491.13 329.402 492.055C329.402 492.868 329.181 493.598 328.738 494.242C328.296 494.88 327.693 495.382 326.932 495.746C326.17 496.111 325.301 496.293 324.324 496.293C323.51 496.293 322.729 496.156 321.98 495.883C321.232 495.609 320.551 495.212 319.939 494.691ZM405.711 496H403.133V492.846H395.975V490.854L403.143 481.352H405.711V490.59H407.498V492.846H405.711V496ZM398.475 490.59H403.133V484.398L398.475 490.59ZM473.826 494.457L475.184 492.387C475.451 492.888 475.848 493.288 476.375 493.588C476.902 493.881 477.479 494.027 478.104 494.027C478.676 494.027 479.181 493.907 479.617 493.666C480.053 493.425 480.392 493.09 480.633 492.66C480.88 492.23 481.004 491.736 481.004 491.176C481.004 490.616 480.88 490.121 480.633 489.691C480.385 489.255 480.044 488.917 479.607 488.676C479.171 488.435 478.667 488.314 478.094 488.314C477.684 488.314 477.299 488.383 476.941 488.52C476.583 488.656 476.258 488.855 475.965 489.115L474.695 488.363L475.35 481.352H482.84V483.617H477.703L477.352 487.064C477.833 486.921 478.341 486.85 478.875 486.85C479.799 486.85 480.62 487.045 481.336 487.436C482.052 487.826 482.612 488.367 483.016 489.057C483.426 489.747 483.631 490.538 483.631 491.43C483.631 492.367 483.403 493.204 482.947 493.939C482.492 494.669 481.863 495.245 481.062 495.668C480.262 496.085 479.347 496.293 478.318 496.293C477.446 496.293 476.619 496.133 475.838 495.814C475.057 495.495 474.386 495.043 473.826 494.457ZM555.193 496.293C554.178 496.293 553.292 496.062 552.537 495.6C551.788 495.137 551.206 494.486 550.789 493.646C550.379 492.807 550.174 491.82 550.174 490.688C550.174 489.757 550.314 488.848 550.594 487.963C550.88 487.071 551.294 486.221 551.834 485.414C552.374 484.607 553.032 483.861 553.807 483.178C554.581 482.488 555.46 481.879 556.443 481.352L557.625 483.002C556.844 483.451 556.128 483.965 555.477 484.545C554.832 485.124 554.272 485.746 553.797 486.41C553.322 487.068 552.944 487.748 552.664 488.451C553.042 488.028 553.501 487.699 554.041 487.465C554.581 487.23 555.18 487.113 555.838 487.113C556.697 487.113 557.456 487.302 558.113 487.68C558.771 488.051 559.285 488.568 559.656 489.232C560.034 489.89 560.223 490.645 560.223 491.498C560.223 492.429 560.005 493.256 559.568 493.979C559.139 494.695 558.543 495.261 557.781 495.678C557.026 496.088 556.163 496.293 555.193 496.293ZM555.223 494.037C555.672 494.037 556.076 493.92 556.434 493.686C556.792 493.451 557.072 493.132 557.273 492.729C557.482 492.325 557.586 491.876 557.586 491.381C557.586 490.886 557.485 490.45 557.283 490.072C557.088 489.695 556.814 489.398 556.463 489.184C556.111 488.969 555.708 488.861 555.252 488.861C554.79 488.861 554.376 488.972 554.012 489.193C553.654 489.408 553.37 489.708 553.162 490.092C552.954 490.476 552.85 490.919 552.85 491.42C552.85 491.908 552.954 492.351 553.162 492.748C553.37 493.145 553.654 493.461 554.012 493.695C554.37 493.923 554.773 494.037 555.223 494.037ZM630.652 496H627.859L632.967 483.617H626.561V481.352H635.994L635.984 483.061L630.652 496ZM707.361 496.293C706.372 496.293 705.503 496.12 704.754 495.775C704.012 495.43 703.432 494.945 703.016 494.32C702.605 493.689 702.4 492.956 702.4 492.123C702.4 491.186 702.658 490.382 703.172 489.711C703.686 489.034 704.393 488.546 705.291 488.246C704.549 487.96 703.966 487.523 703.543 486.938C703.126 486.345 702.918 485.642 702.918 484.828C702.918 484.066 703.1 483.402 703.465 482.836C703.836 482.27 704.354 481.833 705.018 481.527C705.688 481.215 706.469 481.059 707.361 481.059C708.26 481.059 709.041 481.215 709.705 481.527C710.376 481.833 710.893 482.27 711.258 482.836C711.629 483.402 711.814 484.066 711.814 484.828C711.814 485.635 711.603 486.335 711.18 486.928C710.763 487.52 710.184 487.96 709.441 488.246C710.34 488.539 711.046 489.024 711.561 489.701C712.081 490.378 712.342 491.182 712.342 492.113C712.342 492.947 712.133 493.679 711.717 494.311C711.307 494.942 710.727 495.43 709.979 495.775C709.236 496.12 708.364 496.293 707.361 496.293ZM707.361 487.201C707.941 487.201 708.406 487.012 708.758 486.635C709.116 486.251 709.295 485.756 709.295 485.15C709.295 484.532 709.116 484.034 708.758 483.656C708.406 483.279 707.941 483.09 707.361 483.09C706.788 483.09 706.323 483.279 705.965 483.656C705.613 484.034 705.438 484.532 705.438 485.15C705.438 485.756 705.613 486.251 705.965 486.635C706.323 487.012 706.788 487.201 707.361 487.201ZM707.361 494.184C707.843 494.184 708.263 494.083 708.621 493.881C708.986 493.673 709.266 493.383 709.461 493.012C709.663 492.641 709.764 492.211 709.764 491.723C709.764 491.234 709.663 490.805 709.461 490.434C709.266 490.056 708.986 489.766 708.621 489.564C708.263 489.356 707.843 489.252 707.361 489.252C706.893 489.252 706.476 489.356 706.111 489.564C705.753 489.773 705.473 490.062 705.271 490.434C705.076 490.805 704.979 491.234 704.979 491.723C704.979 492.217 705.076 492.65 705.271 493.021C705.473 493.386 705.753 493.673 706.111 493.881C706.476 494.083 706.893 494.184 707.361 494.184Z" fill="#6F6F6F"/>
<path d="M246.521 570L245.33 568.35C246.118 567.894 246.834 567.376 247.479 566.797C248.13 566.217 248.693 565.599 249.168 564.941C249.65 564.277 250.027 563.597 250.301 562.9C249.923 563.33 249.464 563.662 248.924 563.896C248.383 564.124 247.781 564.238 247.117 564.238C246.264 564.238 245.506 564.053 244.842 563.682C244.184 563.304 243.667 562.786 243.289 562.129C242.918 561.465 242.732 560.706 242.732 559.854C242.732 558.923 242.951 558.096 243.387 557.373C243.823 556.65 244.419 556.084 245.174 555.674C245.936 555.264 246.805 555.059 247.781 555.059C248.797 555.059 249.679 555.29 250.428 555.752C251.183 556.214 251.762 556.865 252.166 557.705C252.576 558.545 252.781 559.531 252.781 560.664C252.781 561.595 252.638 562.507 252.352 563.398C252.072 564.284 251.661 565.13 251.121 565.938C250.581 566.745 249.923 567.493 249.148 568.184C248.374 568.867 247.498 569.473 246.521 570ZM247.713 562.49C248.175 562.49 248.585 562.38 248.943 562.158C249.308 561.937 249.594 561.634 249.803 561.25C250.011 560.859 250.115 560.42 250.115 559.932C250.115 559.437 250.011 558.994 249.803 558.604C249.594 558.206 249.311 557.894 248.953 557.666C248.595 557.432 248.191 557.314 247.742 557.314C247.299 557.314 246.896 557.432 246.531 557.666C246.173 557.894 245.89 558.21 245.682 558.613C245.473 559.017 245.369 559.469 245.369 559.971C245.369 560.459 245.47 560.895 245.672 561.279C245.874 561.657 246.15 561.953 246.502 562.168C246.854 562.383 247.257 562.49 247.713 562.49ZM322.723 570H320.145V557.891L317.605 558.809L316.795 556.758L320.662 555.352H322.723V570ZM330.838 570.293C329.764 570.293 328.833 569.997 328.045 569.404C327.264 568.805 326.661 567.939 326.238 566.807C325.815 565.667 325.604 564.287 325.604 562.666C325.604 561.051 325.815 559.678 326.238 558.545C326.661 557.412 327.264 556.549 328.045 555.957C328.833 555.358 329.764 555.059 330.838 555.059C331.912 555.059 332.84 555.358 333.621 555.957C334.402 556.549 335.005 557.412 335.428 558.545C335.851 559.678 336.062 561.051 336.062 562.666C336.062 564.287 335.851 565.667 335.428 566.807C335.005 567.939 334.402 568.805 333.621 569.404C332.84 569.997 331.912 570.293 330.838 570.293ZM330.838 568.027C331.658 568.027 332.293 567.559 332.742 566.621C333.198 565.684 333.426 564.365 333.426 562.666C333.426 560.973 333.198 559.661 332.742 558.73C332.293 557.793 331.658 557.324 330.838 557.324C330.018 557.324 329.38 557.793 328.924 558.73C328.468 559.661 328.24 560.973 328.24 562.666C328.24 564.365 328.468 565.684 328.924 566.621C329.38 567.559 330.018 568.027 330.838 568.027ZM403.68 570H401.102V557.891L398.562 558.809L397.752 556.758L401.619 555.352H403.68V570ZM412.566 570H409.988V557.891L407.449 558.809L406.639 556.758L410.506 555.352H412.566V570ZM478.68 570H476.102V557.891L473.562 558.809L472.752 556.758L476.619 555.352H478.68V570ZM491.043 570H481.883V568.467C483.055 567.432 484.041 566.51 484.842 565.703C485.649 564.896 486.297 564.167 486.785 563.516C487.28 562.858 487.638 562.249 487.859 561.689C488.081 561.13 488.191 560.586 488.191 560.059C488.191 559.505 488.087 559.023 487.879 558.613C487.677 558.197 487.394 557.874 487.029 557.646C486.665 557.419 486.242 557.305 485.76 557.305C485.2 557.305 484.663 557.464 484.148 557.783C483.641 558.096 483.217 558.532 482.879 559.092L481.541 557.451C482.088 556.696 482.775 556.11 483.602 555.693C484.435 555.27 485.311 555.059 486.229 555.059C487.094 555.059 487.872 555.247 488.562 555.625C489.259 555.996 489.809 556.517 490.213 557.188C490.623 557.858 490.828 558.649 490.828 559.561C490.828 560.231 490.711 560.908 490.477 561.592C490.242 562.275 489.894 562.962 489.432 563.652C488.976 564.342 488.416 565.029 487.752 565.713C487.088 566.396 486.329 567.074 485.477 567.744H491.043V570ZM554.48 570H551.902V557.891L549.363 558.809L548.553 556.758L552.42 555.352H554.48V570ZM556.893 568.691L557.898 566.787C558.426 567.197 558.953 567.51 559.48 567.725C560.008 567.933 560.529 568.037 561.043 568.037C561.557 568.037 562.01 567.939 562.4 567.744C562.798 567.542 563.107 567.266 563.328 566.914C563.556 566.562 563.67 566.156 563.67 565.693C563.67 564.945 563.367 564.362 562.762 563.945C562.156 563.522 561.316 563.311 560.242 563.311H559.666V561.504H560.242C560.828 561.504 561.349 561.406 561.805 561.211C562.26 561.016 562.618 560.749 562.879 560.41C563.139 560.065 563.27 559.674 563.27 559.238C563.27 558.867 563.175 558.538 562.986 558.252C562.798 557.959 562.534 557.731 562.195 557.568C561.863 557.399 561.482 557.314 561.053 557.314C560.623 557.314 560.177 557.409 559.715 557.598C559.259 557.78 558.797 558.05 558.328 558.408L557.176 556.621C557.742 556.12 558.377 555.736 559.08 555.469C559.79 555.195 560.529 555.059 561.297 555.059C562.15 555.059 562.908 555.218 563.572 555.537C564.236 555.856 564.757 556.292 565.135 556.846C565.519 557.399 565.711 558.034 565.711 558.75C565.711 559.551 565.47 560.27 564.988 560.908C564.513 561.546 563.891 562.021 563.123 562.334C564.126 562.594 564.913 563.05 565.486 563.701C566.066 564.346 566.355 565.13 566.355 566.055C566.355 566.868 566.134 567.598 565.691 568.242C565.249 568.88 564.646 569.382 563.885 569.746C563.123 570.111 562.254 570.293 561.277 570.293C560.464 570.293 559.682 570.156 558.934 569.883C558.185 569.609 557.505 569.212 556.893 568.691ZM629.559 570H626.98V557.891L624.441 558.809L623.631 556.758L627.498 555.352H629.559V570ZM641.082 570H638.504V566.846H631.346V564.854L638.514 555.352H641.082V564.59H642.869V566.846H641.082V570ZM633.846 564.59H638.504V558.398L633.846 564.59ZM700.965 570H698.387V557.891L695.848 558.809L695.037 556.758L698.904 555.352H700.965V570ZM703.26 568.457L704.617 566.387C704.884 566.888 705.281 567.288 705.809 567.588C706.336 567.881 706.912 568.027 707.537 568.027C708.11 568.027 708.615 567.907 709.051 567.666C709.487 567.425 709.826 567.09 710.066 566.66C710.314 566.23 710.438 565.736 710.438 565.176C710.438 564.616 710.314 564.121 710.066 563.691C709.819 563.255 709.477 562.917 709.041 562.676C708.605 562.435 708.1 562.314 707.527 562.314C707.117 562.314 706.733 562.383 706.375 562.52C706.017 562.656 705.691 562.855 705.398 563.115L704.129 562.363L704.783 555.352H712.273V557.617H707.137L706.785 561.064C707.267 560.921 707.775 560.85 708.309 560.85C709.233 560.85 710.053 561.045 710.77 561.436C711.486 561.826 712.046 562.367 712.449 563.057C712.859 563.747 713.064 564.538 713.064 565.43C713.064 566.367 712.837 567.204 712.381 567.939C711.925 568.669 711.297 569.245 710.496 569.668C709.695 570.085 708.781 570.293 707.752 570.293C706.88 570.293 706.053 570.133 705.271 569.814C704.49 569.495 703.82 569.043 703.26 568.457Z" fill="#6F6F6F"/>
<path d="M248.445 644H245.867V631.891L243.328 632.809L242.518 630.758L246.385 629.352H248.445V644ZM255.76 644.293C254.744 644.293 253.859 644.062 253.104 643.6C252.355 643.137 251.772 642.486 251.355 641.646C250.945 640.807 250.74 639.82 250.74 638.688C250.74 637.757 250.88 636.848 251.16 635.963C251.447 635.071 251.86 634.221 252.4 633.414C252.941 632.607 253.598 631.861 254.373 631.178C255.148 630.488 256.027 629.879 257.01 629.352L258.191 631.002C257.41 631.451 256.694 631.965 256.043 632.545C255.398 633.124 254.839 633.746 254.363 634.41C253.888 635.068 253.51 635.748 253.23 636.451C253.608 636.028 254.067 635.699 254.607 635.465C255.148 635.23 255.747 635.113 256.404 635.113C257.264 635.113 258.022 635.302 258.68 635.68C259.337 636.051 259.852 636.568 260.223 637.232C260.6 637.89 260.789 638.645 260.789 639.498C260.789 640.429 260.571 641.256 260.135 641.979C259.705 642.695 259.109 643.261 258.348 643.678C257.592 644.088 256.73 644.293 255.76 644.293ZM255.789 642.037C256.238 642.037 256.642 641.92 257 641.686C257.358 641.451 257.638 641.132 257.84 640.729C258.048 640.325 258.152 639.876 258.152 639.381C258.152 638.886 258.051 638.45 257.85 638.072C257.654 637.695 257.381 637.398 257.029 637.184C256.678 636.969 256.274 636.861 255.818 636.861C255.356 636.861 254.943 636.972 254.578 637.193C254.22 637.408 253.937 637.708 253.729 638.092C253.52 638.476 253.416 638.919 253.416 639.42C253.416 639.908 253.52 640.351 253.729 640.748C253.937 641.145 254.22 641.461 254.578 641.695C254.936 641.923 255.34 642.037 255.789 642.037ZM323.758 644H321.18V631.891L318.641 632.809L317.83 630.758L321.697 629.352H323.758V644ZM329.832 644H327.039L332.146 631.617H325.74V629.352H335.174L335.164 631.061L329.832 644ZM402.566 644H399.988V631.891L397.449 632.809L396.639 630.758L400.506 629.352H402.566V644ZM409.9 644.293C408.911 644.293 408.042 644.12 407.293 643.775C406.551 643.43 405.971 642.945 405.555 642.32C405.145 641.689 404.939 640.956 404.939 640.123C404.939 639.186 405.197 638.382 405.711 637.711C406.225 637.034 406.932 636.546 407.83 636.246C407.088 635.96 406.505 635.523 406.082 634.938C405.665 634.345 405.457 633.642 405.457 632.828C405.457 632.066 405.639 631.402 406.004 630.836C406.375 630.27 406.893 629.833 407.557 629.527C408.227 629.215 409.008 629.059 409.9 629.059C410.799 629.059 411.58 629.215 412.244 629.527C412.915 629.833 413.432 630.27 413.797 630.836C414.168 631.402 414.354 632.066 414.354 632.828C414.354 633.635 414.142 634.335 413.719 634.928C413.302 635.52 412.723 635.96 411.98 636.246C412.879 636.539 413.585 637.024 414.1 637.701C414.62 638.378 414.881 639.182 414.881 640.113C414.881 640.947 414.673 641.679 414.256 642.311C413.846 642.942 413.266 643.43 412.518 643.775C411.775 644.12 410.903 644.293 409.9 644.293ZM409.9 635.201C410.48 635.201 410.945 635.012 411.297 634.635C411.655 634.251 411.834 633.756 411.834 633.15C411.834 632.532 411.655 632.034 411.297 631.656C410.945 631.279 410.48 631.09 409.9 631.09C409.327 631.09 408.862 631.279 408.504 631.656C408.152 632.034 407.977 632.532 407.977 633.15C407.977 633.756 408.152 634.251 408.504 634.635C408.862 635.012 409.327 635.201 409.9 635.201ZM409.9 642.184C410.382 642.184 410.802 642.083 411.16 641.881C411.525 641.673 411.805 641.383 412 641.012C412.202 640.641 412.303 640.211 412.303 639.723C412.303 639.234 412.202 638.805 412 638.434C411.805 638.056 411.525 637.766 411.16 637.564C410.802 637.356 410.382 637.252 409.9 637.252C409.432 637.252 409.015 637.356 408.65 637.564C408.292 637.773 408.012 638.062 407.811 638.434C407.615 638.805 407.518 639.234 407.518 639.723C407.518 640.217 407.615 640.65 407.811 641.021C408.012 641.386 408.292 641.673 408.65 641.881C409.015 642.083 409.432 642.184 409.9 642.184ZM477.918 644H475.34V631.891L472.801 632.809L471.99 630.758L475.857 629.352H477.918V644ZM484.295 644L483.104 642.35C483.891 641.894 484.607 641.376 485.252 640.797C485.903 640.217 486.466 639.599 486.941 638.941C487.423 638.277 487.801 637.597 488.074 636.9C487.697 637.33 487.238 637.662 486.697 637.896C486.157 638.124 485.555 638.238 484.891 638.238C484.038 638.238 483.279 638.053 482.615 637.682C481.958 637.304 481.44 636.786 481.062 636.129C480.691 635.465 480.506 634.706 480.506 633.854C480.506 632.923 480.724 632.096 481.16 631.373C481.596 630.65 482.192 630.084 482.947 629.674C483.709 629.264 484.578 629.059 485.555 629.059C486.57 629.059 487.452 629.29 488.201 629.752C488.956 630.214 489.536 630.865 489.939 631.705C490.35 632.545 490.555 633.531 490.555 634.664C490.555 635.595 490.411 636.507 490.125 637.398C489.845 638.284 489.435 639.13 488.895 639.938C488.354 640.745 487.697 641.493 486.922 642.184C486.147 642.867 485.271 643.473 484.295 644ZM485.486 636.49C485.949 636.49 486.359 636.38 486.717 636.158C487.081 635.937 487.368 635.634 487.576 635.25C487.785 634.859 487.889 634.42 487.889 633.932C487.889 633.437 487.785 632.994 487.576 632.604C487.368 632.206 487.085 631.894 486.727 631.666C486.368 631.432 485.965 631.314 485.516 631.314C485.073 631.314 484.669 631.432 484.305 631.666C483.947 631.894 483.663 632.21 483.455 632.613C483.247 633.017 483.143 633.469 483.143 633.971C483.143 634.459 483.243 634.895 483.445 635.279C483.647 635.657 483.924 635.953 484.275 636.168C484.627 636.383 485.031 636.49 485.486 636.49ZM557.879 644H548.719V642.467C549.891 641.432 550.877 640.51 551.678 639.703C552.485 638.896 553.133 638.167 553.621 637.516C554.116 636.858 554.474 636.249 554.695 635.689C554.917 635.13 555.027 634.586 555.027 634.059C555.027 633.505 554.923 633.023 554.715 632.613C554.513 632.197 554.23 631.874 553.865 631.646C553.501 631.419 553.077 631.305 552.596 631.305C552.036 631.305 551.499 631.464 550.984 631.783C550.477 632.096 550.053 632.532 549.715 633.092L548.377 631.451C548.924 630.696 549.611 630.11 550.438 629.693C551.271 629.27 552.146 629.059 553.064 629.059C553.93 629.059 554.708 629.247 555.398 629.625C556.095 629.996 556.645 630.517 557.049 631.188C557.459 631.858 557.664 632.649 557.664 633.561C557.664 634.231 557.547 634.908 557.312 635.592C557.078 636.275 556.73 636.962 556.268 637.652C555.812 638.342 555.252 639.029 554.588 639.713C553.924 640.396 553.165 641.074 552.312 641.744H557.879V644ZM565.057 644.293C563.982 644.293 563.051 643.997 562.264 643.404C561.482 642.805 560.88 641.939 560.457 640.807C560.034 639.667 559.822 638.287 559.822 636.666C559.822 635.051 560.034 633.678 560.457 632.545C560.88 631.412 561.482 630.549 562.264 629.957C563.051 629.358 563.982 629.059 565.057 629.059C566.131 629.059 567.059 629.358 567.84 629.957C568.621 630.549 569.223 631.412 569.646 632.545C570.07 633.678 570.281 635.051 570.281 636.666C570.281 638.287 570.07 639.667 569.646 640.807C569.223 641.939 568.621 642.805 567.84 643.404C567.059 643.997 566.131 644.293 565.057 644.293ZM565.057 642.027C565.877 642.027 566.512 641.559 566.961 640.621C567.417 639.684 567.645 638.365 567.645 636.666C567.645 634.973 567.417 633.661 566.961 632.73C566.512 631.793 565.877 631.324 565.057 631.324C564.236 631.324 563.598 631.793 563.143 632.73C562.687 633.661 562.459 634.973 562.459 636.666C562.459 638.365 562.687 639.684 563.143 640.621C563.598 641.559 564.236 642.027 565.057 642.027ZM632.957 644H623.797V642.467C624.969 641.432 625.955 640.51 626.756 639.703C627.563 638.896 628.211 638.167 628.699 637.516C629.194 636.858 629.552 636.249 629.773 635.689C629.995 635.13 630.105 634.586 630.105 634.059C630.105 633.505 630.001 633.023 629.793 632.613C629.591 632.197 629.308 631.874 628.943 631.646C628.579 631.419 628.156 631.305 627.674 631.305C627.114 631.305 626.577 631.464 626.062 631.783C625.555 632.096 625.132 632.532 624.793 633.092L623.455 631.451C624.002 630.696 624.689 630.11 625.516 629.693C626.349 629.27 627.225 629.059 628.143 629.059C629.008 629.059 629.786 629.247 630.477 629.625C631.173 629.996 631.723 630.517 632.127 631.188C632.537 631.858 632.742 632.649 632.742 633.561C632.742 634.231 632.625 634.908 632.391 635.592C632.156 636.275 631.808 636.962 631.346 637.652C630.89 638.342 630.33 639.029 629.666 639.713C629.002 640.396 628.243 641.074 627.391 641.744H632.957V644ZM640.613 644H638.035V631.891L635.496 632.809L634.686 630.758L638.553 629.352H640.613V644ZM704.109 644H694.949V642.467C696.121 641.432 697.107 640.51 697.908 639.703C698.715 638.896 699.363 638.167 699.852 637.516C700.346 636.858 700.704 636.249 700.926 635.689C701.147 635.13 701.258 634.586 701.258 634.059C701.258 633.505 701.154 633.023 700.945 632.613C700.743 632.197 700.46 631.874 700.096 631.646C699.731 631.419 699.308 631.305 698.826 631.305C698.266 631.305 697.729 631.464 697.215 631.783C696.707 632.096 696.284 632.532 695.945 633.092L694.607 631.451C695.154 630.696 695.841 630.11 696.668 629.693C697.501 629.27 698.377 629.059 699.295 629.059C700.161 629.059 700.939 629.247 701.629 629.625C702.326 629.996 702.876 630.517 703.279 631.188C703.689 631.858 703.895 632.649 703.895 633.561C703.895 634.231 703.777 634.908 703.543 635.592C703.309 636.275 702.96 636.962 702.498 637.652C702.042 638.342 701.482 639.029 700.818 639.713C700.154 640.396 699.396 641.074 698.543 641.744H704.109V644ZM715.242 644H706.082V642.467C707.254 641.432 708.24 640.51 709.041 639.703C709.848 638.896 710.496 638.167 710.984 637.516C711.479 636.858 711.837 636.249 712.059 635.689C712.28 635.13 712.391 634.586 712.391 634.059C712.391 633.505 712.286 633.023 712.078 632.613C711.876 632.197 711.593 631.874 711.229 631.646C710.864 631.419 710.441 631.305 709.959 631.305C709.399 631.305 708.862 631.464 708.348 631.783C707.84 632.096 707.417 632.532 707.078 633.092L705.74 631.451C706.287 630.696 706.974 630.11 707.801 629.693C708.634 629.27 709.51 629.059 710.428 629.059C711.294 629.059 712.072 629.247 712.762 629.625C713.458 629.996 714.008 630.517 714.412 631.188C714.822 631.858 715.027 632.649 715.027 633.561C715.027 634.231 714.91 634.908 714.676 635.592C714.441 636.275 714.093 636.962 713.631 637.652C713.175 638.342 712.615 639.029 711.951 639.713C711.287 640.396 710.529 641.074 709.676 641.744H715.242V644Z" fill="#6F6F6F"/>
<path d="M252.801 718H243.641V716.467C244.812 715.432 245.799 714.51 246.6 713.703C247.407 712.896 248.055 712.167 248.543 711.516C249.038 710.858 249.396 710.249 249.617 709.689C249.839 709.13 249.949 708.586 249.949 708.059C249.949 707.505 249.845 707.023 249.637 706.613C249.435 706.197 249.152 705.874 248.787 705.646C248.423 705.419 247.999 705.305 247.518 705.305C246.958 705.305 246.421 705.464 245.906 705.783C245.398 706.096 244.975 706.532 244.637 707.092L243.299 705.451C243.846 704.696 244.533 704.11 245.359 703.693C246.193 703.27 247.068 703.059 247.986 703.059C248.852 703.059 249.63 703.247 250.32 703.625C251.017 703.996 251.567 704.517 251.971 705.188C252.381 705.858 252.586 706.649 252.586 707.561C252.586 708.231 252.469 708.908 252.234 709.592C252 710.275 251.652 710.962 251.189 711.652C250.734 712.342 250.174 713.029 249.51 713.713C248.846 714.396 248.087 715.074 247.234 715.744H252.801V718ZM253.982 716.691L254.988 714.787C255.516 715.197 256.043 715.51 256.57 715.725C257.098 715.933 257.618 716.037 258.133 716.037C258.647 716.037 259.1 715.939 259.49 715.744C259.887 715.542 260.197 715.266 260.418 714.914C260.646 714.562 260.76 714.156 260.76 713.693C260.76 712.945 260.457 712.362 259.852 711.945C259.246 711.522 258.406 711.311 257.332 711.311H256.756V709.504H257.332C257.918 709.504 258.439 709.406 258.895 709.211C259.35 709.016 259.708 708.749 259.969 708.41C260.229 708.065 260.359 707.674 260.359 707.238C260.359 706.867 260.265 706.538 260.076 706.252C259.887 705.959 259.624 705.731 259.285 705.568C258.953 705.399 258.572 705.314 258.143 705.314C257.713 705.314 257.267 705.409 256.805 705.598C256.349 705.78 255.887 706.05 255.418 706.408L254.266 704.621C254.832 704.12 255.467 703.736 256.17 703.469C256.88 703.195 257.618 703.059 258.387 703.059C259.24 703.059 259.998 703.218 260.662 703.537C261.326 703.856 261.847 704.292 262.225 704.846C262.609 705.399 262.801 706.034 262.801 706.75C262.801 707.551 262.56 708.27 262.078 708.908C261.603 709.546 260.981 710.021 260.213 710.334C261.215 710.594 262.003 711.05 262.576 711.701C263.156 712.346 263.445 713.13 263.445 714.055C263.445 714.868 263.224 715.598 262.781 716.242C262.339 716.88 261.736 717.382 260.975 717.746C260.213 718.111 259.344 718.293 258.367 718.293C257.553 718.293 256.772 718.156 256.023 717.883C255.275 717.609 254.594 717.212 253.982 716.691ZM326.355 718H317.195V716.467C318.367 715.432 319.354 714.51 320.154 713.703C320.962 712.896 321.609 712.167 322.098 711.516C322.592 710.858 322.951 710.249 323.172 709.689C323.393 709.13 323.504 708.586 323.504 708.059C323.504 707.505 323.4 707.023 323.191 706.613C322.99 706.197 322.706 705.874 322.342 705.646C321.977 705.419 321.554 705.305 321.072 705.305C320.512 705.305 319.975 705.464 319.461 705.783C318.953 706.096 318.53 706.532 318.191 707.092L316.854 705.451C317.4 704.696 318.087 704.11 318.914 703.693C319.747 703.27 320.623 703.059 321.541 703.059C322.407 703.059 323.185 703.247 323.875 703.625C324.572 703.996 325.122 704.517 325.525 705.188C325.936 705.858 326.141 706.649 326.141 707.561C326.141 708.231 326.023 708.908 325.789 709.592C325.555 710.275 325.206 710.962 324.744 711.652C324.288 712.342 323.729 713.029 323.064 713.713C322.4 714.396 321.642 715.074 320.789 715.744H326.355V718ZM337.234 718H334.656V714.846H327.498V712.854L334.666 703.352H337.234V712.59H339.021V714.846H337.234V718ZM329.998 712.59H334.656V706.398L329.998 712.59ZM406.121 718H396.961V716.467C398.133 715.432 399.119 714.51 399.92 713.703C400.727 712.896 401.375 712.167 401.863 711.516C402.358 710.858 402.716 710.249 402.938 709.689C403.159 709.13 403.27 708.586 403.27 708.059C403.27 707.505 403.165 707.023 402.957 706.613C402.755 706.197 402.472 705.874 402.107 705.646C401.743 705.419 401.32 705.305 400.838 705.305C400.278 705.305 399.741 705.464 399.227 705.783C398.719 706.096 398.296 706.532 397.957 707.092L396.619 705.451C397.166 704.696 397.853 704.11 398.68 703.693C399.513 703.27 400.389 703.059 401.307 703.059C402.173 703.059 402.951 703.247 403.641 703.625C404.337 703.996 404.887 704.517 405.291 705.188C405.701 705.858 405.906 706.649 405.906 707.561C405.906 708.231 405.789 708.908 405.555 709.592C405.32 710.275 404.972 710.962 404.51 711.652C404.054 712.342 403.494 713.029 402.83 713.713C402.166 714.396 401.408 715.074 400.555 715.744H406.121V718ZM408.064 716.457L409.422 714.387C409.689 714.888 410.086 715.288 410.613 715.588C411.141 715.881 411.717 716.027 412.342 716.027C412.915 716.027 413.419 715.907 413.855 715.666C414.292 715.425 414.63 715.09 414.871 714.66C415.118 714.23 415.242 713.736 415.242 713.176C415.242 712.616 415.118 712.121 414.871 711.691C414.624 711.255 414.282 710.917 413.846 710.676C413.41 710.435 412.905 710.314 412.332 710.314C411.922 710.314 411.538 710.383 411.18 710.52C410.822 710.656 410.496 710.855 410.203 711.115L408.934 710.363L409.588 703.352H417.078V705.617H411.941L411.59 709.064C412.072 708.921 412.579 708.85 413.113 708.85C414.038 708.85 414.858 709.045 415.574 709.436C416.29 709.826 416.85 710.367 417.254 711.057C417.664 711.747 417.869 712.538 417.869 713.43C417.869 714.367 417.641 715.204 417.186 715.939C416.73 716.669 416.102 717.245 415.301 717.668C414.5 718.085 413.585 718.293 412.557 718.293C411.684 718.293 410.857 718.133 410.076 717.814C409.295 717.495 408.624 717.043 408.064 716.457ZM480.535 718H471.375V716.467C472.547 715.432 473.533 714.51 474.334 713.703C475.141 712.896 475.789 712.167 476.277 711.516C476.772 710.858 477.13 710.249 477.352 709.689C477.573 709.13 477.684 708.586 477.684 708.059C477.684 707.505 477.579 707.023 477.371 706.613C477.169 706.197 476.886 705.874 476.521 705.646C476.157 705.419 475.734 705.305 475.252 705.305C474.692 705.305 474.155 705.464 473.641 705.783C473.133 706.096 472.71 706.532 472.371 707.092L471.033 705.451C471.58 704.696 472.267 704.11 473.094 703.693C473.927 703.27 474.803 703.059 475.721 703.059C476.587 703.059 477.365 703.247 478.055 703.625C478.751 703.996 479.301 704.517 479.705 705.188C480.115 705.858 480.32 706.649 480.32 707.561C480.32 708.231 480.203 708.908 479.969 709.592C479.734 710.275 479.386 710.962 478.924 711.652C478.468 712.342 477.908 713.029 477.244 713.713C476.58 714.396 475.822 715.074 474.969 715.744H480.535V718ZM487.498 718.293C486.482 718.293 485.597 718.062 484.842 717.6C484.093 717.137 483.51 716.486 483.094 715.646C482.684 714.807 482.479 713.82 482.479 712.688C482.479 711.757 482.618 710.848 482.898 709.963C483.185 709.071 483.598 708.221 484.139 707.414C484.679 706.607 485.337 705.861 486.111 705.178C486.886 704.488 487.765 703.879 488.748 703.352L489.93 705.002C489.148 705.451 488.432 705.965 487.781 706.545C487.137 707.124 486.577 707.746 486.102 708.41C485.626 709.068 485.249 709.748 484.969 710.451C485.346 710.028 485.805 709.699 486.346 709.465C486.886 709.23 487.485 709.113 488.143 709.113C489.002 709.113 489.76 709.302 490.418 709.68C491.076 710.051 491.59 710.568 491.961 711.232C492.339 711.89 492.527 712.645 492.527 713.498C492.527 714.429 492.309 715.256 491.873 715.979C491.443 716.695 490.848 717.261 490.086 717.678C489.331 718.088 488.468 718.293 487.498 718.293ZM487.527 716.037C487.977 716.037 488.38 715.92 488.738 715.686C489.096 715.451 489.376 715.132 489.578 714.729C489.786 714.325 489.891 713.876 489.891 713.381C489.891 712.886 489.79 712.45 489.588 712.072C489.393 711.695 489.119 711.398 488.768 711.184C488.416 710.969 488.012 710.861 487.557 710.861C487.094 710.861 486.681 710.972 486.316 711.193C485.958 711.408 485.675 711.708 485.467 712.092C485.258 712.476 485.154 712.919 485.154 713.42C485.154 713.908 485.258 714.351 485.467 714.748C485.675 715.145 485.958 715.461 486.316 715.695C486.674 715.923 487.078 716.037 487.527 716.037ZM559.852 718H550.691V716.467C551.863 715.432 552.85 714.51 553.65 713.703C554.458 712.896 555.105 712.167 555.594 711.516C556.089 710.858 556.447 710.249 556.668 709.689C556.889 709.13 557 708.586 557 708.059C557 707.505 556.896 707.023 556.688 706.613C556.486 706.197 556.202 705.874 555.838 705.646C555.473 705.419 555.05 705.305 554.568 705.305C554.008 705.305 553.471 705.464 552.957 705.783C552.449 706.096 552.026 706.532 551.688 707.092L550.35 705.451C550.896 704.696 551.583 704.11 552.41 703.693C553.243 703.27 554.119 703.059 555.037 703.059C555.903 703.059 556.681 703.247 557.371 703.625C558.068 703.996 558.618 704.517 559.021 705.188C559.432 705.858 559.637 706.649 559.637 707.561C559.637 708.231 559.52 708.908 559.285 709.592C559.051 710.275 558.702 710.962 558.24 711.652C557.785 712.342 557.225 713.029 556.561 713.713C555.896 714.396 555.138 715.074 554.285 715.744H559.852V718ZM565.086 718H562.293L567.4 705.617H560.994V703.352H570.428L570.418 705.061L565.086 718ZM632.879 718H623.719V716.467C624.891 715.432 625.877 714.51 626.678 713.703C627.485 712.896 628.133 712.167 628.621 711.516C629.116 710.858 629.474 710.249 629.695 709.689C629.917 709.13 630.027 708.586 630.027 708.059C630.027 707.505 629.923 707.023 629.715 706.613C629.513 706.197 629.23 705.874 628.865 705.646C628.501 705.419 628.077 705.305 627.596 705.305C627.036 705.305 626.499 705.464 625.984 705.783C625.477 706.096 625.053 706.532 624.715 707.092L623.377 705.451C623.924 704.696 624.611 704.11 625.438 703.693C626.271 703.27 627.146 703.059 628.064 703.059C628.93 703.059 629.708 703.247 630.398 703.625C631.095 703.996 631.645 704.517 632.049 705.188C632.459 705.858 632.664 706.649 632.664 707.561C632.664 708.231 632.547 708.908 632.312 709.592C632.078 710.275 631.73 710.962 631.268 711.652C630.812 712.342 630.252 713.029 629.588 713.713C628.924 714.396 628.165 715.074 627.312 715.744H632.879V718ZM639.861 718.293C638.872 718.293 638.003 718.12 637.254 717.775C636.512 717.43 635.932 716.945 635.516 716.32C635.105 715.689 634.9 714.956 634.9 714.123C634.9 713.186 635.158 712.382 635.672 711.711C636.186 711.034 636.893 710.546 637.791 710.246C637.049 709.96 636.466 709.523 636.043 708.938C635.626 708.345 635.418 707.642 635.418 706.828C635.418 706.066 635.6 705.402 635.965 704.836C636.336 704.27 636.854 703.833 637.518 703.527C638.188 703.215 638.969 703.059 639.861 703.059C640.76 703.059 641.541 703.215 642.205 703.527C642.876 703.833 643.393 704.27 643.758 704.836C644.129 705.402 644.314 706.066 644.314 706.828C644.314 707.635 644.103 708.335 643.68 708.928C643.263 709.52 642.684 709.96 641.941 710.246C642.84 710.539 643.546 711.024 644.061 711.701C644.581 712.378 644.842 713.182 644.842 714.113C644.842 714.947 644.633 715.679 644.217 716.311C643.807 716.942 643.227 717.43 642.479 717.775C641.736 718.12 640.864 718.293 639.861 718.293ZM639.861 709.201C640.441 709.201 640.906 709.012 641.258 708.635C641.616 708.251 641.795 707.756 641.795 707.15C641.795 706.532 641.616 706.034 641.258 705.656C640.906 705.279 640.441 705.09 639.861 705.09C639.288 705.09 638.823 705.279 638.465 705.656C638.113 706.034 637.938 706.532 637.938 707.15C637.938 707.756 638.113 708.251 638.465 708.635C638.823 709.012 639.288 709.201 639.861 709.201ZM639.861 716.184C640.343 716.184 640.763 716.083 641.121 715.881C641.486 715.673 641.766 715.383 641.961 715.012C642.163 714.641 642.264 714.211 642.264 713.723C642.264 713.234 642.163 712.805 641.961 712.434C641.766 712.056 641.486 711.766 641.121 711.564C640.763 711.356 640.343 711.252 639.861 711.252C639.393 711.252 638.976 711.356 638.611 711.564C638.253 711.773 637.973 712.062 637.771 712.434C637.576 712.805 637.479 713.234 637.479 713.723C637.479 714.217 637.576 714.65 637.771 715.021C637.973 715.386 638.253 715.673 638.611 715.881C638.976 716.083 639.393 716.184 639.861 716.184ZM702.938 718H693.777V716.467C694.949 715.432 695.936 714.51 696.736 713.703C697.544 712.896 698.191 712.167 698.68 711.516C699.174 710.858 699.533 710.249 699.754 709.689C699.975 709.13 700.086 708.586 700.086 708.059C700.086 707.505 699.982 707.023 699.773 706.613C699.572 706.197 699.288 705.874 698.924 705.646C698.559 705.419 698.136 705.305 697.654 705.305C697.094 705.305 696.557 705.464 696.043 705.783C695.535 706.096 695.112 706.532 694.773 707.092L693.436 705.451C693.982 704.696 694.669 704.11 695.496 703.693C696.329 703.27 697.205 703.059 698.123 703.059C698.989 703.059 699.767 703.247 700.457 703.625C701.154 703.996 701.704 704.517 702.107 705.188C702.518 705.858 702.723 706.649 702.723 707.561C702.723 708.231 702.605 708.908 702.371 709.592C702.137 710.275 701.788 710.962 701.326 711.652C700.87 712.342 700.311 713.029 699.646 713.713C698.982 714.396 698.224 715.074 697.371 715.744H702.938V718ZM708.67 718L707.479 716.35C708.266 715.894 708.982 715.376 709.627 714.797C710.278 714.217 710.841 713.599 711.316 712.941C711.798 712.277 712.176 711.597 712.449 710.9C712.072 711.33 711.613 711.662 711.072 711.896C710.532 712.124 709.93 712.238 709.266 712.238C708.413 712.238 707.654 712.053 706.99 711.682C706.333 711.304 705.815 710.786 705.438 710.129C705.066 709.465 704.881 708.706 704.881 707.854C704.881 706.923 705.099 706.096 705.535 705.373C705.971 704.65 706.567 704.084 707.322 703.674C708.084 703.264 708.953 703.059 709.93 703.059C710.945 703.059 711.827 703.29 712.576 703.752C713.331 704.214 713.911 704.865 714.314 705.705C714.725 706.545 714.93 707.531 714.93 708.664C714.93 709.595 714.786 710.507 714.5 711.398C714.22 712.284 713.81 713.13 713.27 713.938C712.729 714.745 712.072 715.493 711.297 716.184C710.522 716.867 709.646 717.473 708.67 718ZM709.861 710.49C710.324 710.49 710.734 710.38 711.092 710.158C711.456 709.937 711.743 709.634 711.951 709.25C712.16 708.859 712.264 708.42 712.264 707.932C712.264 707.437 712.16 706.994 711.951 706.604C711.743 706.206 711.46 705.894 711.102 705.666C710.743 705.432 710.34 705.314 709.891 705.314C709.448 705.314 709.044 705.432 708.68 705.666C708.322 705.894 708.038 706.21 707.83 706.613C707.622 707.017 707.518 707.469 707.518 707.971C707.518 708.459 707.618 708.895 707.82 709.279C708.022 709.657 708.299 709.953 708.65 710.168C709.002 710.383 709.406 710.49 709.861 710.49Z" fill="#6F6F6F"/>
<path d="M242.85 790.691L243.855 788.787C244.383 789.197 244.91 789.51 245.438 789.725C245.965 789.933 246.486 790.037 247 790.037C247.514 790.037 247.967 789.939 248.357 789.744C248.755 789.542 249.064 789.266 249.285 788.914C249.513 788.562 249.627 788.156 249.627 787.693C249.627 786.945 249.324 786.362 248.719 785.945C248.113 785.522 247.273 785.311 246.199 785.311H245.623V783.504H246.199C246.785 783.504 247.306 783.406 247.762 783.211C248.217 783.016 248.576 782.749 248.836 782.41C249.096 782.065 249.227 781.674 249.227 781.238C249.227 780.867 249.132 780.538 248.943 780.252C248.755 779.959 248.491 779.731 248.152 779.568C247.82 779.399 247.439 779.314 247.01 779.314C246.58 779.314 246.134 779.409 245.672 779.598C245.216 779.78 244.754 780.05 244.285 780.408L243.133 778.621C243.699 778.12 244.334 777.736 245.037 777.469C245.747 777.195 246.486 777.059 247.254 777.059C248.107 777.059 248.865 777.218 249.529 777.537C250.193 777.856 250.714 778.292 251.092 778.846C251.476 779.399 251.668 780.034 251.668 780.75C251.668 781.551 251.427 782.27 250.945 782.908C250.47 783.546 249.848 784.021 249.08 784.334C250.083 784.594 250.87 785.05 251.443 785.701C252.023 786.346 252.312 787.13 252.312 788.055C252.312 788.868 252.091 789.598 251.648 790.242C251.206 790.88 250.604 791.382 249.842 791.746C249.08 792.111 248.211 792.293 247.234 792.293C246.421 792.293 245.639 792.156 244.891 791.883C244.142 791.609 243.462 791.212 242.85 790.691ZM259.549 792.293C258.475 792.293 257.544 791.997 256.756 791.404C255.975 790.805 255.372 789.939 254.949 788.807C254.526 787.667 254.314 786.287 254.314 784.666C254.314 783.051 254.526 781.678 254.949 780.545C255.372 779.412 255.975 778.549 256.756 777.957C257.544 777.358 258.475 777.059 259.549 777.059C260.623 777.059 261.551 777.358 262.332 777.957C263.113 778.549 263.715 779.412 264.139 780.545C264.562 781.678 264.773 783.051 264.773 784.666C264.773 786.287 264.562 787.667 264.139 788.807C263.715 789.939 263.113 790.805 262.332 791.404C261.551 791.997 260.623 792.293 259.549 792.293ZM259.549 790.027C260.369 790.027 261.004 789.559 261.453 788.621C261.909 787.684 262.137 786.365 262.137 784.666C262.137 782.973 261.909 781.661 261.453 780.73C261.004 779.793 260.369 779.324 259.549 779.324C258.729 779.324 258.09 779.793 257.635 780.73C257.179 781.661 256.951 782.973 256.951 784.666C256.951 786.365 257.179 787.684 257.635 788.621C258.09 789.559 258.729 790.027 259.549 790.027Z" fill="#6F6F6F"/>
</svg>
