<svg xmlns="http://www.w3.org/2000/svg" width="821" height="534" fill="none"><rect width="821" height="78" y="92" fill="#fff" rx="30"/><path fill="#fff" stroke="#337FED" stroke-width="3" d="M29.5 120.5h22v22h-22z"/><path fill="#000" d="M86.22 133.9h1.68v5.7h-1.68zm6.22 0h1.66v5.7h-1.66zm-9.6-10.42h14.54v1.34H82.84zm-.84 9.56h16.38v1.36H82zm8.16-7.2c3.68 0 5.86 1.08 5.86 2.98 0 1.92-2.18 3-5.86 3-3.7 0-5.88-1.08-5.88-3 0-1.9 2.18-2.98 5.88-2.98m0 1.26c-2.64 0-4.16.62-4.16 1.72 0 1.12 1.52 1.74 4.16 1.74s4.16-.62 4.16-1.74c0-1.1-1.52-1.72-4.16-1.72m-.84-5.72h1.66v3.06h-1.66zm24.598 2.8h3.14v1.38h-3.14zm0 3.84h3.14v1.38h-3.14zm-8.48-5.48c2.72 0 4.72 1.76 4.72 4.28 0 2.5-2 4.24-4.72 4.24s-4.72-1.74-4.72-4.24c0-2.52 2-4.28 4.72-4.28m0 1.4c-1.8 0-3.1 1.18-3.1 2.88s1.3 2.86 3.1 2.86 3.1-1.16 3.1-2.86-1.3-2.88-3.1-2.88m7.32-2.46h1.66v10.7h-1.66zm-4.1 11.28c3.68 0 5.94 1.26 5.94 3.38 0 2.14-2.26 3.38-5.94 3.38s-5.94-1.24-5.94-3.38c0-2.12 2.26-3.38 5.94-3.38m0 1.34c-2.68 0-4.32.74-4.32 2.04s1.64 2.06 4.32 2.06 4.32-.76 4.32-2.06-1.64-2.04-4.32-2.04"/><path fill="#999898" d="M325.46 124.06h1.32V127c0 3.76-2.3 7.64-5.12 9.08l-.96-1.32c2.58-1.26 4.76-4.7 4.76-7.76zm.3 0h1.32V127c0 2.86 2.04 6.08 4.66 7.32l-.94 1.32c-2.86-1.42-5.04-5.06-5.04-8.64zm-4.42-.74h9.74v1.4h-9.74zm11.88-1.84h1.68v18.08h-1.68zm1.28 7.3h3.36v1.4h-3.36zm13.258-4.48h5.44v1.36h-5.44zm0 4.34h5.44V130h-5.44zm4.84-7.14h1.66v13.36h-1.66zm-9.88 16.3h12.04v1.36h-12.04zm0-4.32h1.66v4.92h-1.66zm1.6-10.84c2.66 0 4.66 1.86 4.66 4.52s-2 4.52-4.66 4.52-4.66-1.86-4.66-4.52 2-4.52 4.66-4.52m0 1.46c-1.76 0-3.06 1.28-3.06 3.06 0 1.8 1.3 3.08 3.06 3.08s3.08-1.28 3.08-3.08c0-1.78-1.32-3.06-3.08-3.06m18.752 6.44h16.4v1.36h-16.4zm7.34-2.74h1.64v3.36h-1.64zm-.02-6.04h1.44v.8c0 3.26-3.46 5.58-7.14 6.18l-.64-1.32c3.24-.44 6.34-2.44 6.34-4.86zm.26 0h1.42v.8c0 2.42 3.12 4.42 6.34 4.86l-.62 1.32c-3.66-.62-7.14-2.92-7.14-6.18zm-5.76 11.9h12.5v5.9h-1.66V135h-10.84zm23.918-5.16h3.42v1.38h-3.42zm6.44-7.02h1.6v18.08h-1.6zm-3.58.38h1.58v16.8h-1.58zm-6.12 1.12c2.34 0 3.86 2.42 3.86 6.3s-1.52 6.3-3.86 6.3-3.84-2.42-3.84-6.3 1.5-6.3 3.84-6.3m0 1.54c-1.42 0-2.32 1.84-2.32 4.76s.9 4.76 2.32 4.76c1.44 0 2.34-1.84 2.34-4.76s-.9-4.76-2.34-4.76m23.359 3.08h5.04v1.36h-5.04zm-4.36-4.56h1.36v3.22c0 4.06-2.14 7.94-5 9.48l-1.06-1.32c2.66-1.32 4.7-4.8 4.7-8.16zm.32 0h1.34v3.22c0 3.3 2.04 6.58 4.66 7.82l-.98 1.34c-2.92-1.48-5.02-5.2-5.02-9.16zm8.26-1.58h1.64v18.12h-1.64zm20.691 3.24h3.88v1.36h-3.88zm0 3.24h3.88v1.36h-3.88zm-9.72-5.1h9.52v1.36h-9.52zm-.3 8.72-.18-1.4c2.96 0 7.18-.04 10.56-.44l.1 1.24c-3.48.56-7.54.6-10.48.6m2.1-7.66h1.6v6.72h-1.6zm4.32 0h1.6v6.72h-1.6zm6.56-2.42h1.66v11.16h-1.66zm-4.28 11.52c3.74 0 6.02 1.18 6.02 3.26s-2.28 3.26-6.02 3.26c-3.76 0-6.04-1.18-6.04-3.26s2.28-3.26 6.04-3.26m0 1.3c-2.74 0-4.38.72-4.38 1.96s1.64 1.98 4.38 1.98 4.38-.74 4.38-1.98-1.64-1.96-4.38-1.96m9.459-3.22h16.34v1.36h-16.34zm7.36-2.64h1.64v3.34h-1.64zm-5.24 9.36h12.42v1.36h-12.42zm0-3.86h1.66v4.3h-1.66zm6.06-11.94c3.86 0 6.36 1.38 6.36 3.62 0 2.26-2.5 3.6-6.36 3.6-3.88 0-6.36-1.34-6.36-3.6 0-2.24 2.48-3.62 6.36-3.62m0 1.36c-2.84 0-4.66.86-4.66 2.26 0 1.42 1.82 2.26 4.66 2.26s4.66-.84 4.66-2.26c0-1.4-1.82-2.26-4.66-2.26m11.038.1h8.18v1.34h-8.18zm2.82 5.16h1.64v6.12h-1.64zm4.68-5.16h1.62v.96c0 1.48 0 3.84-.52 7.2l-1.64-.16c.54-3.26.54-5.58.54-7.04zm3.9-1.98h1.64v18.08h-1.64zm1.2 7.56h3.34v1.4h-3.34zm-13.4 6.58-.2-1.4c3.28 0 7.64-.06 11.3-.52l.08 1.22c-3.74.6-7.98.68-11.18.7m27.911-1.72h1.68v5.7h-1.68zm6.22 0h1.66v5.7h-1.66zm-9.6-10.42h14.54v1.34h-14.54zm-.84 9.56h16.38v1.36h-16.38zm8.16-7.2c3.68 0 5.86 1.08 5.86 2.98 0 1.92-2.18 3-5.86 3-3.7 0-5.88-1.08-5.88-3 0-1.9 2.18-2.98 5.88-2.98m0 1.26c-2.64 0-4.16.62-4.16 1.72 0 1.12 1.52 1.74 4.16 1.74s4.16-.62 4.16-1.74c0-1.1-1.52-1.72-4.16-1.72m-.84-5.72h1.66v3.06h-1.66zm15.779.96h1.38v1.76c0 3.42-2.04 6.36-5.1 7.52l-.84-1.32c2.74-1 4.56-3.5 4.56-6.2zm.3 0h1.36v1.76c0 2.6 1.86 4.94 4.54 5.88l-.84 1.3c-3.02-1.1-5.06-3.86-5.06-7.18zm-2.26 10.94h12.08v6.28h-1.68v-4.92h-10.4zm10.4-11.8h1.68v10.88h-1.68zm13.418.3c3.98 0 6.36 1.12 6.36 3.14s-2.38 3.14-6.36 3.14c-4 0-6.36-1.12-6.36-3.14s2.36-3.14 6.36-3.14m0 1.26c-2.96 0-4.66.68-4.66 1.88s1.7 1.88 4.66 1.88c2.94 0 4.64-.68 4.64-1.88s-1.7-1.88-4.64-1.88m-8.18 6.22h16.34v1.34h-16.34zm1.98 2.88h12.28v4.08h-10.6v2.2h-1.64v-3.4h10.6v-1.6h-10.64zm.04 5.92h12.78v1.3h-12.78zm21.672-8.88h16.34v1.34h-16.34zm1.98 2.96h12.28v4.14h-10.6v2.2h-1.64v-3.42h10.6v-1.64h-10.64zm.04 5.94h12.78v1.28h-12.78zm5.2-15.36h1.46v.58c0 2.78-3.4 4.6-7.26 4.96l-.54-1.26c3.34-.3 6.34-1.76 6.34-3.7zm.48 0h1.44v.58c0 1.94 3 3.4 6.34 3.7l-.54 1.26c-3.84-.36-7.24-2.18-7.24-4.96zm-6.2-.56h13.38v1.32h-13.38zm30.078-.68h1.66v18.08h-1.66zm-5.3 1.94h1.64c0 5.24-2.36 9.82-8.4 12.78l-.88-1.34c5.22-2.52 7.64-6.36 7.64-11.16zm-6.82 0h7.54v1.36h-7.54zm19.559 3.48h12.28v1.36h-12.28zm-2.22 3.78h16.4v1.36h-16.4zm2.22-8.54h1.64v5.44h-1.64zm-.12 15.62h12.5v1.36h-12.5zm0-3.92h1.64v4.28h-1.64zm34.751-12.42h1.66v9.98h-1.66zm-10.04 10.9h11.7v4.04h-10.04v2.06h-1.62v-3.28h10.02v-1.58h-10.06zm.04 5.76h12.28v1.28h-12.28zm-2.88-14.98h10.98v1.28h-10.98zm5.48 2.12c2.68 0 4.42 1.14 4.42 2.98 0 1.82-1.74 2.94-4.42 2.94s-4.4-1.12-4.4-2.94c0-1.84 1.72-2.98 4.4-2.98m0 1.22c-1.7 0-2.82.68-2.82 1.76 0 1.06 1.12 1.74 2.82 1.74s2.82-.68 2.82-1.74c0-1.08-1.12-1.76-2.82-1.76m-.82-5.18h1.66v2.5h-1.66zm26.618.24h1.68v11.1h-1.68zm-12.22 8.64h1.46c3.28 0 5.7-.1 8.6-.58l.18 1.36c-2.98.5-5.42.58-8.78.58h-1.46zm-.04-7.52h8.2v5h-6.54v3.28h-1.62v-4.58h6.54v-2.34h-6.58zm7.98 10.38c3.76 0 6.08 1.18 6.08 3.26s-2.32 3.28-6.08 3.28c-3.78 0-6.06-1.2-6.06-3.28s2.28-3.26 6.06-3.26m0 1.32c-2.76 0-4.42.7-4.42 1.94s1.66 1.96 4.42 1.96 4.42-.72 4.42-1.96-1.66-1.94-4.42-1.94m22.972-8.82h5.46v1.38h-5.46zm0 5.72h5.46v1.38h-5.46zm-3.32-8.36c2.62 0 4.5 2.46 4.5 6.3 0 3.86-1.88 6.32-4.5 6.32-2.64 0-4.5-2.46-4.5-6.32 0-3.84 1.86-6.3 4.5-6.3m0 1.5c-1.74 0-2.94 1.88-2.94 4.8 0 2.94 1.2 4.86 2.94 4.86s2.94-1.92 2.94-4.86c0-2.92-1.2-4.8-2.94-4.8m8.42-2.9h1.64v18.12h-1.64zm18.798.02h1.58v11.44h-1.58zm-2.94 4.9h3.42v1.38h-3.42zm-.92-4.54h1.56v10.44h-1.56zm-9.88 1.8h9.16v1.32h-9.16zm4.6 2.24c2.26 0 3.84 1.24 3.84 3.1 0 1.88-1.58 3.1-3.84 3.1-2.28 0-3.86-1.22-3.86-3.1 0-1.86 1.58-3.1 3.86-3.1m0 1.24c-1.42 0-2.38.74-2.38 1.86 0 1.14.96 1.86 2.38 1.86 1.4 0 2.36-.72 2.36-1.86 0-1.12-.96-1.86-2.36-1.86m-.82-5.5h1.62v2.76h-1.62zm5.62 11.62c3.76 0 6.02 1.12 6.02 3.14 0 2-2.26 3.14-6.02 3.14-3.8 0-6.04-1.14-6.04-3.14 0-2.02 2.24-3.14 6.04-3.14m0 1.28c-2.78 0-4.4.66-4.4 1.86s1.62 1.88 4.4 1.88c2.74 0 4.38-.68 4.38-1.88s-1.64-1.86-4.38-1.86"/><rect width="821" height="78" fill="#fff" rx="30"/><path fill="#fff" stroke="#337FED" stroke-width="3" d="M29.5 28.5h22v22h-22z"/><path fill="#000" d="M90.22 32.14h5.52v1.36h-5.52zm0 4.04h5.52v1.38h-5.52zm-5.42 4.96h12.06v6.42H95.2v-5.08H84.8zm10.4-11.66h1.66v10.66H95.2zm-8.28 1c2.66 0 4.66 1.8 4.66 4.36s-2 4.34-4.66 4.34c-2.68 0-4.66-1.78-4.66-4.34s1.98-4.36 4.66-4.36m0 1.42c-1.76 0-3.06 1.22-3.06 2.94s1.3 2.92 3.06 2.92S90 36.56 90 34.84s-1.32-2.94-3.08-2.94m17.898-.86h1.36v3.24c0 4-2.16 7.9-5.02 9.42l-1.02-1.32c2.62-1.32 4.68-4.8 4.68-8.1zm.3 0h1.34v3.24c0 3.18 2.02 6.48 4.58 7.76l-1.02 1.32c-2.8-1.5-4.9-5.2-4.9-9.08zm7.5-1.56h1.68v18.08h-1.68zm1.28 7.32h3.36v1.4h-3.36z"/><path fill="#999898" d="M321.8 31.46h8.18v1.34h-8.18zm2.82 5.16h1.64v6.12h-1.64zm4.68-5.16h1.62v.96c0 1.48 0 3.84-.52 7.2l-1.64-.16c.54-3.26.54-5.58.54-7.04zm3.9-1.98h1.64v18.08h-1.64zm1.2 7.56h3.34v1.4h-3.34zM321 43.62l-.2-1.4c3.28 0 7.64-.06 11.3-.52l.08 1.22c-3.74.6-7.98.68-11.18.7m31.598-14.14h1.66v18.08h-1.66zm-4.22 7.24h4.96v1.38h-4.96zm-1.58-5.3h1.64c0 5.16-2.14 9.72-8.14 12.72l-.92-1.3c5.26-2.58 7.42-6.42 7.42-11.14zm-6.64 0h7.52v1.36h-7.52zm17.619 6.46h16.4v1.26h-16.4zm1.94 2.72h12.4v3.86h-10.7v2.12h-1.64v-3.26h10.72v-1.54h-10.78zm.06 5.54h12.92v1.2h-12.92zm.08-16.14h12.2v3.76h-10.52v1.96h-1.64v-3.08h10.54v-1.46h-10.58zm.04 5.32h12.5v1.2h-12.5zm22.411 2.56h1.38c3.62 0 5.64-.06 8.06-.5l.18 1.34c-2.48.44-4.56.52-8.24.52h-1.38zm0-7.28h8.26v1.34h-6.62v6.58h-1.64zm1.12 3.58h6.8v1.34h-6.8zm.72 6.9h11.36v6.24h-11.36zm9.74 1.32h-8.12v3.58h8.12zm-.04-12.92h1.66v10.64h-1.66zm1.2 4.48h3.14v1.4h-3.14zm18.039-4.48h1.66v10.94h-1.66zm-3 5.48h3.74v1.38h-3.74zm-7.06 6.42h11.72v5.94h-11.72zm10.1 1.34h-8.48v3.26h8.48zm-13.22-11.36h10.46v1.34h-10.46zm5.22 2.26c2.44 0 4.18 1.32 4.18 3.24s-1.74 3.2-4.18 3.2-4.18-1.28-4.18-3.2 1.74-3.24 4.18-3.24m0 1.28c-1.52 0-2.6.78-2.6 1.96 0 1.16 1.08 1.94 2.6 1.94s2.6-.78 2.6-1.94c0-1.18-1.08-1.96-2.6-1.96m-.82-5.6h1.66v3.02h-1.66zm26.218.18h1.66v18.08h-1.66zm1.26 7.42h3.36v1.4h-3.36zm-13.6-4.54h10.66v1.36h-10.66zm5.4 2.86c2.56 0 4.4 1.72 4.4 4.16s-1.84 4.16-4.4 4.16c-2.54 0-4.4-1.72-4.4-4.16s1.86-4.16 4.4-4.16m0 1.38c-1.64 0-2.82 1.14-2.82 2.78 0 1.62 1.18 2.78 2.82 2.78s2.82-1.16 2.82-2.78c0-1.64-1.18-2.78-2.82-2.78m-.86-6.9h1.66v3.28h-1.66zm22.259 4.1h5.58v1.36h-5.58zm0 4.98h5.58v1.38h-5.58zm-7.58-7.54h8.22V43h-8.22zm6.58 1.34h-4.96v9.08h4.96zm5.94-3.12h1.64v18.12h-1.64zm14.631 11.2h1.7v6.9h-1.7zm6.22 0h1.7v6.9h-1.7zm-10.42-.9h16.4v1.38h-16.4zm8.16-9.56c3.78 0 6.32 1.52 6.32 3.94 0 2.4-2.54 3.94-6.32 3.94-3.76 0-6.32-1.54-6.32-3.94 0-2.42 2.56-3.94 6.32-3.94m0 1.34c-2.76 0-4.64 1.02-4.64 2.6s1.88 2.6 4.64 2.6 4.62-1.02 4.62-2.6-1.86-2.6-4.62-2.6m14.858-.22h1.36v1.46c0 3.3-2.04 6.12-5.06 7.24l-.86-1.32c2.7-.96 4.56-3.36 4.56-5.92zm.32 0h1.34v1.46c0 2.32 1.76 4.58 4.38 5.5l-.84 1.32c-2.94-1.08-4.88-3.8-4.88-6.82zm4.74 2.86h4.02v1.38h-4.02zm-9.1-3.46h9.66v1.34h-9.66zm2.24 10.56h12.06v6.28h-1.66v-4.92h-10.4zm10.4-11.8h1.66V40.3h-1.66zm9.979 2.58h1.34V35c0 3.82-2.3 7.66-5.18 9.08l-.96-1.32c2.62-1.24 4.8-4.64 4.8-7.76zm.32 0h1.34V35c0 3.06 2.18 6.18 4.84 7.32l-.94 1.32c-2.92-1.36-5.24-4.88-5.24-8.64zm-4.52-.74h10.1v1.4h-10.1zm12.54-1.84h1.66v18.08h-1.66zm9.838 9.12h1.66v4.32h-1.66zm.82-7.96c2.78 0 4.78 1.74 4.78 4.26s-2 4.26-4.78 4.26-4.78-1.74-4.78-4.26 2-4.26 4.78-4.26m0 1.42c-1.84 0-3.16 1.16-3.16 2.84s1.32 2.84 3.16 2.84 3.16-1.16 3.16-2.84-1.32-2.84-3.16-2.84m6.84-2.58h1.66v18.08h-1.66zm1.18 7.44h3.34v1.4h-3.34zm-13.38 6.74-.24-1.38c3.26-.02 7.62-.04 11.3-.54l.14 1.24c-3.82.64-8.04.68-11.2.68m36.792-14.2h1.66v18.12h-1.66zm-7.88 1.4c2.68 0 4.6 2.46 4.6 6.3 0 3.86-1.92 6.32-4.6 6.32-2.66 0-4.58-2.46-4.58-6.32 0-3.84 1.92-6.3 4.58-6.3m0 1.5c-1.76 0-3 1.88-3 4.8 0 2.94 1.24 4.86 3 4.86 1.78 0 3-1.92 3-4.86 0-2.92-1.22-4.8-3-4.8m17.958-1.5c2.66 0 4.54 2.46 4.54 6.3 0 3.86-1.88 6.32-4.54 6.32s-4.54-2.46-4.54-6.32c0-3.84 1.88-6.3 4.54-6.3m0 1.5c-1.76 0-2.96 1.88-2.96 4.8 0 2.94 1.2 4.86 2.96 4.86 1.74 0 2.96-1.92 2.96-4.86 0-2.92-1.22-4.8-2.96-4.8m8.64 1.66h3.32v1.4h-3.32zm0 5.38h3.32v1.4h-3.32zm-1.22-9.92h1.68v18.08h-1.68zm19.339 0h1.66v18.08h-1.66zm-5.3 1.94h1.64c0 5.24-2.36 9.82-8.4 12.78l-.88-1.34c5.22-2.52 7.64-6.36 7.64-11.16zm-6.82 0h7.54v1.36h-7.54zm17.338 6.46h16.4v1.26h-16.4zm1.94 2.72h12.4v3.86h-10.7v2.12h-1.64v-3.26h10.72v-1.54h-10.78zm.06 5.54h12.92v1.2h-12.92zm.08-16.14h12.2v3.76h-10.52v1.96h-1.64v-3.08h10.54v-1.46h-10.58zm.04 5.32h12.5v1.2h-12.5zm22.331-4.22h8.3v8.38h-8.3zm6.68 1.34h-5.06v5.7h5.06zm4.94-2.98h1.66v13.26h-1.66zm1.14 5.52h3.2v1.38h-3.2zm-10.74 10.82h12.08v1.36h-12.08zm0-4.34h1.66v4.92h-1.66zm29.079-4.78h3.34v1.4h-3.34zm-1.22-7.22h1.68v18.1h-1.68zm-11.52 1.78h1.66v11.2h-1.66zm0 10.34h1.44c2.68 0 5.42-.18 8.4-.8l.2 1.38c-3.08.64-5.86.82-8.6.82h-1.44zm19.898-6.68h12.28v1.36h-12.28zm-2.22 3.78h16.4v1.36h-16.4zm2.22-8.54h1.64v5.44h-1.64zm-.12 15.62h12.5v1.36h-12.5zm0-3.92h1.64v4.28h-1.64zm26.372-10.8h1.36v3.24c0 4.16-2.24 8.02-5.2 9.52l-1.02-1.36c2.68-1.28 4.86-4.74 4.86-8.16zm.28 0h1.36v3.24c0 3.3 2.16 6.62 4.84 7.86l-1 1.32c-2.94-1.44-5.2-5.16-5.2-9.18zm8.08-1.58h1.66v18.12h-1.66zm17.638.02h1.66V42.7h-1.66zm1.14 5.48h3.2v1.38h-3.2zm-6.08-4.08h1.76c0 4.68-3.28 8.1-8.46 9.76l-.72-1.36c4.56-1.4 7.42-4.2 7.42-7.68zm-6.68 0h7.52v1.36h-7.52zm2 14.92h12.08v1.36h-12.08zm0-4.44h1.66v4.98h-1.66zm29.092-7.86h5.46v1.38h-5.46zm0 5.72h5.46v1.38h-5.46zm-3.32-8.36c2.62 0 4.5 2.46 4.5 6.3 0 3.86-1.88 6.32-4.5 6.32-2.64 0-4.5-2.46-4.5-6.32 0-3.84 1.86-6.3 4.5-6.3m0 1.5c-1.74 0-2.94 1.88-2.94 4.8 0 2.94 1.2 4.86 2.94 4.86s2.94-1.92 2.94-4.86c0-2.92-1.2-4.8-2.94-4.8m8.42-2.9h1.64v18.12h-1.64zm18.798.02h1.58v11.44h-1.58zm-2.94 4.9h3.42v1.38h-3.42zm-.92-4.54h1.56v10.44h-1.56zm-9.88 1.8h9.16v1.32h-9.16zm4.6 2.24c2.26 0 3.84 1.24 3.84 3.1 0 1.88-1.58 3.1-3.84 3.1-2.28 0-3.86-1.22-3.86-3.1 0-1.86 1.58-3.1 3.86-3.1m0 1.24c-1.42 0-2.38.74-2.38 1.86 0 1.14.96 1.86 2.38 1.86 1.4 0 2.36-.72 2.36-1.86 0-1.12-.96-1.86-2.36-1.86m-.82-5.5h1.62v2.76h-1.62zm5.62 11.62c3.76 0 6.02 1.12 6.02 3.14 0 2-2.26 3.14-6.02 3.14-3.8 0-6.04-1.14-6.04-3.14 0-2.02 2.24-3.14 6.04-3.14m0 1.28c-2.78 0-4.4.66-4.4 1.86s1.62 1.88 4.4 1.88c2.74 0 4.38-.68 4.38-1.88s-1.64-1.86-4.38-1.86"/><rect width="821" height="78" y="456" fill="#fff" rx="30"/><path fill="#fff" stroke="#337FED" stroke-width="3" d="M29.5 484.5h22v22h-22z"/><path fill="#000" d="M81.98 494.72h16.38v1.36H81.98zm7.48.84h1.66v4.16h-1.66zm-5.38-9.24h12.16v6.36H84.08zm10.52 1.34h-8.9v3.68h8.9zM84.06 501.8h12.48v1.36H84.06zm0-3.82h1.64v4.3h-1.64zm21.018-1.72h1.66v2.94h-1.66zm7.6-10.78h1.66v18.08h-1.66zm1.12 7.68h3.34v1.4h-3.34zm-13.38 6.96-.24-1.38c3.24 0 7.66-.04 11.4-.58l.14 1.24c-3.9.7-8.14.72-11.3.72m.06-12.46h10.82V489h-10.82zm5.42 2.4c2.52 0 4.26 1.32 4.26 3.34 0 2.04-1.74 3.34-4.26 3.34s-4.24-1.3-4.24-3.34c0-2.02 1.72-3.34 4.24-3.34m0 1.28c-1.62 0-2.68.82-2.68 2.06s1.06 2.06 2.68 2.06 2.7-.82 2.7-2.06-1.08-2.06-2.7-2.06m-.82-5.84h1.66v3.06h-1.66zm18.479 1.54h1.36v3.24c0 4.16-2.24 8.02-5.2 9.52l-1.02-1.36c2.68-1.28 4.86-4.74 4.86-8.16zm.28 0h1.36v3.24c0 3.3 2.16 6.62 4.84 7.86l-1 1.32c-2.94-1.44-5.2-5.16-5.2-9.18zm8.08-1.58h1.66v18.12h-1.66zm14.558 3.28h4.62v1.38h-4.62zm3.92-3.26h1.66v9.32h-1.66zm-9.98 10.26h11.64v4.32h-9.96v2.74h-1.62v-3.98h9.94v-1.76h-10zm.06 6.26h12.26v1.32h-12.26zm1.22-15.96h1.36v1.7c0 3.34-2 6.04-5.02 7.12l-.86-1.32c2.72-.92 4.52-3.18 4.52-5.8zm.28 0h1.34v1.7c0 2.36 1.82 4.54 4.44 5.4l-.86 1.3c-2.92-1.04-4.92-3.64-4.92-6.7zm14.664 9.923q0-2.67.703-4.915a14.6 14.6 0 0 1 2.053-4.14h1.946q-.525.702-.98 1.726a16.4 16.4 0 0 0-.796 2.244q-.34 1.214-.532 2.521a17.5 17.5 0 0 0-.192 2.564q0 1.69.334 3.423.333 1.734.902 3.218.567 1.484 1.264 2.422h-1.946a14.7 14.7 0 0 1-2.053-4.141q-.702-2.244-.703-4.922m18.873-10.483h1.66v10.9h-1.66zm1.2 4.68h3.14v1.4h-3.14zm-11.28 7.18h11.74v6.22h-1.66v-4.86h-10.08zm-1.54-10.74h1.64v2.82h5.1v-2.82h1.62v8.56h-8.36zm1.64 4.14v3.1h5.1v-3.1zm23.339 3.28h1.64v2.78h-1.64zm-7.34-.92h16.34v1.34h-16.34zm2.12-7.02h12.1v5.5h-12.1zm10.48 1.32h-8.84v2.86h8.84zm-10.62 8.8h12.28v4.06h-10.6v2.2h-1.64v-3.4h10.6v-1.58h-10.64zm.04 5.86h12.78v1.3h-12.78zm17.358-15.18h8v1.36h-8zm2.72 4.04h1.64v4.52h-1.64zm4.62-4.04h1.64v.96c0 1.18 0 2.98-.48 5.36l-1.62-.18c.46-2.38.46-4.02.46-5.18zm4.1-1.4h1.66v13.62h-1.66zm.9 5.88h3.34v1.38h-3.34zm-10.66 10.44h12v1.36h-12zm0-3.96h1.64v4.38h-1.64zm-2.6-1.62-.18-1.36c3.22 0 7.66-.08 11.32-.58l.12 1.2c-3.76.66-8.08.74-11.26.74m21.549 3.791-.107.775q-.106.852-.362 1.775-.248.93-.518 1.726-.263.795-.433 1.264h-1.506q.092-.44.256-1.193a37 37 0 0 0 .319-1.669 22 22 0 0 0 .235-1.882l.071-.796zm17.21-9.551h4.56v1.36h-4.56zm3.62-4.96h1.66v13.24h-1.66zm-9.88 16.3h12.04v1.36h-12.04zm0-4.22h1.66v4.92h-1.66zm1.28-9.84h1.36v1.46c0 3.28-2.04 6.12-5.06 7.24l-.86-1.32c2.7-.96 4.56-3.36 4.56-5.92zm.32 0h1.34v1.44c0 2.34 1.76 4.62 4.38 5.54l-.84 1.3c-2.94-1.06-4.88-3.78-4.88-6.84zm-4.36-.78h9.66v1.34h-9.66zm22.598.08h1.36v3.24c0 4.16-2.24 8.02-5.2 9.52l-1.02-1.36c2.68-1.28 4.86-4.74 4.86-8.16zm.28 0h1.36v3.24c0 3.3 2.16 6.62 4.84 7.86l-1 1.32c-2.94-1.44-5.2-5.16-5.2-9.18zm8.08-1.58h1.66v18.12h-1.66zm6.239 1.42h8v1.36h-8zm2.72 4.04h1.64v4.52h-1.64zm4.62-4.04h1.64v.96c0 1.18 0 2.98-.48 5.36l-1.62-.18c.46-2.38.46-4.02.46-5.18zm4.1-1.4h1.66v13.62h-1.66zm.9 5.88h3.34v1.38h-3.34zm-10.66 10.44h12v1.36h-12zm0-3.96h1.64v4.38h-1.64zm-2.6-1.62-.18-1.36c3.22 0 7.66-.08 11.32-.58l.12 1.2c-3.76.66-8.08.74-11.26.74m22.87-.257q0 2.678-.703 4.922a14.7 14.7 0 0 1-2.053 4.141h-1.946q.525-.703.98-1.726t.796-2.238a21 21 0 0 0 .532-2.528q.192-1.307.192-2.571 0-1.683-.334-3.416a19 19 0 0 0-.902-3.217q-.568-1.485-1.264-2.422h1.946a14.6 14.6 0 0 1 2.053 4.14q.702 2.245.703 4.915"/><path fill="#999898" d="M333.22 485.46h1.68v18.12h-1.68zm1.28 7.14h3.36v1.4h-3.36zm-12.74 5.08h1.42c3.34 0 5.68-.12 8.38-.62l.18 1.4c-2.78.52-5.16.62-8.56.62h-1.42zm0-10.46h8.4v1.36h-6.76v9.72h-1.64zm31.158.96h3.14v1.38h-3.14zm0 3.84h3.14v1.38h-3.14zm-8.48-5.48c2.72 0 4.72 1.76 4.72 4.28 0 2.5-2 4.24-4.72 4.24s-4.72-1.74-4.72-4.24c0-2.52 2-4.28 4.72-4.28m0 1.4c-1.8 0-3.1 1.18-3.1 2.88s1.3 2.86 3.1 2.86 3.1-1.16 3.1-2.86-1.3-2.88-3.1-2.88m7.32-2.46h1.66v10.7h-1.66zm-4.1 11.28c3.68 0 5.94 1.26 5.94 3.38 0 2.14-2.26 3.38-5.94 3.38s-5.94-1.24-5.94-3.38c0-2.12 2.26-3.38 5.94-3.38m0 1.34c-2.68 0-4.32.74-4.32 2.04s1.64 2.06 4.32 2.06 4.32-.76 4.32-2.06-1.64-2.04-4.32-2.04m22.499-12.6h1.66v13.56h-1.66zm1.14 5.92h3.2v1.4h-3.2zm-13.46-3.74h10.68v1.34h-10.68zm5.34 2.34c2.56 0 4.32 1.34 4.32 3.38 0 2.02-1.76 3.36-4.32 3.36-2.58 0-4.34-1.34-4.34-3.36 0-2.04 1.76-3.38 4.34-3.38m0 1.3c-1.64 0-2.76.82-2.76 2.08 0 1.24 1.12 2.06 2.76 2.06 1.62 0 2.74-.82 2.74-2.06 0-1.26-1.12-2.08-2.74-2.08m-.84-5.84h1.66v2.9h-1.66zm-1.78 16.32h12.08v1.36h-12.08zm0-3.82h1.66v4.4h-1.66zm30.511-7.52h4.56v1.36h-4.56zm3.62-4.96h1.66v13.24h-1.66zm-9.88 16.3h12.04v1.36h-12.04zm0-4.22h1.66v4.92h-1.66zm1.28-9.84h1.36v1.46c0 3.28-2.04 6.12-5.06 7.24l-.86-1.32c2.7-.96 4.56-3.36 4.56-5.92zm.32 0h1.34v1.44c0 2.34 1.76 4.62 4.38 5.54l-.84 1.3c-2.94-1.06-4.88-3.78-4.88-6.84zm-4.36-.78h9.66v1.34h-9.66zm22.599.08h1.36v3.24c0 4.16-2.24 8.02-5.2 9.52l-1.02-1.36c2.68-1.28 4.86-4.74 4.86-8.16zm.28 0h1.36v3.24c0 3.3 2.16 6.62 4.84 7.86l-1 1.32c-2.94-1.44-5.2-5.16-5.2-9.18zm8.08-1.58h1.66v18.12h-1.66zm5.258 8.42h16.4v1.26h-16.4zm1.94 2.72h12.4v3.86h-10.7v2.12h-1.64v-3.26h10.72v-1.54h-10.78zm.06 5.54h12.92v1.2h-12.92zm.08-16.14h12.2v3.76h-10.52v1.96h-1.64v-3.08h10.54v-1.46h-10.58zm.04 5.32h12.5v1.2h-12.5zm21.572 3.74h16.34v1.34h-16.34zm7.34-2.34h1.64v2.9h-1.64zm-5.18-.74h12.26v1.3h-12.26zm0-5.98h12.18v1.3h-10.54v5.38h-1.64zm1.16 2.96h10.54v1.28h-10.54zm4.84 8.78c3.94 0 6.2 1 6.2 2.9 0 1.88-2.26 2.88-6.2 2.88s-6.2-1-6.2-2.88c0-1.9 2.26-2.9 6.2-2.9m0 1.26c-2.9 0-4.52.58-4.52 1.64 0 1.08 1.62 1.64 4.52 1.64s4.52-.56 4.52-1.64c0-1.06-1.62-1.64-4.52-1.64m10.218-10.44h8.96v1.36h-8.96zm4.48 2.56c2.26 0 3.9 1.7 3.9 4.14 0 2.42-1.64 4.12-3.9 4.12-2.24 0-3.88-1.7-3.88-4.12 0-2.44 1.64-4.14 3.88-4.14m0 1.42c-1.38 0-2.38 1.12-2.38 2.72s1 2.72 2.38 2.72c1.4 0 2.42-1.12 2.42-2.72s-1.02-2.72-2.42-2.72m9.26-7.06h1.6v18.08h-1.6zm-2.88 7.6h3.42v1.38h-3.42zm-.98-7.2h1.56v16.8h-1.56zm-6.2.12h1.64v3.4h-1.64zm24.831 2.06h1.34V491c0 3.82-2.3 7.66-5.18 9.08l-.96-1.32c2.62-1.24 4.8-4.64 4.8-7.76zm.32 0h1.34V491c0 3.06 2.18 6.18 4.84 7.32l-.94 1.32c-2.92-1.36-5.24-4.88-5.24-8.64zm-4.52-.74h10.1v1.4h-10.1zm12.54-1.84h1.66v18.08h-1.66zm9.979.86h1.38v1.76c0 3.42-2.04 6.36-5.1 7.52l-.84-1.32c2.74-1 4.56-3.5 4.56-6.2zm.3 0h1.36v1.76c0 2.6 1.86 4.94 4.54 5.88l-.84 1.3c-3.02-1.1-5.06-3.86-5.06-7.18zm-2.26 10.94h12.08v6.28h-1.68v-4.92h-10.4zm10.4-11.8h1.68v10.88h-1.68zm6.058 1.98h8.18v1.34h-8.18zm2.82 5.16h1.64v6.12h-1.64zm4.68-5.16h1.62v.96c0 1.48 0 3.84-.52 7.2l-1.64-.16c.54-3.26.54-5.58.54-7.04zm3.9-1.98h1.64v18.08h-1.64zm1.2 7.56h3.34v1.4h-3.34zm-13.4 6.58-.2-1.4c3.28 0 7.64-.06 11.3-.52l.08 1.22c-3.74.6-7.98.68-11.18.7m23.672-4.9h16.38v1.36h-16.38zm7.48.84h1.66v4.16h-1.66zm-5.38-9.24h12.16v6.36h-12.16zm10.52 1.34h-8.9v3.68h8.9zm-10.54 14.14h12.48v1.36h-12.48zm0-3.82h1.64v4.3h-1.64zm21.018-1.72h1.66v2.94h-1.66zm7.6-10.78h1.66v18.08h-1.66zm1.12 7.68h3.34v1.4h-3.34zm-13.38 6.96-.24-1.38c3.24 0 7.66-.04 11.4-.58l.14 1.24c-3.9.7-8.14.72-11.3.72m.06-12.46h10.82V489h-10.82zm5.42 2.4c2.52 0 4.26 1.32 4.26 3.34 0 2.04-1.74 3.34-4.26 3.34s-4.24-1.3-4.24-3.34c0-2.02 1.72-3.34 4.24-3.34m0 1.28c-1.62 0-2.68.82-2.68 2.06s1.06 2.06 2.68 2.06 2.7-.82 2.7-2.06-1.08-2.06-2.7-2.06m-.82-5.84h1.66v3.06h-1.66zm13.699 8.38h16.4v1.26h-16.4zm1.94 2.72h12.4v3.86h-10.7v2.12h-1.64v-3.26h10.72v-1.54h-10.78zm.06 5.54h12.92v1.2h-12.92zm.08-16.14h12.2v3.76h-10.52v1.96h-1.64v-3.08h10.54v-1.46h-10.58zm.04 5.32h12.5v1.2h-12.5zm22.331-4.22h8.3v8.38h-8.3zm6.68 1.34h-5.06v5.7h5.06zm4.94-2.98h1.66v13.26h-1.66zm1.14 5.52h3.2v1.38h-3.2zm-10.74 10.82h12.08v1.36h-12.08zm0-4.34h1.66v4.92h-1.66zm29.078-4.78h3.34v1.4h-3.34zm-1.22-7.22h1.68v18.1h-1.68zm-11.52 1.78h1.66v11.2h-1.66zm0 10.34h1.44c2.68 0 5.42-.18 8.4-.8l.2 1.38c-3.08.64-5.86.82-8.6.82h-1.44zm19.899-6.68h12.28v1.36h-12.28zm-2.22 3.78h16.4v1.36h-16.4zm2.22-8.54h1.64v5.44h-1.64zm-.12 15.62h12.5v1.36h-12.5zm0-3.92h1.64v4.28h-1.64zm22.431-3.96h1.38c3.62 0 5.64-.06 8.06-.5l.18 1.34c-2.48.44-4.56.52-8.24.52h-1.38zm0-7.28h8.26v1.34h-6.62v6.58h-1.64zm1.12 3.58h6.8v1.34h-6.8zm.72 6.9h11.36v6.24h-11.36zm9.74 1.32h-8.12v3.58h8.12zm-.04-12.92h1.66v10.64h-1.66zm1.2 4.48h3.14v1.4h-3.14zm6.879-3.3h11.3V488h-11.3zm-2.04 7.76h16.34v1.36h-16.34zm7.3.9h1.66v8.26h-1.66zm5.26-8.66h1.62v1.56c0 1.88 0 4-.68 7.06l-1.64-.22c.7-2.92.7-5.02.7-6.84zm19.271 2.84h5.46v1.38h-5.46zm0 5.72h5.46v1.38h-5.46zm-3.32-8.36c2.62 0 4.5 2.46 4.5 6.3 0 3.86-1.88 6.32-4.5 6.32-2.64 0-4.5-2.46-4.5-6.32 0-3.84 1.86-6.3 4.5-6.3m0 1.5c-1.74 0-2.94 1.88-2.94 4.8 0 2.94 1.2 4.86 2.94 4.86s2.94-1.92 2.94-4.86c0-2.92-1.2-4.8-2.94-4.8m8.42-2.9h1.64v18.12h-1.64zm18.799.02h1.58v11.44h-1.58zm-2.94 4.9h3.42v1.38h-3.42zm-.92-4.54h1.56v10.44h-1.56zm-9.88 1.8h9.16v1.32h-9.16zm4.6 2.24c2.26 0 3.84 1.24 3.84 3.1 0 1.88-1.58 3.1-3.84 3.1-2.28 0-3.86-1.22-3.86-3.1 0-1.86 1.58-3.1 3.86-3.1m0 1.24c-1.42 0-2.38.74-2.38 1.86 0 1.14.96 1.86 2.38 1.86 1.4 0 2.36-.72 2.36-1.86 0-1.12-.96-1.86-2.36-1.86m-.82-5.5h1.62v2.76h-1.62zm5.62 11.62c3.76 0 6.02 1.12 6.02 3.14 0 2-2.26 3.14-6.02 3.14-3.8 0-6.04-1.14-6.04-3.14 0-2.02 2.24-3.14 6.04-3.14m0 1.28c-2.78 0-4.4.66-4.4 1.86s1.62 1.88 4.4 1.88c2.74 0 4.38-.68 4.38-1.88s-1.64-1.86-4.38-1.86"/><rect width="821" height="78" y="364" fill="#fff" rx="30"/><path fill="#fff" stroke="#337FED" stroke-width="3" d="M29.5 392.5h22v22h-22z"/><path fill="#999898" d="M321 402.5h16.34v1.32H321zm7.34-3.12h1.64v3.64h-1.64zm-5.54 6.2h12.54v6.12h-1.66v-4.76H322.8zm.26-6.6h12.4v1.36h-12.4zm0-4.78h12.24v1.36h-10.58v4.12h-1.66zm16.318 8.82h16.34v1.36h-16.34zm1.82 3.08h12.42v5.46h-1.66v-4.1h-10.76zm.34-6.06h12.26v1.3h-12.26zm0-6.08h12.18v1.3h-10.54v5.38h-1.64zm1.16 3h10.54v1.26h-10.54zm27.459-3.46h1.66v13.56h-1.66zm1.14 5.92h3.2v1.4h-3.2zm-13.46-3.74h10.68v1.34h-10.68zm5.34 2.34c2.56 0 4.32 1.34 4.32 3.38 0 2.02-1.76 3.36-4.32 3.36-2.58 0-4.34-1.34-4.34-3.36 0-2.04 1.76-3.38 4.34-3.38m0 1.3c-1.64 0-2.76.82-2.76 2.08 0 1.24 1.12 2.06 2.76 2.06 1.62 0 2.74-.82 2.74-2.06 0-1.26-1.12-2.08-2.74-2.08m-.84-5.84h1.66v2.9h-1.66zm-1.78 16.32h12.08v1.36h-12.08zm0-3.82h1.66v4.4h-1.66zm34.131-12.5h1.66v13.36h-1.66zm-3.9 5.58h4.22v1.38h-4.22zm-1.68-4.18h1.74c0 4.66-3.28 8.2-8.38 9.9l-.72-1.34c4.42-1.48 7.36-4.32 7.36-7.9zm-6.46 0h7.54v1.36h-7.54zm2.28 14.92h11.88v1.36h-11.88zm0-4.3h1.66v4.98h-1.66zm22.299-1.96h1.64v2.84h-1.64zm-7.36-.96h16.34v1.34h-16.34zm1.82 3.38h12.5v5.54h-1.66v-4.18h-10.84zm5.54-12.58h1.64v2.52h-1.64zm-.08 2.74h1.46v.3c0 2.98-3.3 4.72-7.24 5.14l-.52-1.26c3.5-.32 6.3-1.8 6.3-3.88zm.34 0h1.46v.3c0 2.08 2.8 3.56 6.3 3.88l-.52 1.26c-3.96-.42-7.24-2.16-7.24-5.14zm-5.94-.88h13v1.34h-13zm24.058 6.78h1.64v2.78h-1.64zm-7.34-.92h16.34v1.34h-16.34zm2.12-7.02h12.1v5.5h-12.1zm10.48 1.32h-8.84v2.86h8.84zm-10.62 8.8h12.28v4.06h-10.6v2.2h-1.64v-3.4h10.6v-1.58h-10.64zm.04 5.86h12.78v1.3h-12.78zm17.199-14.6h8.18v1.34h-8.18zm2.82 5.16h1.64v6.12h-1.64zm4.68-5.16h1.62v.96c0 1.48 0 3.84-.52 7.2l-1.64-.16c.54-3.26.54-5.58.54-7.04zm3.9-1.98h1.64v18.08h-1.64zm1.2 7.56h3.34v1.4h-3.34zm-13.4 6.58-.2-1.4c3.28 0 7.64-.06 11.3-.52l.08 1.22c-3.74.6-7.98.68-11.18.7m30.891-9.78h3.52v1.38h-3.52zm0 5.5h3.52v1.38h-3.52zm6.56-9.86h1.6v18.08h-1.6zm-3.54.38h1.56v16.8h-1.56zm-6.16 1.12c2.34 0 3.86 2.42 3.86 6.3s-1.52 6.3-3.86 6.3-3.84-2.42-3.84-6.3 1.5-6.3 3.84-6.3m0 1.54c-1.42 0-2.34 1.84-2.34 4.76s.92 4.76 2.34 4.76c1.44 0 2.34-1.84 2.34-4.76s-.9-4.76-2.34-4.76m21.658-2.96h1.4v.66c0 3.08-3.52 5.14-7.28 5.62l-.56-1.28c3.28-.36 6.44-2.1 6.44-4.34zm.28 0h1.4v.66c0 2.24 3.16 3.98 6.44 4.34l-.58 1.28c-3.74-.48-7.26-2.54-7.26-5.62zm-.28 8.44h1.64v2.76h-1.64zm-7.34-.98h16.34v1.34h-16.34zm1.98 3.12h12.28v4.12h-10.6v2.18h-1.64v-3.38h10.6v-1.64h-10.64zm.04 5.92h12.78v1.3h-12.78zm26.132-14.72h1.36v1.46c0 3.32-2 6.08-5.02 7.16l-.88-1.3c2.74-.96 4.54-3.28 4.54-5.86zm.3 0h1.36v1.44c0 2.4 1.74 4.62 4.4 5.52l-.86 1.3c-2.98-1.04-4.9-3.7-4.9-6.82zm-4.32-.6h9.66v1.36h-9.66zm11.94-1.26h1.66v10.88h-1.66zm1.2 4.76h3.14v1.38h-3.14zm-11.28 7.08h11.74v6.24h-1.66v-4.86h-10.08zm23.458-2.24h1.64v3.12h-1.64zm-7.36-.88h16.34v1.36h-16.34zm1.52-8.16h13.28v1.36h-13.28zm.08 5.14h13.12v1.36h-13.12zm2.66-4.54h1.66v5.42h-1.66zm6.16 0h1.64v5.42h-1.64zm-8.42 11.02h12.34v5.66h-12.34zm10.72 1.32h-9.08v3h9.08zm13.859-13.2c3.98 0 6.36 1.12 6.36 3.14s-2.38 3.14-6.36 3.14c-4 0-6.36-1.12-6.36-3.14s2.36-3.14 6.36-3.14m0 1.26c-2.96 0-4.66.68-4.66 1.88s1.7 1.88 4.66 1.88c2.94 0 4.64-.68 4.64-1.88s-1.7-1.88-4.64-1.88m-8.18 6.22h16.34v1.34h-16.34zm1.98 2.88h12.28v4.08h-10.6v2.2h-1.64v-3.4h10.6v-1.6h-10.64zm.04 5.92h12.78v1.3h-12.78zm34.051-16.58h1.66v10.24h-1.66zm1.2 4.4h3.14v1.38h-3.14zm-6.2-3.24h1.76c0 4.56-3.18 7.84-8.5 9.28l-.64-1.32c4.68-1.28 7.38-3.9 7.38-7.22zm-6.6 0h7.52v1.34h-7.52zm1.88 9.94h11.38v6.74h-11.38zm9.74 1.34h-8.1v4.04h8.1zm10.399-11.5h1.38v1.84c0 3.48-1.96 6.36-4.98 7.54l-.88-1.34c2.72-1 4.48-3.44 4.48-6.2zm.3 0h1.36v1.96c0 2.44 1.8 4.7 4.4 5.6l-.88 1.3c-2.9-1.08-4.88-3.76-4.88-6.9zm7.68-.94h1.66v10.96h-1.66zm1.2 4.66h3.14v1.4h-3.14zm-5.3 6.8c3.7 0 5.94 1.22 5.94 3.3s-2.24 3.28-5.94 3.28-5.94-1.2-5.94-3.28 2.24-3.3 5.94-3.3m0 1.32c-2.68 0-4.32.72-4.32 1.98s1.64 1.98 4.32 1.98 4.32-.72 4.32-1.98-1.64-1.98-4.32-1.98m22.378-12.78h1.66v18.08h-1.66zm1.26 7.42h3.36v1.4h-3.36zm-13.6-4.54h10.66v1.36h-10.66zm5.4 2.86c2.56 0 4.4 1.72 4.4 4.16s-1.84 4.16-4.4 4.16c-2.54 0-4.4-1.72-4.4-4.16s1.86-4.16 4.4-4.16m0 1.38c-1.64 0-2.82 1.14-2.82 2.78 0 1.62 1.18 2.78 2.82 2.78s2.82-1.16 2.82-2.78c0-1.64-1.18-2.78-2.82-2.78m-.86-6.9h1.66v3.28h-1.66zm16.158 5.2h12.28v1.36h-12.28zm-2.22 3.78h16.4v1.36h-16.4zm2.22-8.54h1.64v5.44h-1.64zm-.12 15.62h12.5v1.36h-12.5zm0-3.92h1.64v4.28h-1.64zm26.372-10.8h1.36v3.24c0 4.16-2.24 8.02-5.2 9.52l-1.02-1.36c2.68-1.28 4.86-4.74 4.86-8.16zm.28 0h1.36v3.24c0 3.3 2.16 6.62 4.84 7.86l-1 1.32c-2.94-1.44-5.2-5.16-5.2-9.18zm8.08-1.58h1.66v18.12h-1.66zm17.638.02h1.66v10.6h-1.66zm1.2 4.56h3.14v1.4h-3.14zm-6.2-3.4h1.74c0 4.56-3.18 7.82-8.46 9.26l-.68-1.3c4.68-1.28 7.4-3.9 7.4-7.24zm-6.6 0h7.52v1.34h-7.52zm1.52 10.28h11.74v6.64h-1.66v-5.3h-10.08zm29.552-7.42h5.46v1.38h-5.46zm0 5.72h5.46v1.38h-5.46zm-3.32-8.36c2.62 0 4.5 2.46 4.5 6.3 0 3.86-1.88 6.32-4.5 6.32-2.64 0-4.5-2.46-4.5-6.32 0-3.84 1.86-6.3 4.5-6.3m0 1.5c-1.74 0-2.94 1.88-2.94 4.8 0 2.94 1.2 4.86 2.94 4.86s2.94-1.92 2.94-4.86c0-2.92-1.2-4.8-2.94-4.8m8.42-2.9h1.64v18.12h-1.64zm18.798.02h1.58v11.44h-1.58zm-2.94 4.9h3.42v1.38h-3.42zm-.92-4.54h1.56v10.44h-1.56zm-9.88 1.8h9.16v1.32h-9.16zm4.6 2.24c2.26 0 3.84 1.24 3.84 3.1 0 1.88-1.58 3.1-3.84 3.1-2.28 0-3.86-1.22-3.86-3.1 0-1.86 1.58-3.1 3.86-3.1m0 1.24c-1.42 0-2.38.74-2.38 1.86 0 1.14.96 1.86 2.38 1.86 1.4 0 2.36-.72 2.36-1.86 0-1.12-.96-1.86-2.36-1.86m-.82-5.5h1.62v2.76h-1.62zm5.62 11.62c3.76 0 6.02 1.12 6.02 3.14 0 2-2.26 3.14-6.02 3.14-3.8 0-6.04-1.14-6.04-3.14 0-2.02 2.24-3.14 6.04-3.14m0 1.28c-2.78 0-4.4.66-4.4 1.86s1.62 1.88 4.4 1.88c2.74 0 4.38-.68 4.38-1.88s-1.64-1.86-4.38-1.86"/><path fill="#000" d="M95.2 393.48h1.66v13.36H95.2zm-3.9 5.58h4.22v1.38H91.3zm-1.68-4.18h1.74c0 4.66-3.28 8.2-8.38 9.9l-.72-1.34c4.42-1.48 7.36-4.32 7.36-7.9zm-6.46 0h7.54v1.36h-7.54zm2.28 14.92h11.88v1.36H85.44zm0-4.3h1.66v4.98h-1.66zm22.298-1.96h1.64v2.84h-1.64zm-7.36-.96h16.34v1.34h-16.34zm1.82 3.38h12.5v5.54h-1.66v-4.18h-10.84zm5.54-12.58h1.64v2.52h-1.64zm-.08 2.74h1.46v.3c0 2.98-3.3 4.72-7.24 5.14l-.52-1.26c3.5-.32 6.3-1.8 6.3-3.88zm.34 0h1.46v.3c0 2.08 2.8 3.56 6.3 3.88l-.52 1.26c-3.96-.42-7.24-2.16-7.24-5.14zm-5.94-.88h13v1.34h-13zm22.706-.467-4.687 17.415h-1.897l4.688-17.415zm1.377 13.087h16.38v1.38h-16.38zm7.36-4.38h1.64v4.84h-1.64zm-.04-7.72h1.4v1.12c0 3.7-3.7 6.5-7.26 7.24l-.68-1.32c3.12-.52 6.54-3.06 6.54-5.92zm.3 0h1.4v1.12c0 2.86 3.44 5.34 6.6 5.86l-.66 1.32c-3.62-.72-7.34-3.48-7.34-7.18zm-6.28-.64h13.66v1.36h-13.66zm27.218 2.7h3.68v1.36h-3.68zm-.02 3.52h3.68v1.36h-3.68zm-10.12-5.88h10.12v1.34h-10.12zm5.12 2.28c2.42 0 4.08 1.32 4.08 3.34s-1.66 3.36-4.08 3.36-4.1-1.34-4.1-3.36 1.68-3.34 4.1-3.34m0 1.28c-1.52 0-2.54.8-2.54 2.06s1.02 2.08 2.54 2.08c1.5 0 2.54-.82 2.54-2.08s-1.04-2.06-2.54-2.06m-.82-5.7h1.66v3.08h-1.66zm8.88.16h1.66v11.68h-1.66zm-4.26 11.86c3.74 0 6.02 1.14 6.02 3.1s-2.28 3.08-6.02 3.08c-3.76 0-6.02-1.12-6.02-3.08s2.26-3.1 6.02-3.1m0 1.32c-2.66 0-4.3.62-4.3 1.78 0 1.14 1.64 1.8 4.3 1.8s4.3-.66 4.3-1.8c0-1.16-1.64-1.78-4.3-1.78m16.779-4.64h1.64v2.78h-1.64zm-7.34-.92h16.34v1.34h-16.34zm2.12-7.02h12.1v5.5h-12.1zm10.48 1.32h-8.84v2.86h8.84zm-10.62 8.8h12.28v4.06h-10.6v2.2h-1.64v-3.4h10.6v-1.58h-10.64zm.04 5.86h12.78v1.3h-12.78z"/><rect width="821" height="78" y="274" fill="#fff" rx="30"/><path fill="#fff" stroke="#337FED" stroke-width="3" d="M29.5 302.5h22v22h-22z"/><path fill="#999898" d="M334.2 303.5h1.66v13.78h-1.66zm-3.06 4.78h3.76v1.36h-3.76zm0 3.82h3.76v1.34h-3.76zm-10.12-6.42h10.12v1.34h-10.12zm5.12 2.34c2.4 0 4.08 1.38 4.08 3.46 0 2.06-1.68 3.46-4.08 3.46-2.42 0-4.1-1.4-4.1-3.46 0-2.08 1.68-3.46 4.1-3.46m0 1.3c-1.5 0-2.52.88-2.52 2.16s1.02 2.14 2.52 2.14 2.52-.86 2.52-2.14-1.02-2.16-2.52-2.16m-.82-5.86h1.66v3.08h-1.66zm-1.08 16.34h12.06v1.36h-12.06zm0-3.7h1.66v4.36h-1.66zm28.898-12.62h1.6v18.08h-1.6zm-3.06 7.24h3.48v1.38h-3.48zm-1.04-6.84h1.56v16.76h-1.56zm-9 11.84h1.18c2.64 0 4.44-.1 6.54-.54l.16 1.38c-2.16.46-3.98.54-6.7.54h-1.18zm0-10.04h6.72v1.36h-5.08v9.3h-1.64zm27.492-1.1h1.36v2.22c0 3.54-1.96 6.36-5 7.54l-.88-1.32c2.76-.98 4.52-3.42 4.52-6.22zm.28 0h1.36v2.28c0 2.46 1.8 4.78 4.44 5.72l-.82 1.3c-2.98-1.08-4.98-3.84-4.98-7.02zm7.64-1.12h1.66v13.36h-1.66zm1.14 5.56h3.2v1.38h-3.2zm-10.7 10.78h12.02v1.36h-12.02zm0-4.24h1.66v4.9h-1.66zm24.678-7.78h4.86v1.38h-4.86zm-4.16-3.48c2.7 0 4.66 1.72 4.66 4.2s-1.96 4.18-4.66 4.18-4.66-1.7-4.66-4.18 1.96-4.2 4.66-4.2m0 1.4c-1.78 0-3.06 1.14-3.06 2.8 0 1.64 1.28 2.8 3.06 2.8s3.06-1.16 3.06-2.8c0-1.66-1.28-2.8-3.06-2.8m8.28-2.22h1.66v9.7h-1.66zm-9.92 10.6h1.66v2.28h8.28v-2.28h1.64v7.24h-11.58zm1.66 3.6v2.3h8.28v-2.3zm14.259-12.22h8.18v1.34h-8.18zm2.82 5.16h1.64v6.12h-1.64zm4.68-5.16h1.62v.96c0 1.48 0 3.84-.52 7.2l-1.64-.16c.54-3.26.54-5.58.54-7.04zm3.9-1.98h1.64v18.08h-1.64zm1.2 7.56h3.34v1.4h-3.34zm-13.4 6.58-.2-1.4c3.28 0 7.64-.06 11.3-.52l.08 1.22c-3.74.6-7.98.68-11.18.7m36.851-14.14h1.66v18.08h-1.66zm-5.3 1.94h1.64c0 5.24-2.36 9.82-8.4 12.78l-.88-1.34c5.22-2.52 7.64-6.36 7.64-11.16zm-6.82 0h7.54v1.36h-7.54zm24.679-1.86h1.4v.66c0 3.08-3.52 5.14-7.28 5.62l-.56-1.28c3.28-.36 6.44-2.1 6.44-4.34zm.28 0h1.4v.66c0 2.24 3.16 3.98 6.44 4.34l-.58 1.28c-3.74-.48-7.26-2.54-7.26-5.62zm-.28 8.44h1.64v2.76h-1.64zm-7.34-.98h16.34v1.34h-16.34zm1.98 3.12h12.28v4.12h-10.6v2.18h-1.64v-3.38h10.6v-1.64h-10.64zm.04 5.92h12.78v1.3h-12.78zm22.258-15.28c2.82 0 4.84 1.74 4.84 4.26 0 2.54-2.02 4.28-4.84 4.28s-4.86-1.74-4.86-4.28c0-2.52 2.04-4.26 4.86-4.26m0 1.44c-1.88 0-3.24 1.14-3.24 2.82s1.36 2.84 3.24 2.84c1.86 0 3.22-1.16 3.22-2.84s-1.36-2.82-3.22-2.82m7.2-2.76h1.66v18.12h-1.66zm-12.74 14.16-.24-1.38c3.3 0 7.86-.02 11.8-.64l.14 1.22c-4.06.78-8.48.8-11.7.8m24.111-13.4h1.64v2.6h5.1v-2.6h1.62v7.9h-8.36zm1.64 3.9v2.66h5.1v-2.66zm9.98-4.64h1.66v9.32h-1.66zm.94 3.88h3.38v1.38h-3.38zm-10.76 6.32h11.48v4.38h-9.8v2.72h-1.64v-3.96h9.82V315h-9.86zm.04 6.36h12.1v1.32h-12.1zm25.399-11.58h4.56v1.36h-4.56zm3.62-4.96h1.66v13.24h-1.66zm-9.88 16.3h12.04v1.36h-12.04zm0-4.22h1.66v4.92h-1.66zm1.28-9.84h1.36v1.46c0 3.28-2.04 6.12-5.06 7.24l-.86-1.32c2.7-.96 4.56-3.36 4.56-5.92zm.32 0h1.34v1.44c0 2.34 1.76 4.62 4.38 5.54l-.84 1.3c-2.94-1.06-4.88-3.78-4.88-6.84zm-4.36-.78h9.66v1.34h-9.66zm25.998-1.18c3.98 0 6.36 1.12 6.36 3.14s-2.38 3.14-6.36 3.14c-4 0-6.36-1.12-6.36-3.14s2.36-3.14 6.36-3.14m0 1.26c-2.96 0-4.66.68-4.66 1.88s1.7 1.88 4.66 1.88c2.94 0 4.64-.68 4.64-1.88s-1.7-1.88-4.64-1.88m-8.18 6.22h16.34v1.34h-16.34zm1.98 2.88h12.28v4.08h-10.6v2.2h-1.64v-3.4h10.6v-1.6h-10.64zm.04 5.92h12.78v1.3h-12.78zm26.492-14.72h1.38v1.44c0 3.32-2.04 6.1-5.08 7.18l-.86-1.3c2.72-.96 4.56-3.32 4.56-5.88zm.32 0h1.38v1.44c0 2.44 1.88 4.64 4.56 5.54l-.86 1.3c-3-1.02-5.08-3.68-5.08-6.84zm8.02-1.86h1.68v10.94h-1.68zm-10.4 11.9h12.08v6.18h-1.68v-4.82h-10.4zm-2.06-10.64h9.9v1.34h-9.9zm27.358 3.12h4.02v1.36h-4.02zm3.56-4.38h1.66v9.82h-1.66zm-9.92 10.7h1.64v2.2h8.3v-2.2h1.64v7.14h-11.58zm1.64 3.54v2.24h8.3v-2.24zm-.32-12.82h1.36v1.48c0 3.28-2.04 6.12-5.06 7.24l-.86-1.34c2.7-.94 4.56-3.34 4.56-5.9zm.32 0h1.34v1.46c0 2.34 1.76 4.6 4.38 5.52l-.84 1.3c-2.94-1.06-4.88-3.78-4.88-6.82zm-4.36-.34h9.66v1.34h-9.66zm25.132 7.08h12.52v1.38h-12.52zm-2 6.06h16.38v1.38h-16.38zm2-12.64h1.66v7.2h-1.66zm29.538-1.58h1.66v18.08h-1.66zm-3.54 4.88h4.24v1.36h-4.24zm-1.14 4.82h5.2v1.36h-5.2zm-4.64-7.74h1.54c0 4.3-1 8.54-4.24 12l-1.3-.96c2.92-3.06 4-6.8 4-10.88zm-3.38 0h4.02v1.36h-4.02zm8.24 0h1.54c0 4.3-.66 9.32-3.94 13.22l-1.36-.9c3-3.54 3.76-8.02 3.76-12.18zm-2.76 0h3.46v1.36h-3.46zm7.22-1.96h1.66v18.08h-1.66zm5.258 14.4h16.38v1.38h-16.38zm7.32-4.32h1.66v4.72h-1.66zm-5.4-8.8h1.64v3.22h9.22v-3.22h1.64V314h-12.5zm1.64 4.56v3.32h9.22v-3.32zm17.039-.42h12.28v1.36h-12.28zm-2.22 3.78h16.4v1.36h-16.4zm2.22-8.54h1.64v5.44h-1.64zm-.12 15.62h12.5v1.36h-12.5zm0-3.92h1.64v4.28h-1.64zm26.051-11.26h1.36v2.22c0 3.54-1.96 6.36-5 7.54l-.88-1.32c2.76-.98 4.52-3.42 4.52-6.22zm.28 0h1.36v2.28c0 2.46 1.8 4.78 4.44 5.72l-.82 1.3c-2.98-1.08-4.98-3.84-4.98-7.02zm7.64-1.12h1.66v13.36h-1.66zm1.14 5.56h3.2v1.38h-3.2zm-10.7 10.78h12.02v1.36h-12.02zm0-4.24h1.66v4.9h-1.66zm24.679-7.78h4.86v1.38h-4.86zm-4.16-3.48c2.7 0 4.66 1.72 4.66 4.2s-1.96 4.18-4.66 4.18-4.66-1.7-4.66-4.18 1.96-4.2 4.66-4.2m0 1.4c-1.78 0-3.06 1.14-3.06 2.8 0 1.64 1.28 2.8 3.06 2.8s3.06-1.16 3.06-2.8c0-1.66-1.28-2.8-3.06-2.8m8.28-2.22h1.66v9.7h-1.66zm-9.92 10.6h1.66v2.28h8.28v-2.28h1.64v7.24h-11.58zm1.66 3.6v2.3h8.28v-2.3zm19.571-5.8h1.38c3.62 0 5.64-.06 8.06-.5l.18 1.34c-2.48.44-4.56.52-8.24.52h-1.38zm0-7.28h8.26v1.34h-6.62v6.58h-1.64zm1.12 3.58h6.8v1.34h-6.8zm.72 6.9h11.36v6.24h-11.36zm9.74 1.32h-8.12v3.58h8.12zm-.04-12.92h1.66v10.64h-1.66zm1.2 4.48h3.14v1.4h-3.14zm13.099 6.86c3.68 0 5.94 1.24 5.94 3.36s-2.26 3.36-5.94 3.36-5.94-1.24-5.94-3.36 2.26-3.36 5.94-3.36m0 1.34c-2.68 0-4.32.74-4.32 2.02 0 1.3 1.64 2.04 4.32 2.04s4.32-.74 4.32-2.04c0-1.28-1.64-2.02-4.32-2.02m4.1-12.68h1.66v10.86h-1.66zm1.2 4.54h3.14v1.4h-3.14zm-12.82-3.4h1.64v2.7h5.1v-2.7h1.62v8.34h-8.36zm1.64 4.02v2.98h5.1v-2.98z"/><path fill="#000" d="M86.44 304.58h1.36v2.22c0 3.54-1.96 6.36-5 7.54l-.88-1.32c2.76-.98 4.52-3.42 4.52-6.22zm.28 0h1.36v2.28c0 2.46 1.8 4.78 4.44 5.72l-.82 1.3c-2.98-1.08-4.98-3.84-4.98-7.02zm7.64-1.12h1.66v13.36h-1.66zm1.14 5.56h3.2v1.38h-3.2zM84.8 319.8h12.02v1.36H84.8zm0-4.24h1.66v4.9H84.8zm24.678-7.78h4.86v1.38h-4.86zm-4.16-3.48c2.7 0 4.66 1.72 4.66 4.2s-1.96 4.18-4.66 4.18-4.66-1.7-4.66-4.18 1.96-4.2 4.66-4.2m0 1.4c-1.78 0-3.06 1.14-3.06 2.8 0 1.64 1.28 2.8 3.06 2.8s3.06-1.16 3.06-2.8c0-1.66-1.28-2.8-3.06-2.8m8.28-2.22h1.66v9.7h-1.66zm-9.92 10.6h1.66v2.28h8.28v-2.28h1.64v7.24h-11.58zm1.66 3.6v2.3h8.28v-2.3z"/><rect width="821" height="78" y="182" fill="#fff" rx="30"/><path fill="#fff" stroke="#337FED" stroke-width="3" d="M29.5 210.5h22v22h-22z"/><path fill="#999898" d="M333.22 211.46h1.68v18.12h-1.68zm1.28 7.14h3.36v1.4h-3.36zm-12.74 5.08h1.42c3.34 0 5.68-.12 8.38-.62l.18 1.4c-2.78.52-5.16.62-8.56.62h-1.42zm0-10.46h8.4v1.36h-6.76v9.72h-1.64zm31.158.96h3.14v1.38h-3.14zm0 3.84h3.14v1.38h-3.14zm-8.48-5.48c2.72 0 4.72 1.76 4.72 4.28 0 2.5-2 4.24-4.72 4.24s-4.72-1.74-4.72-4.24c0-2.52 2-4.28 4.72-4.28m0 1.4c-1.8 0-3.1 1.18-3.1 2.88s1.3 2.86 3.1 2.86 3.1-1.16 3.1-2.86-1.3-2.88-3.1-2.88m7.32-2.46h1.66v10.7h-1.66zm-4.1 11.28c3.68 0 5.94 1.26 5.94 3.38 0 2.14-2.26 3.38-5.94 3.38s-5.94-1.24-5.94-3.38c0-2.12 2.26-3.38 5.94-3.38m0 1.34c-2.68 0-4.32.74-4.32 2.04s1.64 2.06 4.32 2.06 4.32-.76 4.32-2.06-1.64-2.04-4.32-2.04m22.499-12.6h1.66v13.56h-1.66zm1.14 5.92h3.2v1.4h-3.2zm-13.46-3.74h10.68v1.34h-10.68zm5.34 2.34c2.56 0 4.32 1.34 4.32 3.38 0 2.02-1.76 3.36-4.32 3.36-2.58 0-4.34-1.34-4.34-3.36 0-2.04 1.76-3.38 4.34-3.38m0 1.3c-1.64 0-2.76.82-2.76 2.08 0 1.24 1.12 2.06 2.76 2.06 1.62 0 2.74-.82 2.74-2.06 0-1.26-1.12-2.08-2.74-2.08m-.84-5.84h1.66v2.9h-1.66zm-1.78 16.32h12.08v1.36h-12.08zm0-3.82h1.66v4.4h-1.66zm33.271-12.5h1.66v10.66h-1.66zm.96 4.62h3.34v1.38h-3.34zm-11 6.86h11.7v3.66h-10.04v1.92h-1.62v-3.02h10.04v-1.38h-10.08zm.04 5.22h12.36v1.18h-12.36zm2.38-9.28h1.66v2.3h-1.66zm-4.64 2.84-.2-1.22c3.22 0 7.66-.02 11.38-.54l.14 1.06c-3.86.68-8.16.7-11.32.7m.26-8.88h10.38v1.18h-10.38zm5.2 1.74c2.56 0 4.2.88 4.2 2.38s-1.64 2.38-4.2 2.38c-2.58 0-4.22-.88-4.22-2.38s1.64-2.38 4.22-2.38m0 1.1c-1.62 0-2.66.48-2.66 1.28s1.04 1.3 2.66 1.3 2.64-.5 2.64-1.3-1.02-1.28-2.64-1.28m-.82-4.4h1.66v2.18h-1.66zm13.679 9.08h16.34v1.36h-16.34zm7.34-2.9h1.64v3.46h-1.64zm-5.28-.52h12.38v1.36h-12.38zm0-4.66h12.24v1.34h-10.6v4.12h-1.64zm6.08 10.74c3.86 0 6.2 1.18 6.2 3.24 0 2.1-2.34 3.26-6.2 3.26s-6.2-1.16-6.2-3.26c0-2.06 2.34-3.24 6.2-3.24m0 1.28c-2.82 0-4.52.72-4.52 1.96 0 1.26 1.7 1.96 4.52 1.96 2.84 0 4.52-.7 4.52-1.96 0-1.24-1.68-1.96-4.52-1.96m11.058-10.86h8.18v1.34h-8.18zm2.82 5.16h1.64v6.12h-1.64zm4.68-5.16h1.62v.96c0 1.48 0 3.84-.52 7.2l-1.64-.16c.54-3.26.54-5.58.54-7.04zm3.9-1.98h1.64v18.08h-1.64zm1.2 7.56h3.34v1.4h-3.34zm-13.4 6.58-.2-1.4c3.28 0 7.64-.06 11.3-.52l.08 1.22c-3.74.6-7.98.68-11.18.7m32.332-10.82h4.84v1.36h-4.84zm-.16 3.76h4.88v1.36h-4.88zm4.72-7.08h1.66v10.84h-1.66zm-5.66 1.36h1.78c0 4.66-3.22 7.92-8.42 9.48l-.68-1.34c4.62-1.34 7.32-4 7.32-7.42zm-6.38 0h7.52v1.36h-7.52zm7.82 9.68c3.66 0 5.98 1.3 5.98 3.48s-2.32 3.48-5.98 3.48-5.98-1.3-5.98-3.48 2.32-3.48 5.98-3.48m0 1.3c-2.64 0-4.34.82-4.34 2.18s1.7 2.16 4.34 2.16c2.66 0 4.36-.8 4.36-2.16s-1.7-2.18-4.36-2.18m22.618-12.34h1.66v10.94h-1.66zm-3 5.48h3.74v1.38h-3.74zm-7.06 6.42h11.72v5.94h-11.72zm10.1 1.34h-8.48v3.26h8.48zm-13.22-11.36h10.46v1.34h-10.46zm5.22 2.26c2.44 0 4.18 1.32 4.18 3.24s-1.74 3.2-4.18 3.2-4.18-1.28-4.18-3.2 1.74-3.24 4.18-3.24m0 1.28c-1.52 0-2.6.78-2.6 1.96 0 1.16 1.08 1.94 2.6 1.94s2.6-.78 2.6-1.94c0-1.18-1.08-1.96-2.6-1.96m-.82-5.6h1.66v3.02h-1.66zm22.138.48c3.98 0 6.36 1.12 6.36 3.14s-2.38 3.14-6.36 3.14c-4 0-6.36-1.12-6.36-3.14s2.36-3.14 6.36-3.14m0 1.26c-2.96 0-4.66.68-4.66 1.88s1.7 1.88 4.66 1.88c2.94 0 4.64-.68 4.64-1.88s-1.7-1.88-4.64-1.88m-8.18 6.22h16.34v1.34h-16.34zm1.98 2.88h12.28v4.08h-10.6v2.2h-1.64v-3.4h10.6v-1.6h-10.64zm.04 5.92h12.78v1.3h-12.78zm21.672-7h16.34v1.34h-16.34zm7.34-2.34h1.64v2.9h-1.64zm-5.18-.74h12.26v1.3h-12.26zm0-5.98h12.18v1.3h-10.54v5.38h-1.64zm1.16 2.96h10.54v1.28h-10.54zm4.84 8.78c3.94 0 6.2 1 6.2 2.9 0 1.88-2.26 2.88-6.2 2.88s-6.2-1-6.2-2.88c0-1.9 2.26-2.9 6.2-2.9m0 1.26c-2.9 0-4.52.58-4.52 1.64 0 1.08 1.62 1.64 4.52 1.64s4.52-.56 4.52-1.64c0-1.06-1.62-1.64-4.52-1.64m10.218-10.44h8.96v1.36h-8.96zm4.48 2.56c2.26 0 3.9 1.7 3.9 4.14 0 2.42-1.64 4.12-3.9 4.12-2.24 0-3.88-1.7-3.88-4.12 0-2.44 1.64-4.14 3.88-4.14m0 1.42c-1.38 0-2.38 1.12-2.38 2.72s1 2.72 2.38 2.72c1.4 0 2.42-1.12 2.42-2.72s-1.02-2.72-2.42-2.72m9.26-7.06h1.6v18.08h-1.6zm-2.88 7.6h3.42v1.38h-3.42zm-.98-7.2h1.56v16.8h-1.56zm-6.2.12h1.64v3.4h-1.64zm23.832 1.18h1.3v3.44c0 3.78-1.6 7.44-4.24 9.04l-1.06-1.24c2.5-1.46 4-4.7 4-7.8zm.3 0h1.3v3.34c0 2.98 1.4 6.04 3.8 7.38l-1 1.3c-2.64-1.52-4.1-5.04-4.1-8.68zm9.68-1.7h1.6v18.08h-1.6zm-2.86 7.26h3.46v1.38h-3.46zm-1.12-6.88h1.58v16.8h-1.58zm8.618 14.1h16.38v1.38h-16.38zm7.32-3.88h1.66v4.46h-1.66zm-5.34-9.26h12.38v5.48h-10.68v3.62h-1.64v-4.96h10.68v-2.8h-10.74zm.06 8.4h12.74v1.36h-12.74zm16.339-.58h16.4V222h-16.4zm7.48.86h1.68v4.16h-1.68zm-5.4 6.28h12.5v1.38h-12.5zm0-3.9h1.66v4.28h-1.66zm6.1-11.96c3.82 0 6.34 1.4 6.34 3.64s-2.52 3.64-6.34 3.64c-3.84 0-6.34-1.4-6.34-3.64s2.5-3.64 6.34-3.64m0 1.36c-2.76 0-4.58.88-4.58 2.28 0 1.42 1.82 2.28 4.58 2.28s4.58-.86 4.58-2.28c0-1.4-1.82-2.28-4.58-2.28m22.651 4.66h3.46v1.38h-3.46zm-3.38-4.76h1.3v3.44c0 3.78-1.58 7.44-4.22 9.06l-1.04-1.26c2.48-1.46 3.96-4.7 3.96-7.8zm.32 0h1.28v3.38c0 2.9 1.36 5.98 3.74 7.42l-.96 1.3c-2.6-1.6-4.06-5.2-4.06-8.72zm9.7-1.7h1.6v18.08h-1.6zm-3.66.38h1.56v16.8h-1.56zm15.298 4.64h4.02v1.34h-4.02zm-.14 4.54h4.12v1.34h-4.12zm6.9-9.56h1.6v18.08h-1.6zm-3.62.46h1.56v16.7h-1.56zm-4.04 1.82h1.6c0 4.74-1.9 9-6.76 11.9l-.96-1.18c4.22-2.56 6.12-6.16 6.12-10.42zm-5.32 0h5.98v1.36h-5.98zm17.599 6.12h16.4v1.26h-16.4zm1.94 2.72h12.4v3.86h-10.7v2.12h-1.64v-3.26h10.72v-1.54h-10.78zm.06 5.54h12.92v1.2h-12.92zm.08-16.14h12.2v3.76h-10.52v1.96h-1.64v-3.08h10.54v-1.46H643.9zm.04 5.32h12.5v1.2h-12.5zm22.331-4.22h8.3v8.38h-8.3zm6.68 1.34h-5.06v5.7h5.06zm4.94-2.98h1.66v13.26h-1.66zm1.14 5.52h3.2v1.38h-3.2zm-10.74 10.82h12.08v1.36h-12.08zm0-4.34h1.66v4.92h-1.66zm29.079-4.78h3.34v1.4h-3.34zm-1.22-7.22h1.68v18.1h-1.68zm-11.52 1.78h1.66v11.2h-1.66zm0 10.34h1.44c2.68 0 5.42-.18 8.4-.8l.2 1.38c-3.08.64-5.86.82-8.6.82h-1.44zm19.898-6.68h12.28v1.36h-12.28zm-2.22 3.78h16.4v1.36h-16.4zm2.22-8.54h1.64v5.44h-1.64zm-.12 15.62h12.5v1.36h-12.5zm0-3.92h1.64v4.28h-1.64zm29.752-8.34h5.46v1.38h-5.46zm0 5.72h5.46v1.38h-5.46zm-3.32-8.36c2.62 0 4.5 2.46 4.5 6.3 0 3.86-1.88 6.32-4.5 6.32-2.64 0-4.5-2.46-4.5-6.32 0-3.84 1.86-6.3 4.5-6.3m0 1.5c-1.74 0-2.94 1.88-2.94 4.8 0 2.94 1.2 4.86 2.94 4.86s2.94-1.92 2.94-4.86c0-2.92-1.2-4.8-2.94-4.8m8.42-2.9h1.64v18.12h-1.64zm18.798.02h1.58v11.44h-1.58zm-2.94 4.9h3.42v1.38h-3.42zm-.92-4.54h1.56v10.44h-1.56zm-9.88 1.8h9.16v1.32h-9.16zm4.6 2.24c2.26 0 3.84 1.24 3.84 3.1 0 1.88-1.58 3.1-3.84 3.1-2.28 0-3.86-1.22-3.86-3.1 0-1.86 1.58-3.1 3.86-3.1m0 1.24c-1.42 0-2.38.74-2.38 1.86 0 1.14.96 1.86 2.38 1.86 1.4 0 2.36-.72 2.36-1.86 0-1.12-.96-1.86-2.36-1.86m-.82-5.5h1.62v2.76h-1.62zm5.62 11.62c3.76 0 6.02 1.12 6.02 3.14 0 2-2.26 3.14-6.02 3.14-3.8 0-6.04-1.14-6.04-3.14 0-2.02 2.24-3.14 6.04-3.14m0 1.28c-2.78 0-4.4.66-4.4 1.86s1.62 1.88 4.4 1.88c2.74 0 4.38-.68 4.38-1.88s-1.64-1.86-4.38-1.86"/><path fill="#000" d="M89.36 218.62h3.42v1.36h-3.42zm-3.68-2.52h1.28v.94c0 3.6-1.5 7.24-4.14 8.82l-.98-1.26c2.44-1.42 3.84-4.6 3.84-7.56zm.3 0h1.28v.94c0 2.88 1.44 5.86 3.88 7.18l-.94 1.24c-2.66-1.48-4.22-4.9-4.22-8.42zm-3.64-1.3h8.26v1.38h-8.26zm3.34-2.68h1.6v3.74h-1.6zm10.06-.64h1.6v18.08h-1.6zm-3.62.42h1.56v16.74h-1.56zm21.478-.42h1.66v10.94h-1.66zm-3 5.48h3.74v1.38h-3.74zm-7.06 6.42h11.72v5.94h-11.72zm10.1 1.34h-8.48v3.26h8.48zm-13.22-11.36h10.46v1.34h-10.46zm5.22 2.26c2.44 0 4.18 1.32 4.18 3.24s-1.74 3.2-4.18 3.2-4.18-1.28-4.18-3.2 1.74-3.24 4.18-3.24m0 1.28c-1.52 0-2.6.78-2.6 1.96 0 1.16 1.08 1.94 2.6 1.94s2.6-.78 2.6-1.94c0-1.18-1.08-1.96-2.6-1.96m-.82-5.6h1.66v3.02h-1.66z"/></svg>