<svg xmlns="http://www.w3.org/2000/svg" width="700" height="700" fill="none"><rect width="700" height="700" fill="#fff" rx="15"/><path fill="#000" d="M115.632 74.182h4.56v15.213q0 2.11-.948 3.665-.938 1.555-2.61 2.397-1.674.84-3.889.841-1.97 0-3.58-.692a5.7 5.7 0 0 1-2.535-2.13q-.937-1.44-.927-3.612h4.592q.021.863.351 1.48.342.608.927.938.597.32 1.406.32.853 0 1.439-.363.596-.372.905-1.086t.309-1.758zm21.85 0h4.613V88.35q0 2.386-1.14 4.176-1.129 1.79-3.164 2.791-2.035.99-4.741.99-2.716 0-4.751-.99-2.035-1.001-3.164-2.791t-1.129-4.176V74.18h4.613v13.776q0 1.246.543 2.216a3.96 3.96 0 0 0 1.555 1.523q1.002.554 2.333.554 1.343 0 2.334-.554a3.9 3.9 0 0 0 1.544-1.523q.555-.97.554-2.216zm26.658 0V96h-3.985l-9.492-13.732h-.16V96h-4.613V74.182h4.049l9.417 13.721h.192V74.182zM167.951 96V74.182h14.702v3.803h-10.089v5.199h9.332v3.803h-9.332v5.21h10.131V96zm25.185 0v-3.324l7.766-7.19a29 29 0 0 0 1.662-1.727q.681-.767 1.033-1.502a3.7 3.7 0 0 0 .352-1.609q0-.96-.437-1.65a2.87 2.87 0 0 0-1.193-1.077q-.756-.383-1.715-.383-1.002 0-1.747.404-.746.405-1.151 1.162t-.405 1.8h-4.378q0-2.141.969-3.718.97-1.576 2.717-2.44 1.746-.862 4.027-.862 2.343 0 4.08.83 1.747.82 2.717 2.28.969 1.46.969 3.346 0 1.235-.49 2.44-.48 1.203-1.715 2.673-1.236 1.46-3.484 3.505l-3.185 3.121v.15h9.162V96zm27.451.48q-2.749-.012-4.73-1.354-1.97-1.342-3.037-3.888-1.054-2.547-1.044-6.126 0-3.569 1.055-6.083 1.065-2.513 3.036-3.825 1.982-1.32 4.72-1.32t4.709 1.32q1.981 1.322 3.047 3.836 1.065 2.503 1.054 6.072 0 3.591-1.065 6.137-1.055 2.545-3.026 3.888t-4.719 1.342m0-3.825q1.875 0 2.993-1.886 1.119-1.886 1.108-5.657 0-2.482-.511-4.133-.501-1.652-1.428-2.483a3.1 3.1 0 0 0-2.162-.83q-1.864-.001-2.983 1.864t-1.129 5.582q0 2.514.5 4.198.512 1.672 1.439 2.514a3.15 3.15 0 0 0 2.173.83M232.686 96v-3.324l7.767-7.19q.99-.96 1.662-1.727.682-.767 1.033-1.502a3.7 3.7 0 0 0 .352-1.609q0-.96-.437-1.65a2.87 2.87 0 0 0-1.193-1.077q-.757-.383-1.716-.383-1.001 0-1.747.404a2.8 2.8 0 0 0-1.15 1.162q-.405.756-.405 1.8h-4.379q0-2.141.97-3.718t2.716-2.44q1.748-.862 4.027-.862 2.344 0 4.081.83 1.746.82 2.716 2.28t.97 3.346q0 1.235-.49 2.44-.48 1.203-1.715 2.673-1.236 1.46-3.484 3.505l-3.186 3.121v.15h9.162V96zm18.098-3.835v-3.633l9.109-14.35h3.132v5.028h-1.854l-5.742 9.088v.17h12.944v3.697zM261.256 96v-4.943l.085-1.609V74.182h4.326V96zM126.309 187h-2.579v-10.986l-4.072 8.525h-2.08l-4.053-8.477V187h-2.578v-14.648h3.282l4.394 9.365 4.385-9.365h3.301zm7.148.195q-1.494 0-2.676-.664a5 5 0 0 1-1.855-1.806q-.674-1.153-.674-2.608t.674-2.597a4.97 4.97 0 0 1 1.855-1.817q1.182-.664 2.676-.664 1.485 0 2.656.664a4.8 4.8 0 0 1 1.836 1.817q.674 1.142.674 2.597t-.674 2.608a4.83 4.83 0 0 1-1.836 1.806q-1.171.664-2.656.664m-.019-2.158q.78 0 1.396-.381.615-.38.967-1.045.361-.663.361-1.504 0-.83-.361-1.484a2.7 2.7 0 0 0-.967-1.045 2.6 2.6 0 0 0-1.396-.381q-.772 0-1.397.381-.615.38-.977 1.045a3.1 3.1 0 0 0-.351 1.484q0 .84.351 1.504.362.664.977 1.045a2.63 2.63 0 0 0 1.397.381m59.58 1.963h-2.579v-12.383h-4.453v-2.265h11.475v2.265h-4.443zm14.17 0h-1.983l-.078-1.572a3.6 3.6 0 0 1-1.387 1.318q-.86.45-2.031.449-1.885 0-2.979-1.152-1.084-1.162-1.084-3.193v-5.616h2.403v5.157q0 1.22.615 1.933.625.703 1.69.703 1.103 0 1.767-.752.664-.751.664-2.002v-5.039h2.403zm68.681 0h-2.344l-3.213-10.352L267.1 187h-2.344l-4.766-14.648h2.705l3.223 10.4 3.223-10.4h2.343l3.213 10.371 3.213-10.371h2.705zm14.385-1.133q-1.827 1.329-3.994 1.328-1.572 0-2.822-.683a5.25 5.25 0 0 1-1.983-1.866q-.723-1.191-.723-2.675 0-1.416.655-2.53a4.8 4.8 0 0 1 1.806-1.757q1.153-.645 2.598-.645 1.504 0 2.637.713a4.77 4.77 0 0 1 1.777 1.963q.635 1.25.635 2.91v.313h-7.52q.177.663.616 1.171.449.509 1.113.791.664.284 1.494.284 1.563 0 2.891-1.016zm-7.031-4.336h5.39a2.77 2.77 0 0 0-.449-1.279 2.5 2.5 0 0 0-.947-.85 2.7 2.7 0 0 0-1.299-.312q-.732 0-1.309.312a2.56 2.56 0 0 0-.937.869 2.9 2.9 0 0 0-.449 1.26M345.244 187h-2.578v-12.383h-4.453v-2.265h11.475v2.265h-4.444zm5.996 0v-14.648h2.403v6.132q1.074-1.445 3.154-1.445 1.874 0 2.93 1.152 1.054 1.143 1.054 3.184V187h-2.402v-5.01q0-1.328-.615-2.06-.616-.742-1.729-.742-1.123 0-1.758.751-.634.743-.634 2.051V187zm67.735 0v-14.648h9.043v2.265h-6.465v3.858h6.074v2.255h-6.074V187zm13.359 0h-2.402v-9.766h2.089l.088 1.778a3.74 3.74 0 0 1 1.368-1.455q.868-.518 1.992-.518.293 0 .595.039.313.039.616.117l-.293 2.168a4.2 4.2 0 0 0-1.172-.175q-.86 0-1.514.4-.645.4-1.006 1.113-.361.703-.361 1.641zm60.859-1.523 1.221-1.973q.673.526 1.299.879.625.342 1.26.508t1.289.166q.84 0 1.455-.254.625-.264.967-.723.34-.459.341-1.074 0-.693-.42-1.152-.41-.47-1.084-.801a22 22 0 0 0-1.445-.664 34 34 0 0 1-1.426-.635 6.7 6.7 0 0 1-1.298-.811 3.8 3.8 0 0 1-.948-1.152q-.351-.674-.351-1.631 0-1.24.625-2.158.625-.928 1.728-1.426 1.104-.508 2.52-.508.996 0 2.041.264 1.054.254 2.08.781l-1.026 2.08a6.3 6.3 0 0 0-1.474-.634 5.2 5.2 0 0 0-1.494-.235q-.703 0-1.241.225a1.9 1.9 0 0 0-.83.625 1.55 1.55 0 0 0-.293.937q0 .636.391 1.075.4.44 1.045.781.645.332 1.377.654.733.323 1.465.693.743.362 1.347.86.616.498.977 1.191.37.693.371 1.67 0 1.27-.664 2.236-.654.958-1.846 1.495-1.191.527-2.783.527a8.2 8.2 0 0 1-2.734-.459 8.4 8.4 0 0 1-2.442-1.357M514.209 187h-2.09l-.137-1.201a3.7 3.7 0 0 1-1.337 1.035 4.3 4.3 0 0 1-1.778.361q-1.035 0-1.846-.4a3.3 3.3 0 0 1-1.279-1.113 2.87 2.87 0 0 1-.459-1.602q0-.947.498-1.66a3.44 3.44 0 0 1 1.377-1.133q.879-.41 2.002-.41.684 0 1.367.156a6 6 0 0 1 1.28.44v-.313q0-.645-.352-1.113a2.26 2.26 0 0 0-.947-.723 3.3 3.3 0 0 0-1.338-.263q-.674 0-1.348.234-.674.225-1.26.674l-.683-1.885a8.6 8.6 0 0 1 1.914-.781 7.4 7.4 0 0 1 1.924-.264q1.377 0 2.383.547a3.73 3.73 0 0 1 1.552 1.543q.557.996.557 2.353zm-4.844-1.738q.635 0 1.172-.264.547-.264.889-.732a1.9 1.9 0 0 0 .371-1.094v-.108a3.5 3.5 0 0 0-1.035-.507 3.8 3.8 0 0 0-1.162-.186q-.899 0-1.475.41-.576.4-.576 1.055 0 .4.234.732.234.322.645.508.42.186.937.186m53.047.215 1.221-1.973q.673.526 1.299.879.624.342 1.259.508t1.289.166q.84 0 1.456-.254.624-.264.966-.723t.342-1.074q0-.693-.42-1.152-.41-.47-1.084-.801a22 22 0 0 0-1.445-.664 34 34 0 0 1-1.426-.635 6.7 6.7 0 0 1-1.299-.811 3.8 3.8 0 0 1-.947-1.152q-.352-.674-.352-1.631 0-1.24.625-2.158.625-.928 1.729-1.426 1.104-.508 2.52-.508.996 0 2.041.264 1.054.254 2.08.781l-1.026 2.08a6.3 6.3 0 0 0-1.474-.634 5.2 5.2 0 0 0-1.495-.235 3.2 3.2 0 0 0-1.24.225 1.9 1.9 0 0 0-.83.625 1.55 1.55 0 0 0-.293.937q0 .636.391 1.075.4.44 1.045.781.644.332 1.377.654.732.323 1.465.693.742.362 1.347.86.615.498.977 1.191.37.693.371 1.67 0 1.27-.664 2.236-.655.958-1.846 1.495-1.191.527-2.783.527a8.2 8.2 0 0 1-5.176-1.816M584.336 187h-1.982l-.079-1.572a3.6 3.6 0 0 1-1.386 1.318q-.86.45-2.032.449-1.884 0-2.978-1.152-1.084-1.162-1.084-3.193v-5.616h2.402v5.157q0 1.22.615 1.933.625.703 1.69.703 1.104 0 1.768-.752.663-.751.664-2.002v-5.039h2.402z"/><path fill="#6F6F6F" d="M577.438 243h-2.579v-12.109l-2.539.918-.81-2.051 3.867-1.406h2.061zM122.801 308h-9.16v-1.533a63 63 0 0 0 2.959-2.764q1.21-1.21 1.943-2.187.742-.987 1.074-1.827a4.4 4.4 0 0 0 .332-1.63q0-.831-.312-1.446a2.3 2.3 0 0 0-.85-.967 2.35 2.35 0 0 0-1.269-.341q-.84 0-1.612.478a3.8 3.8 0 0 0-1.269 1.309l-1.338-1.641a5.66 5.66 0 0 1 2.06-1.758 5.7 5.7 0 0 1 2.627-.634q1.299 0 2.334.566a4.2 4.2 0 0 1 1.651 1.563q.615 1.005.615 2.373 0 1.005-.352 2.031a8.9 8.9 0 0 1-1.045 2.06 14 14 0 0 1-1.679 2.061 23 23 0 0 1-2.276 2.031h5.567zm67.138-1.309 1.006-1.904q.792.615 1.582.938a4.2 4.2 0 0 0 1.563.312q.772 0 1.357-.293.596-.303.928-.83.342-.527.342-1.221 0-1.122-.908-1.748-.909-.634-2.52-.634h-.576v-1.807h.576q.879 0 1.563-.293t1.074-.801q.39-.518.39-1.172 0-.557-.283-.986a1.9 1.9 0 0 0-.791-.684 2.5 2.5 0 0 0-1.142-.254q-.645 0-1.338.284a6 6 0 0 0-1.387.81l-1.152-1.787a6.1 6.1 0 0 1 1.904-1.152 6.1 6.1 0 0 1 2.217-.41q1.28 0 2.275.478.996.478 1.563 1.309.576.83.576 1.904 0 1.201-.723 2.158a4.3 4.3 0 0 1-1.865 1.426q1.504.39 2.363 1.367.87.967.869 2.354a3.77 3.77 0 0 1-.664 2.187q-.664.957-1.806 1.504-1.143.547-2.608.547a6.8 6.8 0 0 1-2.344-.41 6.7 6.7 0 0 1-2.041-1.192M275.711 308h-2.578v-3.154h-7.158v-1.992l7.168-9.502h2.568v9.238h1.787v2.256h-1.787zm-7.236-5.41h4.658v-6.192zm75.351 3.867 1.358-2.07q.4.751 1.191 1.201a3.5 3.5 0 0 0 1.729.439q.858 0 1.513-.361a2.56 2.56 0 0 0 1.016-1.006q.37-.645.371-1.484 0-.84-.371-1.485a2.6 2.6 0 0 0-1.026-1.015q-.654-.362-1.513-.362-.616 0-1.153.206a3.1 3.1 0 0 0-.976.595l-1.27-.752.655-7.011h7.49v2.265h-5.137l-.351 3.447a5.3 5.3 0 0 1 1.523-.214q1.387 0 2.461.586 1.074.585 1.68 1.621.615 1.035.615 2.373 0 1.406-.684 2.509a4.8 4.8 0 0 1-1.885 1.729q-1.2.625-2.744.625-1.308 0-2.48-.479a5.76 5.76 0 0 1-2.012-1.357m81.367 1.836q-1.523 0-2.656-.693-1.123-.694-1.748-1.954-.615-1.26-.615-2.958 0-1.397.42-2.725.43-1.338 1.24-2.549a11.5 11.5 0 0 1 1.973-2.236 13.6 13.6 0 0 1 2.636-1.826l1.182 1.65q-1.172.673-2.148 1.543a11.5 11.5 0 0 0-1.68 1.865 9.5 9.5 0 0 0-1.133 2.041 3.9 3.9 0 0 1 1.377-.986 4.5 4.5 0 0 1 1.797-.352q1.289 0 2.275.567a3.97 3.97 0 0 1 1.543 1.552q.567.987.567 2.266 0 1.397-.655 2.481a4.6 4.6 0 0 1-1.787 1.699q-1.133.615-2.588.615m.03-2.256q.674 0 1.211-.351.537-.353.839-.957.313-.606.313-1.348t-.303-1.309a2.2 2.2 0 0 0-.82-.888 2.3 2.3 0 0 0-1.211-.323q-.693 0-1.24.332a2.3 2.3 0 0 0-.85.899q-.312.576-.312 1.328 0 .732.312 1.328.313.596.85.947.537.342 1.211.342M500.652 308h-2.793l5.108-12.383h-6.406v-2.265h9.433l-.01 1.709zm76.709.293q-1.483 0-2.607-.518-1.113-.517-1.738-1.455-.616-.947-.616-2.197 0-1.406.772-2.412.771-1.015 2.119-1.465-1.113-.43-1.748-1.308-.625-.89-.625-2.11 0-1.143.547-1.992.557-.85 1.553-1.309 1.005-.468 2.343-.468 1.348 0 2.344.468 1.006.46 1.553 1.309.556.849.556 1.992 0 1.21-.634 2.1-.625.888-1.739 1.318 1.348.44 2.12 1.455.78 1.015.781 2.412 0 1.25-.625 2.198-.615.946-1.738 1.464-1.114.518-2.618.518m0-9.092q.87 0 1.397-.566.537-.576.537-1.485 0-.927-.537-1.494-.527-.566-1.397-.566-.86 0-1.396.566-.528.567-.527 1.494 0 .909.527 1.485.537.566 1.396.566m0 6.983q.723 0 1.26-.303.548-.312.84-.869.303-.557.303-1.289 0-.733-.303-1.289a2.04 2.04 0 0 0-.84-.87q-.537-.312-1.26-.312a2.5 2.5 0 0 0-1.25.312 2.2 2.2 0 0 0-.84.87q-.292.556-.292 1.289 0 .741.292 1.298.303.548.84.86.548.303 1.25.303M116.521 382l-1.191-1.65a12.8 12.8 0 0 0 2.149-1.553 11.5 11.5 0 0 0 1.689-1.856 9.2 9.2 0 0 0 1.133-2.041q-.567.645-1.377.996a4.6 4.6 0 0 1-1.807.342q-1.28 0-2.275-.556a4.14 4.14 0 0 1-1.553-1.553q-.557-.997-.557-2.275 0-1.397.655-2.481a4.6 4.6 0 0 1 1.787-1.699q1.143-.615 2.607-.615 1.524 0 2.647.693 1.132.693 1.738 1.953.615 1.26.615 2.959 0 1.397-.429 2.734a10 10 0 0 1-1.231 2.54 11.8 11.8 0 0 1-1.973 2.246 14 14 0 0 1-2.627 1.816m1.192-7.51q.693 0 1.23-.332.547-.332.86-.908.312-.586.312-1.318 0-.743-.312-1.328a2.4 2.4 0 0 0-.85-.938 2.17 2.17 0 0 0-1.211-.352q-.664 0-1.211.352a2.4 2.4 0 0 0-.849.947 2.9 2.9 0 0 0-.313 1.358q0 .732.303 1.308.302.567.83.889.527.322 1.211.322m75.01 7.51h-2.578v-12.109l-2.54.918-.81-2.051 3.867-1.406h2.061zm8.115.293q-1.611 0-2.793-.889-1.172-.899-1.807-2.597-.634-1.71-.634-4.141 0-2.422.634-4.121.635-1.7 1.807-2.588 1.182-.898 2.793-.898t2.783.898q1.172.888 1.807 2.588.634 1.699.634 4.121 0 2.431-.634 4.141-.635 1.698-1.807 2.597-1.172.89-2.783.889m0-2.266q1.23 0 1.904-1.406.684-1.406.684-3.955 0-2.54-.684-3.936-.674-1.406-1.904-1.406t-1.914 1.406q-.684 1.397-.684 3.936 0 2.549.684 3.955t1.914 1.406M273.68 382h-2.578v-12.109l-2.54.918-.81-2.051 3.867-1.406h2.061zm8.886 0h-2.578v-12.109l-2.539.918-.81-2.051 3.867-1.406h2.06zm66.114 0h-2.578v-12.109l-2.54.918-.81-2.051 3.867-1.406h2.061zm12.363 0h-9.16v-1.533a63 63 0 0 0 2.959-2.764q1.21-1.21 1.943-2.187.743-.987 1.074-1.827a4.4 4.4 0 0 0 .332-1.63q0-.831-.312-1.446a2.3 2.3 0 0 0-.85-.967 2.35 2.35 0 0 0-1.269-.341q-.84 0-1.612.478a3.8 3.8 0 0 0-1.269 1.309l-1.338-1.641a5.66 5.66 0 0 1 2.061-1.758 5.7 5.7 0 0 1 2.627-.634q1.298 0 2.333.566a4.2 4.2 0 0 1 1.651 1.563q.615 1.005.615 2.373 0 1.005-.351 2.031a9 9 0 0 1-1.045 2.06 14.3 14.3 0 0 1-1.68 2.061 23 23 0 0 1-2.275 2.031h5.566zm63.437 0h-2.578v-12.109l-2.539.918-.81-2.051 3.867-1.406h2.06zm2.413-1.309 1.005-1.904q.792.615 1.582.938a4.2 4.2 0 0 0 1.563.312q.771 0 1.357-.293a2.3 2.3 0 0 0 .928-.83q.342-.527.342-1.221 0-1.122-.908-1.748-.909-.634-2.52-.634h-.576v-1.807h.576q.879 0 1.563-.293.682-.293 1.074-.801.39-.518.391-1.172 0-.557-.284-.986a1.9 1.9 0 0 0-.791-.684 2.5 2.5 0 0 0-1.142-.254q-.645 0-1.338.284a6 6 0 0 0-1.387.81l-1.152-1.787a6.1 6.1 0 0 1 1.904-1.152 6.1 6.1 0 0 1 2.217-.41q1.28 0 2.275.478.996.478 1.563 1.309.576.83.576 1.904 0 1.201-.723 2.158a4.3 4.3 0 0 1-1.865 1.426q1.504.39 2.363 1.367.87.967.869 2.354a3.77 3.77 0 0 1-.664 2.187q-.664.957-1.806 1.504-1.143.547-2.608.547a6.8 6.8 0 0 1-2.343-.41 6.7 6.7 0 0 1-2.041-1.192M499.559 382h-2.579v-12.109l-2.539.918-.81-2.051 3.867-1.406h2.061zm11.523 0h-2.578v-3.154h-7.158v-1.992l7.168-9.502h2.568v9.238h1.787v2.256h-1.787zm-7.236-5.41h4.658v-6.192zm67.119 5.41h-2.578v-12.109l-2.539.918-.811-2.051 3.867-1.406h2.061zm2.295-1.543 1.357-2.07a3 3 0 0 0 1.192 1.201 3.5 3.5 0 0 0 1.728.439q.86 0 1.514-.361a2.55 2.55 0 0 0 1.015-1.006q.372-.645.372-1.484 0-.84-.372-1.485a2.6 2.6 0 0 0-1.025-1.015q-.654-.362-1.514-.362-.615 0-1.152.206a3.2 3.2 0 0 0-.977.595l-1.269-.752.654-7.011h7.49v2.265h-5.136l-.352 3.447a5.3 5.3 0 0 1 1.524-.214q1.386 0 2.461.586 1.074.585 1.679 1.621.615 1.035.615 2.373 0 1.406-.683 2.509a4.83 4.83 0 0 1-1.885 1.729q-1.201.625-2.744.625-1.308 0-2.481-.479a5.75 5.75 0 0 1-2.011-1.357M118.445 456h-2.578v-12.109l-2.539.918-.81-2.051 3.867-1.406h2.06zm7.315.293q-1.524 0-2.656-.693-1.123-.694-1.749-1.954-.615-1.26-.615-2.958 0-1.397.42-2.725.43-1.338 1.24-2.549a11.6 11.6 0 0 1 1.973-2.236 13.6 13.6 0 0 1 2.637-1.826l1.181 1.65q-1.172.673-2.148 1.543a11.5 11.5 0 0 0-1.68 1.865 9.5 9.5 0 0 0-1.133 2.041 3.9 3.9 0 0 1 1.377-.986 4.5 4.5 0 0 1 1.797-.352q1.29 0 2.276.567a4 4 0 0 1 1.543 1.552q.566.987.566 2.266 0 1.396-.654 2.481a4.64 4.64 0 0 1-1.787 1.699q-1.133.615-2.588.615m.029-2.256q.674 0 1.211-.351.537-.353.84-.957a2.9 2.9 0 0 0 .312-1.348q0-.742-.302-1.309a2.2 2.2 0 0 0-.821-.888 2.27 2.27 0 0 0-1.211-.323q-.693 0-1.24.332a2.3 2.3 0 0 0-.849.899q-.313.576-.313 1.328 0 .732.313 1.328.312.596.849.947.537.342 1.211.342M193.758 456h-2.578v-12.109l-2.539.918-.811-2.051 3.867-1.406h2.061zm6.074 0h-2.793l5.107-12.383h-6.406v-2.265h9.434l-.01 1.709zm72.734 0h-2.578v-12.109l-2.539.918-.81-2.051 3.867-1.406h2.06zm7.334.293q-1.483 0-2.607-.518-1.114-.517-1.738-1.455-.616-.947-.616-2.197 0-1.406.772-2.412.772-1.015 2.119-1.465-1.113-.43-1.748-1.308-.625-.89-.625-2.11 0-1.143.547-1.992.557-.85 1.553-1.309 1.005-.468 2.343-.468 1.348 0 2.344.468 1.006.46 1.553 1.309.557.849.557 1.992 0 1.21-.635 2.1-.625.888-1.739 1.318 1.348.44 2.12 1.455.78 1.015.781 2.412 0 1.25-.625 2.198-.615.946-1.738 1.464-1.114.518-2.618.518m0-9.092q.87 0 1.397-.566.537-.576.537-1.485 0-.927-.537-1.494-.528-.566-1.397-.566-.86 0-1.396.566-.528.567-.527 1.494 0 .909.527 1.485.537.566 1.396.566m0 6.983q.723 0 1.26-.303.547-.312.84-.869.303-.557.303-1.289 0-.733-.303-1.289a2.04 2.04 0 0 0-.84-.87q-.537-.312-1.26-.312a2.5 2.5 0 0 0-1.25.312 2.2 2.2 0 0 0-.839.87q-.294.556-.293 1.289 0 .741.293 1.298.302.548.839.86.548.303 1.25.303M347.918 456h-2.578v-12.109l-2.539.918-.811-2.051 3.867-1.406h2.061zm6.377 0-1.191-1.65a13 13 0 0 0 2.148-1.553 11.5 11.5 0 0 0 1.689-1.856 9.2 9.2 0 0 0 1.133-2.041q-.566.645-1.377.996a4.6 4.6 0 0 1-1.806.342q-1.28 0-2.276-.556a4.15 4.15 0 0 1-1.553-1.553q-.556-.997-.556-2.275 0-1.397.654-2.481a4.6 4.6 0 0 1 1.787-1.699q1.143-.615 2.608-.615 1.522 0 2.646.693 1.133.693 1.738 1.953.616 1.26.616 2.959 0 1.397-.43 2.734a10 10 0 0 1-1.23 2.54 11.9 11.9 0 0 1-1.973 2.246 14 14 0 0 1-2.627 1.816m1.191-7.51q.694 0 1.231-.332.547-.332.859-.908a2.75 2.75 0 0 0 .313-1.318q0-.743-.313-1.328a2.4 2.4 0 0 0-.849-.938 2.17 2.17 0 0 0-1.211-.352q-.665 0-1.211.352a2.4 2.4 0 0 0-.85.947 2.9 2.9 0 0 0-.312 1.358q0 .732.302 1.308.303.567.83.889.528.322 1.211.322m72.393 7.51h-9.16v-1.533a63 63 0 0 0 2.959-2.764q1.21-1.21 1.943-2.187.743-.987 1.074-1.827a4.4 4.4 0 0 0 .332-1.63q0-.831-.312-1.446a2.3 2.3 0 0 0-.85-.967 2.35 2.35 0 0 0-1.269-.341q-.84 0-1.612.478a3.8 3.8 0 0 0-1.269 1.309l-1.338-1.641a5.66 5.66 0 0 1 2.061-1.758 5.7 5.7 0 0 1 2.626-.634q1.299 0 2.334.566a4.2 4.2 0 0 1 1.651 1.563q.615 1.005.615 2.373 0 1.005-.352 2.031a9 9 0 0 1-1.044 2.06 14.3 14.3 0 0 1-1.68 2.061 23 23 0 0 1-2.276 2.031h5.567zm7.178.293q-1.612 0-2.793-.889-1.173-.899-1.807-2.597-.635-1.71-.635-4.141 0-2.422.635-4.121.634-1.7 1.807-2.588 1.18-.898 2.793-.898 1.611 0 2.783.898 1.171.888 1.806 2.588.636 1.699.635 4.121 0 2.431-.635 4.141-.634 1.698-1.806 2.597-1.172.89-2.783.889m0-2.266q1.23 0 1.904-1.406.684-1.406.684-3.955 0-2.54-.684-3.936-.674-1.406-1.904-1.406-1.231 0-1.914 1.406-.684 1.397-.684 3.936 0 2.549.684 3.955.683 1.406 1.914 1.406m67.9 1.973h-9.16v-1.533a63 63 0 0 0 2.959-2.764q1.21-1.21 1.943-2.187.743-.987 1.074-1.827a4.4 4.4 0 0 0 .332-1.63q0-.831-.312-1.446a2.3 2.3 0 0 0-.85-.967 2.35 2.35 0 0 0-1.269-.341q-.84 0-1.612.478a3.84 3.84 0 0 0-1.269 1.309l-1.338-1.641a5.66 5.66 0 0 1 2.061-1.758 5.7 5.7 0 0 1 2.627-.634q1.297 0 2.334.566a4.2 4.2 0 0 1 1.65 1.563q.615 1.005.615 2.373 0 1.005-.351 2.031a9 9 0 0 1-1.045 2.06 14.3 14.3 0 0 1-1.68 2.061 23 23 0 0 1-2.275 2.031h5.566zm7.656 0h-2.578v-12.109l-2.539.918-.81-2.051 3.867-1.406h2.06zm63.496 0h-9.16v-1.533a63 63 0 0 0 2.959-2.764q1.21-1.21 1.944-2.187.741-.987 1.074-1.827a4.4 4.4 0 0 0 .332-1.63q0-.831-.313-1.446a2.3 2.3 0 0 0-.849-.967 2.35 2.35 0 0 0-1.27-.341 3 3 0 0 0-1.611.478 3.8 3.8 0 0 0-1.27 1.309l-1.338-1.641a5.66 5.66 0 0 1 2.061-1.758 5.7 5.7 0 0 1 2.627-.634q1.299 0 2.334.566a4.2 4.2 0 0 1 1.65 1.563q.615 1.005.616 2.373 0 1.005-.352 2.031a9 9 0 0 1-1.045 2.06 14.3 14.3 0 0 1-1.68 2.061 23 23 0 0 1-2.275 2.031h5.566zm11.133 0h-9.16v-1.533a63 63 0 0 0 2.959-2.764q1.21-1.21 1.943-2.187.742-.987 1.075-1.827a4.4 4.4 0 0 0 .332-1.63q0-.831-.313-1.446a2.3 2.3 0 0 0-.849-.967 2.35 2.35 0 0 0-1.27-.341 3 3 0 0 0-1.611.478 3.8 3.8 0 0 0-1.27 1.309l-1.338-1.641a5.66 5.66 0 0 1 2.061-1.758 5.7 5.7 0 0 1 2.627-.634q1.299 0 2.334.566a4.2 4.2 0 0 1 1.65 1.563q.615 1.005.615 2.373 0 1.005-.351 2.031a9 9 0 0 1-1.045 2.06 14.3 14.3 0 0 1-1.68 2.061 23 23 0 0 1-2.275 2.031h5.566zM122.801 530h-9.16v-1.533a63 63 0 0 0 2.959-2.764q1.21-1.21 1.943-2.187.742-.987 1.074-1.827a4.4 4.4 0 0 0 .332-1.63q0-.831-.312-1.446a2.3 2.3 0 0 0-.85-.967 2.35 2.35 0 0 0-1.269-.341q-.84 0-1.612.478a3.8 3.8 0 0 0-1.269 1.309l-1.338-1.641a5.66 5.66 0 0 1 2.06-1.758 5.7 5.7 0 0 1 2.627-.634q1.299 0 2.334.566a4.2 4.2 0 0 1 1.651 1.563q.615 1.005.615 2.373 0 1.005-.352 2.031a8.9 8.9 0 0 1-1.045 2.06 14 14 0 0 1-1.679 2.061 23 23 0 0 1-2.276 2.031h5.567zm1.181-1.309 1.006-1.904q.792.615 1.582.938a4.2 4.2 0 0 0 1.563.312q.772 0 1.357-.293.596-.302.928-.83.342-.527.342-1.221 0-1.122-.908-1.748-.909-.634-2.52-.634h-.576v-1.807h.576q.879 0 1.563-.293t1.074-.801q.39-.518.39-1.172 0-.557-.283-.986a1.9 1.9 0 0 0-.791-.684 2.5 2.5 0 0 0-1.142-.254q-.645 0-1.338.284a6 6 0 0 0-1.387.81l-1.152-1.787a6.1 6.1 0 0 1 1.904-1.152 6.1 6.1 0 0 1 2.217-.41q1.28 0 2.275.478.996.478 1.563 1.309.576.83.576 1.904 0 1.201-.723 2.158a4.3 4.3 0 0 1-1.865 1.426q1.503.39 2.363 1.367.87.967.869 2.354a3.77 3.77 0 0 1-.664 2.187q-.664.957-1.806 1.504-1.143.547-2.608.547a6.8 6.8 0 0 1-2.344-.41 6.7 6.7 0 0 1-2.041-1.192M196.355 530h-9.16v-1.533a62 62 0 0 0 2.959-2.764q1.211-1.21 1.944-2.187.742-.987 1.074-1.827a4.4 4.4 0 0 0 .332-1.63q0-.831-.313-1.446a2.3 2.3 0 0 0-.849-.967 2.35 2.35 0 0 0-1.27-.341 3 3 0 0 0-1.611.478 3.8 3.8 0 0 0-1.27 1.309l-1.337-1.641a5.65 5.65 0 0 1 2.06-1.758 5.7 5.7 0 0 1 2.627-.634q1.299 0 2.334.566a4.2 4.2 0 0 1 1.65 1.563q.616 1.005.616 2.373 0 1.005-.352 2.031a9 9 0 0 1-1.045 2.06 14.2 14.2 0 0 1-1.68 2.061 23 23 0 0 1-2.275 2.031h5.566zm10.879 0h-2.578v-3.154h-7.158v-1.992l7.168-9.502h2.568v9.238h1.787v2.256h-1.787zm-7.236-5.41h4.658v-6.192zm76.123 5.41h-9.16v-1.533a63 63 0 0 0 2.959-2.764q1.21-1.21 1.943-2.187.742-.987 1.075-1.827a4.4 4.4 0 0 0 .332-1.63q0-.831-.313-1.446a2.3 2.3 0 0 0-.85-.967 2.35 2.35 0 0 0-1.269-.341 3 3 0 0 0-1.611.478 3.8 3.8 0 0 0-1.27 1.309l-1.338-1.641a5.66 5.66 0 0 1 2.061-1.758 5.7 5.7 0 0 1 2.627-.634q1.299 0 2.334.566a4.2 4.2 0 0 1 1.65 1.563q.615 1.005.615 2.373 0 1.005-.351 2.031a9 9 0 0 1-1.045 2.06 14.3 14.3 0 0 1-1.68 2.061 23 23 0 0 1-2.275 2.031h5.566zm1.943-1.543 1.358-2.07q.4.751 1.191 1.201a3.5 3.5 0 0 0 1.729.439q.86 0 1.513-.361a2.55 2.55 0 0 0 1.016-1.006q.37-.644.371-1.484 0-.84-.371-1.485a2.6 2.6 0 0 0-1.025-1.015q-.654-.362-1.514-.362-.615 0-1.152.206a3.2 3.2 0 0 0-.977.595l-1.269-.752.654-7.011h7.49v2.265h-5.137l-.351 3.447a5.3 5.3 0 0 1 1.523-.214q1.387 0 2.461.586t1.68 1.621q.615 1.035.615 2.373 0 1.406-.683 2.509a4.83 4.83 0 0 1-1.885 1.729q-1.202.625-2.744.625-1.31 0-2.481-.479a5.76 5.76 0 0 1-2.012-1.357M350.535 530h-9.16v-1.533a63 63 0 0 0 2.959-2.764q1.21-1.21 1.943-2.187.742-.987 1.075-1.827a4.4 4.4 0 0 0 .332-1.63q0-.831-.313-1.446a2.3 2.3 0 0 0-.85-.967 2.35 2.35 0 0 0-1.269-.341 3 3 0 0 0-1.611.478 3.8 3.8 0 0 0-1.27 1.309l-1.338-1.641a5.66 5.66 0 0 1 2.061-1.758 5.7 5.7 0 0 1 2.627-.634q1.299 0 2.334.566a4.2 4.2 0 0 1 1.65 1.563q.615 1.005.615 2.373 0 1.005-.351 2.031a9 9 0 0 1-1.045 2.06 14.3 14.3 0 0 1-1.68 2.061 23 23 0 0 1-2.275 2.031h5.566zm6.963.293q-1.524 0-2.656-.693-1.124-.694-1.748-1.954-.615-1.26-.615-2.958 0-1.397.419-2.725.43-1.338 1.241-2.549a11.6 11.6 0 0 1 1.972-2.236 13.6 13.6 0 0 1 2.637-1.826l1.182 1.65q-1.173.673-2.149 1.543a11.5 11.5 0 0 0-1.679 1.865 9.4 9.4 0 0 0-1.133 2.041 3.9 3.9 0 0 1 1.377-.986 4.5 4.5 0 0 1 1.797-.352q1.288 0 2.275.567a3.97 3.97 0 0 1 1.543 1.552q.566.987.566 2.266 0 1.397-.654 2.481a4.63 4.63 0 0 1-1.787 1.699q-1.133.615-2.588.615m.029-2.256q.674 0 1.211-.351.537-.353.84-.957a2.9 2.9 0 0 0 .313-1.348q0-.742-.303-1.309a2.2 2.2 0 0 0-.82-.888 2.3 2.3 0 0 0-1.211-.323q-.694 0-1.241.332a2.3 2.3 0 0 0-.849.899q-.313.576-.313 1.328 0 .732.313 1.328.312.596.849.947.537.342 1.211.342M429.852 530h-9.161v-1.533a62 62 0 0 0 2.959-2.764q1.211-1.21 1.944-2.187.743-.987 1.074-1.827a4.4 4.4 0 0 0 .332-1.63q0-.831-.312-1.446a2.3 2.3 0 0 0-.85-.967 2.35 2.35 0 0 0-1.27-.341 3 3 0 0 0-1.611.478 3.8 3.8 0 0 0-1.269 1.309l-1.338-1.641a5.65 5.65 0 0 1 2.06-1.758 5.7 5.7 0 0 1 2.627-.634q1.299 0 2.334.566a4.2 4.2 0 0 1 1.65 1.563q.616 1.005.616 2.373 0 1.005-.352 2.031a9 9 0 0 1-1.045 2.06 14 14 0 0 1-1.679 2.061 23 23 0 0 1-2.276 2.031h5.567zm5.234 0h-2.793l5.107-12.383h-6.406v-2.265h9.434l-.01 1.709zm67.793 0h-9.16v-1.533a63 63 0 0 0 2.959-2.764q1.21-1.21 1.943-2.187.743-.987 1.074-1.827a4.4 4.4 0 0 0 .332-1.63q0-.831-.312-1.446a2.3 2.3 0 0 0-.85-.967 2.35 2.35 0 0 0-1.269-.341q-.84 0-1.612.478a3.8 3.8 0 0 0-1.269 1.309l-1.338-1.641a5.66 5.66 0 0 1 2.061-1.758 5.7 5.7 0 0 1 2.626-.634q1.299 0 2.334.566a4.2 4.2 0 0 1 1.651 1.563q.615 1.005.615 2.373 0 1.005-.352 2.031a9 9 0 0 1-1.044 2.06 14.3 14.3 0 0 1-1.68 2.061 23 23 0 0 1-2.276 2.031h5.567zm6.982.293q-1.483 0-2.607-.518-1.114-.518-1.738-1.455-.616-.947-.616-2.197 0-1.406.772-2.412.771-1.015 2.119-1.465-1.113-.43-1.748-1.308-.625-.89-.625-2.11 0-1.143.547-1.992.557-.85 1.553-1.309 1.005-.468 2.343-.468 1.348 0 2.344.468 1.006.46 1.553 1.309.556.849.556 1.992 0 1.21-.634 2.1-.625.889-1.739 1.318 1.348.44 2.12 1.455.78 1.015.781 2.412 0 1.25-.625 2.198-.615.946-1.738 1.464-1.114.518-2.618.518m0-9.092q.87 0 1.397-.566.537-.576.537-1.485 0-.927-.537-1.494-.527-.566-1.397-.566-.86 0-1.396.566-.527.567-.527 1.494 0 .909.527 1.485.537.566 1.396.566m0 6.983q.723 0 1.26-.303.548-.312.84-.869.303-.557.303-1.289 0-.733-.303-1.289a2.04 2.04 0 0 0-.84-.87q-.537-.312-1.26-.312a2.5 2.5 0 0 0-1.25.312 2.2 2.2 0 0 0-.84.87q-.292.556-.292 1.289 0 .741.292 1.298.303.548.84.86.548.303 1.25.303M572.938 530h-9.161v-1.533a62 62 0 0 0 2.959-2.764q1.211-1.21 1.944-2.187.742-.987 1.074-1.827a4.4 4.4 0 0 0 .332-1.63q0-.831-.313-1.446a2.3 2.3 0 0 0-.849-.967 2.35 2.35 0 0 0-1.27-.341 3 3 0 0 0-1.611.478 3.8 3.8 0 0 0-1.27 1.309l-1.337-1.641a5.65 5.65 0 0 1 2.06-1.758 5.7 5.7 0 0 1 2.627-.634q1.299 0 2.334.566a4.2 4.2 0 0 1 1.65 1.563q.616 1.005.616 2.373 0 1.005-.352 2.031a9 9 0 0 1-1.045 2.06 14.2 14.2 0 0 1-1.68 2.061 23 23 0 0 1-2.275 2.031h5.567zm5.732 0-1.191-1.65a13 13 0 0 0 2.148-1.553 11.5 11.5 0 0 0 1.689-1.856 9.2 9.2 0 0 0 1.133-2.041q-.566.645-1.377.996a4.6 4.6 0 0 1-1.806.342q-1.28 0-2.276-.556a4.14 4.14 0 0 1-1.552-1.553q-.557-.997-.557-2.275 0-1.397.654-2.481a4.6 4.6 0 0 1 1.787-1.699q1.143-.615 2.608-.615 1.523 0 2.646.693 1.133.693 1.738 1.953.616 1.26.616 2.959 0 1.397-.43 2.734a10 10 0 0 1-1.23 2.54 11.9 11.9 0 0 1-1.973 2.246A14 14 0 0 1 578.67 530m1.191-7.51q.694 0 1.231-.332.546-.332.859-.908a2.75 2.75 0 0 0 .313-1.318q0-.743-.313-1.328a2.4 2.4 0 0 0-.849-.938 2.17 2.17 0 0 0-1.211-.352q-.665 0-1.211.352a2.4 2.4 0 0 0-.85.947 2.9 2.9 0 0 0-.312 1.358q0 .732.302 1.308.303.567.83.889.528.322 1.211.322M112.85 602.691l1.005-1.904q.791.615 1.583.938a4.2 4.2 0 0 0 1.562.312q.772 0 1.357-.293a2.3 2.3 0 0 0 .928-.83q.342-.527.342-1.221 0-1.122-.908-1.748-.909-.634-2.52-.634h-.576v-1.807h.576q.879 0 1.563-.293t1.074-.801q.39-.518.391-1.172 0-.557-.284-.986a1.9 1.9 0 0 0-.791-.684 2.5 2.5 0 0 0-1.142-.254q-.645 0-1.338.284a6 6 0 0 0-1.387.81l-1.152-1.787a6.1 6.1 0 0 1 1.904-1.152 6.1 6.1 0 0 1 2.217-.41q1.28 0 2.275.478.996.478 1.563 1.309.576.83.576 1.904 0 1.201-.723 2.158a4.3 4.3 0 0 1-1.865 1.426q1.504.39 2.363 1.367.87.967.869 2.354a3.77 3.77 0 0 1-.664 2.187q-.663.957-1.806 1.504t-2.608.547a6.8 6.8 0 0 1-2.343-.41 6.7 6.7 0 0 1-2.041-1.192m16.699 1.602q-1.611 0-2.793-.889-1.172-.899-1.807-2.597-.635-1.71-.635-4.141 0-2.422.635-4.121t1.807-2.588q1.182-.898 2.793-.898t2.783.898q1.171.888 1.807 2.588.634 1.699.634 4.121 0 2.431-.634 4.141-.636 1.698-1.807 2.597-1.172.89-2.783.889m0-2.266q1.23 0 1.904-1.406.684-1.406.684-3.955 0-2.54-.684-3.936-.674-1.406-1.904-1.406t-1.914 1.406q-.684 1.397-.684 3.936 0 2.549.684 3.955.683 1.406 1.914 1.406"/></svg>