<svg width="700" height="700" viewBox="0 0 700 700" fill="none" xmlns="http://www.w3.org/2000/svg">
<rect width="700" height="700" rx="15" fill="white"/>
<path d="M115.632 74.1818H120.192V89.3949C120.192 90.8011 119.876 92.0227 119.244 93.0597C118.619 94.0966 117.749 94.8956 116.634 95.4567C115.518 96.0178 114.222 96.2983 112.745 96.2983C111.431 96.2983 110.238 96.0675 109.165 95.6058C108.1 95.1371 107.255 94.4268 106.63 93.4751C106.005 92.5163 105.696 91.3125 105.703 89.8636H110.295C110.309 90.4389 110.426 90.9325 110.646 91.3445C110.874 91.7493 111.183 92.0618 111.573 92.282C111.971 92.495 112.44 92.6016 112.979 92.6016C113.548 92.6016 114.027 92.4808 114.418 92.2393C114.815 91.9908 115.117 91.6286 115.323 91.1527C115.529 90.6768 115.632 90.0909 115.632 89.3949V74.1818ZM137.482 74.1818H142.095V88.3509C142.095 89.9418 141.715 91.3338 140.955 92.527C140.202 93.7202 139.148 94.6506 137.791 95.3182C136.435 95.9787 134.854 96.3089 133.05 96.3089C131.239 96.3089 129.656 95.9787 128.299 95.3182C126.942 94.6506 125.888 93.7202 125.135 92.527C124.382 91.3338 124.006 89.9418 124.006 88.3509V74.1818H128.619V87.9567C128.619 88.7876 128.8 89.5263 129.162 90.1726C129.531 90.8189 130.05 91.3267 130.717 91.696C131.385 92.0653 132.163 92.25 133.05 92.25C133.945 92.25 134.723 92.0653 135.384 91.696C136.051 91.3267 136.566 90.8189 136.928 90.1726C137.298 89.5263 137.482 88.7876 137.482 87.9567V74.1818ZM164.14 74.1818V96H160.155L150.663 82.2678H150.503V96H145.89V74.1818H149.939L159.356 87.9034H159.548V74.1818H164.14ZM167.951 96V74.1818H182.653V77.9851H172.564V83.1839H181.896V86.9872H172.564V92.1967H182.695V96H167.951ZM193.136 96V92.6761L200.902 85.4851C201.563 84.8459 202.116 84.2706 202.564 83.7592C203.018 83.2479 203.363 82.7472 203.597 82.2571C203.832 81.7599 203.949 81.2237 203.949 80.6484C203.949 80.0092 203.803 79.4588 203.512 78.9972C203.221 78.5284 202.823 78.1697 202.319 77.9212C201.815 77.6655 201.243 77.5376 200.604 77.5376C199.936 77.5376 199.354 77.6726 198.857 77.9425C198.359 78.2124 197.976 78.5994 197.706 79.1037C197.436 79.608 197.301 80.2081 197.301 80.9041H192.923C192.923 79.4766 193.246 78.2372 193.892 77.1861C194.538 76.1349 195.444 75.3217 196.609 74.7464C197.773 74.1712 199.116 73.8835 200.636 73.8835C202.198 73.8835 203.558 74.1605 204.716 74.7145C205.881 75.2614 206.786 76.0213 207.433 76.9943C208.079 77.9673 208.402 79.0824 208.402 80.3395C208.402 81.1634 208.239 81.9766 207.912 82.7791C207.592 83.5817 207.021 84.473 206.197 85.4531C205.373 86.4261 204.212 87.5945 202.713 88.9581L199.528 92.0795V92.2287H208.69V96H193.136ZM220.587 96.4794C218.754 96.4723 217.178 96.0213 215.857 95.1264C214.543 94.2315 213.531 92.9354 212.82 91.2379C212.117 89.5405 211.769 87.4986 211.776 85.1122C211.776 82.733 212.128 80.7053 212.831 79.0291C213.541 77.353 214.553 76.0781 215.867 75.2045C217.188 74.3239 218.762 73.8835 220.587 73.8835C222.412 73.8835 223.982 74.3239 225.296 75.2045C226.617 76.0852 227.632 77.3636 228.343 79.0398C229.053 80.7088 229.404 82.733 229.397 85.1122C229.397 87.5057 229.042 89.5511 228.332 91.2486C227.629 92.946 226.62 94.2422 225.306 95.1371C223.992 96.032 222.419 96.4794 220.587 96.4794ZM220.587 92.6548C221.837 92.6548 222.835 92.0263 223.58 90.7692C224.326 89.5121 224.695 87.6264 224.688 85.1122C224.688 83.4574 224.518 82.0795 224.177 80.9787C223.843 79.8778 223.367 79.0504 222.749 78.4964C222.139 77.9425 221.418 77.6655 220.587 77.6655C219.344 77.6655 218.35 78.2869 217.604 79.5298C216.858 80.7727 216.482 82.6335 216.475 85.1122C216.475 86.7884 216.642 88.1875 216.975 89.3097C217.316 90.4247 217.796 91.2628 218.414 91.8239C219.031 92.3778 219.756 92.6548 220.587 92.6548ZM232.686 96V92.6761L240.453 85.4851C241.113 84.8459 241.667 84.2706 242.115 83.7592C242.569 83.2479 242.914 82.7472 243.148 82.2571C243.382 81.7599 243.5 81.2237 243.5 80.6484C243.5 80.0092 243.354 79.4588 243.063 78.9972C242.772 78.5284 242.374 78.1697 241.87 77.9212C241.365 77.6655 240.794 77.5376 240.154 77.5376C239.487 77.5376 238.904 77.6726 238.407 77.9425C237.91 78.2124 237.527 78.5994 237.257 79.1037C236.987 79.608 236.852 80.2081 236.852 80.9041H232.473C232.473 79.4766 232.797 78.2372 233.443 77.1861C234.089 76.1349 234.995 75.3217 236.159 74.7464C237.324 74.1712 238.667 73.8835 240.186 73.8835C241.749 73.8835 243.109 74.1605 244.267 74.7145C245.431 75.2614 246.337 76.0213 246.983 76.9943C247.63 77.9673 247.953 79.0824 247.953 80.3395C247.953 81.1634 247.789 81.9766 247.463 82.7791C247.143 83.5817 246.571 84.473 245.748 85.4531C244.924 86.4261 243.762 87.5945 242.264 88.9581L239.078 92.0795V92.2287H248.24V96H232.686ZM250.784 92.1648V88.532L259.893 74.1818H263.025V79.2102H261.171L255.429 88.2976V88.468H268.373V92.1648H250.784ZM261.256 96V91.0568L261.341 89.4482V74.1818H265.667V96H261.256Z" fill="black"/>
<path d="M126.309 187H123.73V176.014L119.658 184.539H117.578L113.525 176.062V187H110.947V172.352H114.229L118.623 181.717L123.008 172.352H126.309V187ZM133.457 187.195C132.461 187.195 131.569 186.974 130.781 186.531C130 186.089 129.382 185.486 128.926 184.725C128.477 183.956 128.252 183.087 128.252 182.117C128.252 181.147 128.477 180.281 128.926 179.52C129.382 178.751 130 178.146 130.781 177.703C131.569 177.26 132.461 177.039 133.457 177.039C134.447 177.039 135.332 177.26 136.113 177.703C136.895 178.146 137.507 178.751 137.949 179.52C138.398 180.281 138.623 181.147 138.623 182.117C138.623 183.087 138.398 183.956 137.949 184.725C137.507 185.486 136.895 186.089 136.113 186.531C135.332 186.974 134.447 187.195 133.457 187.195ZM133.438 185.037C133.958 185.037 134.424 184.91 134.834 184.656C135.244 184.402 135.566 184.054 135.801 183.611C136.042 183.169 136.162 182.667 136.162 182.107C136.162 181.554 136.042 181.059 135.801 180.623C135.566 180.18 135.244 179.832 134.834 179.578C134.424 179.324 133.958 179.197 133.438 179.197C132.923 179.197 132.458 179.324 132.041 179.578C131.631 179.832 131.305 180.18 131.064 180.623C130.83 181.059 130.713 181.554 130.713 182.107C130.713 182.667 130.83 183.169 131.064 183.611C131.305 184.054 131.631 184.402 132.041 184.656C132.458 184.91 132.923 185.037 133.438 185.037ZM193.018 187H190.439V174.617H185.986V172.352H197.461V174.617H193.018V187ZM207.188 187H205.205L205.127 185.428C204.775 186.001 204.313 186.44 203.74 186.746C203.167 187.046 202.49 187.195 201.709 187.195C200.452 187.195 199.46 186.811 198.73 186.043C198.008 185.268 197.646 184.204 197.646 182.85V177.234H200.049V182.391C200.049 183.204 200.254 183.849 200.664 184.324C201.081 184.793 201.644 185.027 202.354 185.027C203.089 185.027 203.678 184.777 204.121 184.275C204.564 183.774 204.785 183.107 204.785 182.273V177.234H207.188V187ZM275.869 187H273.525L270.312 176.648L267.1 187H264.756L259.99 172.352H262.695L265.918 182.752L269.141 172.352H271.484L274.697 182.723L277.91 172.352H280.615L275.869 187ZM290.254 185.867C289.036 186.753 287.705 187.195 286.26 187.195C285.212 187.195 284.271 186.967 283.438 186.512C282.604 186.056 281.943 185.434 281.455 184.646C280.973 183.852 280.732 182.96 280.732 181.971C280.732 181.027 280.951 180.184 281.387 179.441C281.829 178.699 282.432 178.113 283.193 177.684C283.962 177.254 284.827 177.039 285.791 177.039C286.794 177.039 287.673 177.277 288.428 177.752C289.189 178.221 289.782 178.875 290.205 179.715C290.628 180.548 290.84 181.518 290.84 182.625V182.938H283.32C283.438 183.38 283.643 183.771 283.936 184.109C284.235 184.448 284.606 184.712 285.049 184.9C285.492 185.089 285.99 185.184 286.543 185.184C287.585 185.184 288.548 184.845 289.434 184.168L290.254 185.867ZM283.223 181.531H288.613C288.561 181.043 288.411 180.617 288.164 180.252C287.923 179.887 287.607 179.604 287.217 179.402C286.833 179.194 286.4 179.09 285.918 179.09C285.43 179.09 284.993 179.194 284.609 179.402C284.225 179.611 283.913 179.9 283.672 180.271C283.431 180.636 283.281 181.056 283.223 181.531ZM345.244 187H342.666V174.617H338.213V172.352H349.688V174.617H345.244V187ZM351.24 187V172.352H353.643V178.484C354.359 177.521 355.41 177.039 356.797 177.039C358.047 177.039 359.023 177.423 359.727 178.191C360.43 178.953 360.781 180.014 360.781 181.375V187H358.379V181.99C358.379 181.105 358.174 180.418 357.764 179.93C357.354 179.435 356.777 179.188 356.035 179.188C355.286 179.188 354.701 179.438 354.277 179.939C353.854 180.434 353.643 181.118 353.643 181.99V187H351.24ZM418.975 187V172.352H428.018V174.617H421.553V178.475H427.627V180.73H421.553V187H418.975ZM432.334 187H429.932V177.234H432.021L432.109 179.012C432.448 178.387 432.904 177.902 433.477 177.557C434.056 177.212 434.72 177.039 435.469 177.039C435.664 177.039 435.863 177.052 436.064 177.078C436.273 177.104 436.478 177.143 436.68 177.195L436.387 179.363C435.983 179.246 435.592 179.188 435.215 179.188C434.642 179.188 434.137 179.321 433.701 179.588C433.271 179.855 432.936 180.226 432.695 180.701C432.454 181.17 432.334 181.717 432.334 182.342V187ZM493.193 185.477L494.414 183.504C494.863 183.855 495.296 184.148 495.713 184.383C496.13 184.611 496.549 184.78 496.973 184.891C497.396 185.001 497.826 185.057 498.262 185.057C498.822 185.057 499.307 184.972 499.717 184.803C500.133 184.627 500.456 184.386 500.684 184.08C500.911 183.774 501.025 183.416 501.025 183.006C501.025 182.544 500.885 182.16 500.605 181.854C500.332 181.541 499.971 181.274 499.521 181.053C499.072 180.825 498.59 180.604 498.076 180.389C497.607 180.193 497.132 179.982 496.65 179.754C496.175 179.526 495.742 179.256 495.352 178.943C494.961 178.624 494.645 178.24 494.404 177.791C494.17 177.342 494.053 176.798 494.053 176.16C494.053 175.333 494.261 174.614 494.678 174.002C495.094 173.383 495.671 172.908 496.406 172.576C497.142 172.238 497.982 172.068 498.926 172.068C499.59 172.068 500.27 172.156 500.967 172.332C501.67 172.501 502.363 172.762 503.047 173.113L502.021 175.193C501.559 174.92 501.068 174.708 500.547 174.559C500.026 174.402 499.528 174.324 499.053 174.324C498.584 174.324 498.171 174.399 497.812 174.549C497.461 174.692 497.184 174.9 496.982 175.174C496.787 175.441 496.689 175.753 496.689 176.111C496.689 176.535 496.82 176.893 497.08 177.186C497.347 177.479 497.695 177.739 498.125 177.967C498.555 178.188 499.014 178.406 499.502 178.621C499.99 178.836 500.479 179.067 500.967 179.314C501.462 179.555 501.911 179.842 502.314 180.174C502.725 180.506 503.05 180.903 503.291 181.365C503.538 181.827 503.662 182.384 503.662 183.035C503.662 183.882 503.441 184.627 502.998 185.271C502.562 185.91 501.947 186.408 501.152 186.766C500.358 187.117 499.43 187.293 498.369 187.293C497.419 187.293 496.507 187.14 495.635 186.834C494.762 186.528 493.949 186.076 493.193 185.477ZM514.209 187H512.119L511.982 185.799C511.624 186.242 511.178 186.587 510.645 186.834C510.111 187.075 509.518 187.195 508.867 187.195C508.177 187.195 507.562 187.062 507.021 186.795C506.481 186.521 506.055 186.15 505.742 185.682C505.436 185.213 505.283 184.679 505.283 184.08C505.283 183.449 505.449 182.895 505.781 182.42C506.12 181.938 506.579 181.561 507.158 181.287C507.744 181.014 508.411 180.877 509.16 180.877C509.616 180.877 510.072 180.929 510.527 181.033C510.99 181.137 511.416 181.284 511.807 181.473V181.16C511.807 180.73 511.689 180.359 511.455 180.047C511.221 179.734 510.905 179.493 510.508 179.324C510.111 179.148 509.665 179.061 509.17 179.061C508.721 179.061 508.271 179.139 507.822 179.295C507.373 179.445 506.953 179.669 506.562 179.969L505.879 178.084C506.504 177.739 507.142 177.479 507.793 177.303C508.451 177.127 509.092 177.039 509.717 177.039C510.635 177.039 511.429 177.221 512.1 177.586C512.77 177.944 513.288 178.458 513.652 179.129C514.023 179.793 514.209 180.577 514.209 181.482V187ZM509.365 185.262C509.788 185.262 510.179 185.174 510.537 184.998C510.902 184.822 511.198 184.578 511.426 184.266C511.66 183.947 511.784 183.582 511.797 183.172V183.064C511.491 182.843 511.146 182.674 510.762 182.557C510.378 182.433 509.99 182.371 509.6 182.371C509.001 182.371 508.509 182.508 508.125 182.781C507.741 183.048 507.549 183.4 507.549 183.836C507.549 184.103 507.627 184.347 507.783 184.568C507.939 184.783 508.154 184.952 508.428 185.076C508.708 185.2 509.02 185.262 509.365 185.262ZM562.412 185.477L563.633 183.504C564.082 183.855 564.515 184.148 564.932 184.383C565.348 184.611 565.768 184.78 566.191 184.891C566.615 185.001 567.044 185.057 567.48 185.057C568.04 185.057 568.525 184.972 568.936 184.803C569.352 184.627 569.674 184.386 569.902 184.08C570.13 183.774 570.244 183.416 570.244 183.006C570.244 182.544 570.104 182.16 569.824 181.854C569.551 181.541 569.189 181.274 568.74 181.053C568.291 180.825 567.809 180.604 567.295 180.389C566.826 180.193 566.351 179.982 565.869 179.754C565.394 179.526 564.961 179.256 564.57 178.943C564.18 178.624 563.864 178.24 563.623 177.791C563.389 177.342 563.271 176.798 563.271 176.16C563.271 175.333 563.48 174.614 563.896 174.002C564.313 173.383 564.889 172.908 565.625 172.576C566.361 172.238 567.201 172.068 568.145 172.068C568.809 172.068 569.489 172.156 570.186 172.332C570.889 172.501 571.582 172.762 572.266 173.113L571.24 175.193C570.778 174.92 570.286 174.708 569.766 174.559C569.245 174.402 568.747 174.324 568.271 174.324C567.803 174.324 567.389 174.399 567.031 174.549C566.68 174.692 566.403 174.9 566.201 175.174C566.006 175.441 565.908 175.753 565.908 176.111C565.908 176.535 566.038 176.893 566.299 177.186C566.566 177.479 566.914 177.739 567.344 177.967C567.773 178.188 568.232 178.406 568.721 178.621C569.209 178.836 569.697 179.067 570.186 179.314C570.68 179.555 571.13 179.842 571.533 180.174C571.943 180.506 572.269 180.903 572.51 181.365C572.757 181.827 572.881 182.384 572.881 183.035C572.881 183.882 572.66 184.627 572.217 185.271C571.781 185.91 571.165 186.408 570.371 186.766C569.577 187.117 568.649 187.293 567.588 187.293C566.637 187.293 565.726 187.14 564.854 186.834C563.981 186.528 563.167 186.076 562.412 185.477ZM584.336 187H582.354L582.275 185.428C581.924 186.001 581.462 186.44 580.889 186.746C580.316 187.046 579.639 187.195 578.857 187.195C577.601 187.195 576.608 186.811 575.879 186.043C575.156 185.268 574.795 184.204 574.795 182.85V177.234H577.197V182.391C577.197 183.204 577.402 183.849 577.812 184.324C578.229 184.793 578.792 185.027 579.502 185.027C580.238 185.027 580.827 184.777 581.27 184.275C581.712 183.774 581.934 183.107 581.934 182.273V177.234H584.336V187Z" fill="black"/>
<path d="M577.438 243H574.859V230.891L572.32 231.809L571.51 229.758L575.377 228.352H577.438V243Z" fill="#6F6F6F"/>
<path d="M122.801 308H113.641V306.467C114.812 305.432 115.799 304.51 116.6 303.703C117.407 302.896 118.055 302.167 118.543 301.516C119.038 300.858 119.396 300.249 119.617 299.689C119.839 299.13 119.949 298.586 119.949 298.059C119.949 297.505 119.845 297.023 119.637 296.613C119.435 296.197 119.152 295.874 118.787 295.646C118.423 295.419 117.999 295.305 117.518 295.305C116.958 295.305 116.421 295.464 115.906 295.783C115.398 296.096 114.975 296.532 114.637 297.092L113.299 295.451C113.846 294.696 114.533 294.11 115.359 293.693C116.193 293.27 117.068 293.059 117.986 293.059C118.852 293.059 119.63 293.247 120.32 293.625C121.017 293.996 121.567 294.517 121.971 295.188C122.381 295.858 122.586 296.649 122.586 297.561C122.586 298.231 122.469 298.908 122.234 299.592C122 300.275 121.652 300.962 121.189 301.652C120.734 302.342 120.174 303.029 119.51 303.713C118.846 304.396 118.087 305.074 117.234 305.744H122.801V308ZM189.939 306.691L190.945 304.787C191.473 305.197 192 305.51 192.527 305.725C193.055 305.933 193.576 306.037 194.09 306.037C194.604 306.037 195.057 305.939 195.447 305.744C195.844 305.542 196.154 305.266 196.375 304.914C196.603 304.562 196.717 304.156 196.717 303.693C196.717 302.945 196.414 302.362 195.809 301.945C195.203 301.522 194.363 301.311 193.289 301.311H192.713V299.504H193.289C193.875 299.504 194.396 299.406 194.852 299.211C195.307 299.016 195.665 298.749 195.926 298.41C196.186 298.065 196.316 297.674 196.316 297.238C196.316 296.867 196.222 296.538 196.033 296.252C195.844 295.959 195.581 295.731 195.242 295.568C194.91 295.399 194.529 295.314 194.1 295.314C193.67 295.314 193.224 295.409 192.762 295.598C192.306 295.78 191.844 296.05 191.375 296.408L190.223 294.621C190.789 294.12 191.424 293.736 192.127 293.469C192.837 293.195 193.576 293.059 194.344 293.059C195.197 293.059 195.955 293.218 196.619 293.537C197.283 293.856 197.804 294.292 198.182 294.846C198.566 295.399 198.758 296.034 198.758 296.75C198.758 297.551 198.517 298.27 198.035 298.908C197.56 299.546 196.938 300.021 196.17 300.334C197.173 300.594 197.96 301.05 198.533 301.701C199.113 302.346 199.402 303.13 199.402 304.055C199.402 304.868 199.181 305.598 198.738 306.242C198.296 306.88 197.693 307.382 196.932 307.746C196.17 308.111 195.301 308.293 194.324 308.293C193.51 308.293 192.729 308.156 191.98 307.883C191.232 307.609 190.551 307.212 189.939 306.691ZM275.711 308H273.133V304.846H265.975V302.854L273.143 293.352H275.711V302.59H277.498V304.846H275.711V308ZM268.475 302.59H273.133V296.398L268.475 302.59ZM343.826 306.457L345.184 304.387C345.451 304.888 345.848 305.288 346.375 305.588C346.902 305.881 347.479 306.027 348.104 306.027C348.676 306.027 349.181 305.907 349.617 305.666C350.053 305.425 350.392 305.09 350.633 304.66C350.88 304.23 351.004 303.736 351.004 303.176C351.004 302.616 350.88 302.121 350.633 301.691C350.385 301.255 350.044 300.917 349.607 300.676C349.171 300.435 348.667 300.314 348.094 300.314C347.684 300.314 347.299 300.383 346.941 300.52C346.583 300.656 346.258 300.855 345.965 301.115L344.695 300.363L345.35 293.352H352.84V295.617H347.703L347.352 299.064C347.833 298.921 348.341 298.85 348.875 298.85C349.799 298.85 350.62 299.045 351.336 299.436C352.052 299.826 352.612 300.367 353.016 301.057C353.426 301.747 353.631 302.538 353.631 303.43C353.631 304.367 353.403 305.204 352.947 305.939C352.492 306.669 351.863 307.245 351.062 307.668C350.262 308.085 349.347 308.293 348.318 308.293C347.446 308.293 346.619 308.133 345.838 307.814C345.057 307.495 344.386 307.043 343.826 306.457ZM425.193 308.293C424.178 308.293 423.292 308.062 422.537 307.6C421.788 307.137 421.206 306.486 420.789 305.646C420.379 304.807 420.174 303.82 420.174 302.688C420.174 301.757 420.314 300.848 420.594 299.963C420.88 299.071 421.294 298.221 421.834 297.414C422.374 296.607 423.032 295.861 423.807 295.178C424.581 294.488 425.46 293.879 426.443 293.352L427.625 295.002C426.844 295.451 426.128 295.965 425.477 296.545C424.832 297.124 424.272 297.746 423.797 298.41C423.322 299.068 422.944 299.748 422.664 300.451C423.042 300.028 423.501 299.699 424.041 299.465C424.581 299.23 425.18 299.113 425.838 299.113C426.697 299.113 427.456 299.302 428.113 299.68C428.771 300.051 429.285 300.568 429.656 301.232C430.034 301.89 430.223 302.645 430.223 303.498C430.223 304.429 430.005 305.256 429.568 305.979C429.139 306.695 428.543 307.261 427.781 307.678C427.026 308.088 426.163 308.293 425.193 308.293ZM425.223 306.037C425.672 306.037 426.076 305.92 426.434 305.686C426.792 305.451 427.072 305.132 427.273 304.729C427.482 304.325 427.586 303.876 427.586 303.381C427.586 302.886 427.485 302.45 427.283 302.072C427.088 301.695 426.814 301.398 426.463 301.184C426.111 300.969 425.708 300.861 425.252 300.861C424.79 300.861 424.376 300.972 424.012 301.193C423.654 301.408 423.37 301.708 423.162 302.092C422.954 302.476 422.85 302.919 422.85 303.42C422.85 303.908 422.954 304.351 423.162 304.748C423.37 305.145 423.654 305.461 424.012 305.695C424.37 305.923 424.773 306.037 425.223 306.037ZM500.652 308H497.859L502.967 295.617H496.561V293.352H505.994L505.984 295.061L500.652 308ZM577.361 308.293C576.372 308.293 575.503 308.12 574.754 307.775C574.012 307.43 573.432 306.945 573.016 306.32C572.605 305.689 572.4 304.956 572.4 304.123C572.4 303.186 572.658 302.382 573.172 301.711C573.686 301.034 574.393 300.546 575.291 300.246C574.549 299.96 573.966 299.523 573.543 298.938C573.126 298.345 572.918 297.642 572.918 296.828C572.918 296.066 573.1 295.402 573.465 294.836C573.836 294.27 574.354 293.833 575.018 293.527C575.688 293.215 576.469 293.059 577.361 293.059C578.26 293.059 579.041 293.215 579.705 293.527C580.376 293.833 580.893 294.27 581.258 294.836C581.629 295.402 581.814 296.066 581.814 296.828C581.814 297.635 581.603 298.335 581.18 298.928C580.763 299.52 580.184 299.96 579.441 300.246C580.34 300.539 581.046 301.024 581.561 301.701C582.081 302.378 582.342 303.182 582.342 304.113C582.342 304.947 582.133 305.679 581.717 306.311C581.307 306.942 580.727 307.43 579.979 307.775C579.236 308.12 578.364 308.293 577.361 308.293ZM577.361 299.201C577.941 299.201 578.406 299.012 578.758 298.635C579.116 298.251 579.295 297.756 579.295 297.15C579.295 296.532 579.116 296.034 578.758 295.656C578.406 295.279 577.941 295.09 577.361 295.09C576.788 295.09 576.323 295.279 575.965 295.656C575.613 296.034 575.438 296.532 575.438 297.15C575.438 297.756 575.613 298.251 575.965 298.635C576.323 299.012 576.788 299.201 577.361 299.201ZM577.361 306.184C577.843 306.184 578.263 306.083 578.621 305.881C578.986 305.673 579.266 305.383 579.461 305.012C579.663 304.641 579.764 304.211 579.764 303.723C579.764 303.234 579.663 302.805 579.461 302.434C579.266 302.056 578.986 301.766 578.621 301.564C578.263 301.356 577.843 301.252 577.361 301.252C576.893 301.252 576.476 301.356 576.111 301.564C575.753 301.773 575.473 302.062 575.271 302.434C575.076 302.805 574.979 303.234 574.979 303.723C574.979 304.217 575.076 304.65 575.271 305.021C575.473 305.386 575.753 305.673 576.111 305.881C576.476 306.083 576.893 306.184 577.361 306.184Z" fill="#6F6F6F"/>
<path d="M116.521 382L115.33 380.35C116.118 379.894 116.834 379.376 117.479 378.797C118.13 378.217 118.693 377.599 119.168 376.941C119.65 376.277 120.027 375.597 120.301 374.9C119.923 375.33 119.464 375.662 118.924 375.896C118.383 376.124 117.781 376.238 117.117 376.238C116.264 376.238 115.506 376.053 114.842 375.682C114.184 375.304 113.667 374.786 113.289 374.129C112.918 373.465 112.732 372.706 112.732 371.854C112.732 370.923 112.951 370.096 113.387 369.373C113.823 368.65 114.419 368.084 115.174 367.674C115.936 367.264 116.805 367.059 117.781 367.059C118.797 367.059 119.679 367.29 120.428 367.752C121.183 368.214 121.762 368.865 122.166 369.705C122.576 370.545 122.781 371.531 122.781 372.664C122.781 373.595 122.638 374.507 122.352 375.398C122.072 376.284 121.661 377.13 121.121 377.938C120.581 378.745 119.923 379.493 119.148 380.184C118.374 380.867 117.498 381.473 116.521 382ZM117.713 374.49C118.175 374.49 118.585 374.38 118.943 374.158C119.308 373.937 119.594 373.634 119.803 373.25C120.011 372.859 120.115 372.42 120.115 371.932C120.115 371.437 120.011 370.994 119.803 370.604C119.594 370.206 119.311 369.894 118.953 369.666C118.595 369.432 118.191 369.314 117.742 369.314C117.299 369.314 116.896 369.432 116.531 369.666C116.173 369.894 115.89 370.21 115.682 370.613C115.473 371.017 115.369 371.469 115.369 371.971C115.369 372.459 115.47 372.895 115.672 373.279C115.874 373.657 116.15 373.953 116.502 374.168C116.854 374.383 117.257 374.49 117.713 374.49ZM192.723 382H190.145V369.891L187.605 370.809L186.795 368.758L190.662 367.352H192.723V382ZM200.838 382.293C199.764 382.293 198.833 381.997 198.045 381.404C197.264 380.805 196.661 379.939 196.238 378.807C195.815 377.667 195.604 376.287 195.604 374.666C195.604 373.051 195.815 371.678 196.238 370.545C196.661 369.412 197.264 368.549 198.045 367.957C198.833 367.358 199.764 367.059 200.838 367.059C201.912 367.059 202.84 367.358 203.621 367.957C204.402 368.549 205.005 369.412 205.428 370.545C205.851 371.678 206.062 373.051 206.062 374.666C206.062 376.287 205.851 377.667 205.428 378.807C205.005 379.939 204.402 380.805 203.621 381.404C202.84 381.997 201.912 382.293 200.838 382.293ZM200.838 380.027C201.658 380.027 202.293 379.559 202.742 378.621C203.198 377.684 203.426 376.365 203.426 374.666C203.426 372.973 203.198 371.661 202.742 370.73C202.293 369.793 201.658 369.324 200.838 369.324C200.018 369.324 199.38 369.793 198.924 370.73C198.468 371.661 198.24 372.973 198.24 374.666C198.24 376.365 198.468 377.684 198.924 378.621C199.38 379.559 200.018 380.027 200.838 380.027ZM273.68 382H271.102V369.891L268.562 370.809L267.752 368.758L271.619 367.352H273.68V382ZM282.566 382H279.988V369.891L277.449 370.809L276.639 368.758L280.506 367.352H282.566V382ZM348.68 382H346.102V369.891L343.562 370.809L342.752 368.758L346.619 367.352H348.68V382ZM361.043 382H351.883V380.467C353.055 379.432 354.041 378.51 354.842 377.703C355.649 376.896 356.297 376.167 356.785 375.516C357.28 374.858 357.638 374.249 357.859 373.689C358.081 373.13 358.191 372.586 358.191 372.059C358.191 371.505 358.087 371.023 357.879 370.613C357.677 370.197 357.394 369.874 357.029 369.646C356.665 369.419 356.242 369.305 355.76 369.305C355.2 369.305 354.663 369.464 354.148 369.783C353.641 370.096 353.217 370.532 352.879 371.092L351.541 369.451C352.088 368.696 352.775 368.11 353.602 367.693C354.435 367.27 355.311 367.059 356.229 367.059C357.094 367.059 357.872 367.247 358.562 367.625C359.259 367.996 359.809 368.517 360.213 369.188C360.623 369.858 360.828 370.649 360.828 371.561C360.828 372.231 360.711 372.908 360.477 373.592C360.242 374.275 359.894 374.962 359.432 375.652C358.976 376.342 358.416 377.029 357.752 377.713C357.088 378.396 356.329 379.074 355.477 379.744H361.043V382ZM424.48 382H421.902V369.891L419.363 370.809L418.553 368.758L422.42 367.352H424.48V382ZM426.893 380.691L427.898 378.787C428.426 379.197 428.953 379.51 429.48 379.725C430.008 379.933 430.529 380.037 431.043 380.037C431.557 380.037 432.01 379.939 432.4 379.744C432.798 379.542 433.107 379.266 433.328 378.914C433.556 378.562 433.67 378.156 433.67 377.693C433.67 376.945 433.367 376.362 432.762 375.945C432.156 375.522 431.316 375.311 430.242 375.311H429.666V373.504H430.242C430.828 373.504 431.349 373.406 431.805 373.211C432.26 373.016 432.618 372.749 432.879 372.41C433.139 372.065 433.27 371.674 433.27 371.238C433.27 370.867 433.175 370.538 432.986 370.252C432.798 369.959 432.534 369.731 432.195 369.568C431.863 369.399 431.482 369.314 431.053 369.314C430.623 369.314 430.177 369.409 429.715 369.598C429.259 369.78 428.797 370.05 428.328 370.408L427.176 368.621C427.742 368.12 428.377 367.736 429.08 367.469C429.79 367.195 430.529 367.059 431.297 367.059C432.15 367.059 432.908 367.218 433.572 367.537C434.236 367.856 434.757 368.292 435.135 368.846C435.519 369.399 435.711 370.034 435.711 370.75C435.711 371.551 435.47 372.27 434.988 372.908C434.513 373.546 433.891 374.021 433.123 374.334C434.126 374.594 434.913 375.05 435.486 375.701C436.066 376.346 436.355 377.13 436.355 378.055C436.355 378.868 436.134 379.598 435.691 380.242C435.249 380.88 434.646 381.382 433.885 381.746C433.123 382.111 432.254 382.293 431.277 382.293C430.464 382.293 429.682 382.156 428.934 381.883C428.185 381.609 427.505 381.212 426.893 380.691ZM499.559 382H496.98V369.891L494.441 370.809L493.631 368.758L497.498 367.352H499.559V382ZM511.082 382H508.504V378.846H501.346V376.854L508.514 367.352H511.082V376.59H512.869V378.846H511.082V382ZM503.846 376.59H508.504V370.398L503.846 376.59ZM570.965 382H568.387V369.891L565.848 370.809L565.037 368.758L568.904 367.352H570.965V382ZM573.26 380.457L574.617 378.387C574.884 378.888 575.281 379.288 575.809 379.588C576.336 379.881 576.912 380.027 577.537 380.027C578.11 380.027 578.615 379.907 579.051 379.666C579.487 379.425 579.826 379.09 580.066 378.66C580.314 378.23 580.438 377.736 580.438 377.176C580.438 376.616 580.314 376.121 580.066 375.691C579.819 375.255 579.477 374.917 579.041 374.676C578.605 374.435 578.1 374.314 577.527 374.314C577.117 374.314 576.733 374.383 576.375 374.52C576.017 374.656 575.691 374.855 575.398 375.115L574.129 374.363L574.783 367.352H582.273V369.617H577.137L576.785 373.064C577.267 372.921 577.775 372.85 578.309 372.85C579.233 372.85 580.053 373.045 580.77 373.436C581.486 373.826 582.046 374.367 582.449 375.057C582.859 375.747 583.064 376.538 583.064 377.43C583.064 378.367 582.837 379.204 582.381 379.939C581.925 380.669 581.297 381.245 580.496 381.668C579.695 382.085 578.781 382.293 577.752 382.293C576.88 382.293 576.053 382.133 575.271 381.814C574.49 381.495 573.82 381.043 573.26 380.457Z" fill="#6F6F6F"/>
<path d="M118.445 456H115.867V443.891L113.328 444.809L112.518 442.758L116.385 441.352H118.445V456ZM125.76 456.293C124.744 456.293 123.859 456.062 123.104 455.6C122.355 455.137 121.772 454.486 121.355 453.646C120.945 452.807 120.74 451.82 120.74 450.688C120.74 449.757 120.88 448.848 121.16 447.963C121.447 447.071 121.86 446.221 122.4 445.414C122.941 444.607 123.598 443.861 124.373 443.178C125.148 442.488 126.027 441.879 127.01 441.352L128.191 443.002C127.41 443.451 126.694 443.965 126.043 444.545C125.398 445.124 124.839 445.746 124.363 446.41C123.888 447.068 123.51 447.748 123.23 448.451C123.608 448.028 124.067 447.699 124.607 447.465C125.148 447.23 125.747 447.113 126.404 447.113C127.264 447.113 128.022 447.302 128.68 447.68C129.337 448.051 129.852 448.568 130.223 449.232C130.6 449.89 130.789 450.645 130.789 451.498C130.789 452.429 130.571 453.256 130.135 453.979C129.705 454.695 129.109 455.261 128.348 455.678C127.592 456.088 126.73 456.293 125.76 456.293ZM125.789 454.037C126.238 454.037 126.642 453.92 127 453.686C127.358 453.451 127.638 453.132 127.84 452.729C128.048 452.325 128.152 451.876 128.152 451.381C128.152 450.886 128.051 450.45 127.85 450.072C127.654 449.695 127.381 449.398 127.029 449.184C126.678 448.969 126.274 448.861 125.818 448.861C125.356 448.861 124.943 448.972 124.578 449.193C124.22 449.408 123.937 449.708 123.729 450.092C123.52 450.476 123.416 450.919 123.416 451.42C123.416 451.908 123.52 452.351 123.729 452.748C123.937 453.145 124.22 453.461 124.578 453.695C124.936 453.923 125.34 454.037 125.789 454.037ZM193.758 456H191.18V443.891L188.641 444.809L187.83 442.758L191.697 441.352H193.758V456ZM199.832 456H197.039L202.146 443.617H195.74V441.352H205.174L205.164 443.061L199.832 456ZM272.566 456H269.988V443.891L267.449 444.809L266.639 442.758L270.506 441.352H272.566V456ZM279.9 456.293C278.911 456.293 278.042 456.12 277.293 455.775C276.551 455.43 275.971 454.945 275.555 454.32C275.145 453.689 274.939 452.956 274.939 452.123C274.939 451.186 275.197 450.382 275.711 449.711C276.225 449.034 276.932 448.546 277.83 448.246C277.088 447.96 276.505 447.523 276.082 446.938C275.665 446.345 275.457 445.642 275.457 444.828C275.457 444.066 275.639 443.402 276.004 442.836C276.375 442.27 276.893 441.833 277.557 441.527C278.227 441.215 279.008 441.059 279.9 441.059C280.799 441.059 281.58 441.215 282.244 441.527C282.915 441.833 283.432 442.27 283.797 442.836C284.168 443.402 284.354 444.066 284.354 444.828C284.354 445.635 284.142 446.335 283.719 446.928C283.302 447.52 282.723 447.96 281.98 448.246C282.879 448.539 283.585 449.024 284.1 449.701C284.62 450.378 284.881 451.182 284.881 452.113C284.881 452.947 284.673 453.679 284.256 454.311C283.846 454.942 283.266 455.43 282.518 455.775C281.775 456.12 280.903 456.293 279.9 456.293ZM279.9 447.201C280.48 447.201 280.945 447.012 281.297 446.635C281.655 446.251 281.834 445.756 281.834 445.15C281.834 444.532 281.655 444.034 281.297 443.656C280.945 443.279 280.48 443.09 279.9 443.09C279.327 443.09 278.862 443.279 278.504 443.656C278.152 444.034 277.977 444.532 277.977 445.15C277.977 445.756 278.152 446.251 278.504 446.635C278.862 447.012 279.327 447.201 279.9 447.201ZM279.9 454.184C280.382 454.184 280.802 454.083 281.16 453.881C281.525 453.673 281.805 453.383 282 453.012C282.202 452.641 282.303 452.211 282.303 451.723C282.303 451.234 282.202 450.805 282 450.434C281.805 450.056 281.525 449.766 281.16 449.564C280.802 449.356 280.382 449.252 279.9 449.252C279.432 449.252 279.015 449.356 278.65 449.564C278.292 449.773 278.012 450.062 277.811 450.434C277.615 450.805 277.518 451.234 277.518 451.723C277.518 452.217 277.615 452.65 277.811 453.021C278.012 453.386 278.292 453.673 278.65 453.881C279.015 454.083 279.432 454.184 279.9 454.184ZM347.918 456H345.34V443.891L342.801 444.809L341.99 442.758L345.857 441.352H347.918V456ZM354.295 456L353.104 454.35C353.891 453.894 354.607 453.376 355.252 452.797C355.903 452.217 356.466 451.599 356.941 450.941C357.423 450.277 357.801 449.597 358.074 448.9C357.697 449.33 357.238 449.662 356.697 449.896C356.157 450.124 355.555 450.238 354.891 450.238C354.038 450.238 353.279 450.053 352.615 449.682C351.958 449.304 351.44 448.786 351.062 448.129C350.691 447.465 350.506 446.706 350.506 445.854C350.506 444.923 350.724 444.096 351.16 443.373C351.596 442.65 352.192 442.084 352.947 441.674C353.709 441.264 354.578 441.059 355.555 441.059C356.57 441.059 357.452 441.29 358.201 441.752C358.956 442.214 359.536 442.865 359.939 443.705C360.35 444.545 360.555 445.531 360.555 446.664C360.555 447.595 360.411 448.507 360.125 449.398C359.845 450.284 359.435 451.13 358.895 451.938C358.354 452.745 357.697 453.493 356.922 454.184C356.147 454.867 355.271 455.473 354.295 456ZM355.486 448.49C355.949 448.49 356.359 448.38 356.717 448.158C357.081 447.937 357.368 447.634 357.576 447.25C357.785 446.859 357.889 446.42 357.889 445.932C357.889 445.437 357.785 444.994 357.576 444.604C357.368 444.206 357.085 443.894 356.727 443.666C356.368 443.432 355.965 443.314 355.516 443.314C355.073 443.314 354.669 443.432 354.305 443.666C353.947 443.894 353.663 444.21 353.455 444.613C353.247 445.017 353.143 445.469 353.143 445.971C353.143 446.459 353.243 446.895 353.445 447.279C353.647 447.657 353.924 447.953 354.275 448.168C354.627 448.383 355.031 448.49 355.486 448.49ZM427.879 456H418.719V454.467C419.891 453.432 420.877 452.51 421.678 451.703C422.485 450.896 423.133 450.167 423.621 449.516C424.116 448.858 424.474 448.249 424.695 447.689C424.917 447.13 425.027 446.586 425.027 446.059C425.027 445.505 424.923 445.023 424.715 444.613C424.513 444.197 424.23 443.874 423.865 443.646C423.501 443.419 423.077 443.305 422.596 443.305C422.036 443.305 421.499 443.464 420.984 443.783C420.477 444.096 420.053 444.532 419.715 445.092L418.377 443.451C418.924 442.696 419.611 442.11 420.438 441.693C421.271 441.27 422.146 441.059 423.064 441.059C423.93 441.059 424.708 441.247 425.398 441.625C426.095 441.996 426.645 442.517 427.049 443.188C427.459 443.858 427.664 444.649 427.664 445.561C427.664 446.231 427.547 446.908 427.312 447.592C427.078 448.275 426.73 448.962 426.268 449.652C425.812 450.342 425.252 451.029 424.588 451.713C423.924 452.396 423.165 453.074 422.312 453.744H427.879V456ZM435.057 456.293C433.982 456.293 433.051 455.997 432.264 455.404C431.482 454.805 430.88 453.939 430.457 452.807C430.034 451.667 429.822 450.287 429.822 448.666C429.822 447.051 430.034 445.678 430.457 444.545C430.88 443.412 431.482 442.549 432.264 441.957C433.051 441.358 433.982 441.059 435.057 441.059C436.131 441.059 437.059 441.358 437.84 441.957C438.621 442.549 439.223 443.412 439.646 444.545C440.07 445.678 440.281 447.051 440.281 448.666C440.281 450.287 440.07 451.667 439.646 452.807C439.223 453.939 438.621 454.805 437.84 455.404C437.059 455.997 436.131 456.293 435.057 456.293ZM435.057 454.027C435.877 454.027 436.512 453.559 436.961 452.621C437.417 451.684 437.645 450.365 437.645 448.666C437.645 446.973 437.417 445.661 436.961 444.73C436.512 443.793 435.877 443.324 435.057 443.324C434.236 443.324 433.598 443.793 433.143 444.73C432.687 445.661 432.459 446.973 432.459 448.666C432.459 450.365 432.687 451.684 433.143 452.621C433.598 453.559 434.236 454.027 435.057 454.027ZM502.957 456H493.797V454.467C494.969 453.432 495.955 452.51 496.756 451.703C497.563 450.896 498.211 450.167 498.699 449.516C499.194 448.858 499.552 448.249 499.773 447.689C499.995 447.13 500.105 446.586 500.105 446.059C500.105 445.505 500.001 445.023 499.793 444.613C499.591 444.197 499.308 443.874 498.943 443.646C498.579 443.419 498.156 443.305 497.674 443.305C497.114 443.305 496.577 443.464 496.062 443.783C495.555 444.096 495.132 444.532 494.793 445.092L493.455 443.451C494.002 442.696 494.689 442.11 495.516 441.693C496.349 441.27 497.225 441.059 498.143 441.059C499.008 441.059 499.786 441.247 500.477 441.625C501.173 441.996 501.723 442.517 502.127 443.188C502.537 443.858 502.742 444.649 502.742 445.561C502.742 446.231 502.625 446.908 502.391 447.592C502.156 448.275 501.808 448.962 501.346 449.652C500.89 450.342 500.33 451.029 499.666 451.713C499.002 452.396 498.243 453.074 497.391 453.744H502.957V456ZM510.613 456H508.035V443.891L505.496 444.809L504.686 442.758L508.553 441.352H510.613V456ZM574.109 456H564.949V454.467C566.121 453.432 567.107 452.51 567.908 451.703C568.715 450.896 569.363 450.167 569.852 449.516C570.346 448.858 570.704 448.249 570.926 447.689C571.147 447.13 571.258 446.586 571.258 446.059C571.258 445.505 571.154 445.023 570.945 444.613C570.743 444.197 570.46 443.874 570.096 443.646C569.731 443.419 569.308 443.305 568.826 443.305C568.266 443.305 567.729 443.464 567.215 443.783C566.707 444.096 566.284 444.532 565.945 445.092L564.607 443.451C565.154 442.696 565.841 442.11 566.668 441.693C567.501 441.27 568.377 441.059 569.295 441.059C570.161 441.059 570.939 441.247 571.629 441.625C572.326 441.996 572.876 442.517 573.279 443.188C573.689 443.858 573.895 444.649 573.895 445.561C573.895 446.231 573.777 446.908 573.543 447.592C573.309 448.275 572.96 448.962 572.498 449.652C572.042 450.342 571.482 451.029 570.818 451.713C570.154 452.396 569.396 453.074 568.543 453.744H574.109V456ZM585.242 456H576.082V454.467C577.254 453.432 578.24 452.51 579.041 451.703C579.848 450.896 580.496 450.167 580.984 449.516C581.479 448.858 581.837 448.249 582.059 447.689C582.28 447.13 582.391 446.586 582.391 446.059C582.391 445.505 582.286 445.023 582.078 444.613C581.876 444.197 581.593 443.874 581.229 443.646C580.864 443.419 580.441 443.305 579.959 443.305C579.399 443.305 578.862 443.464 578.348 443.783C577.84 444.096 577.417 444.532 577.078 445.092L575.74 443.451C576.287 442.696 576.974 442.11 577.801 441.693C578.634 441.27 579.51 441.059 580.428 441.059C581.294 441.059 582.072 441.247 582.762 441.625C583.458 441.996 584.008 442.517 584.412 443.188C584.822 443.858 585.027 444.649 585.027 445.561C585.027 446.231 584.91 446.908 584.676 447.592C584.441 448.275 584.093 448.962 583.631 449.652C583.175 450.342 582.615 451.029 581.951 451.713C581.287 452.396 580.529 453.074 579.676 453.744H585.242V456Z" fill="#6F6F6F"/>
<path d="M122.801 530H113.641V528.467C114.812 527.432 115.799 526.51 116.6 525.703C117.407 524.896 118.055 524.167 118.543 523.516C119.038 522.858 119.396 522.249 119.617 521.689C119.839 521.13 119.949 520.586 119.949 520.059C119.949 519.505 119.845 519.023 119.637 518.613C119.435 518.197 119.152 517.874 118.787 517.646C118.423 517.419 117.999 517.305 117.518 517.305C116.958 517.305 116.421 517.464 115.906 517.783C115.398 518.096 114.975 518.532 114.637 519.092L113.299 517.451C113.846 516.696 114.533 516.11 115.359 515.693C116.193 515.27 117.068 515.059 117.986 515.059C118.852 515.059 119.63 515.247 120.32 515.625C121.017 515.996 121.567 516.517 121.971 517.188C122.381 517.858 122.586 518.649 122.586 519.561C122.586 520.231 122.469 520.908 122.234 521.592C122 522.275 121.652 522.962 121.189 523.652C120.734 524.342 120.174 525.029 119.51 525.713C118.846 526.396 118.087 527.074 117.234 527.744H122.801V530ZM123.982 528.691L124.988 526.787C125.516 527.197 126.043 527.51 126.57 527.725C127.098 527.933 127.618 528.037 128.133 528.037C128.647 528.037 129.1 527.939 129.49 527.744C129.887 527.542 130.197 527.266 130.418 526.914C130.646 526.562 130.76 526.156 130.76 525.693C130.76 524.945 130.457 524.362 129.852 523.945C129.246 523.522 128.406 523.311 127.332 523.311H126.756V521.504H127.332C127.918 521.504 128.439 521.406 128.895 521.211C129.35 521.016 129.708 520.749 129.969 520.41C130.229 520.065 130.359 519.674 130.359 519.238C130.359 518.867 130.265 518.538 130.076 518.252C129.887 517.959 129.624 517.731 129.285 517.568C128.953 517.399 128.572 517.314 128.143 517.314C127.713 517.314 127.267 517.409 126.805 517.598C126.349 517.78 125.887 518.05 125.418 518.408L124.266 516.621C124.832 516.12 125.467 515.736 126.17 515.469C126.88 515.195 127.618 515.059 128.387 515.059C129.24 515.059 129.998 515.218 130.662 515.537C131.326 515.856 131.847 516.292 132.225 516.846C132.609 517.399 132.801 518.034 132.801 518.75C132.801 519.551 132.56 520.27 132.078 520.908C131.603 521.546 130.981 522.021 130.213 522.334C131.215 522.594 132.003 523.05 132.576 523.701C133.156 524.346 133.445 525.13 133.445 526.055C133.445 526.868 133.224 527.598 132.781 528.242C132.339 528.88 131.736 529.382 130.975 529.746C130.213 530.111 129.344 530.293 128.367 530.293C127.553 530.293 126.772 530.156 126.023 529.883C125.275 529.609 124.594 529.212 123.982 528.691ZM196.355 530H187.195V528.467C188.367 527.432 189.354 526.51 190.154 525.703C190.962 524.896 191.609 524.167 192.098 523.516C192.592 522.858 192.951 522.249 193.172 521.689C193.393 521.13 193.504 520.586 193.504 520.059C193.504 519.505 193.4 519.023 193.191 518.613C192.99 518.197 192.706 517.874 192.342 517.646C191.977 517.419 191.554 517.305 191.072 517.305C190.512 517.305 189.975 517.464 189.461 517.783C188.953 518.096 188.53 518.532 188.191 519.092L186.854 517.451C187.4 516.696 188.087 516.11 188.914 515.693C189.747 515.27 190.623 515.059 191.541 515.059C192.407 515.059 193.185 515.247 193.875 515.625C194.572 515.996 195.122 516.517 195.525 517.188C195.936 517.858 196.141 518.649 196.141 519.561C196.141 520.231 196.023 520.908 195.789 521.592C195.555 522.275 195.206 522.962 194.744 523.652C194.288 524.342 193.729 525.029 193.064 525.713C192.4 526.396 191.642 527.074 190.789 527.744H196.355V530ZM207.234 530H204.656V526.846H197.498V524.854L204.666 515.352H207.234V524.59H209.021V526.846H207.234V530ZM199.998 524.59H204.656V518.398L199.998 524.59ZM276.121 530H266.961V528.467C268.133 527.432 269.119 526.51 269.92 525.703C270.727 524.896 271.375 524.167 271.863 523.516C272.358 522.858 272.716 522.249 272.938 521.689C273.159 521.13 273.27 520.586 273.27 520.059C273.27 519.505 273.165 519.023 272.957 518.613C272.755 518.197 272.472 517.874 272.107 517.646C271.743 517.419 271.32 517.305 270.838 517.305C270.278 517.305 269.741 517.464 269.227 517.783C268.719 518.096 268.296 518.532 267.957 519.092L266.619 517.451C267.166 516.696 267.853 516.11 268.68 515.693C269.513 515.27 270.389 515.059 271.307 515.059C272.173 515.059 272.951 515.247 273.641 515.625C274.337 515.996 274.887 516.517 275.291 517.188C275.701 517.858 275.906 518.649 275.906 519.561C275.906 520.231 275.789 520.908 275.555 521.592C275.32 522.275 274.972 522.962 274.51 523.652C274.054 524.342 273.494 525.029 272.83 525.713C272.166 526.396 271.408 527.074 270.555 527.744H276.121V530ZM278.064 528.457L279.422 526.387C279.689 526.888 280.086 527.288 280.613 527.588C281.141 527.881 281.717 528.027 282.342 528.027C282.915 528.027 283.419 527.907 283.855 527.666C284.292 527.425 284.63 527.09 284.871 526.66C285.118 526.23 285.242 525.736 285.242 525.176C285.242 524.616 285.118 524.121 284.871 523.691C284.624 523.255 284.282 522.917 283.846 522.676C283.41 522.435 282.905 522.314 282.332 522.314C281.922 522.314 281.538 522.383 281.18 522.52C280.822 522.656 280.496 522.855 280.203 523.115L278.934 522.363L279.588 515.352H287.078V517.617H281.941L281.59 521.064C282.072 520.921 282.579 520.85 283.113 520.85C284.038 520.85 284.858 521.045 285.574 521.436C286.29 521.826 286.85 522.367 287.254 523.057C287.664 523.747 287.869 524.538 287.869 525.43C287.869 526.367 287.641 527.204 287.186 527.939C286.73 528.669 286.102 529.245 285.301 529.668C284.5 530.085 283.585 530.293 282.557 530.293C281.684 530.293 280.857 530.133 280.076 529.814C279.295 529.495 278.624 529.043 278.064 528.457ZM350.535 530H341.375V528.467C342.547 527.432 343.533 526.51 344.334 525.703C345.141 524.896 345.789 524.167 346.277 523.516C346.772 522.858 347.13 522.249 347.352 521.689C347.573 521.13 347.684 520.586 347.684 520.059C347.684 519.505 347.579 519.023 347.371 518.613C347.169 518.197 346.886 517.874 346.521 517.646C346.157 517.419 345.734 517.305 345.252 517.305C344.692 517.305 344.155 517.464 343.641 517.783C343.133 518.096 342.71 518.532 342.371 519.092L341.033 517.451C341.58 516.696 342.267 516.11 343.094 515.693C343.927 515.27 344.803 515.059 345.721 515.059C346.587 515.059 347.365 515.247 348.055 515.625C348.751 515.996 349.301 516.517 349.705 517.188C350.115 517.858 350.32 518.649 350.32 519.561C350.32 520.231 350.203 520.908 349.969 521.592C349.734 522.275 349.386 522.962 348.924 523.652C348.468 524.342 347.908 525.029 347.244 525.713C346.58 526.396 345.822 527.074 344.969 527.744H350.535V530ZM357.498 530.293C356.482 530.293 355.597 530.062 354.842 529.6C354.093 529.137 353.51 528.486 353.094 527.646C352.684 526.807 352.479 525.82 352.479 524.688C352.479 523.757 352.618 522.848 352.898 521.963C353.185 521.071 353.598 520.221 354.139 519.414C354.679 518.607 355.337 517.861 356.111 517.178C356.886 516.488 357.765 515.879 358.748 515.352L359.93 517.002C359.148 517.451 358.432 517.965 357.781 518.545C357.137 519.124 356.577 519.746 356.102 520.41C355.626 521.068 355.249 521.748 354.969 522.451C355.346 522.028 355.805 521.699 356.346 521.465C356.886 521.23 357.485 521.113 358.143 521.113C359.002 521.113 359.76 521.302 360.418 521.68C361.076 522.051 361.59 522.568 361.961 523.232C362.339 523.89 362.527 524.645 362.527 525.498C362.527 526.429 362.309 527.256 361.873 527.979C361.443 528.695 360.848 529.261 360.086 529.678C359.331 530.088 358.468 530.293 357.498 530.293ZM357.527 528.037C357.977 528.037 358.38 527.92 358.738 527.686C359.096 527.451 359.376 527.132 359.578 526.729C359.786 526.325 359.891 525.876 359.891 525.381C359.891 524.886 359.79 524.45 359.588 524.072C359.393 523.695 359.119 523.398 358.768 523.184C358.416 522.969 358.012 522.861 357.557 522.861C357.094 522.861 356.681 522.972 356.316 523.193C355.958 523.408 355.675 523.708 355.467 524.092C355.258 524.476 355.154 524.919 355.154 525.42C355.154 525.908 355.258 526.351 355.467 526.748C355.675 527.145 355.958 527.461 356.316 527.695C356.674 527.923 357.078 528.037 357.527 528.037ZM429.852 530H420.691V528.467C421.863 527.432 422.85 526.51 423.65 525.703C424.458 524.896 425.105 524.167 425.594 523.516C426.089 522.858 426.447 522.249 426.668 521.689C426.889 521.13 427 520.586 427 520.059C427 519.505 426.896 519.023 426.688 518.613C426.486 518.197 426.202 517.874 425.838 517.646C425.473 517.419 425.05 517.305 424.568 517.305C424.008 517.305 423.471 517.464 422.957 517.783C422.449 518.096 422.026 518.532 421.688 519.092L420.35 517.451C420.896 516.696 421.583 516.11 422.41 515.693C423.243 515.27 424.119 515.059 425.037 515.059C425.903 515.059 426.681 515.247 427.371 515.625C428.068 515.996 428.618 516.517 429.021 517.188C429.432 517.858 429.637 518.649 429.637 519.561C429.637 520.231 429.52 520.908 429.285 521.592C429.051 522.275 428.702 522.962 428.24 523.652C427.785 524.342 427.225 525.029 426.561 525.713C425.896 526.396 425.138 527.074 424.285 527.744H429.852V530ZM435.086 530H432.293L437.4 517.617H430.994V515.352H440.428L440.418 517.061L435.086 530ZM502.879 530H493.719V528.467C494.891 527.432 495.877 526.51 496.678 525.703C497.485 524.896 498.133 524.167 498.621 523.516C499.116 522.858 499.474 522.249 499.695 521.689C499.917 521.13 500.027 520.586 500.027 520.059C500.027 519.505 499.923 519.023 499.715 518.613C499.513 518.197 499.23 517.874 498.865 517.646C498.501 517.419 498.077 517.305 497.596 517.305C497.036 517.305 496.499 517.464 495.984 517.783C495.477 518.096 495.053 518.532 494.715 519.092L493.377 517.451C493.924 516.696 494.611 516.11 495.438 515.693C496.271 515.27 497.146 515.059 498.064 515.059C498.93 515.059 499.708 515.247 500.398 515.625C501.095 515.996 501.645 516.517 502.049 517.188C502.459 517.858 502.664 518.649 502.664 519.561C502.664 520.231 502.547 520.908 502.312 521.592C502.078 522.275 501.73 522.962 501.268 523.652C500.812 524.342 500.252 525.029 499.588 525.713C498.924 526.396 498.165 527.074 497.312 527.744H502.879V530ZM509.861 530.293C508.872 530.293 508.003 530.12 507.254 529.775C506.512 529.43 505.932 528.945 505.516 528.32C505.105 527.689 504.9 526.956 504.9 526.123C504.9 525.186 505.158 524.382 505.672 523.711C506.186 523.034 506.893 522.546 507.791 522.246C507.049 521.96 506.466 521.523 506.043 520.938C505.626 520.345 505.418 519.642 505.418 518.828C505.418 518.066 505.6 517.402 505.965 516.836C506.336 516.27 506.854 515.833 507.518 515.527C508.188 515.215 508.969 515.059 509.861 515.059C510.76 515.059 511.541 515.215 512.205 515.527C512.876 515.833 513.393 516.27 513.758 516.836C514.129 517.402 514.314 518.066 514.314 518.828C514.314 519.635 514.103 520.335 513.68 520.928C513.263 521.52 512.684 521.96 511.941 522.246C512.84 522.539 513.546 523.024 514.061 523.701C514.581 524.378 514.842 525.182 514.842 526.113C514.842 526.947 514.633 527.679 514.217 528.311C513.807 528.942 513.227 529.43 512.479 529.775C511.736 530.12 510.864 530.293 509.861 530.293ZM509.861 521.201C510.441 521.201 510.906 521.012 511.258 520.635C511.616 520.251 511.795 519.756 511.795 519.15C511.795 518.532 511.616 518.034 511.258 517.656C510.906 517.279 510.441 517.09 509.861 517.09C509.288 517.09 508.823 517.279 508.465 517.656C508.113 518.034 507.938 518.532 507.938 519.15C507.938 519.756 508.113 520.251 508.465 520.635C508.823 521.012 509.288 521.201 509.861 521.201ZM509.861 528.184C510.343 528.184 510.763 528.083 511.121 527.881C511.486 527.673 511.766 527.383 511.961 527.012C512.163 526.641 512.264 526.211 512.264 525.723C512.264 525.234 512.163 524.805 511.961 524.434C511.766 524.056 511.486 523.766 511.121 523.564C510.763 523.356 510.343 523.252 509.861 523.252C509.393 523.252 508.976 523.356 508.611 523.564C508.253 523.773 507.973 524.062 507.771 524.434C507.576 524.805 507.479 525.234 507.479 525.723C507.479 526.217 507.576 526.65 507.771 527.021C507.973 527.386 508.253 527.673 508.611 527.881C508.976 528.083 509.393 528.184 509.861 528.184ZM572.938 530H563.777V528.467C564.949 527.432 565.936 526.51 566.736 525.703C567.544 524.896 568.191 524.167 568.68 523.516C569.174 522.858 569.533 522.249 569.754 521.689C569.975 521.13 570.086 520.586 570.086 520.059C570.086 519.505 569.982 519.023 569.773 518.613C569.572 518.197 569.288 517.874 568.924 517.646C568.559 517.419 568.136 517.305 567.654 517.305C567.094 517.305 566.557 517.464 566.043 517.783C565.535 518.096 565.112 518.532 564.773 519.092L563.436 517.451C563.982 516.696 564.669 516.11 565.496 515.693C566.329 515.27 567.205 515.059 568.123 515.059C568.989 515.059 569.767 515.247 570.457 515.625C571.154 515.996 571.704 516.517 572.107 517.188C572.518 517.858 572.723 518.649 572.723 519.561C572.723 520.231 572.605 520.908 572.371 521.592C572.137 522.275 571.788 522.962 571.326 523.652C570.87 524.342 570.311 525.029 569.646 525.713C568.982 526.396 568.224 527.074 567.371 527.744H572.938V530ZM578.67 530L577.479 528.35C578.266 527.894 578.982 527.376 579.627 526.797C580.278 526.217 580.841 525.599 581.316 524.941C581.798 524.277 582.176 523.597 582.449 522.9C582.072 523.33 581.613 523.662 581.072 523.896C580.532 524.124 579.93 524.238 579.266 524.238C578.413 524.238 577.654 524.053 576.99 523.682C576.333 523.304 575.815 522.786 575.438 522.129C575.066 521.465 574.881 520.706 574.881 519.854C574.881 518.923 575.099 518.096 575.535 517.373C575.971 516.65 576.567 516.084 577.322 515.674C578.084 515.264 578.953 515.059 579.93 515.059C580.945 515.059 581.827 515.29 582.576 515.752C583.331 516.214 583.911 516.865 584.314 517.705C584.725 518.545 584.93 519.531 584.93 520.664C584.93 521.595 584.786 522.507 584.5 523.398C584.22 524.284 583.81 525.13 583.27 525.938C582.729 526.745 582.072 527.493 581.297 528.184C580.522 528.867 579.646 529.473 578.67 530ZM579.861 522.49C580.324 522.49 580.734 522.38 581.092 522.158C581.456 521.937 581.743 521.634 581.951 521.25C582.16 520.859 582.264 520.42 582.264 519.932C582.264 519.437 582.16 518.994 581.951 518.604C581.743 518.206 581.46 517.894 581.102 517.666C580.743 517.432 580.34 517.314 579.891 517.314C579.448 517.314 579.044 517.432 578.68 517.666C578.322 517.894 578.038 518.21 577.83 518.613C577.622 519.017 577.518 519.469 577.518 519.971C577.518 520.459 577.618 520.895 577.82 521.279C578.022 521.657 578.299 521.953 578.65 522.168C579.002 522.383 579.406 522.49 579.861 522.49Z" fill="#6F6F6F"/>
<path d="M112.85 602.691L113.855 600.787C114.383 601.197 114.91 601.51 115.438 601.725C115.965 601.933 116.486 602.037 117 602.037C117.514 602.037 117.967 601.939 118.357 601.744C118.755 601.542 119.064 601.266 119.285 600.914C119.513 600.562 119.627 600.156 119.627 599.693C119.627 598.945 119.324 598.362 118.719 597.945C118.113 597.522 117.273 597.311 116.199 597.311H115.623V595.504H116.199C116.785 595.504 117.306 595.406 117.762 595.211C118.217 595.016 118.576 594.749 118.836 594.41C119.096 594.065 119.227 593.674 119.227 593.238C119.227 592.867 119.132 592.538 118.943 592.252C118.755 591.959 118.491 591.731 118.152 591.568C117.82 591.399 117.439 591.314 117.01 591.314C116.58 591.314 116.134 591.409 115.672 591.598C115.216 591.78 114.754 592.05 114.285 592.408L113.133 590.621C113.699 590.12 114.334 589.736 115.037 589.469C115.747 589.195 116.486 589.059 117.254 589.059C118.107 589.059 118.865 589.218 119.529 589.537C120.193 589.856 120.714 590.292 121.092 590.846C121.476 591.399 121.668 592.034 121.668 592.75C121.668 593.551 121.427 594.27 120.945 594.908C120.47 595.546 119.848 596.021 119.08 596.334C120.083 596.594 120.87 597.05 121.443 597.701C122.023 598.346 122.312 599.13 122.312 600.055C122.312 600.868 122.091 601.598 121.648 602.242C121.206 602.88 120.604 603.382 119.842 603.746C119.08 604.111 118.211 604.293 117.234 604.293C116.421 604.293 115.639 604.156 114.891 603.883C114.142 603.609 113.462 603.212 112.85 602.691ZM129.549 604.293C128.475 604.293 127.544 603.997 126.756 603.404C125.975 602.805 125.372 601.939 124.949 600.807C124.526 599.667 124.314 598.287 124.314 596.666C124.314 595.051 124.526 593.678 124.949 592.545C125.372 591.412 125.975 590.549 126.756 589.957C127.544 589.358 128.475 589.059 129.549 589.059C130.623 589.059 131.551 589.358 132.332 589.957C133.113 590.549 133.715 591.412 134.139 592.545C134.562 593.678 134.773 595.051 134.773 596.666C134.773 598.287 134.562 599.667 134.139 600.807C133.715 601.939 133.113 602.805 132.332 603.404C131.551 603.997 130.623 604.293 129.549 604.293ZM129.549 602.027C130.369 602.027 131.004 601.559 131.453 600.621C131.909 599.684 132.137 598.365 132.137 596.666C132.137 594.973 131.909 593.661 131.453 592.73C131.004 591.793 130.369 591.324 129.549 591.324C128.729 591.324 128.09 591.793 127.635 592.73C127.179 593.661 126.951 594.973 126.951 596.666C126.951 598.365 127.179 599.684 127.635 600.621C128.09 601.559 128.729 602.027 129.549 602.027Z" fill="#6F6F6F"/>
</svg>
