<svg width="400" height="300" viewBox="0 0 400 300" fill="none" xmlns="http://www.w3.org/2000/svg">
<path d="M0 30C0 13.4315 13.4315 0 30 0H370C386.569 0 400 13.4315 400 30V270C400 286.569 386.569 300 370 300H30C13.4315 300 0 286.569 0 270V30Z" fill="white" fill-opacity="0.5"/>
<path d="M44.7186 26.586H47.6446V38.378H44.7186V26.586ZM46.8306 31.338H50.3506V33.736H46.8306V31.338ZM38.8886 27.906H42.0346C42.0346 33.384 38.6466 37.19 32.6406 38.862L31.4526 36.53C36.3586 35.188 38.8886 32.526 38.8886 29.38V27.906ZM32.4206 27.906H40.6706V30.26H32.4206V27.906ZM41.0446 38.642C45.1586 38.642 47.8646 40.248 47.8646 42.8C47.8646 45.374 45.1586 46.98 41.0446 46.98C36.9306 46.98 34.1806 45.374 34.1806 42.8C34.1806 40.248 36.9306 38.642 41.0446 38.642ZM41.0446 40.908C38.5586 40.908 37.0846 41.568 37.0846 42.8C37.0846 44.054 38.5586 44.714 41.0446 44.714C43.5306 44.714 45.0046 44.054 45.0046 42.8C45.0046 41.568 43.5306 40.908 41.0446 40.908ZM57.1468 37.036H60.0728V41.502H57.1468V37.036ZM66.0788 26.586H69.0048V42.008H66.0788V26.586ZM54.3308 44.274H69.4448V46.606H54.3308V44.274ZM54.3308 40.556H57.2568V44.89H54.3308V40.556ZM52.1308 37.916L51.7788 35.584C55.4968 35.584 60.4688 35.54 64.7368 34.99L64.9128 37.08C60.5788 37.806 55.8048 37.916 52.1308 37.916ZM62.2288 38.422H66.7168V40.424H62.2288V38.422ZM58.3348 27.29C61.3048 27.29 63.3948 28.764 63.3948 30.92C63.3948 33.098 61.3048 34.55 58.3348 34.55C55.3428 34.55 53.2528 33.098 53.2528 30.92C53.2528 28.764 55.3428 27.29 58.3348 27.29ZM58.3348 29.424C56.9708 29.424 56.0248 29.93 56.0248 30.92C56.0248 31.91 56.9708 32.416 58.3348 32.416C59.6768 32.416 60.6228 31.91 60.6228 30.92C60.6228 29.93 59.6768 29.424 58.3348 29.424ZM74.2391 35.672H88.5611V38.004H74.2391V35.672ZM72.1051 42.272H90.5411V44.67H72.1051V42.272ZM79.8271 36.728H82.7531V43.042H79.8271V36.728ZM74.2391 27.972H88.4071V30.326H77.1651V36.684H74.2391V27.972ZM103.068 28.3984V48.3281H97.9355V46.4766H100.834V30.25H97.9355V28.3984H103.068Z" fill="black"/>
<path d="M38.024 92.132H39.518V101.87H38.024V92.132ZM39.104 96.326H41.93V97.586H39.104V96.326ZM33.524 93.32H35.126C35.126 97.496 32.228 100.538 27.53 101.924L26.9 100.718C31.04 99.494 33.524 97.046 33.524 94.004V93.32ZM27.62 93.32H34.37V94.562H27.62V93.32ZM34.424 102.068C37.646 102.068 39.698 103.256 39.698 105.218C39.698 107.18 37.646 108.368 34.424 108.368C31.184 108.368 29.114 107.18 29.114 105.218C29.114 103.256 31.184 102.068 34.424 102.068ZM34.424 103.256C32.084 103.256 30.59 103.994 30.59 105.218C30.59 106.442 32.084 107.18 34.424 107.18C36.764 107.18 38.258 106.442 38.258 105.218C38.258 103.994 36.764 103.256 34.424 103.256ZM48.0666 100.322H49.5606V103.94H48.0666V100.322ZM55.2846 92.132H56.7786V104.516H55.2846V92.132ZM45.6726 106.82H57.1746V108.044H45.6726V106.82ZM45.6726 103.31H47.1666V107.162H45.6726V103.31ZM43.5666 100.88L43.3686 99.656C46.3746 99.656 50.4066 99.62 53.8626 99.17L53.9706 100.268C50.4606 100.826 46.5186 100.88 43.5666 100.88ZM51.9726 101.744H55.6626V102.842H51.9726V101.744ZM48.6606 92.798C51.0366 92.798 52.6566 93.914 52.6566 95.624C52.6566 97.352 51.0366 98.468 48.6606 98.468C46.2666 98.468 44.6466 97.352 44.6466 95.624C44.6466 93.914 46.2666 92.798 48.6606 92.798ZM48.6606 93.914C47.1306 93.914 46.0686 94.58 46.0686 95.624C46.0686 96.668 47.1306 97.334 48.6606 97.334C50.1726 97.334 51.2346 96.668 51.2346 95.624C51.2346 94.58 50.1726 93.914 48.6606 93.914ZM61.8712 99.728H73.0492V100.952H61.8712V99.728ZM60.0172 105.11H74.7592V106.37H60.0172V105.11ZM66.6052 100.25H68.0992V105.614H66.6052V100.25ZM61.8712 93.428H72.8872V94.652H63.3652V100.268H61.8712V93.428ZM88.6655 95.75H93.5795V96.992H88.6655V95.75ZM88.6655 100.898H93.5795V102.14H88.6655V100.898ZM85.6775 93.374C88.0355 93.374 89.7275 95.588 89.7275 99.044C89.7275 102.518 88.0355 104.732 85.6775 104.732C83.3015 104.732 81.6275 102.518 81.6275 99.044C81.6275 95.588 83.3015 93.374 85.6775 93.374ZM85.6775 94.724C84.1115 94.724 83.0315 96.416 83.0315 99.044C83.0315 101.69 84.1115 103.418 85.6775 103.418C87.2435 103.418 88.3235 101.69 88.3235 99.044C88.3235 96.416 87.2435 94.724 85.6775 94.724ZM93.2555 92.114H94.7315V108.422H93.2555V92.114ZM110.174 92.132H111.596V102.428H110.174V92.132ZM107.528 96.542H110.606V97.784H107.528V96.542ZM106.7 92.456H108.104V101.852H106.7V92.456ZM97.808 94.076H106.052V95.264H97.808V94.076ZM101.948 96.092C103.982 96.092 105.404 97.208 105.404 98.882C105.404 100.574 103.982 101.672 101.948 101.672C99.896 101.672 98.474 100.574 98.474 98.882C98.474 97.208 99.896 96.092 101.948 96.092ZM101.948 97.208C100.67 97.208 99.806 97.874 99.806 98.882C99.806 99.908 100.67 100.556 101.948 100.556C103.208 100.556 104.072 99.908 104.072 98.882C104.072 97.874 103.208 97.208 101.948 97.208ZM101.21 92.258H102.668V94.742H101.21V92.258ZM106.268 102.716C109.652 102.716 111.686 103.724 111.686 105.542C111.686 107.342 109.652 108.368 106.268 108.368C102.848 108.368 100.832 107.342 100.832 105.542C100.832 103.724 102.848 102.716 106.268 102.716ZM106.268 103.868C103.766 103.868 102.308 104.462 102.308 105.542C102.308 106.622 103.766 107.234 106.268 107.234C108.734 107.234 110.21 106.622 110.21 105.542C110.21 104.462 108.734 103.868 106.268 103.868ZM120.57 92.618H132.522V93.788H120.57V92.618ZM120.642 96.884H132.45V98.036H120.642V96.884ZM123.036 93.068H124.53V97.64H123.036V93.068ZM128.58 93.068H130.056V97.64H128.58V93.068ZM119.202 99.386H133.908V100.592H119.202V99.386ZM120.984 102.014H132.036V105.578H122.496V107.54H121.02V104.516H130.56V103.13H120.984V102.014ZM121.02 107.09H132.522V108.224H121.02V107.09ZM136.301 103.274H137.381C139.361 103.274 141.161 103.202 143.357 102.824L143.483 104.066C141.233 104.462 139.397 104.516 137.381 104.516H136.301V103.274ZM136.265 93.896H142.367V99.62H137.759V103.742H136.301V98.396H140.909V95.12H136.265V93.896ZM148.145 92.132H149.585V108.404H148.145V92.132ZM145.391 98.558H148.523V99.782H145.391V98.558ZM144.455 92.492H145.859V107.576H144.455V92.492ZM164.254 92.132H165.748V108.44H164.254V92.132ZM159.25 97.496H164.74V98.72H159.25V97.496ZM153.22 93.95H154.696V104.03H153.22V93.95ZM153.22 103.238H154.48C157 103.238 159.25 103.094 161.752 102.572L161.932 103.832C159.34 104.336 157.054 104.498 154.48 104.498H153.22V103.238ZM176.454 93.9091L176.288 103.235H174.518L174.351 93.9091H176.454ZM175.406 107.121C175.052 107.121 174.75 106.998 174.498 106.751C174.247 106.499 174.123 106.197 174.128 105.843C174.123 105.494 174.247 105.195 174.498 104.948C174.75 104.697 175.052 104.571 175.406 104.571C175.751 104.571 176.05 104.697 176.301 104.948C176.552 105.195 176.68 105.494 176.684 105.843C176.68 106.077 176.618 106.293 176.499 106.489C176.384 106.68 176.231 106.834 176.039 106.949C175.847 107.064 175.636 107.121 175.406 107.121ZM27.0355 142V140.543C27.0355 140.138 27.1143 139.729 27.272 139.315C27.4339 138.898 27.6428 138.51 27.8984 138.152C28.1584 137.79 28.4268 137.491 28.7038 137.257L30.0334 137.986C29.8033 138.361 29.62 138.753 29.4837 139.162C29.3473 139.567 29.2813 140.025 29.2855 140.536V142H27.0355ZM30.2443 142V140.543C30.2443 140.138 30.3232 139.729 30.4808 139.315C30.6428 138.898 30.8516 138.51 31.1072 138.152C31.3672 137.79 31.6357 137.491 31.9126 137.257L33.2422 137.986C33.0121 138.361 32.8288 138.753 32.6925 139.162C32.5561 139.567 32.4901 140.025 32.4943 140.536V142H30.2443ZM38.3038 138.562H40.1938V140.434C40.1938 144.196 38.6098 148.03 35.5498 149.47L34.1998 147.58C36.9538 146.284 38.3038 143.17 38.3038 140.434V138.562ZM38.8078 138.562H40.6978V140.434C40.6978 142.954 41.9938 145.906 44.7298 147.166L43.4158 149.056C40.3558 147.634 38.8078 143.98 38.8078 140.434V138.562ZM34.8478 137.536H43.9918V139.498H34.8478V137.536ZM45.2158 135.934H47.6278V152.602H45.2158V135.934ZM47.0878 142.288H50.0398V144.268H47.0878V142.288ZM58.6604 138.256H63.5564V140.164H58.6604V138.256ZM58.6604 142.306H63.5564V144.214H58.6604V142.306ZM62.6744 135.952H65.0684V148.138H62.6744V135.952ZM54.0704 150.406H65.4464V152.314H54.0704V150.406ZM54.0704 146.932H56.4644V151.396H54.0704V146.932ZM55.7264 136.924C58.1924 136.924 60.1184 138.724 60.1184 141.244C60.1184 143.728 58.1924 145.546 55.7264 145.546C53.2424 145.546 51.3164 143.728 51.3164 141.244C51.3164 138.724 53.2424 136.924 55.7264 136.924ZM55.7264 139.03C54.5024 139.03 53.6024 139.858 53.6024 141.244C53.6024 142.63 54.5024 143.458 55.7264 143.458C56.9324 143.458 57.8504 142.63 57.8504 141.244C57.8504 139.858 56.9324 139.03 55.7264 139.03ZM68.379 137.59H75.561V139.48H68.379V137.59ZM70.521 142.36H72.879V148.012H70.521V142.36ZM74.607 137.59H76.965V138.94C76.965 140.56 76.965 142.576 76.515 145.348L74.175 145.132C74.607 142.468 74.607 140.542 74.607 138.94V137.59ZM78.387 135.934H80.781V152.602H78.387V135.934ZM80.079 142.63H83.013V144.61H80.079V142.63ZM67.749 149.236L67.533 147.31C70.467 147.31 74.355 147.256 77.631 146.842L77.757 148.588C74.391 149.164 70.647 149.236 67.749 149.236ZM88.5888 137.086H96.4728V144.79H88.5888V137.086ZM94.1148 138.976H90.9468V142.9H94.1148V138.976ZM98.8308 135.934H101.225V146.914H98.8308V135.934ZM100.559 140.092H103.439V142.036H100.559V140.092ZM94.7268 146.158H96.7788V146.59C96.7788 149.542 94.5288 151.918 90.4428 152.548L89.5248 150.676C93.0888 150.208 94.7268 148.39 94.7268 146.59V146.158ZM95.0688 146.158H97.1028V146.59C97.1028 148.39 98.7588 150.208 102.305 150.676L101.405 152.548C97.3188 151.918 95.0688 149.542 95.0688 146.59V146.158ZM112.203 136.168C116.001 136.168 118.233 137.176 118.233 139.012C118.233 140.848 116.001 141.856 112.203 141.856C108.387 141.856 106.173 140.848 106.173 139.012C106.173 137.176 108.387 136.168 112.203 136.168ZM112.203 137.914C109.791 137.914 108.657 138.274 108.657 139.012C108.657 139.786 109.791 140.11 112.203 140.11C114.615 140.11 115.749 139.786 115.749 139.012C115.749 138.274 114.615 137.914 112.203 137.914ZM104.661 142.63H119.727V144.52H104.661V142.63ZM106.389 145.456H117.909V149.74H108.765V151.216H106.407V148.084H115.551V147.238H106.389V145.456ZM106.407 150.694H118.341V152.494H106.407V150.694ZM125.573 137.302H133.511V145.348H125.573V137.302ZM131.153 139.192H127.931V143.458H131.153V139.192ZM135.815 135.934H138.209V148.084H135.815V135.934ZM137.525 140.74H140.423V142.702H137.525V140.74ZM127.463 150.406H138.803V152.314H127.463V150.406ZM127.463 146.896H129.857V151.36H127.463V146.896ZM154.084 142.234H157.018V144.196H154.084V142.234ZM152.302 135.916H154.714V152.584H152.302V135.916ZM142.15 137.518H144.544V147.868H142.15V137.518ZM142.15 146.536H143.59C145.966 146.536 148.54 146.374 151.222 145.834L151.474 147.796C148.72 148.372 146.038 148.516 143.59 148.516H142.15V146.536ZM160.076 140.434H171.632V142.324H160.076V140.434ZM158.204 144.052H173.306V145.96H158.204V144.052ZM160.076 136.528H162.452V141.37H160.076V136.528ZM159.914 150.334H171.722V152.242H159.914V150.334ZM159.914 147.292H162.308V150.838H159.914V147.292ZM186.082 139.336H190.618V141.262H186.082V139.336ZM186.082 144.502H190.618V146.428H186.082V144.502ZM183.202 137.086C185.686 137.086 187.504 139.39 187.504 143.026C187.504 146.698 185.686 149.002 183.202 149.002C180.7 149.002 178.9 146.698 178.9 143.026C178.9 139.39 180.7 137.086 183.202 137.086ZM183.202 139.264C181.996 139.264 181.168 140.578 181.168 143.026C181.168 145.51 181.996 146.842 183.202 146.842C184.426 146.842 185.236 145.51 185.236 143.026C185.236 140.578 184.426 139.264 183.202 139.264ZM190.24 135.916H192.616V152.638H190.24V135.916ZM207.123 135.934H209.391V146.374H207.123V135.934ZM205.089 140.038H207.753V141.982H205.089V140.038ZM203.667 136.258H205.899V145.834H203.667V136.258ZM195.117 137.644H203.199V139.48H195.117V137.644ZM199.185 140.02C201.273 140.02 202.785 141.208 202.785 142.936C202.785 144.664 201.273 145.834 199.185 145.834C197.097 145.834 195.585 144.664 195.585 142.936C195.585 141.208 197.097 140.02 199.185 140.02ZM199.185 141.73C198.303 141.73 197.709 142.162 197.709 142.936C197.709 143.71 198.303 144.142 199.185 144.142C200.049 144.142 200.643 143.71 200.643 142.936C200.643 142.162 200.049 141.73 199.185 141.73ZM197.979 136.096H200.337V138.904H197.979V136.096ZM203.757 146.554C207.321 146.554 209.481 147.634 209.481 149.578C209.481 151.504 207.321 152.602 203.757 152.602C200.175 152.602 198.015 151.504 198.015 149.578C198.015 147.634 200.175 146.554 203.757 146.554ZM203.757 148.336C201.525 148.336 200.409 148.714 200.409 149.578C200.409 150.424 201.525 150.82 203.757 150.82C205.971 150.82 207.087 150.424 207.087 149.578C207.087 148.714 205.971 148.336 203.757 148.336ZM214.62 137.909V139.366C214.62 139.771 214.539 140.18 214.377 140.594C214.219 141.003 214.012 141.386 213.757 141.744C213.501 142.102 213.23 142.405 212.945 142.652L211.615 141.923C211.811 141.599 211.986 141.235 212.14 140.83C212.293 140.421 212.37 139.935 212.37 139.373V137.909H214.62ZM217.809 137.909V139.366C217.809 139.771 217.728 140.18 217.566 140.594C217.409 141.003 217.202 141.386 216.946 141.744C216.691 142.102 216.42 142.405 216.135 142.652L214.805 141.923C215.001 141.599 215.176 141.235 215.329 140.83C215.483 140.421 215.559 139.935 215.559 139.373V137.909H217.809ZM38.024 180.132H39.518V189.87H38.024V180.132ZM39.104 184.326H41.93V185.586H39.104V184.326ZM33.524 181.32H35.126C35.126 185.496 32.228 188.538 27.53 189.924L26.9 188.718C31.04 187.494 33.524 185.046 33.524 182.004V181.32ZM27.62 181.32H34.37V182.562H27.62V181.32ZM34.424 190.068C37.646 190.068 39.698 191.256 39.698 193.218C39.698 195.18 37.646 196.368 34.424 196.368C31.184 196.368 29.114 195.18 29.114 193.218C29.114 191.256 31.184 190.068 34.424 190.068ZM34.424 191.256C32.084 191.256 30.59 191.994 30.59 193.218C30.59 194.442 32.084 195.18 34.424 195.18C36.764 195.18 38.258 194.442 38.258 193.218C38.258 191.994 36.764 191.256 34.424 191.256ZM48.0666 188.322H49.5606V191.94H48.0666V188.322ZM55.2846 180.132H56.7786V192.516H55.2846V180.132ZM45.6726 194.82H57.1746V196.044H45.6726V194.82ZM45.6726 191.31H47.1666V195.162H45.6726V191.31ZM43.5666 188.88L43.3686 187.656C46.3746 187.656 50.4066 187.62 53.8626 187.17L53.9706 188.268C50.4606 188.826 46.5186 188.88 43.5666 188.88ZM51.9726 189.744H55.6626V190.842H51.9726V189.744ZM48.6606 180.798C51.0366 180.798 52.6566 181.914 52.6566 183.624C52.6566 185.352 51.0366 186.468 48.6606 186.468C46.2666 186.468 44.6466 185.352 44.6466 183.624C44.6466 181.914 46.2666 180.798 48.6606 180.798ZM48.6606 181.914C47.1306 181.914 46.0686 182.58 46.0686 183.624C46.0686 184.668 47.1306 185.334 48.6606 185.334C50.1726 185.334 51.2346 184.668 51.2346 183.624C51.2346 182.58 50.1726 181.914 48.6606 181.914ZM61.8712 187.728H73.0492V188.952H61.8712V187.728ZM60.0172 193.11H74.7592V194.37H60.0172V193.11ZM66.6052 188.25H68.0992V193.614H66.6052V188.25ZM61.8712 181.428H72.8872V182.652H63.3652V188.268H61.8712V181.428ZM81.8498 181.302C84.3878 181.302 86.2058 182.868 86.2058 185.136C86.2058 187.422 84.3878 188.988 81.8498 188.988C79.3118 188.988 77.4758 187.422 77.4758 185.136C77.4758 182.868 79.3118 181.302 81.8498 181.302ZM81.8498 182.598C80.1578 182.598 78.9338 183.624 78.9338 185.136C78.9338 186.648 80.1578 187.692 81.8498 187.692C83.5238 187.692 84.7478 186.648 84.7478 185.136C84.7478 183.624 83.5238 182.598 81.8498 182.598ZM88.3298 180.114H89.8238V196.422H88.3298V180.114ZM76.8638 192.858L76.6478 191.616C79.6178 191.616 83.7218 191.598 87.2678 191.04L87.3938 192.138C83.7398 192.84 79.7618 192.858 76.8638 192.858ZM97.88 188.718H112.586V189.942H97.88V188.718ZM99.518 191.49H110.696V196.404H109.202V192.714H99.518V191.49ZM99.824 186.036H110.858V187.206H99.824V186.036ZM99.824 180.564H110.786V181.734H101.3V186.576H99.824V180.564ZM100.868 183.264H110.354V184.398H100.868V183.264ZM118.453 181.122H119.677V183.12C119.677 186.306 117.913 188.844 115.177 189.906L114.385 188.718C116.869 187.836 118.453 185.64 118.453 183.12V181.122ZM118.705 181.122H119.929V183.174C119.929 185.388 121.549 187.476 123.925 188.322L123.187 189.492C120.505 188.52 118.705 186.036 118.705 183.174V181.122ZM125.581 180.114H127.075V192.138H125.581V180.114ZM126.607 185.118H129.487V186.36H126.607V185.118ZM116.977 194.82H127.795V196.044H116.977V194.82ZM116.977 191.004H118.471V195.414H116.977V191.004ZM137.603 187.818H139.079V190.32H137.603V187.818ZM130.997 186.99H145.703V188.196H130.997V186.99ZM132.905 180.672H143.795V185.622H132.905V180.672ZM142.337 181.86H134.381V184.434H142.337V181.86ZM132.779 189.78H143.831V193.434H134.291V195.414H132.815V192.354H142.355V190.932H132.779V189.78ZM132.815 195.054H144.317V196.224H132.815V195.054ZM153.454 181.788H157.666V183.012H153.454V181.788ZM152.32 192.804H167.026V194.046H152.32V192.804ZM159.268 187.548H160.744V193.416H159.268V187.548ZM157.054 181.788H158.53V182.364C158.53 183.642 158.53 186.198 157.468 190.194L155.974 189.942C157.054 186.234 157.054 183.678 157.054 182.364V181.788ZM159.844 181.788H164.416V183.012H159.844V181.788ZM163.894 181.788H165.37V182.904C165.37 184.524 165.37 186.774 164.722 190.14L163.228 189.96C163.894 186.756 163.894 184.488 163.894 182.904V181.788ZM169.562 181.338H177.032V188.556H169.562V181.338ZM175.574 182.544H171.02V187.35H175.574V182.544ZM180.02 180.132H181.514V189.78H180.02V180.132ZM181.1 184.344H183.926V185.604H181.1V184.344ZM170.948 190.644H181.514V196.422H180.02V191.85H170.948V190.644ZM192.799 180.402C196.381 180.402 198.523 181.41 198.523 183.228C198.523 185.046 196.381 186.054 192.799 186.054C189.199 186.054 187.075 185.046 187.075 183.228C187.075 181.41 189.199 180.402 192.799 180.402ZM192.799 181.536C190.135 181.536 188.605 182.148 188.605 183.228C188.605 184.308 190.135 184.92 192.799 184.92C195.445 184.92 196.975 184.308 196.975 183.228C196.975 182.148 195.445 181.536 192.799 181.536ZM185.437 187.134H200.143V188.34H185.437V187.134ZM187.219 189.726H198.271V193.398H188.731V195.378H187.255V192.318H196.795V190.878H187.219V189.726ZM187.255 195.054H198.757V196.224H187.255V195.054ZM218.585 180.114H220.079V196.422H218.585V180.114ZM211.493 181.374C213.905 181.374 215.633 183.588 215.633 187.044C215.633 190.518 213.905 192.732 211.493 192.732C209.099 192.732 207.371 190.518 207.371 187.044C207.371 183.588 209.099 181.374 211.493 181.374ZM211.493 182.724C209.909 182.724 208.793 184.416 208.793 187.044C208.793 189.69 209.909 191.418 211.493 191.418C213.095 191.418 214.193 189.69 214.193 187.044C214.193 184.416 213.095 182.724 211.493 182.724ZM226.954 185.64H228.43V188.718H226.954V185.64ZM232.93 185.64H234.406V188.718H232.93V185.64ZM223.318 188.178H238.024V189.384H223.318V188.178ZM230.662 190.608C234.154 190.608 236.242 191.634 236.242 193.488C236.242 195.342 234.154 196.386 230.662 196.386C227.17 196.386 225.082 195.342 225.082 193.488C225.082 191.634 227.17 190.608 230.662 190.608ZM230.662 191.76C228.124 191.76 226.594 192.39 226.594 193.488C226.594 194.604 228.124 195.216 230.662 195.216C233.218 195.216 234.73 194.604 234.73 193.488C234.73 192.39 233.218 191.76 230.662 191.76ZM230.68 180.42C234.208 180.42 236.404 181.554 236.404 183.462C236.404 185.352 234.208 186.468 230.68 186.468C227.134 186.468 224.956 185.352 224.956 183.462C224.956 181.554 227.134 180.42 230.68 180.42ZM230.68 181.59C228.088 181.59 226.486 182.274 226.486 183.462C226.486 184.632 228.088 185.316 230.68 185.316C233.272 185.316 234.874 184.632 234.874 183.462C234.874 182.274 233.272 181.59 230.68 181.59ZM251.018 180.15H252.512V192.354H251.018V180.15ZM252.044 185.478H254.924V186.738H252.044V185.478ZM239.93 182.112H249.542V183.318H239.93V182.112ZM244.736 184.218C247.04 184.218 248.624 185.424 248.624 187.26C248.624 189.078 247.04 190.284 244.736 190.284C242.414 190.284 240.83 189.078 240.83 187.26C240.83 185.424 242.414 184.218 244.736 184.218ZM244.736 185.388C243.26 185.388 242.252 186.126 242.252 187.26C242.252 188.376 243.26 189.114 244.736 189.114C246.194 189.114 247.202 188.376 247.202 187.26C247.202 186.126 246.194 185.388 244.736 185.388ZM243.98 180.132H245.474V182.742H243.98V180.132ZM242.378 194.82H253.25V196.044H242.378V194.82ZM242.378 191.382H243.872V195.342H242.378V191.382ZM262.332 181.788H266.544V183.012H262.332V181.788ZM261.198 192.804H275.904V194.046H261.198V192.804ZM268.146 187.548H269.622V193.416H268.146V187.548ZM265.932 181.788H267.408V182.364C267.408 183.642 267.408 186.198 266.346 190.194L264.852 189.942C265.932 186.234 265.932 183.678 265.932 182.364V181.788ZM268.722 181.788H273.294V183.012H268.722V181.788ZM272.772 181.788H274.248V182.904C274.248 184.524 274.248 186.774 273.6 190.14L272.106 189.96C272.772 186.756 272.772 184.488 272.772 182.904V181.788ZM278.441 181.338H285.911V188.556H278.441V181.338ZM284.453 182.544H279.899V187.35H284.453V182.544ZM288.899 180.132H290.393V189.78H288.899V180.132ZM289.979 184.344H292.805V185.604H289.979V184.344ZM279.827 190.644H290.393V196.422H288.899V191.85H279.827V190.644ZM310.905 180.114H312.399V196.422H310.905V180.114ZM300.015 181.5H301.491V185.802H306.189V181.5H307.683V192.498H300.015V181.5ZM301.491 186.99V191.274H306.189V186.99H301.491ZM316.502 180.978H317.96V183.462H322.64V180.978H324.116V188.52H316.502V180.978ZM317.96 184.65V187.314H322.64V184.65H317.96ZM327.482 180.15H328.994V189.6H327.482V180.15ZM318.482 190.5H328.994V196.17H318.482V190.5ZM327.518 191.688H319.94V194.964H327.518V191.688ZM343.338 180.132H344.832V189.078H343.338V180.132ZM344.418 183.876H347.244V185.118H344.418V183.876ZM332.88 180.942H334.356V183.336H338.946V180.942H340.404V188.358H332.88V180.942ZM334.356 184.524V187.134H338.946V184.524H334.356ZM334.572 189.834H336.048V191.76H343.356V189.834H344.832V196.188H334.572V189.834ZM336.048 192.948V194.982H343.356V192.948H336.048ZM348.755 189.762H363.515V190.986H348.755V189.762ZM355.343 190.338H356.819V196.404H355.343V190.338ZM350.609 180.78H352.103V183.012H360.149V180.78H361.625V187.818H350.609V180.78ZM352.103 184.218V186.612H360.149V184.218H352.103ZM377.248 180.114H378.724V196.422H377.248V180.114ZM373.864 186.252H377.464V187.494H373.864V186.252ZM366.07 191.274H367.312C370.372 191.274 372.298 191.22 374.584 190.788L374.728 192.012C372.388 192.426 370.408 192.516 367.312 192.516H366.07V191.274ZM366.07 181.608H373.594V182.85H367.546V191.706H366.07V181.608ZM367.168 186.18H372.892V187.386H367.168V186.18ZM33.488 211.33H34.982V215.38H33.488V211.33ZM34.244 203.194C37.682 203.194 40.148 204.868 40.148 207.46C40.148 210.052 37.682 211.726 34.244 211.726C30.806 211.726 28.322 210.052 28.322 207.46C28.322 204.868 30.806 203.194 34.244 203.194ZM34.244 204.382C31.652 204.382 29.762 205.606 29.762 207.46C29.762 209.314 31.652 210.538 34.244 210.538C36.818 210.538 38.708 209.314 38.708 207.46C38.708 205.606 36.818 204.382 34.244 204.382ZM26.9 215.092H41.642V216.334H26.9V215.092ZM55.2846 202.15H56.7966V211.942H55.2846V202.15ZM51.3786 212.338C54.7626 212.338 56.8506 213.472 56.8506 215.398C56.8506 217.342 54.7626 218.476 51.3786 218.476C47.9946 218.476 45.9246 217.342 45.9246 215.398C45.9246 213.472 47.9946 212.338 51.3786 212.338ZM51.3786 213.526C48.9126 213.526 47.4186 214.21 47.4186 215.398C47.4186 216.586 48.9126 217.288 51.3786 217.288C53.8626 217.288 55.3566 216.586 55.3566 215.398C55.3566 214.21 53.8626 213.526 51.3786 213.526ZM47.7786 203.788H49.0206V205.084C49.0206 208.09 47.1846 210.61 44.4666 211.6L43.6926 210.43C46.1406 209.566 47.7786 207.424 47.7786 205.084V203.788ZM48.0666 203.788H49.3086V205.084C49.3086 207.262 51.0006 209.224 53.4126 209.998L52.6566 211.186C49.9566 210.268 48.0666 207.91 48.0666 205.084V203.788ZM44.0706 203.41H52.9806V204.616H44.0706V203.41ZM64.3552 203.374C66.7132 203.374 68.4052 205.588 68.4052 209.044C68.4052 212.518 66.7132 214.732 64.3552 214.732C61.9792 214.732 60.3052 212.518 60.3052 209.044C60.3052 205.588 61.9792 203.374 64.3552 203.374ZM64.3552 204.724C62.7892 204.724 61.7272 206.416 61.7272 209.044C61.7272 211.69 62.7892 213.418 64.3552 213.418C65.9212 213.418 66.9832 211.69 66.9832 209.044C66.9832 206.416 65.9212 204.724 64.3552 204.724ZM71.9332 202.114H73.4092V218.422H71.9332V202.114ZM67.9192 208.324H72.5812V209.548H67.9192V208.324ZM87.9275 202.546H89.2055V203.338C89.2055 206.29 86.0915 208.468 82.7975 209.044L82.2035 207.856C85.0835 207.424 87.9275 205.516 87.9275 203.338V202.546ZM88.1615 202.546H89.4395V203.338C89.4395 205.462 92.3195 207.406 95.1455 207.838L94.5875 209.008C91.2935 208.45 88.1615 206.218 88.1615 203.338V202.546ZM81.3215 210.412H96.0635V211.636H81.3215V210.412ZM88.0535 211.168H89.5475V214.912H88.0535V211.168ZM83.1935 216.82H94.4255V218.044H83.1935V216.82ZM83.1935 213.346H84.6695V217.216H83.1935V213.346ZM110.264 202.132H111.704V218.404H110.264V202.132ZM107.51 208.648H110.642V209.89H107.51V208.648ZM106.574 202.492H107.978V217.576H106.574V202.492ZM98.474 213.148H99.536C101.912 213.148 103.532 213.058 105.422 212.662L105.566 213.904C103.622 214.318 101.984 214.39 99.536 214.39H98.474V213.148ZM98.474 204.112H104.522V205.336H99.95V213.706H98.474V204.112ZM113.557 218.26H131.557V200.26H113.557V218.26ZM143.743 202.132H145.219V218.404H143.743V202.132ZM144.751 208.828H147.649V210.088H144.751V208.828ZM135.949 203.878H137.317C137.317 207.802 136.489 211.6 133.573 214.75L132.367 213.904C135.049 211.114 135.949 207.73 135.949 204.04V203.878ZM132.889 203.878H136.507V205.12H132.889V203.878ZM140.377 203.878H141.763C141.763 207.82 141.205 212.284 138.217 215.83L137.011 215.002C139.765 211.816 140.377 207.784 140.377 204.022V203.878ZM137.839 203.878H140.989V205.12H137.839V203.878ZM153.317 204.454H154.523V207.1C154.523 210.538 152.453 213.994 149.861 215.272L148.997 214.084C151.355 212.968 153.317 209.908 153.317 207.1V204.454ZM153.605 204.454H154.811V207.1C154.811 209.854 156.773 212.662 159.167 213.688L158.321 214.876C155.693 213.652 153.605 210.484 153.605 207.1V204.454ZM149.537 203.788H158.627V205.048H149.537V203.788ZM160.823 202.132H162.317V218.404H160.823V202.132ZM171.922 203.86H182.398V205.066H171.922V203.86ZM170.338 214.786H185.044V216.028H170.338V214.786ZM181.606 203.86H183.064V205.48C183.064 207.568 183.064 209.89 182.452 213.4L180.958 213.256C181.606 209.926 181.606 207.496 181.606 205.48V203.86ZM191.216 203.374C193.61 203.374 195.302 205.588 195.302 209.044C195.302 212.518 193.61 214.732 191.216 214.732C188.822 214.732 187.13 212.518 187.13 209.044C187.13 205.588 188.822 203.374 191.216 203.374ZM191.216 204.724C189.632 204.724 188.552 206.416 188.552 209.044C188.552 211.69 189.632 213.418 191.216 213.418C192.782 213.418 193.88 211.69 193.88 209.044C193.88 206.416 192.782 204.724 191.216 204.724ZM198.992 206.218H201.98V207.478H198.992V206.218ZM198.992 211.06H201.98V212.32H198.992V211.06ZM197.894 202.132H199.406V218.404H197.894V202.132ZM219.342 202.132H220.836V210.412H219.342V202.132ZM220.188 205.624H223.23V206.866H220.188V205.624ZM208.884 203.05H216.354V209.566H208.884V203.05ZM214.896 204.238H210.342V208.378H214.896V204.238ZM210.504 211.186H220.836V215.182H212.016V217.612H210.54V214.048H219.378V212.374H210.504V211.186ZM210.54 216.982H221.43V218.188H210.54V216.982ZM224.777 215.164H239.519V216.406H224.777V215.164ZM231.365 211.672H232.859V215.686H231.365V211.672ZM226.559 203.338H237.701V208.27H228.089V211.528H226.613V207.064H236.225V204.544H226.559V203.338ZM226.613 210.898H238.079V212.122H226.613V210.898ZM249.201 211.273L249.322 208.575L247.047 210.039L246.35 208.825L248.766 207.591L246.35 206.357L247.047 205.143L249.322 206.607L249.201 203.909H250.588L250.466 206.607L252.742 205.143L253.439 206.357L251.022 207.591L253.439 208.825L252.742 210.039L250.466 208.575L250.588 211.273H249.201ZM256.404 203.716H263.892V214.318H256.404V203.716ZM262.434 204.922H257.862V213.112H262.434V204.922ZM267.294 202.114H268.788V218.422H267.294V202.114ZM272.963 203.716H280.451V214.318H272.963V203.716ZM278.993 204.922H274.421V213.112H278.993V204.922ZM283.853 202.114H285.347V218.422H283.853V202.114ZM296.161 203.909L295.995 213.235H294.225L294.058 203.909H296.161ZM295.113 217.121C294.759 217.121 294.457 216.998 294.205 216.751C293.954 216.499 293.83 216.197 293.835 215.843C293.83 215.494 293.954 215.195 294.205 214.948C294.457 214.697 294.759 214.571 295.113 214.571C295.458 214.571 295.757 214.697 296.008 214.948C296.259 215.195 296.387 215.494 296.392 215.843C296.387 216.077 296.325 216.293 296.206 216.489C296.091 216.68 295.938 216.834 295.746 216.949C295.554 217.064 295.343 217.121 295.113 217.121Z" fill="black"/>
<path d="M31.2202 275L33.0099 264.091H34.0753L32.2855 275H31.2202ZM26.2557 271.974L26.4261 270.909H34.5653L34.3949 271.974H26.2557ZM27.3849 275L29.1747 264.091H30.2401L28.4503 275H27.3849ZM26.8949 268.182L27.0653 267.116H35.2045L35.0341 268.182H26.8949ZM45.4829 262.61H46.7279V270.725H45.4829V262.61ZM46.3829 266.105H48.7379V267.155H46.3829V266.105ZM41.7329 263.6H43.0679C43.0679 267.08 40.6529 269.615 36.7379 270.77L36.2129 269.765C39.6629 268.745 41.7329 266.705 41.7329 264.17V263.6ZM36.8129 263.6H42.4379V264.635H36.8129V263.6ZM42.4829 270.89C45.1679 270.89 46.8779 271.88 46.8779 273.515C46.8779 275.15 45.1679 276.14 42.4829 276.14C39.7829 276.14 38.0579 275.15 38.0579 273.515C38.0579 271.88 39.7829 270.89 42.4829 270.89ZM42.4829 271.88C40.5329 271.88 39.2879 272.495 39.2879 273.515C39.2879 274.535 40.5329 275.15 42.4829 275.15C44.4329 275.15 45.6779 274.535 45.6779 273.515C45.6779 272.495 44.4329 271.88 42.4829 271.88ZM53.8517 269.435H55.0967V272.45H53.8517V269.435ZM59.8667 262.61H61.1117V272.93H59.8667V262.61ZM51.8567 274.85H61.4417V275.87H51.8567V274.85ZM51.8567 271.925H53.1017V275.135H51.8567V271.925ZM50.1017 269.9L49.9367 268.88C52.4417 268.88 55.8017 268.85 58.6817 268.475L58.7717 269.39C55.8467 269.855 52.5617 269.9 50.1017 269.9ZM57.1067 270.62H60.1817V271.535H57.1067V270.62ZM54.3467 263.165C56.3267 263.165 57.6767 264.095 57.6767 265.52C57.6767 266.96 56.3267 267.89 54.3467 267.89C52.3517 267.89 51.0017 266.96 51.0017 265.52C51.0017 264.095 52.3517 263.165 54.3467 263.165ZM54.3467 264.095C53.0717 264.095 52.1867 264.65 52.1867 265.52C52.1867 266.39 53.0717 266.945 54.3467 266.945C55.6067 266.945 56.4917 266.39 56.4917 265.52C56.4917 264.65 55.6067 264.095 54.3467 264.095ZM65.3555 268.94H74.6705V269.96H65.3555V268.94ZM63.8105 273.425H76.0955V274.475H63.8105V273.425ZM69.3005 269.375H70.5455V273.845H69.3005V269.375ZM65.3555 263.69H74.5355V264.71H66.6005V269.39H65.3555V263.69ZM86.2983 275L88.0881 264.091H89.1534L87.3636 275H86.2983ZM81.3338 271.974L81.5043 270.909H89.6435L89.473 271.974H81.3338ZM82.4631 275L84.2528 264.091H85.3182L83.5284 275H82.4631ZM81.973 268.182L82.1435 267.116H90.2827L90.1122 268.182H81.973ZM92.221 263.99H95.731V265.01H92.221V263.99ZM91.276 273.17H103.531V274.205H91.276V273.17ZM97.066 268.79H98.296V273.68H97.066V268.79ZM95.221 263.99H96.451V264.47C96.451 265.535 96.451 267.665 95.566 270.995L94.321 270.785C95.221 267.695 95.221 265.565 95.221 264.47V263.99ZM97.546 263.99H101.356V265.01H97.546V263.99ZM100.921 263.99H102.151V264.92C102.151 266.27 102.151 268.145 101.611 270.95L100.366 270.8C100.921 268.13 100.921 266.24 100.921 264.92V263.99ZM105.645 263.615H111.87V269.63H105.645V263.615ZM110.655 264.62H106.86V268.625H110.655V264.62ZM114.36 262.61H115.605V270.65H114.36V262.61ZM115.26 266.12H117.615V267.17H115.26V266.12ZM106.8 271.37H115.605V276.185H114.36V272.375H106.8V271.37ZM127.578 275L129.367 264.091H130.433L128.643 275H127.578ZM122.613 271.974L122.784 270.909H130.923L130.752 271.974H122.613ZM123.742 275L125.532 264.091H126.597L124.808 275H123.742ZM123.252 268.182L123.423 267.116H131.562L131.392 268.182H123.252ZM138.06 269.39H139.305V271.76H138.06V269.39ZM132.555 268.955H144.81V269.96H132.555V268.955ZM138.675 271.385C141.585 271.385 143.325 272.24 143.325 273.77C143.325 275.285 141.585 276.14 138.675 276.14C135.765 276.14 134.025 275.285 134.025 273.77C134.025 272.24 135.765 271.385 138.675 271.385ZM138.675 272.345C136.56 272.345 135.285 272.855 135.285 273.77C135.285 274.67 136.56 275.18 138.675 275.18C140.805 275.18 142.065 274.67 142.065 273.77C142.065 272.855 140.805 272.345 138.675 272.345ZM137.88 263.72H138.99V264.125C138.99 266.315 136.5 267.785 133.695 268.13L133.245 267.14C135.675 266.885 137.88 265.67 137.88 264.125V263.72ZM138.405 263.72H139.5V264.125C139.5 265.67 141.705 266.885 144.135 267.14L143.685 268.13C140.88 267.785 138.405 266.315 138.405 264.125V263.72ZM133.68 263.225H143.715V264.23H133.68V263.225ZM150.149 263.405C152.189 263.405 153.689 264.725 153.689 266.615C153.689 268.49 152.189 269.795 150.149 269.795C148.109 269.795 146.609 268.49 146.609 266.615C146.609 264.725 148.109 263.405 150.149 263.405ZM150.149 264.455C148.799 264.455 147.824 265.34 147.824 266.615C147.824 267.89 148.799 268.76 150.149 268.76C151.499 268.76 152.474 267.89 152.474 266.615C152.474 265.34 151.499 264.455 150.149 264.455ZM155.639 262.61H156.884V270.635H155.639V262.61ZM156.539 265.985H158.894V267.035H156.539V265.985ZM152.564 271.07C155.324 271.07 157.019 272.015 157.019 273.605C157.019 275.21 155.324 276.14 152.564 276.14C149.804 276.14 148.109 275.21 148.109 273.605C148.109 272.015 149.804 271.07 152.564 271.07ZM152.564 272.075C150.554 272.075 149.324 272.63 149.324 273.605C149.324 274.58 150.554 275.15 152.564 275.15C154.574 275.15 155.804 274.58 155.804 273.605C155.804 272.63 154.574 272.075 152.564 272.075ZM163.738 263.78H164.758V266.21C164.758 269.33 163.078 272.225 160.858 273.35L160.093 272.33C162.103 271.37 163.738 268.775 163.738 266.21V263.78ZM163.948 263.78H164.968V266.21C164.968 268.685 166.588 271.175 168.598 272.105L167.848 273.095C165.643 272.015 163.948 269.225 163.948 266.21V263.78ZM170.008 262.595H171.253V276.185H170.008V262.595ZM177.297 264.065H178.317V265.16C178.317 267.65 176.817 269.735 174.537 270.56L173.907 269.57C175.947 268.85 177.297 267.095 177.297 265.16V264.065ZM177.522 264.065H178.542V265.145C178.542 266.915 179.832 268.505 181.827 269.165L181.227 270.14C178.962 269.39 177.522 267.455 177.522 265.145V264.065ZM174.282 263.615H181.527V264.635H174.282V263.615ZM183.237 262.61H184.482V270.785H183.237V262.61ZM184.137 266.045H186.492V267.095H184.137V266.045ZM180.162 271.145C182.922 271.145 184.617 272.06 184.617 273.635C184.617 275.225 182.922 276.14 180.162 276.14C177.402 276.14 175.707 275.225 175.707 273.635C175.707 272.06 177.402 271.145 180.162 271.145ZM180.162 272.15C178.152 272.15 176.922 272.69 176.922 273.635C176.922 274.595 178.152 275.165 180.162 275.165C182.172 275.165 183.402 274.595 183.402 273.635C183.402 272.69 182.172 272.15 180.162 272.15ZM196.455 275L198.244 264.091H199.31L197.52 275H196.455ZM191.49 271.974L191.661 270.909H199.8L199.629 271.974H191.49ZM192.619 275L194.409 264.091H195.474L193.685 275H192.619ZM192.129 268.182L192.3 267.116H200.439L200.268 268.182H192.129ZM206.937 270.275H208.182V273.65H206.937V270.275ZM207.567 263.495C210.432 263.495 212.487 264.89 212.487 267.05C212.487 269.21 210.432 270.605 207.567 270.605C204.702 270.605 202.632 269.21 202.632 267.05C202.632 264.89 204.702 263.495 207.567 263.495ZM207.567 264.485C205.407 264.485 203.832 265.505 203.832 267.05C203.832 268.595 205.407 269.615 207.567 269.615C209.712 269.615 211.287 268.595 211.287 267.05C211.287 265.505 209.712 264.485 207.567 264.485ZM201.447 273.41H213.732V274.445H201.447V273.41ZM225.101 262.625H226.361V270.785H225.101V262.625ZM221.846 271.115C224.666 271.115 226.406 272.06 226.406 273.665C226.406 275.285 224.666 276.23 221.846 276.23C219.026 276.23 217.301 275.285 217.301 273.665C217.301 272.06 219.026 271.115 221.846 271.115ZM221.846 272.105C219.791 272.105 218.546 272.675 218.546 273.665C218.546 274.655 219.791 275.24 221.846 275.24C223.916 275.24 225.161 274.655 225.161 273.665C225.161 272.675 223.916 272.105 221.846 272.105ZM218.846 263.99H219.881V265.07C219.881 267.575 218.351 269.675 216.086 270.5L215.441 269.525C217.481 268.805 218.846 267.02 218.846 265.07V263.99ZM219.086 263.99H220.121V265.07C220.121 266.885 221.531 268.52 223.541 269.165L222.911 270.155C220.661 269.39 219.086 267.425 219.086 265.07V263.99ZM215.756 263.675H223.181V264.68H215.756V263.675ZM232.66 263.645C234.625 263.645 236.035 265.49 236.035 268.37C236.035 271.265 234.625 273.11 232.66 273.11C230.68 273.11 229.285 271.265 229.285 268.37C229.285 265.49 230.68 263.645 232.66 263.645ZM232.66 264.77C231.355 264.77 230.47 266.18 230.47 268.37C230.47 270.575 231.355 272.015 232.66 272.015C233.965 272.015 234.85 270.575 234.85 268.37C234.85 266.18 233.965 264.77 232.66 264.77ZM238.975 262.595H240.205V276.185H238.975V262.595ZM235.63 267.77H239.515V268.79H235.63V267.77ZM248.334 262.955H249.399V263.615C249.399 266.075 246.804 267.89 244.059 268.37L243.564 267.38C245.964 267.02 248.334 265.43 248.334 263.615V262.955ZM248.529 262.955H249.594V263.615C249.594 265.385 251.994 267.005 254.349 267.365L253.884 268.34C251.139 267.875 248.529 266.015 248.529 263.615V262.955ZM242.829 269.51H255.114V270.53H242.829V269.51ZM248.439 270.14H249.684V273.26H248.439V270.14ZM244.389 274.85H253.749V275.87H244.389V274.85ZM244.389 271.955H245.619V275.18H244.389V271.955ZM266.948 262.61H268.148V276.17H266.948V262.61ZM264.653 268.04H267.263V269.075H264.653V268.04ZM263.873 262.91H265.043V275.48H263.873V262.91ZM257.123 271.79H258.008C259.988 271.79 261.338 271.715 262.913 271.385L263.033 272.42C261.413 272.765 260.048 272.825 258.008 272.825H257.123V271.79ZM257.123 264.26H262.163V265.28H258.353V272.255H257.123V264.26Z" fill="#262626"/>
</svg>
