<svg xmlns="http://www.w3.org/2000/svg" width="37" height="37" fill="none"><g clip-path="url(#a)"><path fill="#fff" d="M12.89 1.217a18.292 18.292 0 0 0 1.25 34.948 19.54 19.54 0 0 0 9.355.1 16.5 16.5 0 0 0 7.487-3.89 16.6 16.6 0 0 0 4.625-7.59 21.5 21.5 0 0 0 .465-9.708H18.867v7.137h9.964a8.6 8.6 0 0 1-3.66 5.643 10.45 10.45 0 0 1-4.026 1.59 11.9 11.9 0 0 1-4.365 0 10.7 10.7 0 0 1-4.061-1.772 11.36 11.36 0 0 1-4.192-5.614 11.07 11.07 0 0 1 0-7.12 11.35 11.35 0 0 1 2.654-4.31 10.74 10.74 0 0 1 10.825-2.826 9.9 9.9 0 0 1 3.943 2.312q1.685-1.676 3.365-3.362c.578-.604 1.208-1.18 1.778-1.798a17.7 17.7 0 0 0-5.886-3.63 18.5 18.5 0 0 0-12.317-.11"/><path fill="#E33629" d="M12.89 1.217a18.5 18.5 0 0 1 12.316.107 17.7 17.7 0 0 1 5.883 3.648C30.51 5.59 29.9 6.168 29.31 6.77q-1.683 1.68-3.362 3.347a9.9 9.9 0 0 0-3.943-2.313 10.74 10.74 0 0 0-10.828 2.816 11.35 11.35 0 0 0-2.654 4.31l-5.992-4.64A18.36 18.36 0 0 1 12.89 1.217"/><path fill="#F8BD00" d="M.942 14.887a18.2 18.2 0 0 1 1.59-4.597l5.992 4.652a11.07 11.07 0 0 0 0 7.12 1732 1732 0 0 0-5.992 4.647 18.3 18.3 0 0 1-1.59-11.822"/><path fill="#587DBD" d="M18.867 15.075h17.205c.588 3.228.43 6.549-.465 9.706a16.6 16.6 0 0 1-4.625 7.591c-1.934-1.509-3.877-3.006-5.81-4.515a8.6 8.6 0 0 0 3.66-5.648h-9.965c-.003-2.376 0-4.755 0-7.134"/><path fill="#319F43" d="M2.53 26.71q2.997-2.314 5.992-4.649a11.36 11.36 0 0 0 4.197 5.614 10.7 10.7 0 0 0 4.07 1.757c1.442.268 2.922.268 4.365 0a10.45 10.45 0 0 0 4.026-1.59c1.934 1.51 3.877 3.007 5.81 4.515a16.5 16.5 0 0 1-7.486 3.894c-3.08.724-6.29.69-9.354-.101A18.2 18.2 0 0 1 7.5 32.8a18.4 18.4 0 0 1-4.972-6.09"/></g><defs><clipPath id="a"><path fill="#fff" d="M0 0h37v37H0z"/></clipPath></defs></svg>