<svg xmlns="http://www.w3.org/2000/svg" width="400" height="300" fill="none"><path fill="#fff" fill-opacity=".5" d="M0 30C0 13.432 13.432 0 30 0h340c16.569 0 30 13.432 30 30v240c0 16.569-13.431 30-30 30H30c-16.568 0-30-13.431-30-30z"/><path fill="#000" d="M46.325 26.586h2.772v20.372h-2.772zm-6.71 6.952h3.366v2.376h-3.366zm2.596-6.622h2.728v19.118H42.21zm-6.996 2.992h2.2v2.09c0 4.576-1.254 9.13-4.488 11.154l-1.738-2.156c2.992-1.87 4.026-5.522 4.026-8.998zm.66 0h2.178v2.09c0 3.388 1.012 6.82 3.96 8.536l-1.716 2.134c-3.234-1.914-4.422-6.182-4.422-10.67zm-3.916-1.276h9.086v2.354h-9.086zm27.432.22h2.53v.594c0 3.586-2.926 6.512-8.096 7.216l-1.078-2.288c4.488-.55 6.644-2.838 6.644-4.928zm.836 0h2.53v.594c0 2.09 2.156 4.378 6.644 4.928l-1.056 2.288c-5.192-.704-8.118-3.63-8.118-7.216zM59.545 39.5h2.904v7.48h-2.904zm-7.678-1.672H70.28v2.332H51.867zm1.628-10.208h15.114v2.31H53.495zm29.335.778v19.93h-5.133v-1.851h2.899V30.25h-2.899v-1.852zM39.266 92.132h1.44v16.272h-1.44zm-5.922 5.832h3.114v1.242h-3.114zm2.664-5.454h1.404v15.066h-1.404zm-5.796 2.142h1.152v2.07c0 3.564-1.368 6.93-3.762 8.442l-.918-1.116c2.268-1.368 3.528-4.338 3.528-7.326zm.306 0h1.152v2.07c0 2.826 1.224 5.652 3.456 6.948l-.918 1.098c-2.376-1.44-3.69-4.644-3.69-8.046zm-3.384-.63h7.434v1.242h-7.434zm22.84-.288h1.297v.684c0 2.916-3.096 5.058-6.372 5.616l-.576-1.188c2.862-.414 5.652-2.286 5.652-4.428zm.379 0h1.278v.684c0 2.142 2.808 4.014 5.652 4.428l-.558 1.188c-3.294-.558-6.372-2.7-6.372-5.616zm-.324 8.46h1.476v6.21h-1.476zm-6.57-.792h14.706v1.224H43.459zm1.368-8.262h11.916v1.206H44.827zm17.044 6.588H73.05v1.224H61.871zm-1.854 5.382H74.76v1.26H60.017zm6.588-4.86H68.1v5.364h-1.494zm-4.734-6.822h11.016v1.224h-9.522v5.616h-1.494zm26.794 2.322h4.914v1.242h-4.913zm0 5.148h4.914v1.242h-4.913zm-2.988-7.524c2.358 0 4.05 2.214 4.05 5.67 0 3.474-1.692 5.688-4.05 5.688-2.376 0-4.05-2.214-4.05-5.688 0-3.456 1.675-5.67 4.05-5.67m0 1.35c-1.565 0-2.646 1.692-2.646 4.32 0 2.646 1.08 4.374 2.646 4.374s2.646-1.728 2.646-4.374c0-2.628-1.08-4.32-2.645-4.32m7.578-2.61h1.477v16.308h-1.477zm16.919.018h1.422v10.296h-1.422zm-2.646 4.41h3.078v1.242h-3.078zm-.828-4.086h1.404v9.396H106.7zm-8.892 1.62h8.244v1.188h-8.244zm4.14 2.016c2.034 0 3.456 1.116 3.456 2.79 0 1.692-1.422 2.79-3.456 2.79-2.052 0-3.474-1.098-3.474-2.79 0-1.674 1.422-2.79 3.474-2.79m0 1.116c-1.278 0-2.142.666-2.142 1.674 0 1.026.864 1.674 2.142 1.674 1.26 0 2.124-.648 2.124-1.674 0-1.008-.864-1.674-2.124-1.674m-.738-4.95h1.458v2.484h-1.458zm5.058 10.458c3.384 0 5.418 1.008 5.418 2.826 0 1.8-2.034 2.826-5.418 2.826-3.42 0-5.436-1.026-5.436-2.826 0-1.818 2.016-2.826 5.436-2.826m0 1.152c-2.502 0-3.96.594-3.96 1.674s1.458 1.692 3.96 1.692c2.466 0 3.942-.612 3.942-1.692s-1.476-1.674-3.942-1.674m14.302-11.25h11.952v1.17H120.57zm.072 4.266h11.808v1.152h-11.808zm2.394-3.816h1.494v4.572h-1.494zm5.544 0h1.476v4.572h-1.476zm-9.378 6.318h14.706v1.206h-14.706zm1.782 2.628h11.052v3.564h-9.54v1.962h-1.476v-3.024h9.54v-1.386h-9.576zm.036 5.076h11.502v1.134H121.02zm15.281-3.816h1.08c1.98 0 3.78-.072 5.976-.45l.126 1.242c-2.25.396-4.086.45-6.102.45h-1.08zm-.036-9.378h6.102v5.724h-4.608v4.122h-1.458v-5.346h4.608V95.12h-4.644zm11.88-1.764h1.44v16.272h-1.44zm-2.754 6.426h3.132v1.224h-3.132zm-.936-6.066h1.404v15.084h-1.404zm19.799-.36h1.494v16.308h-1.494zm-5.004 5.364h5.49v1.224h-5.49zm-6.03-3.546h1.476v10.08h-1.476zm0 9.288h1.26c2.52 0 4.77-.144 7.272-.666l.18 1.26c-2.592.504-4.878.666-7.452.666h-1.26zm23.234-9.329-.166 9.326h-1.77l-.167-9.326zm-1.048 13.212a1.25 1.25 0 0 1-.908-.37 1.22 1.22 0 0 1-.37-.908 1.19 1.19 0 0 1 .37-.895 1.24 1.24 0 0 1 .908-.377q.518 0 .895.377a1.23 1.23 0 0 1 .198 1.541 1.3 1.3 0 0 1-.46.46 1.2 1.2 0 0 1-.633.172M27.036 142v-1.457q0-.607.236-1.228.242-.626.626-1.163.39-.543.806-.895l1.33.729q-.346.563-.55 1.176a4.2 4.2 0 0 0-.199 1.374V142zm3.208 0v-1.457q0-.607.237-1.228a5.3 5.3 0 0 1 .626-1.163q.39-.543.806-.895l1.33.729q-.346.563-.55 1.176a4.2 4.2 0 0 0-.199 1.374V142zm6.17-5.364H46.98v1.908H36.414zm-1.836 5.76h15.084v1.908H34.578zm6.318 1.35h2.394v3.492h-2.394zm4.644-7.11h2.358v1.332c0 1.44 0 3.114-.522 5.31l-2.358-.234c.522-2.142.522-3.672.522-5.076zm-9.45 10.008h11.826v5.958h-2.394v-4.068H36.09zm27.016-10.71h2.286v16.668h-2.286zm-2.178 6.426H63.7v1.908h-2.772zm-1.548-6.138h2.232v15.588H59.38zm-7.614 1.548h2.394v9.63h-2.394zm0 8.73h1.152c1.602 0 3.474-.09 5.544-.486l.234 2.052c-2.178.396-4.086.486-5.778.486h-1.152zm23.252 1.584h2.412v4.554h-2.412zm5.76 0h2.412v4.554h-2.412zm-8.514-10.476h13.572v1.872H72.264zm-.702 9h15.084v1.908H71.562zm7.524-6.48c3.582 0 5.706 1.008 5.706 2.826 0 1.836-2.124 2.862-5.706 2.862-3.6 0-5.724-1.026-5.724-2.862 0-1.818 2.124-2.826 5.724-2.826m0 1.764c-2.178 0-3.24.324-3.24 1.062 0 .756 1.062 1.08 3.24 1.08s3.24-.324 3.24-1.08c0-.738-1.062-1.062-3.24-1.062m-1.206-5.976h2.394v3.006H77.88zm22.607 2.07h2.88v1.944h-2.88zm0 3.618h2.88v1.944h-2.88zm-7.74-4.77c2.574 0 4.536 1.692 4.536 4.05 0 2.34-1.962 4.032-4.536 4.032s-4.536-1.692-4.536-4.032c0-2.358 1.962-4.05 4.536-4.05m0 1.998c-1.26 0-2.196.774-2.196 2.052 0 1.296.936 2.034 2.196 2.034s2.196-.738 2.196-2.034c0-1.278-.936-2.052-2.196-2.052m6.084-2.898h2.394v9.72h-2.394zm-3.042 10.08c3.438 0 5.634 1.242 5.634 3.294 0 2.07-2.196 3.294-5.634 3.294-3.456 0-5.652-1.224-5.652-3.294 0-2.052 2.196-3.294 5.652-3.294m0 1.89c-2.124 0-3.276.45-3.276 1.404 0 .972 1.152 1.422 3.276 1.422s3.258-.45 3.258-1.422c0-.954-1.134-1.404-3.258-1.404m12.74-5.868h15.084v1.908h-15.084zm1.404-5.544h3.888v1.89h-3.888zm3.186 0h2.34v.9c0 1.188 0 3.006-.828 5.418l-2.304-.324c.792-2.394.792-3.942.792-5.094zm3.276 0h4.284v1.89h-4.284zm3.168 0h2.34v1.152c0 1.35 0 3.042-.702 5.256l-2.322-.324c.684-2.178.684-3.636.684-4.932zm-9.198 8.586h11.484v1.764h-9.09v4.212h-2.394zm0 5.562h11.61v1.782h-11.61zm1.422-2.772h9.666v1.692h-9.666zm13.642-10.584h8.892v1.926h-8.892zm-.18 8.712-.252-1.926c2.826-.018 6.696-.054 9.9-.468l.162 1.746c-3.276.576-7.056.648-9.81.648m1.494-7.236h2.304v5.67h-2.304zm3.978 0h2.286v5.67h-2.286zm5.094-2.808h2.394v12.276h-2.394zm1.71 4.68h2.898v1.98h-2.898zm-10.062 9.774h11.34v1.908h-11.34zm0-3.33h2.394v3.834h-2.394zm25.019-11.124h2.394v10.458h-2.394zm1.548 4.23h2.934v1.962h-2.934zm-4.734 6.444c3.492 0 5.67 1.116 5.67 2.988s-2.178 2.988-5.67 2.988-5.67-1.116-5.67-2.988 2.178-2.988 5.67-2.988m0 1.8c-2.142 0-3.294.396-3.294 1.188 0 .81 1.152 1.188 3.294 1.188s3.276-.378 3.276-1.188c0-.792-1.134-1.188-3.276-1.188m-3.852-6.3h2.394v2.574h-2.394zm-3.6 3.6-.252-1.836c2.844 0 6.75-.018 10.008-.468l.18 1.638c-3.366.612-7.146.666-9.936.666m4.77-9.288c2.43 0 4.158 1.296 4.158 3.186s-1.728 3.186-4.158 3.186-4.158-1.296-4.158-3.186 1.728-3.186 4.158-3.186m0 1.746c-1.152 0-1.926.504-1.926 1.44 0 .918.774 1.458 1.926 1.458s1.926-.54 1.926-1.458c0-.936-.774-1.44-1.926-1.44m15.051 11.026-.058.71a9.2 9.2 0 0 1-.313 1.719 15 15 0 0 1-.492 1.515 54 54 0 0 1-.416 1.042h-1.968q.102-.37.274-1.042.18-.67.333-1.515.153-.843.172-1.713l.013-.716zm16.618-13.294h2.412v9h-2.412zm-8.712 9.666h11.124v4.23h-8.748v1.296h-2.358v-2.934h8.73v-.864h-8.748zm.018 5.148h11.52v1.764h-11.52zm-2.556-13.572h10.026v1.782h-10.026zm5.022 2.214c2.538 0 4.176 1.062 4.176 2.736s-1.638 2.7-4.176 2.7c-2.52 0-4.158-1.026-4.158-2.7s1.638-2.736 4.158-2.736m0 1.674c-1.152 0-1.872.36-1.872 1.062 0 .666.72 1.026 1.872 1.026s1.872-.36 1.872-1.026c0-.702-.72-1.062-1.872-1.062m-1.206-5.256h2.412v2.232h-2.412zm23.993.162h2.412v10.098h-2.412zm-10.584 7.506h1.458c3.24 0 5.346-.072 7.758-.468l.27 1.908c-2.484.432-4.698.486-8.028.486h-1.458zm-.018-6.534h7.668V142h-5.292v2.538h-2.358v-4.32h5.292v-1.386h-5.31zm7.398 9.432c3.528 0 5.724 1.134 5.724 3.132 0 1.98-2.196 3.132-5.724 3.132s-5.688-1.152-5.688-3.132c0-1.998 2.16-3.132 5.688-3.132m0 1.854c-2.178 0-3.312.396-3.312 1.278 0 .864 1.134 1.278 3.312 1.278 2.196 0 3.33-.414 3.33-1.278 0-.882-1.134-1.278-3.33-1.278m19.634-8.874h4.536v1.926h-4.536zm0 5.166h4.536v1.926h-4.536zm-2.88-7.416c2.484 0 4.302 2.304 4.302 5.94 0 3.672-1.818 5.976-4.302 5.976-2.502 0-4.302-2.304-4.302-5.976 0-3.636 1.8-5.94 4.302-5.94m0 2.178c-1.206 0-2.034 1.314-2.034 3.762 0 2.484.828 3.816 2.034 3.816 1.224 0 2.034-1.332 2.034-3.816 0-2.448-.81-3.762-2.034-3.762m7.038-3.348h2.376v16.722h-2.376zm16.882.018h2.268v10.44h-2.268zm-2.034 4.104h2.664v1.944h-2.664zm-1.422-3.78h2.232v9.576h-2.232zm-8.55 1.386h8.082v1.836h-8.082zm4.068 2.376c2.088 0 3.6 1.188 3.6 2.916s-1.512 2.898-3.6 2.898-3.6-1.17-3.6-2.898 1.512-2.916 3.6-2.916m0 1.71c-.882 0-1.476.432-1.476 1.206s.594 1.206 1.476 1.206c.864 0 1.458-.432 1.458-1.206s-.594-1.206-1.458-1.206m-1.206-5.634h2.358v2.808h-2.358zm5.778 10.458c3.564 0 5.724 1.08 5.724 3.024 0 1.926-2.16 3.024-5.724 3.024-3.582 0-5.742-1.098-5.742-3.024 0-1.944 2.16-3.024 5.742-3.024m0 1.782c-2.232 0-3.348.378-3.348 1.242 0 .846 1.116 1.242 3.348 1.242 2.214 0 3.33-.396 3.33-1.242 0-.864-1.116-1.242-3.33-1.242m10.863-10.427v1.457q0 .607-.243 1.228a5.1 5.1 0 0 1-.62 1.15 5 5 0 0 1-.812.908l-1.329-.729q.294-.486.524-1.093.23-.614.23-1.457v-1.464zm3.19 0v1.457q0 .607-.243 1.228a5.2 5.2 0 0 1-.62 1.15 5.1 5.1 0 0 1-.812.908l-1.33-.729q.295-.486.525-1.093.23-.614.23-1.457v-1.464zM39.266 180.132h1.44v16.272h-1.44zm-5.922 5.832h3.114v1.242h-3.114zm2.664-5.454h1.404v15.066h-1.404zm-5.796 2.142h1.152v2.07c0 3.564-1.368 6.93-3.762 8.442l-.918-1.116c2.268-1.368 3.528-4.338 3.528-7.326zm.306 0h1.152v2.07c0 2.826 1.224 5.652 3.456 6.948l-.918 1.098c-2.376-1.44-3.69-4.644-3.69-8.046zm-3.384-.63h7.434v1.242h-7.434zm22.84-.288h1.297v.684c0 2.916-3.096 5.058-6.372 5.616l-.576-1.188c2.862-.414 5.652-2.286 5.652-4.428zm.379 0h1.278v.684c0 2.142 2.808 4.014 5.652 4.428l-.558 1.188c-3.294-.558-6.372-2.7-6.372-5.616zm-.324 8.46h1.476v6.21h-1.476zm-6.57-.792h14.706v1.224H43.459zm1.368-8.262h11.916v1.206H44.827zm17.044 6.588H73.05v1.224H61.871zm-1.854 5.382H74.76v1.26H60.017zm6.588-4.86H68.1v5.364h-1.494zm-4.734-6.822h11.016v1.224h-9.522v5.616h-1.494zm19.979-.126c2.538 0 4.356 1.566 4.356 3.834 0 2.286-1.818 3.852-4.356 3.852s-4.374-1.566-4.374-3.852c0-2.268 1.836-3.834 4.374-3.834m0 1.296c-1.692 0-2.916 1.026-2.916 2.538s1.224 2.556 2.916 2.556c1.674 0 2.898-1.044 2.898-2.556s-1.224-2.538-2.898-2.538m6.48-2.484h1.494v16.308H88.33zm-11.466 12.744-.216-1.242c2.97 0 7.074-.018 10.62-.576l.126 1.098c-3.654.702-7.632.72-10.53.72m27.622-6.408h3.078v1.242h-3.078zm5.796-6.318h1.44v16.272h-1.44zm-3.222.342h1.422v15.12h-1.422zm-5.508 1.008c2.106 0 3.474 2.178 3.474 5.67s-1.368 5.67-3.474 5.67-3.456-2.178-3.456-5.67 1.35-5.67 3.456-5.67m0 1.386c-1.278 0-2.088 1.656-2.088 4.284s.81 4.284 2.088 4.284c1.296 0 2.106-1.656 2.106-4.284s-.81-4.284-2.106-4.284m13.481-.864h6.21v10.044h-6.21zm4.806 1.188h-3.402v7.668h3.402zm7.002-3.06h1.44v16.272h-1.44zm-6.354 6.12h3.744v1.242h-3.744zm3.132-5.778h1.422v15.12h-1.422zm18.52-.342h1.494v8.55h-1.494zm1.098 3.564h2.808v1.242h-2.808zm-9.882 5.724h10.278v3.87h-8.766v2.322h-1.476v-3.438h8.784v-1.584h-8.82zm.036 5.634h10.89v1.17h-10.89zm-1.674-8.172h1.278c2.952 0 5.058-.072 7.596-.486l.126 1.17c-2.574.432-4.716.504-7.722.504h-1.278zm-.036-5.976h7.326v4.032h-5.832v2.52h-1.458v-3.618h5.814v-1.782h-5.85zm17.747 7.02h11.178v1.224h-11.178zm-1.854 5.04h14.742v1.242h-14.742zm1.854-11.34h11.016v1.242h-9.522v5.598h-1.494zm31.294-1.494h1.494v9.432h-1.494zm-4.41 11.43h1.26v.252c0 2.322-2.898 4.158-6.174 4.59l-.504-1.134c2.826-.306 5.418-1.854 5.418-3.456zm.234 0h1.278v.234c0 1.566 2.52 3.132 5.346 3.474l-.522 1.116c-3.294-.432-6.102-2.322-6.102-4.59zm-5.004-.846h11.052v1.17h-11.052zm4.788-1.566h1.476v2.196h-1.476zm-6.588-8.352h1.458v2.484h4.68v-2.484h1.476v7.308h-7.614zm1.458 3.654v2.448h4.68v-2.448zm30.016-4.32h1.512v16.272h-1.512zm1.152 6.39h3.024v1.278h-3.024zm-11.52-5.022h1.476v4.302h4.644V181.5h1.476v10.998h-7.596zm1.476 5.49v4.284h4.644v-4.284zm25.451-6.876h1.512v16.308h-1.512zm1.152 6.426h3.024v1.26h-3.024zm-11.466 4.572h1.278c3.006 0 5.112-.108 7.542-.558l.162 1.26c-2.502.468-4.644.558-7.704.558h-1.278zm0-9.414h7.56v1.224h-6.084v8.748h-1.476zm19.979 6.642h1.494v3.888h-1.494zm.738-7.164c2.502 0 4.302 1.566 4.302 3.834s-1.8 3.834-4.302 3.834-4.302-1.566-4.302-3.834 1.8-3.834 4.302-3.834m0 1.278c-1.656 0-2.844 1.044-2.844 2.556s1.188 2.556 2.844 2.556 2.844-1.044 2.844-2.556-1.188-2.556-2.844-2.556m6.156-2.322h1.494v16.272h-1.494zm1.062 6.696h3.006v1.26h-3.006zm-12.042 6.066-.216-1.242c2.934-.018 6.858-.036 10.17-.486l.126 1.116c-3.438.576-7.236.612-10.08.612m21.268-9.99h8.064v1.224h-8.064zm4.032 2.304c2.034 0 3.51 1.53 3.51 3.726 0 2.178-1.476 3.708-3.51 3.708-2.016 0-3.492-1.53-3.492-3.708 0-2.196 1.476-3.726 3.492-3.726m0 1.278c-1.242 0-2.142 1.008-2.142 2.448s.9 2.448 2.142 2.448c1.26 0 2.178-1.008 2.178-2.448s-.918-2.448-2.178-2.448m8.334-6.354h1.44v16.272h-1.44zm-2.592 6.84h3.078v1.242h-3.078zm-.882-6.48h1.404v15.12h-1.404zm-5.58.108h1.476v3.06h-1.476zm24.406-.486h1.494v11.988h-1.494zm1.026 4.95h2.88v1.242h-2.88zm-9.666 9.756h10.872v1.224H263.7zm0-3.942h1.494v4.428H263.7zm2.052-9.612c2.43 0 4.248 1.674 4.248 4.014 0 2.358-1.818 4.014-4.248 4.014s-4.248-1.656-4.248-4.014c0-2.34 1.818-4.014 4.248-4.014m0 1.314c-1.584 0-2.79 1.116-2.79 2.7 0 1.602 1.206 2.7 2.79 2.7s2.79-1.098 2.79-2.7c0-1.584-1.206-2.7-2.79-2.7m20.357 1.386h4.104v1.242h-4.104zm-4.266-2.844h1.206v1.998c0 3.15-1.764 5.778-4.482 6.876l-.774-1.188c2.412-.9 4.05-3.204 4.05-5.688zm.288 0h1.206v2.052c0 2.268 1.584 4.41 3.942 5.274l-.81 1.152c-2.592-1.008-4.338-3.528-4.338-6.426zm7.524-.972h1.494v12.168h-1.494zm-8.964 14.67h10.854v1.224h-10.854zm0-3.852h1.494v4.428h-1.494zm20.26-3.042h11.178v1.224h-11.178zm-1.854 5.04h14.742v1.242h-14.742zm1.854-11.34h11.016v1.242h-9.522v5.598h-1.494zm25.721-1.512h1.494v16.308h-1.494zm1.134 6.48h3.024v1.26h-3.024zm-11.502 4.662h1.296c3.06 0 5.184-.108 7.65-.576l.162 1.242c-2.538.45-4.698.576-7.812.576h-1.296zm-.036-9.612h7.362v5.832h-5.85v4.284h-1.476v-5.508h5.85v-3.384h-5.886zm27.754-1.53h1.494v16.308h-1.494zm-7.092 1.26c2.412 0 4.14 2.214 4.14 5.67 0 3.474-1.728 5.688-4.14 5.688-2.394 0-4.122-2.214-4.122-5.688 0-3.456 1.728-5.67 4.122-5.67m0 1.35c-1.584 0-2.7 1.692-2.7 4.32 0 2.646 1.116 4.374 2.7 4.374 1.602 0 2.7-1.728 2.7-4.374 0-2.628-1.098-4.32-2.7-4.32m11.843 10.278h14.742v1.26h-14.742zm1.728-11.7h1.476v2.988h8.298v-2.988h1.476v8.478h-11.25zm1.476 4.194v3.06h8.298v-3.06zM38.708 202.114h1.494v16.308h-1.494zm-7.092 1.26c2.412 0 4.14 2.214 4.14 5.67 0 3.474-1.728 5.688-4.14 5.688-2.394 0-4.122-2.214-4.122-5.688 0-3.456 1.728-5.67 4.122-5.67m0 1.35c-1.584 0-2.7 1.692-2.7 4.32 0 2.646 1.116 4.374 2.7 4.374 1.602 0 2.7-1.728 2.7-4.374 0-2.628-1.098-4.32-2.7-4.32m28.486-2.592h1.494v8.28h-1.494zm-3.834 3.6h4.536v1.224h-4.536zm-3.618-3.06c2.43 0 4.194 1.512 4.194 3.708 0 2.16-1.764 3.69-4.194 3.69s-4.194-1.53-4.194-3.69c0-2.196 1.764-3.708 4.194-3.708m0 1.242c-1.584 0-2.754 1.026-2.754 2.466s1.17 2.466 2.754 2.466 2.754-1.026 2.754-2.466-1.17-2.466-2.754-2.466m-1.53 7.38h10.476v3.924h-8.982v2.448h-1.458v-3.564h8.964v-1.62h-9zm.036 5.706H62.19v1.188H51.156zm14.255-13.248h7.47v10.53h-7.47zm6.012 1.206h-4.554v8.118h4.554zm4.356-2.826h1.512v16.272h-1.512zm1.152 6.498h3.024v1.26H76.93zm16.505-.018h3.005v1.26h-3.005zm-1.099-6.498h1.513v16.29h-1.512zm-10.368 1.602h1.495v10.08h-1.495zm0 9.306h1.297c2.411 0 4.877-.162 7.56-.72l.18 1.242c-2.772.576-5.275.738-7.74.738h-1.297zm24.743-7.848h1.224v.792c0 2.916-1.8 5.292-4.518 6.228l-.738-1.17c2.412-.81 4.032-2.79 4.032-5.058zm.252 0h1.242v.792c0 2.07 1.566 3.996 3.96 4.752l-.738 1.17c-2.682-.882-4.464-3.186-4.464-5.922zm-3.852-.846h8.676v1.206h-8.676zm3.6-2.088h1.494v2.664h-1.494zm7.074-.126h1.494v12.078h-1.494zm1.026 5.076h2.88v1.242h-2.88zm-9.666 9.63h10.872v1.224h-10.872zm0-3.672h1.494v4.374h-1.494zm25.198-10.998h1.494v11.988h-1.494zm1.044 4.968h2.862v1.26h-2.862zm-9.576 9.702h10.764v1.224h-10.764zm0-3.618h1.494v4.068h-1.494zm-1.89-2.826h1.278c2.952 0 5.058-.09 7.596-.54l.126 1.242c-2.574.432-4.716.522-7.722.522h-1.278zm-.036-7.182h7.326v4.662h-5.832v2.952h-1.458v-4.086h5.814v-2.304h-5.85zm27.017-1.044h1.494v12.204h-1.494zm1.026 5.328h2.88v1.26h-2.88zm-12.114-3.366h9.612v1.206h-9.612zm4.806 2.106c2.304 0 3.888 1.206 3.888 3.042 0 1.818-1.584 3.024-3.888 3.024-2.322 0-3.906-1.206-3.906-3.024 0-1.836 1.584-3.042 3.906-3.042m0 1.17c-1.476 0-2.484.738-2.484 1.872 0 1.116 1.008 1.854 2.484 1.854 1.458 0 2.466-.738 2.466-1.854 0-1.134-1.008-1.872-2.466-1.872m-.756-5.256h1.494v2.61h-1.494zm-1.602 14.688h10.872v1.224h-10.872zm0-3.438h1.494v3.96h-1.494zm25.073-11.268h1.512v16.29h-1.512zm1.098 6.606h3.006v1.242h-3.006zm-5.256-4.842h1.458c0 4.626-2.124 8.802-7.38 11.448l-.828-1.152c4.5-2.286 6.75-5.76 6.75-10.062zm-5.994 0h6.768v1.224h-6.768zm22.951 9.357v-.121q.012-1.19.236-1.892.23-.703.652-1.138t1.017-.793q.383-.243.69-.543t.486-.69a2.05 2.05 0 0 0 .179-.863q0-.57-.269-.985a1.8 1.8 0 0 0-.716-.639 2.1 2.1 0 0 0-.984-.23q-.492 0-.94.204-.447.205-.741.64-.294.428-.339 1.105h-1.943q.045-1.15.582-1.943a3.4 3.4 0 0 1 1.419-1.208 4.6 4.6 0 0 1 1.962-.409q1.176 0 2.058.441.882.435 1.368 1.221.492.78.492 1.822 0 .715-.223 1.291-.225.569-.64 1.016-.408.448-.984.793-.543.339-.882.703a2.2 2.2 0 0 0-.486.863q-.154.498-.166 1.234v.121zm.965 3.886a1.24 1.24 0 0 1-.901-.37 1.24 1.24 0 0 1-.377-.908q0-.524.377-.895a1.23 1.23 0 0 1 .901-.377q.517 0 .895.377.383.371.383.895 0 .352-.179.646a1.3 1.3 0 0 1-.46.46 1.2 1.2 0 0 1-.639.172m15.082-12.667h1.206v2.646c0 3.438-2.07 6.894-4.662 8.172l-.864-1.188c2.358-1.116 4.32-4.176 4.32-6.984zm.288 0h1.206v2.646c0 2.754 1.962 5.562 4.356 6.588l-.846 1.188c-2.628-1.224-4.716-4.392-4.716-7.776zm-4.068-.666h9.09v1.26h-9.09zm11.286-1.656h1.494v16.272h-1.494zm16.577.018h1.512v12.024h-1.512zm-8.946 14.67h10.944v1.224h-10.944zm0-3.78h1.476v4.428h-1.476zm1.53-7.794h1.224v.684c0 2.916-1.854 5.328-4.572 6.264l-.738-1.17c2.412-.792 4.086-2.844 4.086-5.094zm.252 0h1.224v.684c0 2.124 1.692 4.05 4.122 4.806l-.72 1.17c-2.754-.882-4.626-3.186-4.626-5.976zm-3.96-.936h8.856v1.206h-8.856zm3.708-2.106h1.476v2.682h-1.476zm21.466.522c2.43 0 4.212 1.476 4.212 3.618 0 2.124-1.782 3.6-4.212 3.6-2.412 0-4.194-1.476-4.194-3.6 0-2.142 1.782-3.618 4.194-3.618m0 1.224c-1.566 0-2.754.99-2.754 2.394s1.188 2.376 2.754 2.376c1.584 0 2.754-.972 2.754-2.376s-1.17-2.394-2.754-2.394m7.272-1.818h1.512v8.334h-1.512zm-9.018 9.126h10.53v3.96h-9.036v2.448h-1.458v-3.564h9.018v-1.638h-9.054zm.036 5.742h11.034v1.188h-11.034zm17.657-14.022h1.242v1.656c0 3.132-1.764 5.724-4.482 6.786l-.792-1.206c2.448-.9 4.032-3.096 4.032-5.58zm.27 0h1.224v1.764c0 2.196 1.62 4.23 3.96 5.04l-.792 1.17c-2.61-.972-4.392-3.384-4.392-6.21zm6.912-.846h1.494v9.864h-1.494zm1.08 4.194h2.826v1.26h-2.826zm-4.77 6.12c3.33 0 5.346 1.098 5.346 2.97s-2.016 2.952-5.346 2.952-5.346-1.08-5.346-2.952 2.016-2.97 5.346-2.97m0 1.188c-2.412 0-3.888.648-3.888 1.782s1.476 1.782 3.888 1.782 3.888-.648 3.888-1.782-1.476-1.782-3.888-1.782m13.87-3.348h14.76v1.224h-14.76zm6.606-2.466h1.476v3.024h-1.476zm-.018-5.436h1.296v.72c0 2.934-3.114 5.022-6.426 5.562l-.576-1.188c2.916-.396 5.706-2.196 5.706-4.374zm.234 0h1.278v.72c0 2.178 2.808 3.978 5.706 4.374l-.558 1.188c-3.294-.558-6.426-2.628-6.426-5.562zm-5.184 10.71h11.25v5.31h-1.494V214.3h-9.756zm30.826-10.944h1.494v12.204h-1.494zm1.026 5.328h2.88v1.26h-2.88zM285 204.112h9.612v1.206H285zm4.806 2.106c2.304 0 3.888 1.206 3.888 3.042 0 1.818-1.584 3.024-3.888 3.024-2.322 0-3.906-1.206-3.906-3.024 0-1.836 1.584-3.042 3.906-3.042m0 1.17c-1.476 0-2.484.738-2.484 1.872 0 1.116 1.008 1.854 2.484 1.854 1.458 0 2.466-.738 2.466-1.854 0-1.134-1.008-1.872-2.466-1.872m-.756-5.256h1.494v2.61h-1.494zm-1.602 14.688h10.872v1.224h-10.872zm0-3.438h1.494v3.96h-1.494zm20.681-2.988h1.476v2.808h-1.476zm-.234-7.038h1.332v.504c0 2.61-2.988 4.374-6.354 4.788l-.54-1.188c2.916-.306 5.562-1.764 5.562-3.6zm.63 0h1.314v.504c0 1.836 2.646 3.294 5.562 3.6l-.54 1.188c-3.366-.414-6.336-2.178-6.336-4.788zm-5.67-.594h12.042v1.224h-12.042zm.45 10.116h11.106v5.31h-11.106zm9.648 1.206h-8.172v2.898h8.172zm-11.448-4.464h14.706v1.224h-14.706zm21.851-6.318c2.538 0 4.356 1.566 4.356 3.834 0 2.286-1.818 3.852-4.356 3.852s-4.374-1.566-4.374-3.852c0-2.268 1.836-3.834 4.374-3.834m0 1.296c-1.692 0-2.916 1.026-2.916 2.538s1.224 2.556 2.916 2.556c1.674 0 2.898-1.044 2.898-2.556s-1.224-2.538-2.898-2.538m6.48-2.484h1.494v16.308h-1.494zm-11.466 12.744-.216-1.242c2.97 0 7.074-.018 10.62-.576l.126 1.098c-3.654.702-7.632.72-10.53.72m32.86-12.726h1.494v9.432h-1.494zm-4.41 11.43h1.26v.252c0 2.322-2.898 4.158-6.174 4.59l-.504-1.134c2.826-.306 5.418-1.854 5.418-3.456zm.234 0h1.278v.234c0 1.566 2.52 3.132 5.346 3.474l-.522 1.116c-3.294-.432-6.102-2.322-6.102-4.59zm-5.004-.846h11.052v1.17H342.05zm4.788-1.566h1.476v2.196h-1.476zm-6.588-8.352h1.458v2.484h4.68v-2.484h1.476v7.308h-7.614zm1.458 3.654v2.448h4.68v-2.448z"/><path fill="#262626" d="m31.22 275 1.79-10.909h1.065L32.285 275zm-4.964-3.026.17-1.065h8.14l-.171 1.065zM27.385 275l1.79-10.909h1.065L28.45 275zm-.49-6.818.17-1.066h8.14l-.17 1.066zm19.623-5.572h1.2v13.56h-1.2zm-4.935 4.86h2.595v1.035h-2.595zm2.22-4.545h1.17v12.555h-1.17zm-4.83 1.785h.96v1.725c0 2.97-1.14 5.775-3.135 7.035l-.765-.93c1.89-1.14 2.94-3.615 2.94-6.105zm.255 0h.96v1.725c0 2.355 1.02 4.71 2.88 5.79l-.765.915c-1.98-1.2-3.075-3.87-3.075-6.705zm-2.82-.525h6.195v1.035h-6.195zm19.034-.24h1.08v.57c0 2.43-2.58 4.215-5.31 4.68l-.48-.99c2.385-.345 4.71-1.905 4.71-3.69zm.315 0h1.065v.57c0 1.785 2.34 3.345 4.71 3.69l-.465.99c-2.745-.465-5.31-2.25-5.31-4.68zm-.27 7.05h1.23v5.175h-1.23zm-5.475-.66h12.255v1.02H50.012zm1.14-6.885h9.93v1.005h-9.93zm14.204 5.49h9.315v1.02h-9.315zm-1.545 4.485h12.285v1.05H63.81zm5.49-4.05h1.245v4.47H69.3zm-3.945-5.685h9.18v1.02H66.6v4.68h-1.244zM86.298 275l1.79-10.909h1.065L87.363 275zm-4.964-3.026.17-1.065h8.14l-.171 1.065zm1.13 3.026 1.789-10.909h1.065L83.528 275zm-.491-6.818.17-1.066h8.14l-.17 1.066zm12.483 3.743h1.26v4.275h-1.26zm4.665 0h1.245v4.275h-1.245zm-7.2-7.815h10.905v1.005H91.921zm-.63 7.17h12.285v1.02H91.291zm6.12-5.4c2.76 0 4.395.81 4.395 2.235 0 1.44-1.635 2.25-4.395 2.25-2.775 0-4.41-.81-4.41-2.25 0-1.425 1.635-2.235 4.41-2.235m0 .945c-1.98 0-3.12.465-3.12 1.29 0 .84 1.14 1.305 3.12 1.305s3.12-.465 3.12-1.305c0-.825-1.14-1.29-3.12-1.29m-.63-4.29h1.245v2.295h-1.245zm18.449 2.1h2.355v1.035h-2.355zm0 2.88h2.355v1.035h-2.355zm-6.36-4.11c2.04 0 3.54 1.32 3.54 3.21 0 1.875-1.5 3.18-3.54 3.18s-3.54-1.305-3.54-3.18c0-1.89 1.5-3.21 3.54-3.21m0 1.05c-1.35 0-2.325.885-2.325 2.16s.975 2.145 2.325 2.145 2.325-.87 2.325-2.145-.975-2.16-2.325-2.16m5.49-1.845h1.245v8.025h-1.245zm-3.075 8.46c2.76 0 4.455.945 4.455 2.535 0 1.605-1.695 2.535-4.455 2.535s-4.455-.93-4.455-2.535c0-1.59 1.695-2.535 4.455-2.535m0 1.005c-2.01 0-3.24.555-3.24 1.53s1.23 1.545 3.24 1.545 3.24-.57 3.24-1.545-1.23-1.53-3.24-1.53M127.578 275l1.789-10.909h1.066L128.643 275zm-4.965-3.026.171-1.065h8.139l-.171 1.065zm1.129 3.026 1.79-10.909h1.065L124.808 275zm-.49-6.818.171-1.066h8.139l-.17 1.066zm19.173-5.617h1.245v7.485h-1.245zm-7.53 8.175h8.775v3.03h-7.53v1.545h-1.215v-2.46h7.515v-1.185h-7.545zm.03 4.32h9.21v.96h-9.21zm-2.16-11.235H141v.96h-8.235zm4.11 1.59c2.01 0 3.315.855 3.315 2.235 0 1.365-1.305 2.205-3.315 2.205s-3.3-.84-3.3-2.205c0-1.38 1.29-2.235 3.3-2.235m0 .915c-1.275 0-2.115.51-2.115 1.32 0 .795.84 1.305 2.115 1.305s2.115-.51 2.115-1.305c0-.81-.84-1.32-2.115-1.32m-.615-3.885h1.245v1.875h-1.245zm19.964.18h1.26v8.325h-1.26zm-9.165 6.48h1.095c2.46 0 4.275-.075 6.45-.435l.135 1.02c-2.235.375-4.065.435-6.585.435h-1.095zm-.03-5.64h6.15v3.75h-4.905v2.46h-1.215v-3.435h4.905v-1.755h-4.935zm5.985 7.785c2.82 0 4.56.885 4.56 2.445s-1.74 2.46-4.56 2.46c-2.835 0-4.545-.9-4.545-2.46s1.71-2.445 4.545-2.445m0 .99c-2.07 0-3.315.525-3.315 1.455s1.245 1.47 3.315 1.47 3.315-.54 3.315-1.47-1.245-1.455-3.315-1.455m13.259-6.615h4.095v1.035h-4.095zm0 4.29h4.095v1.035h-4.095zm-2.49-6.27c1.965 0 3.375 1.845 3.375 4.725 0 2.895-1.41 4.74-3.375 4.74-1.98 0-3.375-1.845-3.375-4.74 0-2.88 1.395-4.725 3.375-4.725m0 1.125c-1.305 0-2.205 1.41-2.205 3.6 0 2.205.9 3.645 2.205 3.645s2.205-1.44 2.205-3.645c0-2.19-.9-3.6-2.205-3.6m6.315-2.175h1.23v13.59h-1.23zm14.099.015h1.185v8.58h-1.185zm-2.205 3.675h2.565v1.035h-2.565zm-.69-3.405h1.17v7.83h-1.17zm-7.41 1.35h6.87v.99h-6.87zm3.45 1.68c1.695 0 2.88.93 2.88 2.325 0 1.41-1.185 2.325-2.88 2.325-1.71 0-2.895-.915-2.895-2.325 0-1.395 1.185-2.325 2.895-2.325m0 .93c-1.065 0-1.785.555-1.785 1.395 0 .855.72 1.395 1.785 1.395 1.05 0 1.77-.54 1.77-1.395 0-.84-.72-1.395-1.77-1.395m-.615-4.125h1.215v2.07h-1.215zm4.215 8.715c2.82 0 4.515.84 4.515 2.355 0 1.5-1.695 2.355-4.515 2.355-2.85 0-4.53-.855-4.53-2.355 0-1.515 1.68-2.355 4.53-2.355m0 .96c-2.085 0-3.3.495-3.3 1.395s1.215 1.41 3.3 1.41c2.055 0 3.285-.51 3.285-1.41s-1.23-1.395-3.285-1.395m15.513 2.61 1.789-10.909h1.066L197.52 275zm-4.965-3.026.171-1.065h8.139l-.171 1.065zm1.129 3.026 1.79-10.909h1.065L193.685 275zm-.49-6.818.171-1.066h8.139l-.171 1.066zm19.623-5.572h1.2v13.56h-1.2zm-4.935 4.86h2.595v1.035h-2.595zm2.22-4.545h1.17v12.555h-1.17zm-4.83 1.785h.96v1.725c0 2.97-1.14 5.775-3.135 7.035l-.765-.93c1.89-1.14 2.94-3.615 2.94-6.105zm.255 0h.96v1.725c0 2.355 1.02 4.71 2.88 5.79l-.765.915c-1.98-1.2-3.075-3.87-3.075-6.705zm-2.82-.525h6.195v1.035h-6.195zm19.034-.24h1.08v.57c0 2.43-2.58 4.215-5.31 4.68l-.48-.99c2.385-.345 4.71-1.905 4.71-3.69zm.315 0h1.065v.57c0 1.785 2.34 3.345 4.71 3.69l-.465.99c-2.745-.465-5.31-2.25-5.31-4.68zm-.27 7.05h1.23v5.175h-1.23zm-5.475-.66h12.255v1.02h-12.255zm1.14-6.885h9.93v1.005h-9.93zm18.764 2.175h4.095v1.035h-4.095zm0 4.29h4.095v1.035h-4.095zm-2.49-6.27c1.965 0 3.375 1.845 3.375 4.725 0 2.895-1.41 4.74-3.375 4.74-1.98 0-3.375-1.845-3.375-4.74 0-2.88 1.395-4.725 3.375-4.725m0 1.125c-1.305 0-2.205 1.41-2.205 3.6 0 2.205.9 3.645 2.205 3.645s2.205-1.44 2.205-3.645c0-2.19-.9-3.6-2.205-3.6m6.315-2.175h1.23v13.59h-1.23zm14.099.015h1.185v8.58h-1.185zm-2.205 3.675h2.565v1.035h-2.565zm-.69-3.405h1.17v7.83h-1.17zm-7.41 1.35h6.87v.99h-6.87zm3.45 1.68c1.695 0 2.88.93 2.88 2.325 0 1.41-1.185 2.325-2.88 2.325-1.71 0-2.895-.915-2.895-2.325 0-1.395 1.185-2.325 2.895-2.325m0 .93c-1.065 0-1.785.555-1.785 1.395 0 .855.72 1.395 1.785 1.395 1.05 0 1.77-.54 1.77-1.395 0-.84-.72-1.395-1.77-1.395m-.615-4.125h1.215v2.07h-1.215zm4.215 8.715c2.82 0 4.515.84 4.515 2.355 0 1.5-1.695 2.355-4.515 2.355-2.85 0-4.53-.855-4.53-2.355 0-1.515 1.68-2.355 4.53-2.355m0 .96c-2.085 0-3.3.495-3.3 1.395s1.215 1.41 3.3 1.41c2.055 0 3.285-.51 3.285-1.41s-1.23-1.395-3.285-1.395"/></svg>