<svg width="400" height="300" viewBox="0 0 400 300" fill="none" xmlns="http://www.w3.org/2000/svg">
<path d="M0 30C0 13.4315 13.4315 0 30 0H370C386.569 0 400 13.4315 400 30V270C400 286.569 386.569 300 370 300H30C13.4315 300 0 286.569 0 270V30Z" fill="white" fill-opacity="0.5"/>
<path d="M46.3246 26.586H49.0966V46.958H46.3246V26.586ZM39.6146 33.538H42.9806V35.914H39.6146V33.538ZM42.2106 26.916H44.9386V46.034H42.2106V26.916ZM35.2146 29.908H37.4146V31.998C37.4146 36.574 36.1606 41.128 32.9266 43.152L31.1886 40.996C34.1806 39.126 35.2146 35.474 35.2146 31.998V29.908ZM35.8746 29.908H38.0526V31.998C38.0526 35.386 39.0646 38.818 42.0126 40.534L40.2966 42.668C37.0626 40.754 35.8746 36.486 35.8746 31.998V29.908ZM31.9586 28.632H41.0446V30.986H31.9586V28.632ZM59.3908 28.852H61.9208V29.446C61.9208 33.032 58.9948 35.958 53.8248 36.662L52.7468 34.374C57.2348 33.824 59.3908 31.536 59.3908 29.446V28.852ZM60.2268 28.852H62.7568V29.446C62.7568 31.536 64.9128 33.824 69.4008 34.374L68.3448 36.662C63.1528 35.958 60.2268 33.032 60.2268 29.446V28.852ZM59.5448 39.5H62.4488V46.98H59.5448V39.5ZM51.8668 37.828H70.2808V40.16H51.8668V37.828ZM53.4948 27.62H68.6088V29.93H53.4948V27.62ZM82.8301 28.3984V48.3281H77.6973V46.4766H80.5957V30.25H77.6973V28.3984H82.8301Z" fill="black"/>
<path d="M39.266 92.132H40.706V108.404H39.266V92.132ZM33.344 97.964H36.458V99.206H33.344V97.964ZM36.008 92.51H37.412V107.576H36.008V92.51ZM30.212 94.652H31.364V96.722C31.364 100.286 29.996 103.652 27.602 105.164L26.684 104.048C28.952 102.68 30.212 99.71 30.212 96.722V94.652ZM30.518 94.652H31.67V96.722C31.67 99.548 32.894 102.374 35.126 103.67L34.208 104.768C31.832 103.328 30.518 100.124 30.518 96.722V94.652ZM27.134 94.022H34.568V95.264H27.134V94.022ZM49.9746 93.734H51.2706V94.418C51.2706 97.334 48.1746 99.476 44.8986 100.034L44.3226 98.846C47.1846 98.432 49.9746 96.56 49.9746 94.418V93.734ZM50.3526 93.734H51.6306V94.418C51.6306 96.56 54.4386 98.432 57.2826 98.846L56.7246 100.034C53.4306 99.476 50.3526 97.334 50.3526 94.418V93.734ZM50.0286 102.194H51.5046V108.404H50.0286V102.194ZM43.4586 101.402H58.1646V102.626H43.4586V101.402ZM44.8266 93.14H56.7426V94.346H44.8266V93.14ZM61.8712 99.728H73.0492V100.952H61.8712V99.728ZM60.0172 105.11H74.7592V106.37H60.0172V105.11ZM66.6052 100.25H68.0992V105.614H66.6052V100.25ZM61.8712 93.428H72.8872V94.652H63.3652V100.268H61.8712V93.428ZM88.6655 95.75H93.5795V96.992H88.6655V95.75ZM88.6655 100.898H93.5795V102.14H88.6655V100.898ZM85.6775 93.374C88.0355 93.374 89.7275 95.588 89.7275 99.044C89.7275 102.518 88.0355 104.732 85.6775 104.732C83.3015 104.732 81.6275 102.518 81.6275 99.044C81.6275 95.588 83.3015 93.374 85.6775 93.374ZM85.6775 94.724C84.1115 94.724 83.0315 96.416 83.0315 99.044C83.0315 101.69 84.1115 103.418 85.6775 103.418C87.2435 103.418 88.3235 101.69 88.3235 99.044C88.3235 96.416 87.2435 94.724 85.6775 94.724ZM93.2555 92.114H94.7315V108.422H93.2555V92.114ZM110.174 92.132H111.596V102.428H110.174V92.132ZM107.528 96.542H110.606V97.784H107.528V96.542ZM106.7 92.456H108.104V101.852H106.7V92.456ZM97.808 94.076H106.052V95.264H97.808V94.076ZM101.948 96.092C103.982 96.092 105.404 97.208 105.404 98.882C105.404 100.574 103.982 101.672 101.948 101.672C99.896 101.672 98.474 100.574 98.474 98.882C98.474 97.208 99.896 96.092 101.948 96.092ZM101.948 97.208C100.67 97.208 99.806 97.874 99.806 98.882C99.806 99.908 100.67 100.556 101.948 100.556C103.208 100.556 104.072 99.908 104.072 98.882C104.072 97.874 103.208 97.208 101.948 97.208ZM101.21 92.258H102.668V94.742H101.21V92.258ZM106.268 102.716C109.652 102.716 111.686 103.724 111.686 105.542C111.686 107.342 109.652 108.368 106.268 108.368C102.848 108.368 100.832 107.342 100.832 105.542C100.832 103.724 102.848 102.716 106.268 102.716ZM106.268 103.868C103.766 103.868 102.308 104.462 102.308 105.542C102.308 106.622 103.766 107.234 106.268 107.234C108.734 107.234 110.21 106.622 110.21 105.542C110.21 104.462 108.734 103.868 106.268 103.868ZM120.57 92.618H132.522V93.788H120.57V92.618ZM120.642 96.884H132.45V98.036H120.642V96.884ZM123.036 93.068H124.53V97.64H123.036V93.068ZM128.58 93.068H130.056V97.64H128.58V93.068ZM119.202 99.386H133.908V100.592H119.202V99.386ZM120.984 102.014H132.036V105.578H122.496V107.54H121.02V104.516H130.56V103.13H120.984V102.014ZM121.02 107.09H132.522V108.224H121.02V107.09ZM136.301 103.274H137.381C139.361 103.274 141.161 103.202 143.357 102.824L143.483 104.066C141.233 104.462 139.397 104.516 137.381 104.516H136.301V103.274ZM136.265 93.896H142.367V99.62H137.759V103.742H136.301V98.396H140.909V95.12H136.265V93.896ZM148.145 92.132H149.585V108.404H148.145V92.132ZM145.391 98.558H148.523V99.782H145.391V98.558ZM144.455 92.492H145.859V107.576H144.455V92.492ZM164.254 92.132H165.748V108.44H164.254V92.132ZM159.25 97.496H164.74V98.72H159.25V97.496ZM153.22 93.95H154.696V104.03H153.22V93.95ZM153.22 103.238H154.48C157 103.238 159.25 103.094 161.752 102.572L161.932 103.832C159.34 104.336 157.054 104.498 154.48 104.498H153.22V103.238ZM176.454 93.9091L176.288 103.235H174.518L174.351 93.9091H176.454ZM175.406 107.121C175.052 107.121 174.75 106.998 174.498 106.751C174.247 106.499 174.123 106.197 174.128 105.843C174.123 105.494 174.247 105.195 174.498 104.948C174.75 104.697 175.052 104.571 175.406 104.571C175.751 104.571 176.05 104.697 176.301 104.948C176.552 105.195 176.68 105.494 176.684 105.843C176.68 106.077 176.618 106.293 176.499 106.489C176.384 106.68 176.231 106.834 176.039 106.949C175.847 107.064 175.636 107.121 175.406 107.121ZM27.0355 142V140.543C27.0355 140.138 27.1143 139.729 27.272 139.315C27.4339 138.898 27.6428 138.51 27.8984 138.152C28.1584 137.79 28.4268 137.491 28.7038 137.257L30.0334 137.986C29.8033 138.361 29.62 138.753 29.4837 139.162C29.3473 139.567 29.2813 140.025 29.2855 140.536V142H27.0355ZM30.2443 142V140.543C30.2443 140.138 30.3232 139.729 30.4808 139.315C30.6428 138.898 30.8516 138.51 31.1072 138.152C31.3672 137.79 31.6357 137.491 31.9126 137.257L33.2422 137.986C33.0121 138.361 32.8288 138.753 32.6925 139.162C32.5561 139.567 32.4901 140.025 32.4943 140.536V142H30.2443ZM36.4138 136.636H46.9798V138.544H36.4138V136.636ZM34.5778 142.396H49.6618V144.304H34.5778V142.396ZM40.8958 143.746H43.2898V147.238H40.8958V143.746ZM45.5398 136.636H47.8978V137.968C47.8978 139.408 47.8978 141.082 47.3758 143.278L45.0178 143.044C45.5398 140.902 45.5398 139.372 45.5398 137.968V136.636ZM36.0898 146.644H47.9158V152.602H45.5218V148.534H36.0898V146.644ZM63.1064 135.934H65.3924V152.602H63.1064V135.934ZM60.9284 142.36H63.7004V144.268H60.9284V142.36ZM59.3804 136.222H61.6124V151.81H59.3804V136.222ZM51.7664 137.77H54.1604V147.4H51.7664V137.77ZM51.7664 146.5H52.9184C54.5204 146.5 56.3924 146.41 58.4624 146.014L58.6964 148.066C56.5184 148.462 54.6104 148.552 52.9184 148.552H51.7664V146.5ZM75.0182 148.084H77.4302V152.638H75.0182V148.084ZM80.7782 148.084H83.1902V152.638H80.7782V148.084ZM72.2642 137.608H85.8362V139.48H72.2642V137.608ZM71.5622 146.608H86.6462V148.516H71.5622V146.608ZM79.0862 140.128C82.6682 140.128 84.7922 141.136 84.7922 142.954C84.7922 144.79 82.6682 145.816 79.0862 145.816C75.4862 145.816 73.3622 144.79 73.3622 142.954C73.3622 141.136 75.4862 140.128 79.0862 140.128ZM79.0862 141.892C76.9082 141.892 75.8462 142.216 75.8462 142.954C75.8462 143.71 76.9082 144.034 79.0862 144.034C81.2642 144.034 82.3262 143.71 82.3262 142.954C82.3262 142.216 81.2642 141.892 79.0862 141.892ZM77.8802 135.916H80.2742V138.922H77.8802V135.916ZM100.487 137.986H103.367V139.93H100.487V137.986ZM100.487 141.604H103.367V143.548H100.487V141.604ZM92.7468 136.834C95.3208 136.834 97.2828 138.526 97.2828 140.884C97.2828 143.224 95.3208 144.916 92.7468 144.916C90.1728 144.916 88.2108 143.224 88.2108 140.884C88.2108 138.526 90.1728 136.834 92.7468 136.834ZM92.7468 138.832C91.4868 138.832 90.5508 139.606 90.5508 140.884C90.5508 142.18 91.4868 142.918 92.7468 142.918C94.0068 142.918 94.9428 142.18 94.9428 140.884C94.9428 139.606 94.0068 138.832 92.7468 138.832ZM98.8308 135.934H101.225V145.654H98.8308V135.934ZM95.7888 146.014C99.2268 146.014 101.423 147.256 101.423 149.308C101.423 151.378 99.2268 152.602 95.7888 152.602C92.3328 152.602 90.1368 151.378 90.1368 149.308C90.1368 147.256 92.3328 146.014 95.7888 146.014ZM95.7888 147.904C93.6648 147.904 92.5128 148.354 92.5128 149.308C92.5128 150.28 93.6648 150.73 95.7888 150.73C97.9128 150.73 99.0468 150.28 99.0468 149.308C99.0468 148.354 97.9128 147.904 95.7888 147.904ZM108.529 142.036H123.613V143.944H108.529V142.036ZM109.933 136.492H113.821V138.382H109.933V136.492ZM113.119 136.492H115.459V137.392C115.459 138.58 115.459 140.398 114.631 142.81L112.327 142.486C113.119 140.092 113.119 138.544 113.119 137.392V136.492ZM116.395 136.492H120.679V138.382H116.395V136.492ZM119.563 136.492H121.903V137.644C121.903 138.994 121.903 140.686 121.201 142.9L118.879 142.576C119.563 140.398 119.563 138.94 119.563 137.644V136.492ZM110.365 145.078H121.849V146.842H112.759V151.054H110.365V145.078ZM110.365 150.64H121.975V152.422H110.365V150.64ZM111.787 147.868H121.453V149.56H111.787V147.868ZM125.429 137.284H134.321V139.21H125.429V137.284ZM125.249 145.996L124.997 144.07C127.823 144.052 131.693 144.016 134.897 143.602L135.059 145.348C131.783 145.924 128.003 145.996 125.249 145.996ZM126.743 138.76H129.047V144.43H126.743V138.76ZM130.721 138.76H133.007V144.43H130.721V138.76ZM135.815 135.952H138.209V148.228H135.815V135.952ZM137.525 140.632H140.423V142.612H137.525V140.632ZM127.463 150.406H138.803V152.314H127.463V150.406ZM127.463 147.076H129.857V150.91H127.463V147.076ZM152.482 135.952H154.876V146.41H152.482V135.952ZM154.03 140.182H156.964V142.144H154.03V140.182ZM149.296 146.626C152.788 146.626 154.966 147.742 154.966 149.614C154.966 151.486 152.788 152.602 149.296 152.602C145.804 152.602 143.626 151.486 143.626 149.614C143.626 147.742 145.804 146.626 149.296 146.626ZM149.296 148.426C147.154 148.426 146.002 148.822 146.002 149.614C146.002 150.424 147.154 150.802 149.296 150.802C151.438 150.802 152.572 150.424 152.572 149.614C152.572 148.822 151.438 148.426 149.296 148.426ZM145.444 142.126H147.838V144.7H145.444V142.126ZM141.844 145.726L141.592 143.89C144.436 143.89 148.342 143.872 151.6 143.422L151.78 145.06C148.414 145.672 144.634 145.726 141.844 145.726ZM146.614 136.438C149.044 136.438 150.772 137.734 150.772 139.624C150.772 141.514 149.044 142.81 146.614 142.81C144.184 142.81 142.456 141.514 142.456 139.624C142.456 137.734 144.184 136.438 146.614 136.438ZM146.614 138.184C145.462 138.184 144.688 138.688 144.688 139.624C144.688 140.542 145.462 141.082 146.614 141.082C147.766 141.082 148.54 140.542 148.54 139.624C148.54 138.688 147.766 138.184 146.614 138.184ZM161.665 149.21L161.607 149.92C161.556 150.508 161.452 151.081 161.294 151.639C161.141 152.202 160.977 152.707 160.802 153.154C160.627 153.602 160.489 153.949 160.386 154.196H158.418C158.486 153.949 158.577 153.602 158.692 153.154C158.812 152.707 158.923 152.202 159.025 151.639C159.127 151.077 159.185 150.506 159.197 149.926L159.21 149.21H161.665ZM178.283 135.916H180.695V144.916H178.283V135.916ZM169.571 145.582H180.695V149.812H171.947V151.108H169.589V148.174H178.319V147.31H169.571V145.582ZM169.589 150.73H181.109V152.494H169.589V150.73ZM167.033 137.158H177.059V138.94H167.033V137.158ZM172.055 139.372C174.593 139.372 176.231 140.434 176.231 142.108C176.231 143.782 174.593 144.808 172.055 144.808C169.535 144.808 167.897 143.782 167.897 142.108C167.897 140.434 169.535 139.372 172.055 139.372ZM172.055 141.046C170.903 141.046 170.183 141.406 170.183 142.108C170.183 142.774 170.903 143.134 172.055 143.134C173.207 143.134 173.927 142.774 173.927 142.108C173.927 141.406 173.207 141.046 172.055 141.046ZM170.849 135.79H173.261V138.022H170.849V135.79ZM194.842 135.952H197.254V146.05H194.842V135.952ZM184.258 143.458H185.716C188.956 143.458 191.062 143.386 193.474 142.99L193.744 144.898C191.26 145.33 189.046 145.384 185.716 145.384H184.258V143.458ZM184.24 136.924H191.908V142H186.616V144.538H184.258V140.218H189.55V138.832H184.24V136.924ZM191.638 146.356C195.166 146.356 197.362 147.49 197.362 149.488C197.362 151.468 195.166 152.62 191.638 152.62C188.11 152.62 185.95 151.468 185.95 149.488C185.95 147.49 188.11 146.356 191.638 146.356ZM191.638 148.21C189.46 148.21 188.326 148.606 188.326 149.488C188.326 150.352 189.46 150.766 191.638 150.766C193.834 150.766 194.968 150.352 194.968 149.488C194.968 148.606 193.834 148.21 191.638 148.21ZM211.272 139.336H215.808V141.262H211.272V139.336ZM211.272 144.502H215.808V146.428H211.272V144.502ZM208.392 137.086C210.876 137.086 212.694 139.39 212.694 143.026C212.694 146.698 210.876 149.002 208.392 149.002C205.89 149.002 204.09 146.698 204.09 143.026C204.09 139.39 205.89 137.086 208.392 137.086ZM208.392 139.264C207.186 139.264 206.358 140.578 206.358 143.026C206.358 145.51 207.186 146.842 208.392 146.842C209.616 146.842 210.426 145.51 210.426 143.026C210.426 140.578 209.616 139.264 208.392 139.264ZM215.43 135.916H217.806V152.638H215.43V135.916ZM232.312 135.934H234.58V146.374H232.312V135.934ZM230.278 140.038H232.942V141.982H230.278V140.038ZM228.856 136.258H231.088V145.834H228.856V136.258ZM220.306 137.644H228.388V139.48H220.306V137.644ZM224.374 140.02C226.462 140.02 227.974 141.208 227.974 142.936C227.974 144.664 226.462 145.834 224.374 145.834C222.286 145.834 220.774 144.664 220.774 142.936C220.774 141.208 222.286 140.02 224.374 140.02ZM224.374 141.73C223.492 141.73 222.898 142.162 222.898 142.936C222.898 143.71 223.492 144.142 224.374 144.142C225.238 144.142 225.832 143.71 225.832 142.936C225.832 142.162 225.238 141.73 224.374 141.73ZM223.168 136.096H225.526V138.904H223.168V136.096ZM228.946 146.554C232.51 146.554 234.67 147.634 234.67 149.578C234.67 151.504 232.51 152.602 228.946 152.602C225.364 152.602 223.204 151.504 223.204 149.578C223.204 147.634 225.364 146.554 228.946 146.554ZM228.946 148.336C226.714 148.336 225.598 148.714 225.598 149.578C225.598 150.424 226.714 150.82 228.946 150.82C231.16 150.82 232.276 150.424 232.276 149.578C232.276 148.714 231.16 148.336 228.946 148.336ZM239.809 137.909V139.366C239.809 139.771 239.728 140.18 239.566 140.594C239.409 141.003 239.202 141.386 238.946 141.744C238.691 142.102 238.42 142.405 238.134 142.652L236.805 141.923C237.001 141.599 237.176 141.235 237.329 140.83C237.482 140.421 237.559 139.935 237.559 139.373V137.909H239.809ZM242.999 137.909V139.366C242.999 139.771 242.918 140.18 242.756 140.594C242.598 141.003 242.392 141.386 242.136 141.744C241.88 142.102 241.61 142.405 241.324 142.652L239.994 141.923C240.191 141.599 240.365 141.235 240.519 140.83C240.672 140.421 240.749 139.935 240.749 139.373V137.909H242.999ZM39.266 180.132H40.706V196.404H39.266V180.132ZM33.344 185.964H36.458V187.206H33.344V185.964ZM36.008 180.51H37.412V195.576H36.008V180.51ZM30.212 182.652H31.364V184.722C31.364 188.286 29.996 191.652 27.602 193.164L26.684 192.048C28.952 190.68 30.212 187.71 30.212 184.722V182.652ZM30.518 182.652H31.67V184.722C31.67 187.548 32.894 190.374 35.126 191.67L34.208 192.768C31.832 191.328 30.518 188.124 30.518 184.722V182.652ZM27.134 182.022H34.568V183.264H27.134V182.022ZM49.9746 181.734H51.2706V182.418C51.2706 185.334 48.1746 187.476 44.8986 188.034L44.3226 186.846C47.1846 186.432 49.9746 184.56 49.9746 182.418V181.734ZM50.3526 181.734H51.6306V182.418C51.6306 184.56 54.4386 186.432 57.2826 186.846L56.7246 188.034C53.4306 187.476 50.3526 185.334 50.3526 182.418V181.734ZM50.0286 190.194H51.5046V196.404H50.0286V190.194ZM43.4586 189.402H58.1646V190.626H43.4586V189.402ZM44.8266 181.14H56.7426V182.346H44.8266V181.14ZM61.8712 187.728H73.0492V188.952H61.8712V187.728ZM60.0172 193.11H74.7592V194.37H60.0172V193.11ZM66.6052 188.25H68.0992V193.614H66.6052V188.25ZM61.8712 181.428H72.8872V182.652H63.3652V188.268H61.8712V181.428ZM81.8498 181.302C84.3878 181.302 86.2058 182.868 86.2058 185.136C86.2058 187.422 84.3878 188.988 81.8498 188.988C79.3118 188.988 77.4758 187.422 77.4758 185.136C77.4758 182.868 79.3118 181.302 81.8498 181.302ZM81.8498 182.598C80.1578 182.598 78.9338 183.624 78.9338 185.136C78.9338 186.648 80.1578 187.692 81.8498 187.692C83.5238 187.692 84.7478 186.648 84.7478 185.136C84.7478 183.624 83.5238 182.598 81.8498 182.598ZM88.3298 180.114H89.8238V196.422H88.3298V180.114ZM76.8638 192.858L76.6478 191.616C79.6178 191.616 83.7218 191.598 87.2678 191.04L87.3938 192.138C83.7398 192.84 79.7618 192.858 76.8638 192.858ZM104.486 186.45H107.564V187.692H104.486V186.45ZM110.282 180.132H111.722V196.404H110.282V180.132ZM107.06 180.474H108.482V195.594H107.06V180.474ZM101.552 181.482C103.658 181.482 105.026 183.66 105.026 187.152C105.026 190.644 103.658 192.822 101.552 192.822C99.446 192.822 98.096 190.644 98.096 187.152C98.096 183.66 99.446 181.482 101.552 181.482ZM101.552 182.868C100.274 182.868 99.464 184.524 99.464 187.152C99.464 189.78 100.274 191.436 101.552 191.436C102.848 191.436 103.658 189.78 103.658 187.152C103.658 184.524 102.848 182.868 101.552 182.868ZM115.033 182.004H121.243V192.048H115.033V182.004ZM119.839 183.192H116.437V190.86H119.839V183.192ZM126.841 180.132H128.281V196.404H126.841V180.132ZM120.487 186.252H124.231V187.494H120.487V186.252ZM123.619 180.474H125.041V195.594H123.619V180.474ZM142.139 180.132H143.633V188.682H142.139V180.132ZM143.237 183.696H146.045V184.938H143.237V183.696ZM133.355 189.42H143.633V193.29H134.867V195.612H133.391V192.174H142.175V190.59H133.355V189.42ZM133.391 195.054H144.281V196.224H133.391V195.054ZM131.717 186.882H132.995C135.947 186.882 138.053 186.81 140.591 186.396L140.717 187.566C138.143 187.998 136.001 188.07 132.995 188.07H131.717V186.882ZM131.681 180.906H139.007V184.938H133.175V187.458H131.717V183.84H137.531V182.058H131.681V180.906ZM149.428 187.926H160.606V189.15H149.428V187.926ZM147.574 192.966H162.316V194.208H147.574V192.966ZM149.428 181.626H160.444V182.868H150.922V188.466H149.428V181.626ZM180.722 180.132H182.216V189.564H180.722V180.132ZM176.312 191.562H177.572V191.814C177.572 194.136 174.674 195.972 171.398 196.404L170.894 195.27C173.72 194.964 176.312 193.416 176.312 191.814V191.562ZM176.546 191.562H177.824V191.796C177.824 193.362 180.344 194.928 183.17 195.27L182.648 196.386C179.354 195.954 176.546 194.064 176.546 191.796V191.562ZM171.542 190.716H182.594V191.886H171.542V190.716ZM176.33 189.15H177.806V191.346H176.33V189.15ZM169.742 180.798H171.2V183.282H175.88V180.798H177.356V188.106H169.742V180.798ZM171.2 184.452V186.9H175.88V184.452H171.2ZM201.216 180.132H202.728V196.404H201.216V180.132ZM202.368 186.522H205.392V187.8H202.368V186.522ZM190.848 181.5H192.324V185.802H196.968V181.5H198.444V192.498H190.848V181.5ZM192.324 186.99V191.274H196.968V186.99H192.324ZM217.775 180.114H219.287V196.422H217.775V180.114ZM218.927 186.54H221.951V187.8H218.927V186.54ZM207.461 191.112H208.739C211.745 191.112 213.851 191.004 216.281 190.554L216.443 191.814C213.941 192.282 211.799 192.372 208.739 192.372H207.461V191.112ZM207.461 181.698H215.021V182.922H208.937V191.67H207.461V181.698ZM227.44 188.34H228.934V192.228H227.44V188.34ZM228.178 181.176C230.68 181.176 232.48 182.742 232.48 185.01C232.48 187.278 230.68 188.844 228.178 188.844C225.676 188.844 223.876 187.278 223.876 185.01C223.876 182.742 225.676 181.176 228.178 181.176ZM228.178 182.454C226.522 182.454 225.334 183.498 225.334 185.01C225.334 186.522 226.522 187.566 228.178 187.566C229.834 187.566 231.022 186.522 231.022 185.01C231.022 183.498 229.834 182.454 228.178 182.454ZM234.334 180.132H235.828V196.404H234.334V180.132ZM235.396 186.828H238.402V188.088H235.396V186.828ZM223.354 192.894L223.138 191.652C226.072 191.634 229.996 191.616 233.308 191.166L233.434 192.282C229.996 192.858 226.198 192.894 223.354 192.894ZM244.622 182.904H252.686V184.128H244.622V182.904ZM248.654 185.208C250.688 185.208 252.164 186.738 252.164 188.934C252.164 191.112 250.688 192.642 248.654 192.642C246.638 192.642 245.162 191.112 245.162 188.934C245.162 186.738 246.638 185.208 248.654 185.208ZM248.654 186.486C247.412 186.486 246.512 187.494 246.512 188.934C246.512 190.374 247.412 191.382 248.654 191.382C249.914 191.382 250.832 190.374 250.832 188.934C250.832 187.494 249.914 186.486 248.654 186.486ZM256.988 180.132H258.428V196.404H256.988V180.132ZM254.396 186.972H257.474V188.214H254.396V186.972ZM253.514 180.492H254.918V195.612H253.514V180.492ZM247.934 180.6H249.41V183.66H247.934V180.6ZM272.34 180.114H273.834V192.102H272.34V180.114ZM273.366 185.064H276.246V186.306H273.366V185.064ZM263.7 194.82H274.572V196.044H263.7V194.82ZM263.7 190.878H265.194V195.306H263.7V190.878ZM265.752 181.266C268.182 181.266 270 182.94 270 185.28C270 187.638 268.182 189.294 265.752 189.294C263.322 189.294 261.504 187.638 261.504 185.28C261.504 182.94 263.322 181.266 265.752 181.266ZM265.752 182.58C264.168 182.58 262.962 183.696 262.962 185.28C262.962 186.882 264.168 187.98 265.752 187.98C267.336 187.98 268.542 186.882 268.542 185.28C268.542 183.696 267.336 182.58 265.752 182.58ZM286.109 183.966H290.213V185.208H286.109V183.966ZM281.843 181.122H283.049V183.12C283.049 186.27 281.285 188.898 278.567 189.996L277.793 188.808C280.205 187.908 281.843 185.604 281.843 183.12V181.122ZM282.131 181.122H283.337V183.174C283.337 185.442 284.921 187.584 287.279 188.448L286.469 189.6C283.877 188.592 282.131 186.072 282.131 183.174V181.122ZM289.655 180.15H291.149V192.318H289.655V180.15ZM280.691 194.82H291.545V196.044H280.691V194.82ZM280.691 190.968H282.185V195.396H280.691V190.968ZM300.951 187.926H312.129V189.15H300.951V187.926ZM299.097 192.966H313.839V194.208H299.097V192.966ZM300.951 181.626H311.967V182.868H302.445V188.466H300.951V181.626ZM326.672 180.114H328.166V196.422H326.672V180.114ZM327.806 186.594H330.83V187.854H327.806V186.594ZM316.304 191.256H317.6C320.66 191.256 322.784 191.148 325.25 190.68L325.412 191.922C322.874 192.372 320.714 192.498 317.6 192.498H316.304V191.256ZM316.268 181.644H323.63V187.476H317.78V191.76H316.304V186.252H322.154V182.868H316.268V181.644ZM344.022 180.114H345.516V196.422H344.022V180.114ZM336.93 181.374C339.342 181.374 341.07 183.588 341.07 187.044C341.07 190.518 339.342 192.732 336.93 192.732C334.536 192.732 332.808 190.518 332.808 187.044C332.808 183.588 334.536 181.374 336.93 181.374ZM336.93 182.724C335.346 182.724 334.23 184.416 334.23 187.044C334.23 189.69 335.346 191.418 336.93 191.418C338.532 191.418 339.63 189.69 339.63 187.044C339.63 184.416 338.532 182.724 336.93 182.724ZM348.773 193.002H363.515V194.262H348.773V193.002ZM350.501 181.302H351.977V184.29H360.275V181.302H361.751V189.78H350.501V181.302ZM351.977 185.496V188.556H360.275V185.496H351.977ZM38.708 202.114H40.202V218.422H38.708V202.114ZM31.616 203.374C34.028 203.374 35.756 205.588 35.756 209.044C35.756 212.518 34.028 214.732 31.616 214.732C29.222 214.732 27.494 212.518 27.494 209.044C27.494 205.588 29.222 203.374 31.616 203.374ZM31.616 204.724C30.032 204.724 28.916 206.416 28.916 209.044C28.916 211.69 30.032 213.418 31.616 213.418C33.218 213.418 34.316 211.69 34.316 209.044C34.316 206.416 33.218 204.724 31.616 204.724ZM60.1023 202.132H61.5963V210.412H60.1023V202.132ZM56.2683 205.732H60.8043V206.956H56.2683V205.732ZM52.6503 202.672C55.0803 202.672 56.8443 204.184 56.8443 206.38C56.8443 208.54 55.0803 210.07 52.6503 210.07C50.2203 210.07 48.4563 208.54 48.4563 206.38C48.4563 204.184 50.2203 202.672 52.6503 202.672ZM52.6503 203.914C51.0663 203.914 49.8963 204.94 49.8963 206.38C49.8963 207.82 51.0663 208.846 52.6503 208.846C54.2343 208.846 55.4043 207.82 55.4043 206.38C55.4043 204.94 54.2343 203.914 52.6503 203.914ZM51.1203 211.294H61.5963V215.218H52.6143V217.666H51.1563V214.102H60.1203V212.482H51.1203V211.294ZM51.1563 217H62.1903V218.188H51.1563V217ZM65.4109 203.752H72.8809V214.282H65.4109V203.752ZM71.4229 204.958H66.8689V213.076H71.4229V204.958ZM75.7789 202.132H77.2909V218.404H75.7789V202.132ZM76.9309 208.63H79.9549V209.89H76.9309V208.63ZM93.4355 208.612H96.4415V209.872H93.4355V208.612ZM92.3375 202.114H93.8495V218.404H92.3375V202.114ZM81.9695 203.716H83.4635V213.796H81.9695V203.716ZM81.9695 213.022H83.2655C85.6775 213.022 88.1435 212.86 90.8255 212.302L91.0055 213.544C88.2335 214.12 85.7315 214.282 83.2655 214.282H81.9695V213.022ZM106.712 205.174H107.936V205.966C107.936 208.882 106.136 211.258 103.418 212.194L102.68 211.024C105.092 210.214 106.712 208.234 106.712 205.966V205.174ZM106.964 205.174H108.206V205.966C108.206 208.036 109.772 209.962 112.166 210.718L111.428 211.888C108.746 211.006 106.964 208.702 106.964 205.966V205.174ZM103.112 204.328H111.788V205.534H103.112V204.328ZM106.712 202.24H108.206V204.904H106.712V202.24ZM113.786 202.114H115.28V214.192H113.786V202.114ZM114.812 207.19H117.692V208.432H114.812V207.19ZM105.146 216.82H116.018V218.044H105.146V216.82ZM105.146 213.148H106.64V217.522H105.146V213.148ZM130.344 202.15H131.838V214.138H130.344V202.15ZM131.388 207.118H134.25V208.378H131.388V207.118ZM121.812 216.82H132.576V218.044H121.812V216.82ZM121.812 213.202H123.306V217.27H121.812V213.202ZM119.922 210.376H121.2C124.152 210.376 126.258 210.286 128.796 209.836L128.922 211.078C126.348 211.51 124.206 211.6 121.2 211.6H119.922V210.376ZM119.886 203.194H127.212V207.856H121.38V210.808H119.922V206.722H125.736V204.418H119.886V203.194ZM146.903 202.15H148.397V214.354H146.903V202.15ZM147.929 207.478H150.809V208.738H147.929V207.478ZM135.815 204.112H145.427V205.318H135.815V204.112ZM140.621 206.218C142.925 206.218 144.509 207.424 144.509 209.26C144.509 211.078 142.925 212.284 140.621 212.284C138.299 212.284 136.715 211.078 136.715 209.26C136.715 207.424 138.299 206.218 140.621 206.218ZM140.621 207.388C139.145 207.388 138.137 208.126 138.137 209.26C138.137 210.376 139.145 211.114 140.621 211.114C142.079 211.114 143.087 210.376 143.087 209.26C143.087 208.126 142.079 207.388 140.621 207.388ZM139.865 202.132H141.359V204.742H139.865V202.132ZM138.263 216.82H149.135V218.044H138.263V216.82ZM138.263 213.382H139.757V217.342H138.263V213.382ZM163.336 202.114H164.848V218.404H163.336V202.114ZM164.434 208.72H167.44V209.962H164.434V208.72ZM159.178 203.878H160.636C160.636 208.504 158.512 212.68 153.256 215.326L152.428 214.174C156.928 211.888 159.178 208.414 159.178 204.112V203.878ZM153.184 203.878H159.952V205.102H153.184V203.878ZM176.135 213.235V213.114C176.143 212.321 176.222 211.69 176.371 211.222C176.525 210.753 176.742 210.374 177.023 210.084C177.305 209.794 177.643 209.53 178.04 209.291C178.295 209.129 178.525 208.948 178.73 208.748C178.934 208.548 179.096 208.317 179.216 208.058C179.335 207.798 179.395 207.51 179.395 207.195C179.395 206.815 179.305 206.487 179.126 206.21C178.947 205.933 178.709 205.72 178.41 205.571C178.116 205.418 177.788 205.341 177.426 205.341C177.098 205.341 176.785 205.409 176.486 205.545C176.188 205.682 175.941 205.895 175.745 206.185C175.549 206.47 175.436 206.839 175.406 207.29H173.463C173.493 206.523 173.687 205.876 174.045 205.347C174.403 204.815 174.876 204.412 175.464 204.139C176.056 203.866 176.71 203.73 177.426 203.73C178.21 203.73 178.896 203.877 179.484 204.171C180.072 204.461 180.528 204.868 180.852 205.392C181.18 205.912 181.344 206.519 181.344 207.214C181.344 207.691 181.27 208.121 181.121 208.505C180.971 208.884 180.758 209.223 180.481 209.521C180.209 209.82 179.881 210.084 179.497 210.314C179.135 210.54 178.841 210.774 178.615 211.017C178.393 211.26 178.231 211.548 178.129 211.88C178.027 212.212 177.971 212.624 177.963 213.114V213.235H176.135ZM177.1 217.121C176.751 217.121 176.45 216.998 176.199 216.751C175.947 216.499 175.822 216.197 175.822 215.843C175.822 215.494 175.947 215.195 176.199 214.948C176.45 214.697 176.751 214.571 177.1 214.571C177.445 214.571 177.743 214.697 177.995 214.948C178.251 215.195 178.378 215.494 178.378 215.843C178.378 216.077 178.319 216.293 178.199 216.489C178.084 216.68 177.931 216.834 177.739 216.949C177.547 217.064 177.334 217.121 177.1 217.121ZM192.182 204.454H193.388V207.1C193.388 210.538 191.318 213.994 188.726 215.272L187.862 214.084C190.22 212.968 192.182 209.908 192.182 207.1V204.454ZM192.47 204.454H193.676V207.1C193.676 209.854 195.638 212.662 198.032 213.688L197.186 214.876C194.558 213.652 192.47 210.484 192.47 207.1V204.454ZM188.402 203.788H197.492V205.048H188.402V203.788ZM199.688 202.132H201.182V218.404H199.688V202.132ZM216.265 202.15H217.777V214.174H216.265V202.15ZM207.319 216.82H218.263V218.044H207.319V216.82ZM207.319 213.04H208.795V217.468H207.319V213.04ZM208.849 205.246H210.073V205.93C210.073 208.846 208.219 211.258 205.501 212.194L204.763 211.024C207.175 210.232 208.849 208.18 208.849 205.93V205.246ZM209.101 205.246H210.325V205.93C210.325 208.054 212.017 209.98 214.447 210.736L213.727 211.906C210.973 211.024 209.101 208.72 209.101 205.93V205.246ZM205.141 204.31H213.997V205.516H205.141V204.31ZM208.849 202.204H210.325V204.886H208.849V202.204ZM230.315 202.726C232.745 202.726 234.527 204.202 234.527 206.344C234.527 208.468 232.745 209.944 230.315 209.944C227.903 209.944 226.121 208.468 226.121 206.344C226.121 204.202 227.903 202.726 230.315 202.726ZM230.315 203.95C228.749 203.95 227.561 204.94 227.561 206.344C227.561 207.748 228.749 208.72 230.315 208.72C231.899 208.72 233.069 207.748 233.069 206.344C233.069 204.94 231.899 203.95 230.315 203.95ZM237.587 202.132H239.099V210.466H237.587V202.132ZM228.569 211.258H239.099V215.218H230.063V217.666H228.605V214.102H237.623V212.464H228.569V211.258ZM228.605 217H239.639V218.188H228.605V217ZM246.262 202.978H247.504V204.634C247.504 207.766 245.74 210.358 243.022 211.42L242.23 210.214C244.678 209.314 246.262 207.118 246.262 204.634V202.978ZM246.532 202.978H247.756V204.742C247.756 206.938 249.376 208.972 251.716 209.782L250.924 210.952C248.314 209.98 246.532 207.568 246.532 204.742V202.978ZM253.444 202.132H254.938V211.996H253.444V202.132ZM254.524 206.326H257.35V207.586H254.524V206.326ZM249.754 212.446C253.084 212.446 255.1 213.544 255.1 215.416C255.1 217.288 253.084 218.368 249.754 218.368C246.424 218.368 244.408 217.288 244.408 215.416C244.408 213.544 246.424 212.446 249.754 212.446ZM249.754 213.634C247.342 213.634 245.866 214.282 245.866 215.416C245.866 216.55 247.342 217.198 249.754 217.198C252.166 217.198 253.642 216.55 253.642 215.416C253.642 214.282 252.166 213.634 249.754 213.634ZM263.624 210.286H278.384V211.51H263.624V210.286ZM270.23 207.82H271.706V210.844H270.23V207.82ZM270.212 202.384H271.508V203.104C271.508 206.038 268.394 208.126 265.082 208.666L264.506 207.478C267.422 207.082 270.212 205.282 270.212 203.104V202.384ZM270.446 202.384H271.724V203.104C271.724 205.282 274.532 207.082 277.43 207.478L276.872 208.666C273.578 208.108 270.446 206.038 270.446 203.104V202.384ZM265.262 213.094H276.512V218.404H275.018V214.3H265.262V213.094ZM296.088 202.15H297.582V214.354H296.088V202.15ZM297.114 207.478H299.994V208.738H297.114V207.478ZM285 204.112H294.612V205.318H285V204.112ZM289.806 206.218C292.11 206.218 293.694 207.424 293.694 209.26C293.694 211.078 292.11 212.284 289.806 212.284C287.484 212.284 285.9 211.078 285.9 209.26C285.9 207.424 287.484 206.218 289.806 206.218ZM289.806 207.388C288.33 207.388 287.322 208.126 287.322 209.26C287.322 210.376 288.33 211.114 289.806 211.114C291.264 211.114 292.272 210.376 292.272 209.26C292.272 208.126 291.264 207.388 289.806 207.388ZM289.05 202.132H290.544V204.742H289.05V202.132ZM287.448 216.82H298.32V218.044H287.448V216.82ZM287.448 213.382H288.942V217.342H287.448V213.382ZM308.129 210.394H309.605V213.202H308.129V210.394ZM307.895 203.356H309.227V203.86C309.227 206.47 306.239 208.234 302.873 208.648L302.333 207.46C305.249 207.154 307.895 205.696 307.895 203.86V203.356ZM308.525 203.356H309.839V203.86C309.839 205.696 312.485 207.154 315.401 207.46L314.861 208.648C311.495 208.234 308.525 206.47 308.525 203.86V203.356ZM302.855 202.762H314.897V203.986H302.855V202.762ZM303.305 212.878H314.411V218.188H303.305V212.878ZM312.953 214.084H304.781V216.982H312.953V214.084ZM301.505 209.62H316.211V210.844H301.505V209.62ZM323.356 203.302C325.894 203.302 327.712 204.868 327.712 207.136C327.712 209.422 325.894 210.988 323.356 210.988C320.818 210.988 318.982 209.422 318.982 207.136C318.982 204.868 320.818 203.302 323.356 203.302ZM323.356 204.598C321.664 204.598 320.44 205.624 320.44 207.136C320.44 208.648 321.664 209.692 323.356 209.692C325.03 209.692 326.254 208.648 326.254 207.136C326.254 205.624 325.03 204.598 323.356 204.598ZM329.836 202.114H331.33V218.422H329.836V202.114ZM318.37 214.858L318.154 213.616C321.124 213.616 325.228 213.598 328.774 213.04L328.9 214.138C325.246 214.84 321.268 214.858 318.37 214.858ZM351.23 202.132H352.724V211.564H351.23V202.132ZM346.82 213.562H348.08V213.814C348.08 216.136 345.182 217.972 341.906 218.404L341.402 217.27C344.228 216.964 346.82 215.416 346.82 213.814V213.562ZM347.054 213.562H348.332V213.796C348.332 215.362 350.852 216.928 353.678 217.27L353.156 218.386C349.862 217.954 347.054 216.064 347.054 213.796V213.562ZM342.05 212.716H353.102V213.886H342.05V212.716ZM346.838 211.15H348.314V213.346H346.838V211.15ZM340.25 202.798H341.708V205.282H346.388V202.798H347.864V210.106H340.25V202.798ZM341.708 206.452V208.9H346.388V206.452H341.708Z" fill="black"/>
<path d="M31.2202 275L33.0099 264.091H34.0753L32.2855 275H31.2202ZM26.2557 271.974L26.4261 270.909H34.5653L34.3949 271.974H26.2557ZM27.3849 275L29.1747 264.091H30.2401L28.4503 275H27.3849ZM26.8949 268.182L27.0653 267.116H35.2045L35.0341 268.182H26.8949ZM46.5179 262.61H47.7179V276.17H46.5179V262.61ZM41.5829 267.47H44.1779V268.505H41.5829V267.47ZM43.8029 262.925H44.9729V275.48H43.8029V262.925ZM38.9729 264.71H39.9329V266.435C39.9329 269.405 38.7929 272.21 36.7979 273.47L36.0329 272.54C37.9229 271.4 38.9729 268.925 38.9729 266.435V264.71ZM39.2279 264.71H40.1879V266.435C40.1879 268.79 41.2079 271.145 43.0679 272.225L42.3029 273.14C40.3229 271.94 39.2279 269.27 39.2279 266.435V264.71ZM36.4079 264.185H42.6029V265.22H36.4079V264.185ZM55.4417 263.945H56.5217V264.515C56.5217 266.945 53.9417 268.73 51.2117 269.195L50.7317 268.205C53.1167 267.86 55.4417 266.3 55.4417 264.515V263.945ZM55.7567 263.945H56.8217V264.515C56.8217 266.3 59.1617 267.86 61.5317 268.205L61.0667 269.195C58.3217 268.73 55.7567 266.945 55.7567 264.515V263.945ZM55.4867 270.995H56.7167V276.17H55.4867V270.995ZM50.0117 270.335H62.2667V271.355H50.0117V270.335ZM51.1517 263.45H61.0817V264.455H51.1517V263.45ZM65.3555 268.94H74.6705V269.96H65.3555V268.94ZM63.8105 273.425H76.0955V274.475H63.8105V273.425ZM69.3005 269.375H70.5455V273.845H69.3005V269.375ZM65.3555 263.69H74.5355V264.71H66.6005V269.39H65.3555V263.69ZM86.2983 275L88.0881 264.091H89.1534L87.3636 275H86.2983ZM81.3338 271.974L81.5043 270.909H89.6435L89.473 271.974H81.3338ZM82.4631 275L84.2528 264.091H85.3182L83.5284 275H82.4631ZM81.973 268.182L82.1435 267.116H90.2827L90.1122 268.182H81.973ZM94.456 271.925H95.716V276.2H94.456V271.925ZM99.121 271.925H100.366V276.2H99.121V271.925ZM91.921 264.11H102.826V265.115H91.921V264.11ZM91.291 271.28H103.576V272.3H91.291V271.28ZM97.411 265.88C100.171 265.88 101.806 266.69 101.806 268.115C101.806 269.555 100.171 270.365 97.411 270.365C94.636 270.365 93.001 269.555 93.001 268.115C93.001 266.69 94.636 265.88 97.411 265.88ZM97.411 266.825C95.431 266.825 94.291 267.29 94.291 268.115C94.291 268.955 95.431 269.42 97.411 269.42C99.391 269.42 100.531 268.955 100.531 268.115C100.531 267.29 99.391 266.825 97.411 266.825ZM96.781 262.535H98.026V264.83H96.781V262.535ZM115.23 264.635H117.585V265.67H115.23V264.635ZM115.23 267.515H117.585V268.55H115.23V267.515ZM108.87 263.405C110.91 263.405 112.41 264.725 112.41 266.615C112.41 268.49 110.91 269.795 108.87 269.795C106.83 269.795 105.33 268.49 105.33 266.615C105.33 264.725 106.83 263.405 108.87 263.405ZM108.87 264.455C107.52 264.455 106.545 265.34 106.545 266.615C106.545 267.89 107.52 268.76 108.87 268.76C110.22 268.76 111.195 267.89 111.195 266.615C111.195 265.34 110.22 264.455 108.87 264.455ZM114.36 262.61H115.605V270.635H114.36V262.61ZM111.285 271.07C114.045 271.07 115.74 272.015 115.74 273.605C115.74 275.21 114.045 276.14 111.285 276.14C108.525 276.14 106.83 275.21 106.83 273.605C106.83 272.015 108.525 271.07 111.285 271.07ZM111.285 272.075C109.275 272.075 108.045 272.63 108.045 273.605C108.045 274.58 109.275 275.15 111.285 275.15C113.295 275.15 114.525 274.58 114.525 273.605C114.525 272.63 113.295 272.075 111.285 272.075ZM127.578 275L129.367 264.091H130.433L128.643 275H127.578ZM122.613 271.974L122.784 270.909H130.923L130.752 271.974H122.613ZM123.742 275L125.532 264.091H126.597L124.808 275H123.742ZM123.252 268.182L123.423 267.116H131.562L131.392 268.182H123.252ZM142.425 262.565H143.67V270.05H142.425V262.565ZM134.895 270.74H143.67V273.77H136.14V275.315H134.925V272.855H142.44V271.67H134.895V270.74ZM134.925 275.06H144.135V276.02H134.925V275.06ZM132.765 263.825H141V264.785H132.765V263.825ZM136.875 265.415C138.885 265.415 140.19 266.27 140.19 267.65C140.19 269.015 138.885 269.855 136.875 269.855C134.865 269.855 133.575 269.015 133.575 267.65C133.575 266.27 134.865 265.415 136.875 265.415ZM136.875 266.33C135.6 266.33 134.76 266.84 134.76 267.65C134.76 268.445 135.6 268.955 136.875 268.955C138.15 268.955 138.99 268.445 138.99 267.65C138.99 266.84 138.15 266.33 136.875 266.33ZM136.26 262.445H137.505V264.32H136.26V262.445ZM156.224 262.625H157.484V270.95H156.224V262.625ZM147.059 269.105H148.154C150.614 269.105 152.429 269.03 154.604 268.67L154.739 269.69C152.504 270.065 150.674 270.125 148.154 270.125H147.059V269.105ZM147.029 263.465H153.179V267.215H148.274V269.675H147.059V266.24H151.964V264.485H147.029V263.465ZM153.014 271.25C155.834 271.25 157.574 272.135 157.574 273.695C157.574 275.255 155.834 276.155 153.014 276.155C150.179 276.155 148.469 275.255 148.469 273.695C148.469 272.135 150.179 271.25 153.014 271.25ZM153.014 272.24C150.944 272.24 149.699 272.765 149.699 273.695C149.699 274.625 150.944 275.165 153.014 275.165C155.084 275.165 156.329 274.625 156.329 273.695C156.329 272.765 155.084 272.24 153.014 272.24ZM166.273 265.625H170.368V266.66H166.273V265.625ZM166.273 269.915H170.368V270.95H166.273V269.915ZM163.783 263.645C165.748 263.645 167.158 265.49 167.158 268.37C167.158 271.265 165.748 273.11 163.783 273.11C161.803 273.11 160.408 271.265 160.408 268.37C160.408 265.49 161.803 263.645 163.783 263.645ZM163.783 264.77C162.478 264.77 161.578 266.18 161.578 268.37C161.578 270.575 162.478 272.015 163.783 272.015C165.088 272.015 165.988 270.575 165.988 268.37C165.988 266.18 165.088 264.77 163.783 264.77ZM170.098 262.595H171.328V276.185H170.098V262.595ZM184.197 262.61H185.382V271.19H184.197V262.61ZM181.992 266.285H184.557V267.32H181.992V266.285ZM181.302 262.88H182.472V270.71H181.302V262.88ZM173.892 264.23H180.762V265.22H173.892V264.23ZM177.342 265.91C179.037 265.91 180.222 266.84 180.222 268.235C180.222 269.645 179.037 270.56 177.342 270.56C175.632 270.56 174.447 269.645 174.447 268.235C174.447 266.84 175.632 265.91 177.342 265.91ZM177.342 266.84C176.277 266.84 175.557 267.395 175.557 268.235C175.557 269.09 176.277 269.63 177.342 269.63C178.392 269.63 179.112 269.09 179.112 268.235C179.112 267.395 178.392 266.84 177.342 266.84ZM176.727 262.715H177.942V264.785H176.727V262.715ZM180.942 271.43C183.762 271.43 185.457 272.27 185.457 273.785C185.457 275.285 183.762 276.14 180.942 276.14C178.092 276.14 176.412 275.285 176.412 273.785C176.412 272.27 178.092 271.43 180.942 271.43ZM180.942 272.39C178.857 272.39 177.642 272.885 177.642 273.785C177.642 274.685 178.857 275.195 180.942 275.195C182.997 275.195 184.227 274.685 184.227 273.785C184.227 272.885 182.997 272.39 180.942 272.39ZM196.455 275L198.244 264.091H199.31L197.52 275H196.455ZM191.49 271.974L191.661 270.909H199.8L199.629 271.974H191.49ZM192.619 275L194.409 264.091H195.474L193.685 275H192.619ZM192.129 268.182L192.3 267.116H200.439L200.268 268.182H192.129ZM211.752 262.61H212.952V276.17H211.752V262.61ZM206.817 267.47H209.412V268.505H206.817V267.47ZM209.037 262.925H210.207V275.48H209.037V262.925ZM204.207 264.71H205.167V266.435C205.167 269.405 204.027 272.21 202.032 273.47L201.267 272.54C203.157 271.4 204.207 268.925 204.207 266.435V264.71ZM204.462 264.71H205.422V266.435C205.422 268.79 206.442 271.145 208.302 272.225L207.537 273.14C205.557 271.94 204.462 269.27 204.462 266.435V264.71ZM201.642 264.185H207.837V265.22H201.642V264.185ZM220.676 263.945H221.756V264.515C221.756 266.945 219.176 268.73 216.446 269.195L215.966 268.205C218.351 267.86 220.676 266.3 220.676 264.515V263.945ZM220.991 263.945H222.056V264.515C222.056 266.3 224.396 267.86 226.766 268.205L226.301 269.195C223.556 268.73 220.991 266.945 220.991 264.515V263.945ZM220.721 270.995H221.951V276.17H220.721V270.995ZM215.246 270.335H227.501V271.355H215.246V270.335ZM216.386 263.45H226.316V264.455H216.386V263.45ZM235.15 265.625H239.245V266.66H235.15V265.625ZM235.15 269.915H239.245V270.95H235.15V269.915ZM232.66 263.645C234.625 263.645 236.035 265.49 236.035 268.37C236.035 271.265 234.625 273.11 232.66 273.11C230.68 273.11 229.285 271.265 229.285 268.37C229.285 265.49 230.68 263.645 232.66 263.645ZM232.66 264.77C231.355 264.77 230.455 266.18 230.455 268.37C230.455 270.575 231.355 272.015 232.66 272.015C233.965 272.015 234.865 270.575 234.865 268.37C234.865 266.18 233.965 264.77 232.66 264.77ZM238.975 262.595H240.205V276.185H238.975V262.595ZM253.074 262.61H254.259V271.19H253.074V262.61ZM250.869 266.285H253.434V267.32H250.869V266.285ZM250.179 262.88H251.349V270.71H250.179V262.88ZM242.769 264.23H249.639V265.22H242.769V264.23ZM246.219 265.91C247.914 265.91 249.099 266.84 249.099 268.235C249.099 269.645 247.914 270.56 246.219 270.56C244.509 270.56 243.324 269.645 243.324 268.235C243.324 266.84 244.509 265.91 246.219 265.91ZM246.219 266.84C245.154 266.84 244.434 267.395 244.434 268.235C244.434 269.09 245.154 269.63 246.219 269.63C247.269 269.63 247.989 269.09 247.989 268.235C247.989 267.395 247.269 266.84 246.219 266.84ZM245.604 262.715H246.819V264.785H245.604V262.715ZM249.819 271.43C252.639 271.43 254.334 272.27 254.334 273.785C254.334 275.285 252.639 276.14 249.819 276.14C246.969 276.14 245.289 275.285 245.289 273.785C245.289 272.27 246.969 271.43 249.819 271.43ZM249.819 272.39C247.734 272.39 246.519 272.885 246.519 273.785C246.519 274.685 247.734 275.195 249.819 275.195C251.874 275.195 253.104 274.685 253.104 273.785C253.104 272.885 251.874 272.39 249.819 272.39Z" fill="#262626"/>
</svg>
