<svg xmlns="http://www.w3.org/2000/svg" width="42" height="42" fill="none"><path fill="#000" d="M21 5.25c10.15 0 18.377 6.412 18.377 14.324 0 7.91-8.227 14.322-18.375 14.322q-1.517 0-3.022-.193l-7.715 5.045c-.876.464-1.186.413-.825-.722L11 31.589c-5.04-2.555-8.373-6.982-8.373-12.015 0-7.91 8.225-14.324 18.375-14.324M31.34 19.355l2.572-2.492a.826.826 0 0 0-1.148-1.186l-3.374 3.265v-2.698a.826.826 0 0 0-1.652 0v4.474a.8.8 0 0 0 0 .389v2.518a.826.826 0 1 0 1.652 0V21.24l.748-.723 2.499 3.558a.826.826 0 1 0 1.352-.95zm-5.177 3.367H23.61V16.27a.826.826 0 0 0-1.65 0v7.278c0 .455.367.826.824.826h3.381a.826.826 0 0 0 0-1.652m-10.25-1.91 1.219-2.988 1.116 2.987zm4.416.853.003-.028a.82.82 0 0 0-.222-.56l-1.83-4.9a1.21 1.21 0 0 0-1.098-.83 1.22 1.22 0 0 0-1.142.783l-2.909 7.131a.827.827 0 0 0 1.53.625l.58-1.423h3.623l.522 1.4a.827.827 0 1 0 1.546-.578zm-5.815-5.386a.826.826 0 0 0-.825-.826H8.012a.826.826 0 1 0 0 1.652h2.03v6.537a.826.826 0 1 0 1.652 0v-6.537h1.994a.826.826 0 0 0 .826-.826"/></svg>