<svg xmlns="http://www.w3.org/2000/svg" width="239" height="51" fill="none"><path fill="url(#a)" d="M.805 10.084 2.495.09h43.03l-1.69 9.993H28.397L21.636 51H9.506l6.76-40.916zM36.082 51 44.534.09h21.03q5.717 0 9.545 2.064 3.828 2.039 5.444 5.867 1.616 3.803.746 9.023-.845 5.27-3.779 8.974-2.907 3.678-7.507 5.618-4.573 1.938-10.39 1.939h-13.3l1.641-9.695h11.013q2.759 0 4.772-.72 2.013-.747 3.207-2.238 1.217-1.517 1.616-3.878.372-2.361-.348-3.903-.697-1.566-2.461-2.336-1.74-.796-4.475-.796h-6.065L48.387 51zm32.515-23.267L77.42 51H63.998l-8.551-23.267zM86.989 51H73.764L99.394.09h16.381L124.5 51h-13.225l-5.593-38.082h-.398zm1.59-20.035h27.643l-1.591 9.346H86.989zM122.982 51l8.45-50.91h21.03q5.718 0 9.521 2.213 3.802 2.212 5.394 6.19 1.591 3.977.721 9.222-.845 5.295-3.803 9.223-2.934 3.927-7.557 6.09t-10.515 2.162h-12.951l1.616-9.694h10.689q2.808 0 4.847-.97 2.063-.97 3.306-2.71t1.641-4.1q.373-2.362-.299-4.078-.67-1.74-2.411-2.684-1.715-.945-4.474-.945h-6.066L135.285 51zm38.595 0L170.028.09h12.305l-6.762 40.917h21.179L195.06 51zm32.854 0L202.882.09h35.497l-1.691 9.994h-23.192l-1.69 10.44h21.378l-1.691 10.018h-21.378l-1.69 10.465h23.192L229.927 51z"/><defs><linearGradient id="a" x1="176.5" x2="157.383" y1="-11.306" y2="82.967" gradientUnits="userSpaceOnUse"><stop stop-color="#0538FF"/><stop offset=".82" stop-color="#5799F7"/></linearGradient></defs></svg>