<svg xmlns="http://www.w3.org/2000/svg" width="151" height="58" fill="none"><path fill="url(#a)" d="m3.955 17.943 1.159-6.852h29.505l-1.159 6.852H22.875L18.239 46H9.92l4.637-28.057zM30.225 46l4.365-26.182h8.096l-.801 4.773h.273Q43.299 22 45.14 20.739q1.84-1.28 3.988-1.279.58 0 1.16.085.596.069 1.124.205l-1.227 7.261q-.58-.22-1.517-.323-.937-.12-1.704-.12-1.485 0-2.762.665a6.2 6.2 0 0 0-2.148 1.824q-.87 1.16-1.142 2.727L38.561 46zm26.532.443q-2.488 0-4.295-.835-1.79-.852-2.625-2.574-.82-1.722-.392-4.295.375-2.182 1.38-3.665a8.5 8.5 0 0 1 2.506-2.438 12.3 12.3 0 0 1 3.34-1.432 22 22 0 0 1 3.853-.664q2.25-.205 3.648-.443 1.415-.24 2.114-.665.698-.444.852-1.227v-.086q.204-1.312-.563-2.028t-2.3-.716q-1.638 0-2.796.716a3.8 3.8 0 0 0-1.62 1.977l-7.636-.273a10.7 10.7 0 0 1 2.455-4.26q1.738-1.892 4.414-2.967 2.694-1.09 6.222-1.09 2.489 0 4.5.596 2.011.579 3.392 1.704a6.14 6.14 0 0 1 1.994 2.728q.597 1.62.256 3.698L72.473 46h-7.84l.613-3.648h-.205a9.5 9.5 0 0 1-2.165 2.25 8.8 8.8 0 0 1-2.76 1.381q-1.535.46-3.359.46m3.512-5.454q1.312 0 2.488-.546a5.64 5.64 0 0 0 1.977-1.5 4.67 4.67 0 0 0 1.04-2.25l.392-2.488q-.358.187-.903.34-.546.155-1.16.29-.613.12-1.26.239-.632.102-1.21.187-1.23.188-2.132.58t-1.448 1.023q-.53.613-.648 1.466-.205 1.277.596 1.977.802.682 2.268.682m15.715 14.83 6.035-36h8.25l-.734 4.482h.256q.682-1.193 1.807-2.301 1.142-1.107 2.744-1.807 1.603-.716 3.665-.716 2.727 0 4.858 1.432 2.132 1.432 3.102 4.415.972 2.983.205 7.602-.733 4.449-2.659 7.449-1.91 3-4.534 4.5-2.625 1.5-5.506 1.5-1.977 0-3.34-.648-1.348-.647-2.132-1.704a6.4 6.4 0 0 1-1.09-2.267h-.24l-2.317 14.062zm12.017-22.91q-.34 2.114-.034 3.682t1.245 2.437q.954.853 2.471.853 1.535 0 2.727-.853 1.211-.87 2.029-2.437.818-1.569 1.193-3.682.324-2.113.017-3.665-.29-1.551-1.21-2.403-.921-.852-2.472-.852a4.85 4.85 0 0 0-2.761.835q-1.227.835-2.046 2.386-.817 1.55-1.159 3.7m34.496-21.818L116.702 46h-8.336l5.796-34.91zm11.681 35.403q-4.108 0-6.819-1.619-2.692-1.636-3.784-4.653-1.09-3.035-.392-7.21.682-4.058 2.779-7.091 2.113-3.052 5.318-4.74 3.204-1.704 7.142-1.704 2.796 0 4.96.87t3.58 2.59q1.415 1.706 1.926 4.194t-.034 5.71l-.324 2.08h-22.739l.767-4.841h15q.205-1.33-.221-2.37a3.32 3.32 0 0 0-1.381-1.62q-.937-.596-2.301-.596-1.381 0-2.591.648a6.2 6.2 0 0 0-2.028 1.705 5.6 5.6 0 0 0-1.091 2.42l-.904 4.96q-.272 1.654.154 2.83a3.4 3.4 0 0 0 1.466 1.807q1.04.613 2.676.613 1.09 0 2.045-.29a5.3 5.3 0 0 0 1.705-.903 4.9 4.9 0 0 0 1.244-1.483l7.602.222a11.84 11.84 0 0 1-2.846 4.483q-1.927 1.892-4.705 2.949-2.762 1.04-6.204 1.04"/><defs><linearGradient id="a" x1="113.25" x2="106.728" y1="3.885" y2="84.767" gradientUnits="userSpaceOnUse"><stop stop-color="#0538FF"/><stop offset=".82" stop-color="#5799F7"/></linearGradient></defs></svg>