<svg xmlns="http://www.w3.org/2000/svg" width="893" height="237" fill="none"><rect width="893" height="215" y="22" fill="#fff" rx="30"/><path fill="#fff" d="m231 0 26.847 44.438h-53.694z"/><circle cx="54" cy="67" r="10" fill="#337FED"/><path fill="#262626" d="M89.928 66.592h3.752v18.62h-3.752zM76.404 89.076h17.92v2.968h-17.92zm0-5.74h3.724v6.944h-3.724zm3.164-15.12c3.976 0 7.028 2.744 7.028 6.58 0 3.808-3.052 6.58-7.028 6.58s-7.056-2.772-7.056-6.58c0-3.836 3.08-6.58 7.056-6.58m0 3.22c-1.932 0-3.416 1.232-3.416 3.36 0 2.1 1.484 3.332 3.416 3.332 1.904 0 3.388-1.232 3.388-3.332 0-2.128-1.484-3.36-3.388-3.36m18.31 7.924h23.464v2.968H97.878zm10.164 1.876h3.752v5.46h-3.752zm-7.28-13.58h17.612v9.632h-17.612zm13.944 2.912h-10.304v3.808h10.304zm-14.112 18.508h18.172v2.968h-18.172zm0-4.564h3.696v5.544h-3.696zM140.672 76h4.592v2.996h-4.592zm-9.8 7.812h1.764c3.64 0 5.992-.056 8.82-.532l.308 2.968c-2.912.504-5.404.56-9.128.56h-1.764zm0-14.392h9.632v2.94H134.4v12.544h-3.528zm2.52 6.972h6.132v2.856h-6.132zm15.456-9.828h3.556v25.928h-3.556zm-5.348.448h3.472v24.332H143.5zM156.658 69h12.404v17.192h-12.404zm8.736 2.912h-5.068v11.34h5.068zm7.056-5.348h3.752v25.928h-3.752zm2.912 9.772h4.592v3.08h-4.592zm22.958-9.744h3.724v19.096h-3.724zm2.66 7.42h4.508v3.08h-4.508zm-15.568 15.064h17.584v2.968h-17.584zm0-4.928h3.752v5.908h-3.752zm-2.856-5.152h2.184c5.096 0 8.232-.14 11.816-.812l.336 2.996c-3.64.672-6.916.784-12.152.784h-2.184zm-.028-10.864h11.844v8.176h-8.12v3.752h-3.696v-6.496h8.148V71.1h-8.176zm29.071 15.763v-.338q.01-1.74.308-2.774.309-1.034.895-1.67a6.9 6.9 0 0 1 1.412-1.154q.617-.397 1.104-.826.487-.427.775-.944.29-.526.289-1.173 0-.687-.328-1.204a2.2 2.2 0 0 0-.885-.795 2.64 2.64 0 0 0-1.213-.278q-.647 0-1.223.288a2.33 2.33 0 0 0-.945.835q-.368.548-.398 1.362h-4.057q.05-1.989.955-3.28a5.47 5.47 0 0 1 2.396-1.94q1.493-.645 3.291-.646 1.98 0 3.5.656 1.522.647 2.387 1.88t.865 2.972q0 1.163-.388 2.069a5 5 0 0 1-1.064 1.59 8.2 8.2 0 0 1-1.621 1.243 6.6 6.6 0 0 0-1.292.975q-.497.508-.746 1.173-.239.666-.248 1.64v.339zm1.969 6.364q-.995 0-1.7-.697a2.3 2.3 0 0 1-.687-1.69 2.25 2.25 0 0 1 .687-1.67 2.33 2.33 0 0 1 1.7-.696q.945 0 1.66.696a2.28 2.28 0 0 1 .378 2.873 2.6 2.6 0 0 1-.865.865 2.26 2.26 0 0 1-1.173.319"/><path fill="#000" d="M80.22 122.14h5.52v1.36h-5.52zm0 4.04h5.52v1.38h-5.52zm-5.42 4.96h12.06v6.42H85.2v-5.08H74.8zm10.4-11.66h1.66v10.66H85.2zm-8.28 1c2.66 0 4.66 1.8 4.66 4.36s-2 4.34-4.66 4.34c-2.68 0-4.66-1.78-4.66-4.34s1.98-4.36 4.66-4.36m0 1.42c-1.76 0-3.06 1.22-3.06 2.94s1.3 2.92 3.06 2.92 3.08-1.2 3.08-2.92-1.32-2.94-3.08-2.94m17.898-.86h1.36v3.24c0 4-2.16 7.9-5.02 9.42l-1.02-1.32c2.62-1.32 4.68-4.8 4.68-8.1zm.3 0h1.34v3.24c0 3.18 2.02 6.48 4.58 7.76l-1.02 1.32c-2.8-1.5-4.9-5.2-4.9-9.08zm7.5-1.56h1.68v18.08h-1.68zm1.28 7.32h3.36v1.4h-3.36zm7.933 7.211-.114.767q-.12.81-.369 1.733a33 33 0 0 1-.504 1.74q-.263.817-.433 1.3h-1.279l.242-1.2q.148-.746.298-1.669.156-.917.256-1.875l.085-.796zm15.396-10.171h3.52v1.38h-3.52zm0 5.5h3.52v1.38h-3.52zm6.56-9.86h1.6v18.08h-1.6zm-3.54.38h1.56v16.8h-1.56zm-6.16 1.12c2.34 0 3.86 2.42 3.86 6.3s-1.52 6.3-3.86 6.3-3.84-2.42-3.84-6.3 1.5-6.3 3.84-6.3m0 1.54c-1.42 0-2.34 1.84-2.34 4.76s.92 4.76 2.34 4.76c1.44 0 2.34-1.84 2.34-4.76s-.9-4.76-2.34-4.76m21.659-2.96h1.4v.66c0 3.08-3.52 5.14-7.28 5.62l-.56-1.28c3.28-.36 6.44-2.1 6.44-4.34zm.28 0h1.4v.66c0 2.24 3.16 3.98 6.44 4.34l-.58 1.28c-3.74-.48-7.26-2.54-7.26-5.62zm-.28 8.44h1.64v2.76h-1.64zm-7.34-.98h16.34v1.34h-16.34zm1.98 3.12h12.28v4.12h-10.6v2.18h-1.64v-3.38h10.6v-1.64h-10.64zm.04 5.92h12.78v1.3h-12.78zm19.432-2.049-.113.767q-.121.81-.37 1.733a33 33 0 0 1-.504 1.74q-.263.817-.433 1.3h-1.279l.242-1.2q.149-.746.298-1.669.156-.917.256-1.875l.085-.796zm8.177-5.291h16.38v1.36h-16.38zm7.48.84h1.66v4.16h-1.66zm-5.38-9.24h12.16v6.36h-12.16zm10.52 1.34h-8.9v3.68h8.9zm-10.54 14.14h12.48v1.36h-12.48zm0-3.82h1.64v4.3h-1.64zm21.018-1.72h1.66v2.94h-1.66zm7.6-10.78h1.66v18.08h-1.66zm1.12 7.68h3.34v1.4h-3.34zm-13.38 6.96-.24-1.38c3.24 0 7.66-.04 11.4-.58l.14 1.24c-3.9.7-8.14.72-11.3.72m.06-12.46h10.82V123h-10.82zm5.42 2.4c2.52 0 4.26 1.32 4.26 3.34 0 2.04-1.74 3.34-4.26 3.34s-4.24-1.3-4.24-3.34c0-2.02 1.72-3.34 4.24-3.34m0 1.28c-1.62 0-2.68.82-2.68 2.06s1.06 2.06 2.68 2.06 2.7-.82 2.7-2.06-1.08-2.06-2.7-2.06m-.82-5.84h1.66v3.06h-1.66zm13.699 8.38h16.4v1.26h-16.4zm1.94 2.72h12.4v3.86h-10.7v2.12h-1.64v-3.26h10.72v-1.54h-10.78zm.06 5.54h12.92v1.2h-12.92zm.08-16.14h12.2v3.76h-10.52v1.96h-1.64v-3.08h10.54v-1.46h-10.58zm.04 5.32h12.5v1.2h-12.5zm29.243 3.2h1.66v3.16h-1.66zm-7.34-.58h16.34v1.34h-16.34zm8.16 3.24c3.88 0 6.2 1.14 6.2 3.18 0 2.02-2.32 3.16-6.2 3.16s-6.2-1.14-6.2-3.16c0-2.04 2.32-3.18 6.2-3.18m0 1.28c-2.82 0-4.52.68-4.52 1.9 0 1.2 1.7 1.88 4.52 1.88 2.84 0 4.52-.68 4.52-1.88 0-1.22-1.68-1.9-4.52-1.9m-1.06-11.5h1.48v.54c0 2.92-3.32 4.88-7.06 5.34l-.6-1.32c3.24-.34 6.18-1.96 6.18-4.02zm.7 0h1.46v.54c0 2.06 2.94 3.68 6.18 4.02l-.6 1.32c-3.74-.46-7.04-2.42-7.04-5.34zm-6.3-.66h13.38v1.34h-13.38zm30.058-.8h1.68v10.26h-1.68zm-10 11.3h11.68v6.52h-11.68zm10.04 1.32h-8.42v3.86h8.42zm-8.48-11.94h1.38v1.76c0 3.36-2.08 6.24-5.14 7.38l-.82-1.32c2.72-.98 4.58-3.42 4.58-6.06zm.3 0h1.36v1.76c0 2.56 1.88 4.82 4.56 5.72l-.82 1.3c-3.02-1.04-5.1-3.74-5.1-7.02zm21.559.44c3.76 0 6.56 2 6.56 5 0 3.02-2.8 5-6.56 5s-6.58-1.98-6.58-5c0-3 2.82-5 6.58-5m0 1.36c-2.86 0-4.98 1.46-4.98 3.64 0 2.16 2.12 3.64 4.98 3.64s4.98-1.48 4.98-3.64c0-2.18-2.12-3.64-4.98-3.64m-8.16 11.8h16.38v1.4h-16.38zm18.398.18h16.38v1.38h-16.38zm7.32-3.88h1.66v4.46h-1.66zm-5.34-9.26h12.38v5.48h-10.68v3.62h-1.64v-4.96h10.68v-2.8h-10.74zm.06 8.4h12.74v1.36h-12.74zm34.204-9.76h1.68v18.12h-1.68zm1.28 7.14h3.36v1.4h-3.36zm-12.74 5.08h1.42c3.34 0 5.68-.12 8.38-.62l.18 1.4c-2.78.52-5.16.62-8.56.62h-1.42zm0-10.46h8.4v1.36h-6.76v9.72h-1.64zm21.318 2.88h1.28v.94c0 3.58-1.5 7.2-4.14 8.78l-1-1.26c2.46-1.44 3.86-4.58 3.86-7.52zm.3 0h1.28v.94c0 2.86 1.46 5.82 3.88 7.14l-.94 1.24c-2.66-1.48-4.22-4.9-4.22-8.38zm-3.7-1.26h8.38v1.36h-8.38zm3.4-2.72h1.6v3.74h-1.6zm10.14-.64h1.58v18.08h-1.58zm-2.86 7.28h3.48v1.4h-3.48zm-1.08-6.9h1.56v16.8h-1.56zm8.519 14.1h16.38v1.38h-16.38zm7.32-3.88h1.66v4.46h-1.66zm-5.34-9.26h12.38v5.48h-10.68v3.62h-1.64v-4.96h10.68v-2.8h-10.74zm.06 8.4h12.74v1.36h-12.74zm16.338-.58h16.4V130h-16.4zm7.48.86h1.68v4.16h-1.68zm-5.4 6.28h12.5v1.38h-12.5zm0-3.9h1.66v4.28h-1.66zm6.1-11.96c3.82 0 6.34 1.4 6.34 3.64s-2.52 3.64-6.34 3.64c-3.84 0-6.34-1.4-6.34-3.64s2.5-3.64 6.34-3.64m0 1.36c-2.76 0-4.58.88-4.58 2.28 0 1.42 1.82 2.28 4.58 2.28s4.58-.86 4.58-2.28c0-1.4-1.82-2.28-4.58-2.28m24.504 1.52h4.84v1.36h-4.84zm-.16 3.76h4.88v1.36h-4.88zm4.72-7.08h1.66v10.84h-1.66zm-5.66 1.36h1.78c0 4.66-3.22 7.92-8.42 9.48l-.68-1.34c4.62-1.34 7.32-4 7.32-7.42zm-6.38 0h7.52v1.36h-7.52zm7.82 9.68c3.66 0 5.98 1.3 5.98 3.48s-2.32 3.48-5.98 3.48-5.98-1.3-5.98-3.48 2.32-3.48 5.98-3.48m0 1.3c-2.64 0-4.34.82-4.34 2.18s1.7 2.16 4.34 2.16c2.66 0 4.36-.8 4.36-2.16s-1.7-2.18-4.36-2.18m22.618-12.34h1.66v10.94h-1.66zm-3 5.48h3.74v1.38h-3.74zm-7.06 6.42h11.72v5.94h-11.72zm10.1 1.34h-8.48v3.26h8.48zm-13.22-11.36h10.46v1.34h-10.46zm5.22 2.26c2.44 0 4.18 1.32 4.18 3.24s-1.74 3.2-4.18 3.2-4.18-1.28-4.18-3.2 1.74-3.24 4.18-3.24m0 1.28c-1.52 0-2.6.78-2.6 1.96 0 1.16 1.08 1.94 2.6 1.94s2.6-.78 2.6-1.94c0-1.18-1.08-1.96-2.6-1.96m-.82-5.6h1.66v3.02h-1.66zm22.138.48c3.98 0 6.36 1.12 6.36 3.14s-2.38 3.14-6.36 3.14c-4 0-6.36-1.12-6.36-3.14s2.36-3.14 6.36-3.14m0 1.26c-2.96 0-4.66.68-4.66 1.88s1.7 1.88 4.66 1.88c2.94 0 4.64-.68 4.64-1.88s-1.7-1.88-4.64-1.88m-8.18 6.22h16.34v1.34h-16.34zm1.98 2.88h12.28v4.08h-10.6v2.2h-1.64v-3.4h10.6v-1.6h-10.64zm.04 5.92h12.78v1.3h-12.78zm35.764-16.58h1.6v18.08h-1.6zm-6.58 6.48h3.46v1.38h-3.46zm2.96-6.06h1.56v16.74h-1.56zm-6.44 2.38h1.28v2.3c0 3.96-1.52 7.7-4.18 9.38l-1.02-1.24c2.52-1.52 3.92-4.82 3.92-8.14zm.34 0h1.28v2.3c0 3.14 1.36 6.28 3.84 7.72l-1.02 1.22c-2.64-1.6-4.1-5.16-4.1-8.94zm-3.76-.7h8.26v1.38h-8.26zm26.238 9.3c3.84 0 6.3 1.26 6.3 3.34 0 2.06-2.46 3.3-6.3 3.3-3.86 0-6.3-1.24-6.3-3.3 0-2.08 2.44-3.34 6.3-3.34m0 1.3c-2.84 0-4.66.78-4.66 2.04 0 1.24 1.82 2.02 4.66 2.02s4.64-.78 4.64-2.02c0-1.26-1.8-2.04-4.64-2.04m-6.16-11.8h11.64v1.36h-11.64zm-1.94 7.52h16.32v1.34h-16.32zm6.7-3.48h1.64v3.86h-1.64zm5.92-4.04h1.62v1.54c0 1.46 0 2.92-.48 4.8l-1.64-.2c.5-1.86.5-3.18.5-4.6zm18.139-.9h1.66v10.5h-1.66zm.94 4.6h3.4v1.4h-3.4zm-10.64 6.7h1.62v1.92h8.1v-1.92h1.64v6.54h-11.36zm1.62 3.2v2h8.1v-2zm-4.24-12.66h10.68v1.36h-10.68zm5.34 2.18c2.58 0 4.32 1.26 4.32 3.18s-1.74 3.18-4.32 3.18c-2.6 0-4.34-1.26-4.34-3.18s1.74-3.18 4.34-3.18m0 1.26c-1.66 0-2.76.76-2.76 1.92s1.1 1.92 2.76 1.92c1.62 0 2.74-.76 2.74-1.92s-1.12-1.92-2.74-1.92m-.84-5.46h1.66v2.76h-1.66zm26.998.18h1.66v18.08h-1.66zm-12 1.76h1.64v11.2h-1.64zm0 10.22h1.48c2.74 0 5.6-.2 8.66-.84l.2 1.42c-3.14.64-6 .86-8.86.86h-1.48zm29.479-12h1.68v18.12h-1.68zm1.28 7.14h3.36v1.4h-3.36zm-12.74 5.08h1.42c3.34 0 5.68-.12 8.38-.62l.18 1.4c-2.78.52-5.16.62-8.56.62h-1.42zm0-10.46h8.4v1.36h-6.76v9.72h-1.64zm19.394 14.894a1.23 1.23 0 0 1-.902-.377 1.23 1.23 0 0 1-.377-.902q0-.525.377-.902.376-.376.902-.376.525 0 .902.376.376.377.376.902 0 .348-.177.639a1.3 1.3 0 0 1-.462.469q-.285.171-.639.171M77.108 184.227q-1.577 0-2.72-.696a4.67 4.67 0 0 1-1.755-1.96q-.61-1.265-.61-2.94 0-1.677.61-2.955.619-1.285 1.72-2.003 1.107-.724 2.585-.724.852 0 1.683.284a4.2 4.2 0 0 1 1.513.923q.681.632 1.086 1.676t.405 2.571v.711h-8.41v-1.449h6.706q0-.924-.37-1.648a2.8 2.8 0 0 0-1.037-1.143q-.667-.42-1.576-.419-1.002 0-1.734.497a3.27 3.27 0 0 0-1.114 1.278 3.76 3.76 0 0 0-.391 1.69v.966q0 1.236.426 2.096a3.07 3.07 0 0 0 1.2 1.299q.768.441 1.783.441.66 0 1.193-.185.54-.192.93-.568.391-.384.604-.952l1.62.455a3.6 3.6 0 0 1-.86 1.448 4.2 4.2 0 0 1-1.491.966q-.888.342-1.996.341m8.024-11.136 2.613 4.46 2.614-4.46h1.932l-3.523 5.454L92.291 184h-1.932l-2.614-4.233L85.132 184H83.2l3.466-5.455-3.466-5.454zm13.13 4.773q0 2.684-.703 4.943a15.3 15.3 0 0 1-1.996 4.148h-1.477q.51-.704.952-1.733.447-1.023.78-2.245a21 21 0 0 0 .52-2.535q.19-1.315.191-2.578 0-1.69-.327-3.431a19.7 19.7 0 0 0-.88-3.231q-.555-1.492-1.236-2.429h1.477a15.2 15.2 0 0 1 1.996 4.155q.703 2.251.703 4.936m16.978-7.724h5.52v1.36h-5.52zm0 4.04h5.52v1.38h-5.52zm-5.42 4.96h12.06v6.42h-1.66v-5.08h-10.4zm10.4-11.66h1.66v10.66h-1.66zm-8.28 1c2.66 0 4.66 1.8 4.66 4.36s-2 4.34-4.66 4.34c-2.68 0-4.66-1.78-4.66-4.34s1.98-4.36 4.66-4.36m0 1.42c-1.76 0-3.06 1.22-3.06 2.94s1.3 2.92 3.06 2.92 3.08-1.2 3.08-2.92-1.32-2.94-3.08-2.94m17.898-.86h1.36v3.24c0 4-2.16 7.9-5.02 9.42l-1.02-1.32c2.62-1.32 4.68-4.8 4.68-8.1zm.3 0h1.34v3.24c0 3.18 2.02 6.48 4.58 7.76l-1.02 1.32c-2.8-1.5-4.9-5.2-4.9-9.08zm7.5-1.56h1.68v18.08h-1.68zm1.28 7.32h3.36v1.4h-3.36zm7.932 7.211-.113.767q-.121.81-.369 1.733-.242.924-.505 1.74-.262.817-.433 1.3h-1.278l.241-1.2q.15-.746.298-1.669.157-.917.256-1.875l.085-.796zm12.417-2.111h1.68v5.7h-1.68zm6.22 0h1.66v5.7h-1.66zm-9.6-10.42h14.54v1.34h-14.54zm-.84 9.56h16.38v1.36h-16.38zm8.16-7.2c3.68 0 5.86 1.08 5.86 2.98 0 1.92-2.18 3-5.86 3-3.7 0-5.88-1.08-5.88-3 0-1.9 2.18-2.98 5.88-2.98m0 1.26c-2.64 0-4.16.62-4.16 1.72 0 1.12 1.52 1.74 4.16 1.74s4.16-.62 4.16-1.74c0-1.1-1.52-1.72-4.16-1.72m-.84-5.72h1.66v3.06h-1.66zm24.598 2.8h3.14v1.38h-3.14zm0 3.84h3.14v1.38h-3.14zm-8.48-5.48c2.72 0 4.72 1.76 4.72 4.28 0 2.5-2 4.24-4.72 4.24s-4.72-1.74-4.72-4.24c0-2.52 2-4.28 4.72-4.28m0 1.4c-1.8 0-3.1 1.18-3.1 2.88s1.3 2.86 3.1 2.86 3.1-1.16 3.1-2.86-1.3-2.88-3.1-2.88m7.32-2.46h1.66v10.7h-1.66zm-4.1 11.28c3.68 0 5.94 1.26 5.94 3.38 0 2.14-2.26 3.38-5.94 3.38s-5.94-1.24-5.94-3.38c0-2.12 2.26-3.38 5.94-3.38m0 1.34c-2.68 0-4.32.74-4.32 2.04s1.64 2.06 4.32 2.06 4.32-.76 4.32-2.06-1.64-2.04-4.32-2.04m13.173 1.911-.114.767q-.12.81-.369 1.733a33 33 0 0 1-.504 1.74q-.263.817-.434 1.3h-1.278q.093-.454.241-1.2.15-.746.299-1.669.156-.917.255-1.875l.086-.796zm15.556-7.391h3.42v1.36h-3.42zm-3.68-2.52h1.28v.94c0 3.6-1.5 7.24-4.14 8.82l-.98-1.26c2.44-1.42 3.84-4.6 3.84-7.56zm.3 0h1.28v.94c0 2.88 1.44 5.86 3.88 7.18l-.94 1.24c-2.66-1.48-4.22-4.9-4.22-8.42zm-3.64-1.3h8.26v1.38h-8.26zm3.34-2.68h1.6v3.74h-1.6zm10.06-.64h1.6v18.08h-1.6zm-3.62.42h1.56v16.74h-1.56zm21.479-.42h1.66v10.94h-1.66zm-3 5.48h3.74v1.38h-3.74zm-7.06 6.42h11.72v5.94h-11.72zm10.1 1.34h-8.48v3.26h8.48zm-13.22-11.36h10.46v1.34h-10.46zm5.22 2.26c2.44 0 4.18 1.32 4.18 3.24s-1.74 3.2-4.18 3.2-4.18-1.28-4.18-3.2 1.74-3.24 4.18-3.24m0 1.28c-1.52 0-2.6.78-2.6 1.96 0 1.16 1.08 1.94 2.6 1.94s2.6-.78 2.6-1.94c0-1.18-1.08-1.96-2.6-1.96m-.82-5.6h1.66v3.02h-1.66zm17.012 14.711-.113.767q-.121.81-.37 1.733a33 33 0 0 1-.504 1.74q-.263.817-.433 1.3h-1.279l.242-1.2q.149-.746.298-1.669.156-.917.256-1.875l.085-.796zm12.637-13.431h1.36v2.22c0 3.54-1.96 6.36-5 7.54l-.88-1.32c2.76-.98 4.52-3.42 4.52-6.22zm.28 0h1.36v2.28c0 2.46 1.8 4.78 4.44 5.72l-.82 1.3c-2.98-1.08-4.98-3.84-4.98-7.02zm7.64-1.12h1.66v13.36h-1.66zm1.14 5.56h3.2v1.38h-3.2zm-10.7 10.78h12.02v1.36h-12.02zm0-4.24h1.66v4.9h-1.66zm24.678-7.78h4.86v1.38h-4.86zm-4.16-3.48c2.7 0 4.66 1.72 4.66 4.2s-1.96 4.18-4.66 4.18-4.66-1.7-4.66-4.18 1.96-4.2 4.66-4.2m0 1.4c-1.78 0-3.06 1.14-3.06 2.8 0 1.64 1.28 2.8 3.06 2.8s3.06-1.16 3.06-2.8c0-1.66-1.28-2.8-3.06-2.8m8.28-2.22h1.66v9.7h-1.66zm-9.92 10.6h1.66v2.28h8.28v-2.28h1.64v7.24h-11.58zm1.66 3.6v2.3h8.28v-2.3zm16.493.331-.114.767q-.122.81-.369 1.733a32 32 0 0 1-.505 1.74q-.262.817-.433 1.3h-1.278l.241-1.2q.15-.746.298-1.669.157-.917.256-1.875l.085-.796zm21.396-14.531h1.66v13.36h-1.66zm-3.9 5.58h4.22v1.38h-4.22zm-1.68-4.18h1.74c0 4.66-3.28 8.2-8.38 9.9l-.72-1.34c4.42-1.48 7.36-4.32 7.36-7.9zm-6.46 0h7.54v1.36h-7.54zm2.28 14.92h11.88v1.36h-11.88zm0-4.3h1.66v4.98h-1.66zm22.298-1.96h1.64v2.84h-1.64zm-7.36-.96h16.34v1.34h-16.34zm1.82 3.38h12.5v5.54h-1.66v-4.18h-10.84zm5.54-12.58h1.64v2.52h-1.64zm-.08 2.74h1.46v.3c0 2.98-3.3 4.72-7.24 5.14l-.52-1.26c3.5-.32 6.3-1.8 6.3-3.88zm.34 0h1.46v.3c0 2.08 2.8 3.56 6.3 3.88l-.52 1.26c-3.96-.42-7.24-2.16-7.24-5.14zm-5.94-.88h13v1.34h-13zm23.304-.6h8.42v7.4h-8.42zm6.82 1.34h-5.22v4.74h5.22zm5.38-2.5h1.66v10.38h-1.66zm-4.9 12.52h1.42v.34c0 2.6-3.22 4.68-6.88 5.16l-.56-1.28c3.14-.36 6.02-2.08 6.02-3.88zm.24 0h1.44v.34c0 1.74 2.8 3.5 5.94 3.88l-.56 1.28c-3.68-.5-6.82-2.62-6.82-5.16zm-5.54-.92h12.28v1.3h-12.28zm5.3-1.74h1.68v2.32h-1.68zm15.783 4.52h16.38v1.38h-16.38zm7.36-4.38h1.64v4.84h-1.64zm-.04-7.72h1.4v1.12c0 3.7-3.7 6.5-7.26 7.24l-.68-1.32c3.12-.52 6.54-3.06 6.54-5.92zm.3 0h1.4v1.12c0 2.86 3.44 5.34 6.6 5.86l-.66 1.32c-3.62-.72-7.34-3.48-7.34-7.18zm-6.28-.64h13.66v1.36h-13.66zm27.219 2.7h3.68v1.36h-3.68zm-.02 3.52h3.68v1.36h-3.68zm-10.12-5.88h10.12v1.34h-10.12zm5.12 2.28c2.42 0 4.08 1.32 4.08 3.34s-1.66 3.36-4.08 3.36-4.1-1.34-4.1-3.36 1.68-3.34 4.1-3.34m0 1.28c-1.52 0-2.54.8-2.54 2.06s1.02 2.08 2.54 2.08c1.5 0 2.54-.82 2.54-2.08s-1.04-2.06-2.54-2.06m-.82-5.7h1.66v3.08h-1.66zm8.88.16h1.66v11.68h-1.66zm-4.26 11.86c3.74 0 6.02 1.14 6.02 3.1s-2.28 3.08-6.02 3.08c-3.76 0-6.02-1.12-6.02-3.08s2.26-3.1 6.02-3.1m0 1.32c-2.66 0-4.3.62-4.3 1.78 0 1.14 1.64 1.8 4.3 1.8s4.3-.66 4.3-1.8c0-1.16-1.64-1.78-4.3-1.78m16.778-4.64h1.64v2.78h-1.64zm-7.34-.92h16.34v1.34h-16.34zm2.12-7.02h12.1v5.5h-12.1zm10.48 1.32h-8.84v2.86h8.84zm-10.62 8.8h12.28v4.06h-10.6v2.2h-1.64v-3.4h10.6v-1.58h-10.64zm.04 5.86h12.78v1.3h-12.78zm19.433-2.049-.114.767q-.121.81-.369 1.733a32 32 0 0 1-.505 1.74q-.262.817-.433 1.3h-1.278l.241-1.2q.15-.746.299-1.669.156-.917.255-1.875l.085-.796zm8.176-5.291h16.38v1.36h-16.38zm7.48.84h1.66v4.16h-1.66zm-5.38-9.24h12.16v6.36h-12.16zm10.52 1.34h-8.9v3.68h8.9zm-10.54 14.14h12.48v1.36h-12.48zm0-3.82h1.64v4.3h-1.64zm21.018-1.72h1.66v2.94h-1.66zm7.6-10.78h1.66v18.08h-1.66zm1.12 7.68h3.34v1.4h-3.34zm-13.38 6.96-.24-1.38c3.24 0 7.66-.04 11.4-.58l.14 1.24c-3.9.7-8.14.72-11.3.72m.06-12.46h10.82V171h-10.82zm5.42 2.4c2.52 0 4.26 1.32 4.26 3.34 0 2.04-1.74 3.34-4.26 3.34s-4.24-1.3-4.24-3.34c0-2.02 1.72-3.34 4.24-3.34m0 1.28c-1.62 0-2.68.82-2.68 2.06s1.06 2.06 2.68 2.06 2.7-.82 2.7-2.06-1.08-2.06-2.7-2.06m-.82-5.84h1.66v3.06h-1.66zm18.479 1.54h1.36v3.24c0 4.16-2.24 8.02-5.2 9.52l-1.02-1.36c2.68-1.28 4.86-4.74 4.86-8.16zm.28 0h1.36v3.24c0 3.3 2.16 6.62 4.84 7.86l-1 1.32c-2.94-1.44-5.2-5.16-5.2-9.18zm8.08-1.58h1.66v18.12h-1.66zm14.558 3.28h4.62v1.38h-4.62zm3.92-3.26h1.66v9.32h-1.66zm-9.98 10.26h11.64v4.32h-9.96v2.74h-1.62v-3.98h9.94v-1.76h-10zm.06 6.26h12.26v1.32h-12.26zm1.22-15.96h1.36v1.7c0 3.34-2 6.04-5.02 7.12l-.86-1.32c2.72-.92 4.52-3.18 4.52-5.8zm.28 0h1.34v1.7c0 2.36 1.82 4.54 4.44 5.4l-.86 1.3c-2.92-1.04-4.92-3.64-4.92-6.7z"/></svg>