<svg width="893" height="237" viewBox="0 0 893 237" fill="none" xmlns="http://www.w3.org/2000/svg">
<rect y="22" width="893" height="215" rx="30" fill="white"/>
<path d="M231 0L257.847 44.4375H204.153L231 0Z" fill="white"/>
<circle cx="54" cy="67" r="10" fill="#337FED"/>
<path d="M89.928 66.592H93.68V85.212H89.928V66.592ZM76.404 89.076H94.324V92.044H76.404V89.076ZM76.404 83.336H80.128V90.28H76.404V83.336ZM79.568 68.216C83.544 68.216 86.596 70.96 86.596 74.796C86.596 78.604 83.544 81.376 79.568 81.376C75.592 81.376 72.512 78.604 72.512 74.796C72.512 70.96 75.592 68.216 79.568 68.216ZM79.568 71.436C77.636 71.436 76.152 72.668 76.152 74.796C76.152 76.896 77.636 78.128 79.568 78.128C81.472 78.128 82.956 76.896 82.956 74.796C82.956 72.668 81.472 71.436 79.568 71.436ZM97.8778 79.36H121.342V82.328H97.8778V79.36ZM108.042 81.236H111.794V86.696H108.042V81.236ZM100.762 67.656H118.374V77.288H100.762V67.656ZM114.706 70.568H104.402V74.376H114.706V70.568ZM100.594 89.076H118.766V92.044H100.594V89.076ZM100.594 84.512H104.29V90.056H100.594V84.512ZM140.672 76H145.264V78.996H140.672V76ZM130.872 83.812H132.636C136.276 83.812 138.628 83.756 141.456 83.28L141.764 86.248C138.852 86.752 136.36 86.808 132.636 86.808H130.872V83.812ZM130.872 69.42H140.504V72.36H134.4V84.904H130.872V69.42ZM133.392 76.392H139.524V79.248H133.392V76.392ZM148.848 66.564H152.404V92.492H148.848V66.564ZM143.5 67.012H146.972V91.344H143.5V67.012ZM156.658 69H169.062V86.192H156.658V69ZM165.394 71.912H160.326V83.252H165.394V71.912ZM172.45 66.564H176.202V92.492H172.45V66.564ZM175.362 76.336H179.954V79.416H175.362V76.336ZM198.32 66.592H202.044V85.688H198.32V66.592ZM200.98 74.012H205.488V77.092H200.98V74.012ZM185.412 89.076H202.996V92.044H185.412V89.076ZM185.412 84.148H189.164V90.056H185.412V84.148ZM182.556 78.996H184.74C189.836 78.996 192.972 78.856 196.556 78.184L196.892 81.18C193.252 81.852 189.976 81.964 184.74 81.964H182.556V78.996ZM182.528 68.132H194.372V76.308H186.252V80.06H182.556V73.564H190.704V71.1H182.528V68.132ZM211.599 83.8949V83.5568C211.606 82.3968 211.708 81.4721 211.907 80.7827C212.113 80.0933 212.411 79.5365 212.802 79.1122C213.193 78.688 213.664 78.3035 214.214 77.9588C214.625 77.6937 214.993 77.4186 215.318 77.1335C215.643 76.8485 215.901 76.5336 216.093 76.1889C216.286 75.8376 216.382 75.4465 216.382 75.0156C216.382 74.5582 216.272 74.1572 216.054 73.8125C215.835 73.4678 215.54 73.2027 215.169 73.017C214.804 72.8314 214.4 72.7386 213.956 72.7386C213.525 72.7386 213.117 72.8348 212.733 73.027C212.348 73.2126 212.033 73.491 211.788 73.8622C211.543 74.2268 211.41 74.6809 211.39 75.2244H207.333C207.367 73.8987 207.685 72.8049 208.288 71.9432C208.891 71.0748 209.69 70.4285 210.684 70.0043C211.679 69.5734 212.776 69.358 213.975 69.358C215.295 69.358 216.461 69.5767 217.475 70.0142C218.49 70.4451 219.285 71.0715 219.862 71.8935C220.439 72.7154 220.727 73.7064 220.727 74.8665C220.727 75.642 220.598 76.3314 220.339 76.9347C220.087 77.5312 219.733 78.0616 219.275 78.5256C218.818 78.983 218.278 79.3973 217.654 79.7685C217.131 80.08 216.7 80.4048 216.362 80.7429C216.03 81.081 215.782 81.4721 215.616 81.9162C215.457 82.3603 215.374 82.9072 215.368 83.5568V83.8949H211.599ZM213.568 90.2585C212.905 90.2585 212.338 90.0265 211.868 89.5625C211.404 89.0919 211.175 88.5284 211.181 87.8722C211.175 87.2225 211.404 86.6657 211.868 86.2017C212.338 85.7377 212.905 85.5057 213.568 85.5057C214.198 85.5057 214.751 85.7377 215.228 86.2017C215.706 86.6657 215.948 87.2225 215.954 87.8722C215.948 88.3097 215.832 88.7107 215.606 89.0753C215.387 89.4332 215.099 89.7216 214.741 89.9403C214.383 90.1525 213.992 90.2585 213.568 90.2585Z" fill="#262626"/>
<path d="M80.22 122.14H85.74V123.5H80.22V122.14ZM80.22 126.18H85.74V127.56H80.22V126.18ZM74.8 131.14H86.86V137.56H85.2V132.48H74.8V131.14ZM85.2 119.48H86.86V130.14H85.2V119.48ZM76.92 120.48C79.58 120.48 81.58 122.28 81.58 124.84C81.58 127.4 79.58 129.18 76.92 129.18C74.24 129.18 72.26 127.4 72.26 124.84C72.26 122.28 74.24 120.48 76.92 120.48ZM76.92 121.9C75.16 121.9 73.86 123.12 73.86 124.84C73.86 126.56 75.16 127.76 76.92 127.76C78.68 127.76 80 126.56 80 124.84C80 123.12 78.68 121.9 76.92 121.9ZM94.8184 121.04H96.1784V124.28C96.1784 128.28 94.0184 132.18 91.1584 133.7L90.1384 132.38C92.7584 131.06 94.8184 127.58 94.8184 124.28V121.04ZM95.1184 121.04H96.4584V124.28C96.4584 127.46 98.4784 130.76 101.038 132.04L100.018 133.36C97.2184 131.86 95.1184 128.16 95.1184 124.28V121.04ZM102.618 119.48H104.298V137.56H102.618V119.48ZM103.898 126.8H107.258V128.2H103.898V126.8ZM111.831 134.011L111.717 134.778C111.637 135.318 111.514 135.896 111.348 136.511C111.187 137.127 111.019 137.707 110.844 138.251C110.669 138.796 110.524 139.229 110.411 139.551H109.132C109.194 139.248 109.274 138.848 109.374 138.351C109.473 137.854 109.572 137.297 109.672 136.682C109.776 136.071 109.861 135.446 109.928 134.807L110.013 134.011H111.831ZM127.227 123.84H130.747V125.22H127.227V123.84ZM127.227 129.34H130.747V130.72H127.227V129.34ZM133.787 119.48H135.387V137.56H133.787V119.48ZM130.247 119.86H131.807V136.66H130.247V119.86ZM124.087 120.98C126.427 120.98 127.947 123.4 127.947 127.28C127.947 131.16 126.427 133.58 124.087 133.58C121.747 133.58 120.247 131.16 120.247 127.28C120.247 123.4 121.747 120.98 124.087 120.98ZM124.087 122.52C122.667 122.52 121.747 124.36 121.747 127.28C121.747 130.2 122.667 132.04 124.087 132.04C125.527 132.04 126.427 130.2 126.427 127.28C126.427 124.36 125.527 122.52 124.087 122.52ZM145.746 119.56H147.146V120.22C147.146 123.3 143.626 125.36 139.866 125.84L139.306 124.56C142.586 124.2 145.746 122.46 145.746 120.22V119.56ZM146.026 119.56H147.426V120.22C147.426 122.46 150.586 124.2 153.866 124.56L153.286 125.84C149.546 125.36 146.026 123.3 146.026 120.22V119.56ZM145.746 128H147.386V130.76H145.746V128ZM138.406 127.02H154.746V128.36H138.406V127.02ZM140.386 130.14H152.666V134.26H142.066V136.44H140.426V133.06H151.026V131.42H140.386V130.14ZM140.426 136.06H153.206V137.36H140.426V136.06ZM159.858 134.011L159.745 134.778C159.664 135.318 159.541 135.896 159.375 136.511C159.214 137.127 159.046 137.707 158.871 138.251C158.696 138.796 158.551 139.229 158.438 139.551H157.159C157.221 139.248 157.301 138.848 157.401 138.351C157.5 137.854 157.6 137.297 157.699 136.682C157.803 136.071 157.889 135.446 157.955 134.807L158.04 134.011H159.858ZM168.035 128.72H184.415V130.08H168.035V128.72ZM175.515 129.56H177.175V133.72H175.515V129.56ZM170.135 120.32H182.295V126.68H170.135V120.32ZM180.655 121.66H171.755V125.34H180.655V121.66ZM170.115 135.8H182.595V137.16H170.115V135.8ZM170.115 131.98H171.755V136.28H170.115V131.98ZM191.133 130.26H192.793V133.2H191.133V130.26ZM198.733 119.48H200.393V137.56H198.733V119.48ZM199.853 127.16H203.193V128.56H199.853V127.16ZM186.473 134.12L186.233 132.74C189.473 132.74 193.893 132.7 197.633 132.16L197.773 133.4C193.873 134.1 189.633 134.12 186.473 134.12ZM186.533 121.66H197.353V123H186.533V121.66ZM191.953 124.06C194.473 124.06 196.213 125.38 196.213 127.4C196.213 129.44 194.473 130.74 191.953 130.74C189.433 130.74 187.713 129.44 187.713 127.4C187.713 125.38 189.433 124.06 191.953 124.06ZM191.953 125.34C190.333 125.34 189.273 126.16 189.273 127.4C189.273 128.64 190.333 129.46 191.953 129.46C193.573 129.46 194.653 128.64 194.653 127.4C194.653 126.16 193.573 125.34 191.953 125.34ZM191.133 119.5H192.793V122.56H191.133V119.5ZM204.832 127.88H221.232V129.14H204.832V127.88ZM206.772 130.6H219.172V134.46H208.472V136.58H206.832V133.32H217.552V131.78H206.772V130.6ZM206.832 136.14H219.752V137.34H206.832V136.14ZM206.912 120H219.112V123.76H208.592V125.72H206.952V122.64H217.492V121.18H206.912V120ZM206.952 125.32H219.452V126.52H206.952V125.32ZM236.195 128.52H237.855V131.68H236.195V128.52ZM228.855 127.94H245.195V129.28H228.855V127.94ZM237.015 131.18C240.895 131.18 243.215 132.32 243.215 134.36C243.215 136.38 240.895 137.52 237.015 137.52C233.135 137.52 230.815 136.38 230.815 134.36C230.815 132.32 233.135 131.18 237.015 131.18ZM237.015 132.46C234.195 132.46 232.495 133.14 232.495 134.36C232.495 135.56 234.195 136.24 237.015 136.24C239.855 136.24 241.535 135.56 241.535 134.36C241.535 133.14 239.855 132.46 237.015 132.46ZM235.955 120.96H237.435V121.5C237.435 124.42 234.115 126.38 230.375 126.84L229.775 125.52C233.015 125.18 235.955 123.56 235.955 121.5V120.96ZM236.655 120.96H238.115V121.5C238.115 123.56 241.055 125.18 244.295 125.52L243.695 126.84C239.955 126.38 236.655 124.42 236.655 121.5V120.96ZM230.355 120.3H243.735V121.64H230.355V120.3ZM260.413 119.5H262.093V129.76H260.413V119.5ZM250.413 130.8H262.093V137.32H250.413V130.8ZM260.453 132.12H252.033V135.98H260.453V132.12ZM251.973 120.18H253.353V121.94C253.353 125.3 251.273 128.18 248.213 129.32L247.393 128C250.113 127.02 251.973 124.58 251.973 121.94V120.18ZM252.273 120.18H253.633V121.94C253.633 124.5 255.513 126.76 258.193 127.66L257.373 128.96C254.353 127.92 252.273 125.22 252.273 121.94V120.18ZM273.832 120.62C277.592 120.62 280.392 122.62 280.392 125.62C280.392 128.64 277.592 130.62 273.832 130.62C270.072 130.62 267.252 128.64 267.252 125.62C267.252 122.62 270.072 120.62 273.832 120.62ZM273.832 121.98C270.972 121.98 268.852 123.44 268.852 125.62C268.852 127.78 270.972 129.26 273.832 129.26C276.692 129.26 278.812 127.78 278.812 125.62C278.812 123.44 276.692 121.98 273.832 121.98ZM265.672 133.78H282.052V135.18H265.672V133.78ZM284.07 133.96H300.45V135.34H284.07V133.96ZM291.39 130.08H293.05V134.54H291.39V130.08ZM286.05 120.82H298.43V126.3H287.75V129.92H286.11V124.96H296.79V122.16H286.05V120.82ZM286.11 129.22H298.85V130.58H286.11V129.22ZM320.314 119.46H321.994V137.58H320.314V119.46ZM321.594 126.6H324.954V128H321.594V126.6ZM308.854 131.68H310.274C313.614 131.68 315.954 131.56 318.654 131.06L318.834 132.46C316.054 132.98 313.674 133.08 310.274 133.08H308.854V131.68ZM308.854 121.22H317.254V122.58H310.494V132.3H308.854V121.22ZM330.172 124.1H331.452V125.04C331.452 128.62 329.952 132.24 327.312 133.82L326.312 132.56C328.772 131.12 330.172 127.98 330.172 125.04V124.1ZM330.472 124.1H331.752V125.04C331.752 127.9 333.212 130.86 335.632 132.18L334.692 133.42C332.032 131.94 330.472 128.52 330.472 125.04V124.1ZM326.772 122.84H335.152V124.2H326.772V122.84ZM330.172 120.12H331.772V123.86H330.172V120.12ZM340.312 119.48H341.892V137.56H340.312V119.48ZM337.452 126.76H340.932V128.16H337.452V126.76ZM336.372 119.86H337.932V136.66H336.372V119.86ZM344.891 133.96H361.271V135.34H344.891V133.96ZM352.211 130.08H353.871V134.54H352.211V130.08ZM346.871 120.82H359.251V126.3H348.571V129.92H346.931V124.96H357.611V122.16H346.871V120.82ZM346.931 129.22H359.671V130.58H346.931V129.22ZM363.269 128.64H379.669V130H363.269V128.64ZM370.749 129.5H372.429V133.66H370.749V129.5ZM365.349 135.78H377.849V137.16H365.349V135.78ZM365.349 131.88H367.009V136.16H365.349V131.88ZM371.449 119.92C375.269 119.92 377.789 121.32 377.789 123.56C377.789 125.8 375.269 127.2 371.449 127.2C367.609 127.2 365.109 125.8 365.109 123.56C365.109 121.32 367.609 119.92 371.449 119.92ZM371.449 121.28C368.689 121.28 366.869 122.16 366.869 123.56C366.869 124.98 368.689 125.84 371.449 125.84C374.209 125.84 376.029 124.98 376.029 123.56C376.029 122.16 374.209 121.28 371.449 121.28ZM395.953 122.8H400.793V124.16H395.953V122.8ZM395.793 126.56H400.673V127.92H395.793V126.56ZM400.513 119.48H402.173V130.32H400.513V119.48ZM394.853 120.84H396.633C396.633 125.5 393.413 128.76 388.213 130.32L387.533 128.98C392.153 127.64 394.853 124.98 394.853 121.56V120.84ZM388.473 120.84H395.993V122.2H388.473V120.84ZM396.293 130.52C399.953 130.52 402.273 131.82 402.273 134C402.273 136.18 399.953 137.48 396.293 137.48C392.633 137.48 390.313 136.18 390.313 134C390.313 131.82 392.633 130.52 396.293 130.52ZM396.293 131.82C393.653 131.82 391.953 132.64 391.953 134C391.953 135.36 393.653 136.16 396.293 136.16C398.953 136.16 400.653 135.36 400.653 134C400.653 132.64 398.953 131.82 396.293 131.82ZM418.911 119.48H420.571V130.42H418.911V119.48ZM415.911 124.96H419.651V126.34H415.911V124.96ZM408.851 131.38H420.571V137.32H408.851V131.38ZM418.951 132.72H410.471V135.98H418.951V132.72ZM405.731 121.36H416.191V122.7H405.731V121.36ZM410.951 123.62C413.391 123.62 415.131 124.94 415.131 126.86C415.131 128.78 413.391 130.06 410.951 130.06C408.511 130.06 406.771 128.78 406.771 126.86C406.771 124.94 408.511 123.62 410.951 123.62ZM410.951 124.9C409.431 124.9 408.351 125.68 408.351 126.86C408.351 128.02 409.431 128.8 410.951 128.8C412.471 128.8 413.551 128.02 413.551 126.86C413.551 125.68 412.471 124.9 410.951 124.9ZM410.131 119.3H411.791V122.32H410.131V119.3ZM432.269 119.78C436.249 119.78 438.629 120.9 438.629 122.92C438.629 124.94 436.249 126.06 432.269 126.06C428.269 126.06 425.909 124.94 425.909 122.92C425.909 120.9 428.269 119.78 432.269 119.78ZM432.269 121.04C429.309 121.04 427.609 121.72 427.609 122.92C427.609 124.12 429.309 124.8 432.269 124.8C435.209 124.8 436.909 124.12 436.909 122.92C436.909 121.72 435.209 121.04 432.269 121.04ZM424.089 127.26H440.429V128.6H424.089V127.26ZM426.069 130.14H438.349V134.22H427.749V136.42H426.109V133.02H436.709V131.42H426.069V130.14ZM426.109 136.06H438.889V137.36H426.109V136.06ZM461.873 119.48H463.473V137.56H461.873V119.48ZM455.293 125.96H458.753V127.34H455.293V125.96ZM458.253 119.9H459.813V136.64H458.253V119.9ZM451.813 122.28H453.093V124.58C453.093 128.54 451.573 132.28 448.913 133.96L447.893 132.72C450.413 131.2 451.813 127.9 451.813 124.58V122.28ZM452.153 122.28H453.433V124.58C453.433 127.72 454.793 130.86 457.273 132.3L456.253 133.52C453.613 131.92 452.153 128.36 452.153 124.58V122.28ZM448.393 121.58H456.653V122.96H448.393V121.58ZM474.631 130.88C478.471 130.88 480.931 132.14 480.931 134.22C480.931 136.28 478.471 137.52 474.631 137.52C470.771 137.52 468.331 136.28 468.331 134.22C468.331 132.14 470.771 130.88 474.631 130.88ZM474.631 132.18C471.791 132.18 469.971 132.96 469.971 134.22C469.971 135.46 471.791 136.24 474.631 136.24C477.471 136.24 479.271 135.46 479.271 134.22C479.271 132.96 477.471 132.18 474.631 132.18ZM468.471 120.38H480.111V121.74H468.471V120.38ZM466.531 127.9H482.851V129.24H466.531V127.9ZM473.231 124.42H474.871V128.28H473.231V124.42ZM479.151 120.38H480.771V121.92C480.771 123.38 480.771 124.84 480.291 126.72L478.651 126.52C479.151 124.66 479.151 123.34 479.151 121.92V120.38ZM497.29 119.48H498.95V129.98H497.29V119.48ZM498.23 124.08H501.63V125.48H498.23V124.08ZM487.59 130.78H489.21V132.7H497.31V130.78H498.95V137.32H487.59V130.78ZM489.21 133.98V135.98H497.31V133.98H489.21ZM484.97 121.32H495.65V122.68H484.97V121.32ZM490.31 123.5C492.89 123.5 494.63 124.76 494.63 126.68C494.63 128.6 492.89 129.86 490.31 129.86C487.71 129.86 485.97 128.6 485.97 126.68C485.97 124.76 487.71 123.5 490.31 123.5ZM490.31 124.76C488.65 124.76 487.55 125.52 487.55 126.68C487.55 127.84 488.65 128.6 490.31 128.6C491.93 128.6 493.05 127.84 493.05 126.68C493.05 125.52 491.93 124.76 490.31 124.76ZM489.47 119.3H491.13V122.06H489.47V119.3ZM516.468 119.48H518.128V137.56H516.468V119.48ZM504.468 121.24H506.108V132.44H504.468V121.24ZM504.468 131.46H505.948C508.688 131.46 511.548 131.26 514.608 130.62L514.808 132.04C511.668 132.68 508.808 132.9 505.948 132.9H504.468V131.46ZM533.947 119.46H535.627V137.58H533.947V119.46ZM535.227 126.6H538.587V128H535.227V126.6ZM522.487 131.68H523.907C527.247 131.68 529.587 131.56 532.287 131.06L532.467 132.46C529.687 132.98 527.307 133.08 523.907 133.08H522.487V131.68ZM522.487 121.22H530.887V122.58H524.127V132.3H522.487V121.22ZM541.881 136.114C541.53 136.114 541.23 135.988 540.979 135.737C540.728 135.486 540.602 135.186 540.602 134.835C540.602 134.485 540.728 134.184 540.979 133.933C541.23 133.682 541.53 133.557 541.881 133.557C542.231 133.557 542.532 133.682 542.783 133.933C543.034 134.184 543.159 134.485 543.159 134.835C543.159 135.067 543.1 135.28 542.982 135.474C542.868 135.669 542.714 135.825 542.52 135.943C542.33 136.057 542.117 136.114 541.881 136.114ZM77.108 184.227C76.0568 184.227 75.1501 183.995 74.3878 183.531C73.6302 183.062 73.0455 182.409 72.6335 181.571C72.2263 180.728 72.0227 179.748 72.0227 178.631C72.0227 177.513 72.2263 176.528 72.6335 175.676C73.0455 174.819 73.6184 174.152 74.3523 173.673C75.0909 173.19 75.9527 172.949 76.9375 172.949C77.5057 172.949 78.0668 173.044 78.6207 173.233C79.1747 173.422 79.679 173.73 80.1335 174.156C80.5881 174.578 80.9503 175.136 81.2202 175.832C81.4901 176.528 81.625 177.385 81.625 178.403V179.114H73.2159V177.665H79.9205C79.9205 177.049 79.7973 176.5 79.5511 176.017C79.3097 175.534 78.964 175.153 78.5142 174.874C78.0691 174.594 77.5436 174.455 76.9375 174.455C76.2699 174.455 75.6922 174.62 75.2045 174.952C74.7216 175.278 74.3499 175.705 74.0895 176.23C73.8291 176.756 73.6989 177.319 73.6989 177.92V178.886C73.6989 179.71 73.8409 180.409 74.125 180.982C74.4138 181.55 74.8139 181.983 75.3253 182.281C75.8366 182.575 76.4309 182.722 77.108 182.722C77.5483 182.722 77.946 182.66 78.3011 182.537C78.661 182.409 78.9711 182.22 79.2315 181.969C79.492 181.713 79.6932 181.396 79.8352 181.017L81.4545 181.472C81.2841 182.021 80.9976 182.504 80.5952 182.92C80.1927 183.332 79.6955 183.654 79.1037 183.886C78.5118 184.114 77.8466 184.227 77.108 184.227ZM85.1317 173.091L87.7454 177.551L90.359 173.091H92.2908L88.7681 178.545L92.2908 184H90.359L87.7454 179.767L85.1317 184H83.1999L86.6658 178.545L83.1999 173.091H85.1317ZM98.2621 177.864C98.2621 179.653 98.0277 181.301 97.5589 182.807C97.0949 184.308 96.4297 185.69 95.5632 186.955H94.0859C94.4268 186.486 94.7441 185.908 95.0376 185.222C95.3359 184.54 95.5964 183.792 95.8189 182.977C96.0414 182.158 96.2143 181.313 96.3374 180.442C96.4652 179.566 96.5291 178.706 96.5291 177.864C96.5291 176.737 96.4202 175.593 96.2024 174.433C95.9846 173.273 95.6911 172.196 95.3217 171.202C94.9524 170.207 94.5405 169.398 94.0859 168.773H95.5632C96.4297 170.037 97.0949 171.422 97.5589 172.928C98.0277 174.429 98.2621 176.074 98.2621 177.864ZM115.24 170.14H120.76V171.5H115.24V170.14ZM115.24 174.18H120.76V175.56H115.24V174.18ZM109.82 179.14H121.88V185.56H120.22V180.48H109.82V179.14ZM120.22 167.48H121.88V178.14H120.22V167.48ZM111.94 168.48C114.6 168.48 116.6 170.28 116.6 172.84C116.6 175.4 114.6 177.18 111.94 177.18C109.26 177.18 107.28 175.4 107.28 172.84C107.28 170.28 109.26 168.48 111.94 168.48ZM111.94 169.9C110.18 169.9 108.88 171.12 108.88 172.84C108.88 174.56 110.18 175.76 111.94 175.76C113.7 175.76 115.02 174.56 115.02 172.84C115.02 171.12 113.7 169.9 111.94 169.9ZM129.838 169.04H131.198V172.28C131.198 176.28 129.038 180.18 126.178 181.7L125.158 180.38C127.778 179.06 129.838 175.58 129.838 172.28V169.04ZM130.138 169.04H131.478V172.28C131.478 175.46 133.498 178.76 136.058 180.04L135.038 181.36C132.238 179.86 130.138 176.16 130.138 172.28V169.04ZM137.638 167.48H139.318V185.56H137.638V167.48ZM138.918 174.8H142.278V176.2H138.918V174.8ZM146.85 182.011L146.737 182.778C146.656 183.318 146.533 183.896 146.368 184.511C146.207 185.127 146.038 185.707 145.863 186.251C145.688 186.796 145.544 187.229 145.43 187.551H144.152C144.213 187.248 144.294 186.848 144.393 186.351C144.493 185.854 144.592 185.297 144.691 184.682C144.796 184.071 144.881 183.446 144.947 182.807L145.032 182.011H146.85ZM159.267 179.9H160.947V185.6H159.267V179.9ZM165.487 179.9H167.147V185.6H165.487V179.9ZM155.887 169.48H170.427V170.82H155.887V169.48ZM155.047 179.04H171.427V180.4H155.047V179.04ZM163.207 171.84C166.887 171.84 169.067 172.92 169.067 174.82C169.067 176.74 166.887 177.82 163.207 177.82C159.507 177.82 157.327 176.74 157.327 174.82C157.327 172.92 159.507 171.84 163.207 171.84ZM163.207 173.1C160.567 173.1 159.047 173.72 159.047 174.82C159.047 175.94 160.567 176.56 163.207 176.56C165.847 176.56 167.367 175.94 167.367 174.82C167.367 173.72 165.847 173.1 163.207 173.1ZM162.367 167.38H164.027V170.44H162.367V167.38ZM186.965 170.18H190.105V171.56H186.965V170.18ZM186.965 174.02H190.105V175.4H186.965V174.02ZM178.485 168.54C181.205 168.54 183.205 170.3 183.205 172.82C183.205 175.32 181.205 177.06 178.485 177.06C175.765 177.06 173.765 175.32 173.765 172.82C173.765 170.3 175.765 168.54 178.485 168.54ZM178.485 169.94C176.685 169.94 175.385 171.12 175.385 172.82C175.385 174.52 176.685 175.68 178.485 175.68C180.285 175.68 181.585 174.52 181.585 172.82C181.585 171.12 180.285 169.94 178.485 169.94ZM185.805 167.48H187.465V178.18H185.805V167.48ZM181.705 178.76C185.385 178.76 187.645 180.02 187.645 182.14C187.645 184.28 185.385 185.52 181.705 185.52C178.025 185.52 175.765 184.28 175.765 182.14C175.765 180.02 178.025 178.76 181.705 178.76ZM181.705 180.1C179.025 180.1 177.385 180.84 177.385 182.14C177.385 183.44 179.025 184.2 181.705 184.2C184.385 184.2 186.025 183.44 186.025 182.14C186.025 180.84 184.385 180.1 181.705 180.1ZM194.878 182.011L194.764 182.778C194.684 183.318 194.561 183.896 194.395 184.511C194.234 185.127 194.066 185.707 193.891 186.251C193.715 186.796 193.571 187.229 193.457 187.551H192.179C192.241 187.248 192.321 186.848 192.42 186.351C192.52 185.854 192.619 185.297 192.719 184.682C192.823 184.071 192.908 183.446 192.974 182.807L193.06 182.011H194.878ZM210.434 174.62H213.854V175.98H210.434V174.62ZM206.754 172.1H208.034V173.04C208.034 176.64 206.534 180.28 203.894 181.86L202.914 180.6C205.354 179.18 206.754 176 206.754 173.04V172.1ZM207.054 172.1H208.334V173.04C208.334 175.92 209.774 178.9 212.214 180.22L211.274 181.46C208.614 179.98 207.054 176.56 207.054 173.04V172.1ZM203.414 170.8H211.674V172.18H203.414V170.8ZM206.754 168.12H208.354V171.86H206.754V168.12ZM216.814 167.48H218.414V185.56H216.814V167.48ZM213.194 167.9H214.754V184.64H213.194V167.9ZM234.673 167.48H236.333V178.42H234.673V167.48ZM231.673 172.96H235.413V174.34H231.673V172.96ZM224.613 179.38H236.333V185.32H224.613V179.38ZM234.713 180.72H226.233V183.98H234.713V180.72ZM221.493 169.36H231.953V170.7H221.493V169.36ZM226.713 171.62C229.153 171.62 230.893 172.94 230.893 174.86C230.893 176.78 229.153 178.06 226.713 178.06C224.273 178.06 222.533 176.78 222.533 174.86C222.533 172.94 224.273 171.62 226.713 171.62ZM226.713 172.9C225.193 172.9 224.113 173.68 224.113 174.86C224.113 176.02 225.193 176.8 226.713 176.8C228.233 176.8 229.313 176.02 229.313 174.86C229.313 173.68 228.233 172.9 226.713 172.9ZM225.893 167.3H227.553V170.32H225.893V167.3ZM242.905 182.011L242.792 182.778C242.711 183.318 242.588 183.896 242.422 184.511C242.261 185.127 242.093 185.707 241.918 186.251C241.743 186.796 241.598 187.229 241.485 187.551H240.206C240.268 187.248 240.348 186.848 240.448 186.351C240.547 185.854 240.647 185.297 240.746 184.682C240.85 184.071 240.935 183.446 241.002 182.807L241.087 182.011H242.905ZM255.542 168.58H256.902V170.8C256.902 174.34 254.942 177.16 251.902 178.34L251.022 177.02C253.782 176.04 255.542 173.6 255.542 170.8V168.58ZM255.822 168.58H257.182V170.86C257.182 173.32 258.982 175.64 261.622 176.58L260.802 177.88C257.822 176.8 255.822 174.04 255.822 170.86V168.58ZM263.462 167.46H265.122V180.82H263.462V167.46ZM264.602 173.02H267.802V174.4H264.602V173.02ZM253.902 183.8H265.922V185.16H253.902V183.8ZM253.902 179.56H255.562V184.46H253.902V179.56ZM278.58 171.78H283.44V173.16H278.58V171.78ZM274.42 168.3C277.12 168.3 279.08 170.02 279.08 172.5C279.08 174.98 277.12 176.68 274.42 176.68C271.72 176.68 269.76 174.98 269.76 172.5C269.76 170.02 271.72 168.3 274.42 168.3ZM274.42 169.7C272.64 169.7 271.36 170.84 271.36 172.5C271.36 174.14 272.64 175.3 274.42 175.3C276.2 175.3 277.48 174.14 277.48 172.5C277.48 170.84 276.2 169.7 274.42 169.7ZM282.7 167.48H284.36V177.18H282.7V167.48ZM272.78 178.08H274.44V180.36H282.72V178.08H284.36V185.32H272.78V178.08ZM274.44 181.68V183.98H282.72V181.68H274.44ZM290.933 182.011L290.819 182.778C290.738 183.318 290.615 183.896 290.45 184.511C290.289 185.127 290.121 185.707 289.945 186.251C289.77 186.796 289.626 187.229 289.512 187.551H288.234C288.295 187.248 288.376 186.848 288.475 186.351C288.575 185.854 288.674 185.297 288.773 184.682C288.878 184.071 288.963 183.446 289.029 182.807L289.114 182.011H290.933ZM312.329 167.48H313.989V180.84H312.329V167.48ZM308.429 173.06H312.649V174.44H308.429V173.06ZM306.749 168.88H308.489C308.489 173.54 305.209 177.08 300.109 178.78L299.389 177.44C303.809 175.96 306.749 173.12 306.749 169.54V168.88ZM300.289 168.88H307.829V170.24H300.289V168.88ZM302.569 183.8H314.449V185.16H302.569V183.8ZM302.569 179.5H304.229V184.48H302.569V179.5ZM324.867 177.54H326.507V180.38H324.867V177.54ZM317.507 176.58H333.847V177.92H317.507V176.58ZM319.327 179.96H331.827V185.5H330.167V181.32H319.327V179.96ZM324.867 167.38H326.507V169.9H324.867V167.38ZM324.787 170.12H326.247V170.42C326.247 173.4 322.947 175.14 319.007 175.56L318.487 174.3C321.987 173.98 324.787 172.5 324.787 170.42V170.12ZM325.127 170.12H326.587V170.42C326.587 172.5 329.387 173.98 332.887 174.3L332.367 175.56C328.407 175.14 325.127 173.4 325.127 170.42V170.12ZM319.187 169.24H332.187V170.58H319.187V169.24ZM342.491 168.64H350.911V176.04H342.491V168.64ZM349.311 169.98H344.091V174.72H349.311V169.98ZM354.691 167.48H356.351V177.86H354.691V167.48ZM349.791 180H351.211V180.34C351.211 182.94 347.991 185.02 344.331 185.5L343.771 184.22C346.911 183.86 349.791 182.14 349.791 180.34V180ZM350.031 180H351.471V180.34C351.471 182.08 354.271 183.84 357.411 184.22L356.851 185.5C353.171 185 350.031 182.88 350.031 180.34V180ZM344.491 179.08H356.771V180.38H344.491V179.08ZM349.791 177.34H351.471V179.66H349.791V177.34ZM365.574 181.86H381.954V183.24H365.574V181.86ZM372.934 177.48H374.574V182.32H372.934V177.48ZM372.894 169.76H374.294V170.88C374.294 174.58 370.594 177.38 367.034 178.12L366.354 176.8C369.474 176.28 372.894 173.74 372.894 170.88V169.76ZM373.194 169.76H374.594V170.88C374.594 173.74 378.034 176.22 381.194 176.74L380.534 178.06C376.914 177.34 373.194 174.58 373.194 170.88V169.76ZM366.914 169.12H380.574V170.48H366.914V169.12ZM394.133 171.82H397.813V173.18H394.133V171.82ZM394.113 175.34H397.793V176.7H394.113V175.34ZM383.993 169.46H394.113V170.8H383.993V169.46ZM389.113 171.74C391.533 171.74 393.193 173.06 393.193 175.08C393.193 177.1 391.533 178.44 389.113 178.44C386.693 178.44 385.013 177.1 385.013 175.08C385.013 173.06 386.693 171.74 389.113 171.74ZM389.113 173.02C387.593 173.02 386.573 173.82 386.573 175.08C386.573 176.34 387.593 177.16 389.113 177.16C390.613 177.16 391.653 176.34 391.653 175.08C391.653 173.82 390.613 173.02 389.113 173.02ZM388.293 167.32H389.953V170.4H388.293V167.32ZM397.173 167.48H398.833V179.16H397.173V167.48ZM392.913 179.34C396.653 179.34 398.933 180.48 398.933 182.44C398.933 184.4 396.653 185.52 392.913 185.52C389.153 185.52 386.893 184.4 386.893 182.44C386.893 180.48 389.153 179.34 392.913 179.34ZM392.913 180.66C390.253 180.66 388.613 181.28 388.613 182.44C388.613 183.58 390.253 184.24 392.913 184.24C395.573 184.24 397.213 183.58 397.213 182.44C397.213 181.28 395.573 180.66 392.913 180.66ZM409.691 176.02H411.331V178.8H409.691V176.02ZM402.351 175.1H418.691V176.44H402.351V175.1ZM404.471 168.08H416.571V173.58H404.471V168.08ZM414.951 169.4H406.111V172.26H414.951V169.4ZM404.331 178.2H416.611V182.26H406.011V184.46H404.371V181.06H414.971V179.48H404.331V178.2ZM404.371 184.06H417.151V185.36H404.371V184.06ZM423.804 182.011L423.69 182.778C423.609 183.318 423.486 183.896 423.321 184.511C423.16 185.127 422.992 185.707 422.816 186.251C422.641 186.796 422.497 187.229 422.383 187.551H421.105C421.166 187.248 421.247 186.848 421.346 186.351C421.446 185.854 421.545 185.297 421.645 184.682C421.749 184.071 421.834 183.446 421.9 182.807L421.985 182.011H423.804ZM431.98 176.72H448.36V178.08H431.98V176.72ZM439.46 177.56H441.12V181.72H439.46V177.56ZM434.08 168.32H446.24V174.68H434.08V168.32ZM444.6 169.66H435.7V173.34H444.6V169.66ZM434.06 183.8H446.54V185.16H434.06V183.8ZM434.06 179.98H435.7V184.28H434.06V179.98ZM455.078 178.26H456.738V181.2H455.078V178.26ZM462.678 167.48H464.338V185.56H462.678V167.48ZM463.798 175.16H467.138V176.56H463.798V175.16ZM450.418 182.12L450.178 180.74C453.418 180.74 457.838 180.7 461.578 180.16L461.718 181.4C457.818 182.1 453.578 182.12 450.418 182.12ZM450.478 169.66H461.298V171H450.478V169.66ZM455.898 172.06C458.418 172.06 460.158 173.38 460.158 175.4C460.158 177.44 458.418 178.74 455.898 178.74C453.378 178.74 451.658 177.44 451.658 175.4C451.658 173.38 453.378 172.06 455.898 172.06ZM455.898 173.34C454.278 173.34 453.218 174.16 453.218 175.4C453.218 176.64 454.278 177.46 455.898 177.46C457.518 177.46 458.598 176.64 458.598 175.4C458.598 174.16 457.518 173.34 455.898 173.34ZM455.078 167.5H456.738V170.56H455.078V167.5ZM473.557 169.04H474.917V172.28C474.917 176.44 472.677 180.3 469.717 181.8L468.697 180.44C471.377 179.16 473.557 175.7 473.557 172.28V169.04ZM473.837 169.04H475.197V172.28C475.197 175.58 477.357 178.9 480.037 180.14L479.037 181.46C476.097 180.02 473.837 176.3 473.837 172.28V169.04ZM481.917 167.46H483.577V185.58H481.917V167.46ZM496.475 170.74H501.095V172.12H496.475V170.74ZM500.395 167.48H502.055V176.8H500.395V167.48ZM490.415 177.74H502.055V182.06H492.095V184.8H490.475V180.82H500.415V179.06H490.415V177.74ZM490.475 184H502.735V185.32H490.475V184ZM491.695 168.04H493.055V169.74C493.055 173.08 491.055 175.78 488.035 176.86L487.175 175.54C489.895 174.62 491.695 172.36 491.695 169.74V168.04ZM491.975 168.04H493.315V169.74C493.315 172.1 495.135 174.28 497.755 175.14L496.895 176.44C493.975 175.4 491.975 172.8 491.975 169.74V168.04Z" fill="black"/>
</svg>
