<svg width="150" height="32" viewBox="0 0 150 32" fill="none" xmlns="http://www.w3.org/2000/svg">
<g filter="url(#filter0_d_2719_3582)">
<path d="M4.06534 4.98508V1.18182H21.9844V4.98508H15.3047V23H10.745V4.98508H4.06534ZM24.9354 23V1.18182H33.5433C35.1911 1.18182 36.5973 1.47656 37.7621 2.06605C38.9339 2.64844 39.8253 3.47585 40.4361 4.5483C41.054 5.61364 41.3629 6.86719 41.3629 8.30895C41.3629 9.75781 41.0504 11.0043 40.4254 12.0483C39.8004 13.0852 38.8949 13.8807 37.7088 14.4347C36.5298 14.9886 35.1023 15.2656 33.4261 15.2656H27.6626V11.5582H32.6804C33.5611 11.5582 34.2926 11.4375 34.875 11.196C35.4574 10.9545 35.8906 10.5923 36.1747 10.1094C36.4659 9.62642 36.6115 9.02628 36.6115 8.30895C36.6115 7.58452 36.4659 6.97372 36.1747 6.47656C35.8906 5.9794 35.4538 5.60298 34.8643 5.3473C34.282 5.08452 33.5469 4.95312 32.6591 4.95312H29.5483V23H24.9354ZM36.718 13.071L42.1406 23H37.0483L31.7429 13.071H36.718ZM48.3835 23H43.4403L50.9723 1.18182H56.9169L64.4382 23H59.495L54.0298 6.16761H53.8594L48.3835 23ZM48.0746 14.424H59.7507V18.0249H48.0746V14.424ZM67.0643 23V1.18182H75.6722C77.3271 1.18182 78.7369 1.49787 79.9016 2.12997C81.0664 2.75497 81.9542 3.625 82.565 4.74006C83.1829 5.84801 83.4918 7.12642 83.4918 8.57528C83.4918 10.0241 83.1793 11.3026 82.5543 12.4105C81.9293 13.5185 81.0238 14.3814 79.8377 14.9993C78.6587 15.6172 77.2312 15.9261 75.555 15.9261H70.0685V12.2294H74.8093C75.6971 12.2294 76.4286 12.0767 77.0039 11.7713C77.5863 11.4588 78.0195 11.0291 78.3036 10.4822C78.5948 9.92827 78.7404 9.29261 78.7404 8.57528C78.7404 7.85085 78.5948 7.21875 78.3036 6.67898C78.0195 6.1321 77.5863 5.70952 77.0039 5.41122C76.4215 5.10582 75.6829 4.95312 74.788 4.95312H71.6772V23H67.0643ZM86.4881 23V1.18182H91.101V19.1967H100.455V23H86.4881ZM122.71 12.0909C122.71 14.4702 122.259 16.4943 121.357 18.1634C120.462 19.8324 119.24 21.1072 117.692 21.9879C116.151 22.8615 114.418 23.2983 112.493 23.2983C110.554 23.2983 108.814 22.858 107.273 21.9773C105.732 21.0966 104.514 19.8217 103.619 18.1527C102.724 16.4837 102.276 14.4631 102.276 12.0909C102.276 9.71165 102.724 7.6875 103.619 6.01847C104.514 4.34943 105.732 3.07812 107.273 2.20455C108.814 1.32386 110.554 0.883522 112.493 0.883522C114.418 0.883522 116.151 1.32386 117.692 2.20455C119.24 3.07812 120.462 4.34943 121.357 6.01847C122.259 7.6875 122.71 9.71165 122.71 12.0909ZM118.033 12.0909C118.033 10.5497 117.802 9.25 117.34 8.19176C116.886 7.13352 116.243 6.33097 115.412 5.78409C114.581 5.23722 113.608 4.96378 112.493 4.96378C111.378 4.96378 110.405 5.23722 109.574 5.78409C108.743 6.33097 108.097 7.13352 107.635 8.19176C107.181 9.25 106.953 10.5497 106.953 12.0909C106.953 13.6321 107.181 14.9318 107.635 15.9901C108.097 17.0483 108.743 17.8509 109.574 18.3977C110.405 18.9446 111.378 19.218 112.493 19.218C113.608 19.218 114.581 18.9446 115.412 18.3977C116.243 17.8509 116.886 17.0483 117.34 15.9901C117.802 14.9318 118.033 13.6321 118.033 12.0909ZM140.594 8.23438C140.445 7.71591 140.235 7.25781 139.966 6.86008C139.696 6.45526 139.365 6.11435 138.975 5.83736C138.591 5.55327 138.151 5.33665 137.654 5.1875C137.164 5.03835 136.62 4.96378 136.024 4.96378C134.909 4.96378 133.929 5.24077 133.083 5.79474C132.245 6.34872 131.592 7.15483 131.123 8.21307C130.654 9.2642 130.42 10.5497 130.42 12.0696C130.42 13.5895 130.651 14.8821 131.113 15.9474C131.574 17.0128 132.228 17.826 133.073 18.3871C133.918 18.9411 134.916 19.218 136.066 19.218C137.11 19.218 138.002 19.0334 138.74 18.6641C139.486 18.2876 140.054 17.7585 140.445 17.0767C140.843 16.3949 141.042 15.5888 141.042 14.6584L141.979 14.7969H136.354V11.3239H145.484V14.0724C145.484 15.9901 145.079 17.6378 144.27 19.0156C143.46 20.3864 142.345 21.4446 140.924 22.1903C139.504 22.929 137.877 23.2983 136.045 23.2983C134 23.2983 132.203 22.8473 130.654 21.9453C129.106 21.0362 127.899 19.7472 127.032 18.0781C126.173 16.402 125.743 14.4134 125.743 12.1122C125.743 10.3437 125.999 8.76705 126.51 7.3821C127.029 5.99006 127.753 4.81108 128.684 3.84517C129.614 2.87926 130.697 2.14418 131.933 1.63991C133.169 1.13565 134.507 0.883522 135.949 0.883522C137.185 0.883522 138.336 1.06463 139.401 1.42685C140.466 1.78196 141.411 2.28622 142.235 2.93963C143.066 3.59304 143.744 4.37074 144.27 5.27273C144.795 6.16761 145.132 7.15483 145.282 8.23438H140.594Z" fill="#FDFDFF"/>
</g>
<defs>
<filter id="filter0_d_2719_3582" x="0.0653076" y="0.883789" width="149.419" height="30.4141" filterUnits="userSpaceOnUse" color-interpolation-filters="sRGB">
<feFlood flood-opacity="0" result="BackgroundImageFix"/>
<feColorMatrix in="SourceAlpha" type="matrix" values="0 0 0 0 0 0 0 0 0 0 0 0 0 0 0 0 0 0 127 0" result="hardAlpha"/>
<feOffset dy="4"/>
<feGaussianBlur stdDeviation="2"/>
<feComposite in2="hardAlpha" operator="out"/>
<feColorMatrix type="matrix" values="0 0 0 0 0 0 0 0 0 0 0 0 0 0 0 0 0 0 0.25 0"/>
<feBlend mode="normal" in2="BackgroundImageFix" result="effect1_dropShadow_2719_3582"/>
<feBlend mode="normal" in="SourceGraphic" in2="effect1_dropShadow_2719_3582" result="shape"/>
</filter>
</defs>
</svg>
