<svg width="400" height="300" viewBox="0 0 400 300" fill="none" xmlns="http://www.w3.org/2000/svg">
<path d="M0 30C0 13.4315 13.4315 0 30 0H370C386.569 0 400 13.4315 400 30V270C400 286.569 386.569 300 370 300H30C13.4315 300 0 286.569 0 270V30Z" fill="white" fill-opacity="0.5"/>
<path d="M39.3286 36.288H42.2546V39.126H39.3286V36.288ZM40.8246 26.784C45.4666 26.784 48.1946 27.994 48.1946 30.238C48.1946 32.482 45.4666 33.714 40.8246 33.714C36.1606 33.714 33.4546 32.482 33.4546 30.238C33.4546 27.994 36.1606 26.784 40.8246 26.784ZM40.8246 28.918C37.8766 28.918 36.4906 29.336 36.4906 30.238C36.4906 31.184 37.8766 31.58 40.8246 31.58C43.7726 31.58 45.1586 31.184 45.1586 30.238C45.1586 29.336 43.7726 28.918 40.8246 28.918ZM31.6066 34.594H50.0206V36.904H31.6066V34.594ZM33.7186 38.224H47.7986V43.46H36.6226V45.264H33.7406V41.436H44.9166V40.402H33.7186V38.224ZM33.7406 44.626H48.3266V46.826H33.7406V44.626ZM51.8448 37.168H70.3028V39.434H51.8448V37.168ZM54.1108 27.092H68.0588V32.57H57.0368V34.792H54.1328V30.502H65.1768V29.314H54.1108V27.092ZM54.1328 33.78H68.4548V36.002H54.1328V33.78ZM61.0188 40.468C65.5508 40.468 68.1688 41.612 68.1688 43.746C68.1688 45.858 65.5508 47.002 61.0188 47.002C56.4648 47.002 53.8688 45.858 53.8688 43.746C53.8688 41.612 56.4648 40.468 61.0188 40.468ZM61.0188 42.58C58.1368 42.58 56.8388 42.932 56.8388 43.746C56.8388 44.516 58.1368 44.868 61.0188 44.868C63.9008 44.868 65.1988 44.516 65.1988 43.746C65.1988 42.932 63.9008 42.58 61.0188 42.58ZM74.2391 35.672H88.5611V38.004H74.2391V35.672ZM72.1051 42.272H90.5411V44.67H72.1051V42.272ZM79.8271 36.728H82.7531V43.042H79.8271V36.728ZM74.2391 27.972H88.4071V30.326H77.1651V36.684H74.2391V27.972ZM103.068 28.3984V48.3281H97.9355V46.4766H100.834V30.25H97.9355V28.3984H103.068Z" fill="black"/>
<path d="M33.488 99.782H34.964V102.284H33.488V99.782ZM34.244 92.33C37.826 92.33 39.968 93.32 39.968 95.138C39.968 96.956 37.826 97.964 34.244 97.964C30.644 97.964 28.52 96.956 28.52 95.138C28.52 93.32 30.644 92.33 34.244 92.33ZM34.244 93.464C31.58 93.464 30.05 94.076 30.05 95.138C30.05 96.218 31.58 96.83 34.244 96.83C36.89 96.83 38.42 96.218 38.42 95.138C38.42 94.076 36.89 93.464 34.244 93.464ZM26.882 99.008H41.588V100.232H26.882V99.008ZM28.664 101.726H39.716V105.398H30.176V107.378H28.7V104.318H38.24V102.878H28.664V101.726ZM28.7 107.054H40.202V108.224H28.7V107.054ZM43.4406 100.718H58.2006V101.924H43.4406V100.718ZM45.3126 92.636H56.2926V96.524H46.8246V98.702H45.3486V95.426H54.8346V93.806H45.3126V92.636ZM45.3486 98.162H56.6526V99.332H45.3486V98.162ZM50.7846 103.166C54.3486 103.166 56.4186 104.084 56.4186 105.794C56.4186 107.486 54.3486 108.404 50.7846 108.404C47.2206 108.404 45.1686 107.486 45.1686 105.794C45.1686 104.084 47.2206 103.166 50.7846 103.166ZM50.7846 104.282C48.1566 104.282 46.6806 104.822 46.6806 105.794C46.6806 106.73 48.1566 107.27 50.7846 107.27C53.4126 107.27 54.9066 106.73 54.9066 105.794C54.9066 104.822 53.4126 104.282 50.7846 104.282ZM61.8712 99.728H73.0492V100.952H61.8712V99.728ZM60.0172 105.11H74.7592V106.37H60.0172V105.11ZM66.6052 100.25H68.0992V105.614H66.6052V100.25ZM61.8712 93.428H72.8872V94.652H63.3652V100.268H61.8712V93.428ZM88.6655 95.75H93.5795V96.992H88.6655V95.75ZM88.6655 100.898H93.5795V102.14H88.6655V100.898ZM85.6775 93.374C88.0355 93.374 89.7275 95.588 89.7275 99.044C89.7275 102.518 88.0355 104.732 85.6775 104.732C83.3015 104.732 81.6275 102.518 81.6275 99.044C81.6275 95.588 83.3015 93.374 85.6775 93.374ZM85.6775 94.724C84.1115 94.724 83.0315 96.416 83.0315 99.044C83.0315 101.69 84.1115 103.418 85.6775 103.418C87.2435 103.418 88.3235 101.69 88.3235 99.044C88.3235 96.416 87.2435 94.724 85.6775 94.724ZM93.2555 92.114H94.7315V108.422H93.2555V92.114ZM110.174 92.132H111.596V102.428H110.174V92.132ZM107.528 96.542H110.606V97.784H107.528V96.542ZM106.7 92.456H108.104V101.852H106.7V92.456ZM97.808 94.076H106.052V95.264H97.808V94.076ZM101.948 96.092C103.982 96.092 105.404 97.208 105.404 98.882C105.404 100.574 103.982 101.672 101.948 101.672C99.896 101.672 98.474 100.574 98.474 98.882C98.474 97.208 99.896 96.092 101.948 96.092ZM101.948 97.208C100.67 97.208 99.806 97.874 99.806 98.882C99.806 99.908 100.67 100.556 101.948 100.556C103.208 100.556 104.072 99.908 104.072 98.882C104.072 97.874 103.208 97.208 101.948 97.208ZM101.21 92.258H102.668V94.742H101.21V92.258ZM106.268 102.716C109.652 102.716 111.686 103.724 111.686 105.542C111.686 107.342 109.652 108.368 106.268 108.368C102.848 108.368 100.832 107.342 100.832 105.542C100.832 103.724 102.848 102.716 106.268 102.716ZM106.268 103.868C103.766 103.868 102.308 104.462 102.308 105.542C102.308 106.622 103.766 107.234 106.268 107.234C108.734 107.234 110.21 106.622 110.21 105.542C110.21 104.462 108.734 103.868 106.268 103.868ZM120.57 92.618H132.522V93.788H120.57V92.618ZM120.642 96.884H132.45V98.036H120.642V96.884ZM123.036 93.068H124.53V97.64H123.036V93.068ZM128.58 93.068H130.056V97.64H128.58V93.068ZM119.202 99.386H133.908V100.592H119.202V99.386ZM120.984 102.014H132.036V105.578H122.496V107.54H121.02V104.516H130.56V103.13H120.984V102.014ZM121.02 107.09H132.522V108.224H121.02V107.09ZM136.301 103.274H137.381C139.361 103.274 141.161 103.202 143.357 102.824L143.483 104.066C141.233 104.462 139.397 104.516 137.381 104.516H136.301V103.274ZM136.265 93.896H142.367V99.62H137.759V103.742H136.301V98.396H140.909V95.12H136.265V93.896ZM148.145 92.132H149.585V108.404H148.145V92.132ZM145.391 98.558H148.523V99.782H145.391V98.558ZM144.455 92.492H145.859V107.576H144.455V92.492ZM164.254 92.132H165.748V108.44H164.254V92.132ZM159.25 97.496H164.74V98.72H159.25V97.496ZM153.22 93.95H154.696V104.03H153.22V93.95ZM153.22 103.238H154.48C157 103.238 159.25 103.094 161.752 102.572L161.932 103.832C159.34 104.336 157.054 104.498 154.48 104.498H153.22V103.238ZM176.454 93.9091L176.288 103.235H174.518L174.351 93.9091H176.454ZM175.406 107.121C175.052 107.121 174.75 106.998 174.498 106.751C174.247 106.499 174.123 106.197 174.128 105.843C174.123 105.494 174.247 105.195 174.498 104.948C174.75 104.697 175.052 104.571 175.406 104.571C175.751 104.571 176.05 104.697 176.301 104.948C176.552 105.195 176.68 105.494 176.684 105.843C176.68 106.077 176.618 106.293 176.499 106.489C176.384 106.68 176.231 106.834 176.039 106.949C175.847 107.064 175.636 107.121 175.406 107.121ZM27.0355 142V140.543C27.0355 140.138 27.1143 139.729 27.272 139.315C27.4339 138.898 27.6428 138.51 27.8984 138.152C28.1584 137.79 28.4268 137.491 28.7038 137.257L30.0334 137.986C29.8033 138.361 29.62 138.753 29.4837 139.162C29.3473 139.567 29.2813 140.025 29.2855 140.536V142H27.0355ZM30.2443 142V140.543C30.2443 140.138 30.3232 139.729 30.4808 139.315C30.6428 138.898 30.8516 138.51 31.1072 138.152C31.3672 137.79 31.6357 137.491 31.9126 137.257L33.2422 137.986C33.0121 138.361 32.8288 138.753 32.6925 139.162C32.5561 139.567 32.4901 140.025 32.4943 140.536V142H30.2443ZM41.9398 138.166H46.8718V140.092H41.9398V138.166ZM41.9398 141.784H46.8718V143.71H41.9398V141.784ZM37.1518 146.554H48.5098V152.602H46.1158V148.444H37.1518V146.554ZM46.1158 135.934H48.5098V145.798H46.1158V135.934ZM39.1678 136.798C41.6518 136.798 43.5598 138.526 43.5598 140.92C43.5598 143.332 41.6518 145.06 39.1678 145.06C36.6658 145.06 34.7578 143.332 34.7578 140.92C34.7578 138.526 36.6658 136.798 39.1678 136.798ZM39.1678 138.832C37.9438 138.832 37.0438 139.606 37.0438 140.92C37.0438 142.252 37.9438 143.026 39.1678 143.026C40.3738 143.026 41.2918 142.252 41.2918 140.92C41.2918 139.606 40.3738 138.832 39.1678 138.832ZM54.8624 137.212H56.8064V139.642C56.8064 143.764 55.3664 147.634 52.2164 149.182L50.7764 147.256C53.5844 145.942 54.8624 142.738 54.8624 139.642V137.212ZM55.3484 137.212H57.2564V139.642C57.2564 142.63 58.4444 145.672 61.1084 146.968L59.6684 148.876C56.6624 147.346 55.3484 143.638 55.3484 139.642V137.212ZM61.7744 135.934H64.1864V152.602H61.7744V135.934ZM63.6464 142.342H66.5984V144.34H63.6464V142.342ZM71.421 144.376H73.815V148.318H71.421V144.376ZM72.591 136.906C75.165 136.906 77.127 138.616 77.127 141.01C77.127 143.404 75.165 145.114 72.591 145.114C69.999 145.114 68.055 143.404 68.055 141.01C68.055 138.616 69.999 136.906 72.591 136.906ZM72.591 138.94C71.331 138.94 70.395 139.696 70.395 141.01C70.395 142.306 71.331 143.08 72.591 143.08C73.851 143.08 74.787 142.306 74.787 141.01C74.787 139.696 73.851 138.94 72.591 138.94ZM78.441 135.934H80.835V152.602H78.441V135.934ZM80.097 142.45H83.031V144.448H80.097V142.45ZM67.785 149.29L67.497 147.364C70.377 147.346 74.265 147.364 77.577 146.914L77.757 148.66C74.301 149.308 70.593 149.308 67.785 149.29ZM98.8308 135.934H101.225V145.978H98.8308V135.934ZM100.559 140.038H103.439V142H100.559V140.038ZM90.3888 146.698H101.225V152.422H90.3888V146.698ZM98.8848 148.588H92.7468V150.532H98.8848V148.588ZM88.1028 137.428H97.9128V139.318H88.1028V137.428ZM93.0168 139.804C95.4288 139.804 97.1028 141.028 97.1028 142.81C97.1028 144.61 95.4288 145.798 93.0168 145.798C90.5868 145.798 88.9128 144.61 88.9128 142.81C88.9128 141.028 90.5868 139.804 93.0168 139.804ZM93.0168 141.586C91.9368 141.586 91.2168 142 91.2168 142.81C91.2168 143.62 91.9368 144.052 93.0168 144.052C94.0788 144.052 94.8168 143.62 94.8168 142.81C94.8168 142 94.0788 141.586 93.0168 141.586ZM91.8108 135.826H94.2048V138.454H91.8108V135.826ZM106.695 137.824H108.711C108.711 142.054 108.315 145.78 106.245 149.092L104.409 148.102C106.353 145.042 106.695 142.144 106.695 138.022V137.824ZM104.949 137.824H107.973V139.75H104.949V137.824ZM110.421 137.824H112.437C112.437 142.18 112.185 146.338 109.953 149.902L108.117 148.894C110.241 145.582 110.421 142.198 110.421 138.04V137.824ZM109.215 137.824H111.771V139.75H109.215V137.824ZM116.847 135.934H119.133V152.602H116.847V135.934ZM111.627 142.18H113.985V144.106H111.627V142.18ZM113.625 136.294H115.857V151.864H113.625V136.294ZM131.912 135.934H134.288V152.602H131.912V135.934ZM133.748 142.432H136.7V144.43H133.748V142.432ZM121.148 138.4H130.85V140.308H121.148V138.4ZM126.026 141.244C128.456 141.244 130.256 142.9 130.256 145.222C130.256 147.544 128.456 149.2 126.026 149.2C123.596 149.2 121.796 147.544 121.796 145.222C121.796 142.9 123.596 141.244 126.026 141.244ZM126.026 143.188C124.892 143.188 124.082 143.944 124.082 145.222C124.082 146.5 124.892 147.256 126.026 147.256C127.16 147.256 127.97 146.5 127.97 145.222C127.97 143.944 127.16 143.188 126.026 143.188ZM124.82 136.204H127.214V139.12H124.82V136.204ZM139.651 140.434H151.207V142.324H139.651V140.434ZM137.779 144.052H152.881V145.96H137.779V144.052ZM139.651 136.528H142.027V141.37H139.651V136.528ZM139.489 150.334H151.297V152.242H139.489V150.334ZM139.489 147.292H141.883V150.838H139.489V147.292ZM165.656 139.336H170.192V141.262H165.656V139.336ZM165.656 144.502H170.192V146.428H165.656V144.502ZM162.776 137.086C165.26 137.086 167.078 139.39 167.078 143.026C167.078 146.698 165.26 149.002 162.776 149.002C160.274 149.002 158.474 146.698 158.474 143.026C158.474 139.39 160.274 137.086 162.776 137.086ZM162.776 139.264C161.57 139.264 160.742 140.578 160.742 143.026C160.742 145.51 161.57 146.842 162.776 146.842C164 146.842 164.81 145.51 164.81 143.026C164.81 140.578 164 139.264 162.776 139.264ZM169.814 135.916H172.19V152.638H169.814V135.916ZM186.697 135.934H188.965V146.374H186.697V135.934ZM184.663 140.038H187.327V141.982H184.663V140.038ZM183.241 136.258H185.473V145.834H183.241V136.258ZM174.691 137.644H182.773V139.48H174.691V137.644ZM178.759 140.02C180.847 140.02 182.359 141.208 182.359 142.936C182.359 144.664 180.847 145.834 178.759 145.834C176.671 145.834 175.159 144.664 175.159 142.936C175.159 141.208 176.671 140.02 178.759 140.02ZM178.759 141.73C177.877 141.73 177.283 142.162 177.283 142.936C177.283 143.71 177.877 144.142 178.759 144.142C179.623 144.142 180.217 143.71 180.217 142.936C180.217 142.162 179.623 141.73 178.759 141.73ZM177.553 136.096H179.911V138.904H177.553V136.096ZM183.331 146.554C186.895 146.554 189.055 147.634 189.055 149.578C189.055 151.504 186.895 152.602 183.331 152.602C179.749 152.602 177.589 151.504 177.589 149.578C177.589 147.634 179.749 146.554 183.331 146.554ZM183.331 148.336C181.099 148.336 179.983 148.714 179.983 149.578C179.983 150.424 181.099 150.82 183.331 150.82C185.545 150.82 186.661 150.424 186.661 149.578C186.661 148.714 185.545 148.336 183.331 148.336ZM194.194 137.909V139.366C194.194 139.771 194.113 140.18 193.951 140.594C193.793 141.003 193.587 141.386 193.331 141.744C193.075 142.102 192.805 142.405 192.519 142.652L191.19 141.923C191.386 141.599 191.56 141.235 191.714 140.83C191.867 140.421 191.944 139.935 191.944 139.373V137.909H194.194ZM197.384 137.909V139.366C197.384 139.771 197.303 140.18 197.141 140.594C196.983 141.003 196.776 141.386 196.521 141.744C196.265 142.102 195.994 142.405 195.709 142.652L194.379 141.923C194.575 141.599 194.75 141.235 194.903 140.83C195.057 140.421 195.134 139.935 195.134 139.373V137.909H197.384ZM33.488 187.782H34.964V190.284H33.488V187.782ZM34.244 180.33C37.826 180.33 39.968 181.32 39.968 183.138C39.968 184.956 37.826 185.964 34.244 185.964C30.644 185.964 28.52 184.956 28.52 183.138C28.52 181.32 30.644 180.33 34.244 180.33ZM34.244 181.464C31.58 181.464 30.05 182.076 30.05 183.138C30.05 184.218 31.58 184.83 34.244 184.83C36.89 184.83 38.42 184.218 38.42 183.138C38.42 182.076 36.89 181.464 34.244 181.464ZM26.882 187.008H41.588V188.232H26.882V187.008ZM28.664 189.726H39.716V193.398H30.176V195.378H28.7V192.318H38.24V190.878H28.664V189.726ZM28.7 195.054H40.202V196.224H28.7V195.054ZM43.4406 188.718H58.2006V189.924H43.4406V188.718ZM45.3126 180.636H56.2926V184.524H46.8246V186.702H45.3486V183.426H54.8346V181.806H45.3126V180.636ZM45.3486 186.162H56.6526V187.332H45.3486V186.162ZM50.7846 191.166C54.3486 191.166 56.4186 192.084 56.4186 193.794C56.4186 195.486 54.3486 196.404 50.7846 196.404C47.2206 196.404 45.1686 195.486 45.1686 193.794C45.1686 192.084 47.2206 191.166 50.7846 191.166ZM50.7846 192.282C48.1566 192.282 46.6806 192.822 46.6806 193.794C46.6806 194.73 48.1566 195.27 50.7846 195.27C53.4126 195.27 54.9066 194.73 54.9066 193.794C54.9066 192.822 53.4126 192.282 50.7846 192.282ZM61.8712 187.728H73.0492V188.952H61.8712V187.728ZM60.0172 193.11H74.7592V194.37H60.0172V193.11ZM66.6052 188.25H68.0992V193.614H66.6052V188.25ZM61.8712 181.428H72.8872V182.652H63.3652V188.268H61.8712V181.428ZM83.1638 186.45H86.2418V187.692H83.1638V186.45ZM88.9598 180.132H90.3998V196.404H88.9598V180.132ZM85.7378 180.474H87.1598V195.594H85.7378V180.474ZM80.2298 181.482C82.3358 181.482 83.7038 183.66 83.7038 187.152C83.7038 190.644 82.3358 192.822 80.2298 192.822C78.1238 192.822 76.7738 190.644 76.7738 187.152C76.7738 183.66 78.1238 181.482 80.2298 181.482ZM80.2298 182.868C78.9518 182.868 78.1418 184.524 78.1418 187.152C78.1418 189.78 78.9518 191.436 80.2298 191.436C81.5258 191.436 82.3358 189.78 82.3358 187.152C82.3358 184.524 81.5258 182.868 80.2298 182.868ZM109.778 180.114H111.272V189.636H109.778V180.114ZM100.004 190.392H105.314V196.404H103.82V191.616H100.004V190.392ZM106.088 190.392H111.272V196.404H109.778V191.616H106.088V190.392ZM105.296 182.436H110.264V183.66H105.296V182.436ZM105.296 186.09H110.264V187.314H105.296V186.09ZM102.326 180.978C104.72 180.978 106.52 182.598 106.52 184.884C106.52 187.152 104.72 188.772 102.326 188.772C99.914 188.772 98.132 187.152 98.132 184.884C98.132 182.598 99.914 180.978 102.326 180.978ZM102.326 182.256C100.742 182.256 99.572 183.336 99.572 184.884C99.572 186.432 100.742 187.512 102.326 187.512C103.91 187.512 105.098 186.432 105.098 184.884C105.098 183.336 103.91 182.256 102.326 182.256ZM121.783 183.75H126.697V184.992H121.783V183.75ZM121.783 188.898H126.697V190.14H121.783V188.898ZM118.795 181.374C121.153 181.374 122.845 183.588 122.845 187.044C122.845 190.518 121.153 192.732 118.795 192.732C116.419 192.732 114.745 190.518 114.745 187.044C114.745 183.588 116.419 181.374 118.795 181.374ZM118.795 182.724C117.229 182.724 116.149 184.416 116.149 187.044C116.149 189.69 117.229 191.418 118.795 191.418C120.361 191.418 121.441 189.69 121.441 187.044C121.441 184.416 120.361 182.724 118.795 182.724ZM126.373 180.114H127.849V196.422H126.373V180.114ZM135.065 190.14H136.217V191.022C136.217 193.146 134.885 195.288 132.545 196.188L131.789 195.072C133.841 194.334 135.065 192.588 135.065 191.022V190.14ZM135.389 190.14H136.505V191.022C136.505 192.66 137.477 194.406 139.421 195.198L138.791 196.332C136.451 195.414 135.389 193.182 135.389 191.022V190.14ZM141.077 190.14H142.193V191.022C142.193 192.93 141.113 195.342 138.791 196.332L138.161 195.198C140.087 194.316 141.077 192.426 141.077 191.022V190.14ZM141.383 190.14H142.535V191.022C142.535 192.696 143.741 194.37 145.811 195.072L145.055 196.188C142.679 195.324 141.383 193.272 141.383 191.022V190.14ZM142.841 180.15H144.353V189.438H142.841V180.15ZM135.623 181.086C138.089 181.086 139.853 182.634 139.853 184.884C139.853 187.134 138.089 188.664 135.623 188.664C133.157 188.664 131.375 187.134 131.375 184.884C131.375 182.634 133.157 181.086 135.623 181.086ZM135.623 182.328C134.003 182.328 132.833 183.372 132.833 184.884C132.833 186.396 134.003 187.422 135.623 187.422C137.243 187.422 138.413 186.396 138.413 184.884C138.413 183.372 137.243 182.328 135.623 182.328ZM149.554 185.01H160.606V186.234H149.554V185.01ZM147.556 188.412H162.316V189.636H147.556V188.412ZM149.554 180.726H151.03V185.622H149.554V180.726ZM149.446 194.784H160.696V196.008H149.446V194.784ZM149.446 191.256H150.922V195.108H149.446V191.256ZM172.874 181.536H174.098V184.452C174.098 188.052 172.154 191.562 169.58 192.93L168.662 191.742C171.02 190.554 172.874 187.422 172.874 184.452V181.536ZM173.144 181.536H174.35V184.452C174.35 187.314 176.168 190.284 178.472 191.436L177.554 192.624C175.034 191.274 173.144 187.944 173.144 184.452V181.536ZM179.894 180.132H181.406V196.404H179.894V180.132ZM181.046 186.72H184.07V187.98H181.046V186.72ZM189.217 190.194H190.747V196.404H189.217V190.194ZM194.815 190.194H196.345V196.404H194.815V190.194ZM185.437 189.384H200.197V190.626H185.437V189.384ZM192.781 180.78C196.183 180.78 198.469 182.148 198.469 184.326C198.469 186.486 196.183 187.872 192.781 187.872C189.397 187.872 187.093 186.486 187.093 184.326C187.093 182.148 189.397 180.78 192.781 180.78ZM192.781 181.986C190.297 181.986 188.605 182.904 188.605 184.326C188.605 185.748 190.297 186.666 192.781 186.666C195.265 186.666 196.939 185.748 196.939 184.326C196.939 182.904 195.265 181.986 192.781 181.986ZM209.069 181.248H210.653C210.653 185.352 207.647 188.16 202.895 189.33L202.301 188.142C206.567 187.116 209.069 184.848 209.069 181.968V181.248ZM203.111 181.248H209.897V182.454H203.111V181.248ZM213.839 180.132H215.333V189.042H213.839V180.132ZM204.731 189.942H215.585V191.148H204.731V189.942ZM204.569 194.946H215.765V196.152H204.569V194.946ZM206.945 190.518H208.421V195.54H206.945V190.518ZM211.895 190.518H213.371V195.54H211.895V190.518ZM218.554 188.682H233.26V189.906H218.554V188.682ZM220.462 194.82H231.64V196.044H220.462V194.82ZM220.462 191.328H221.956V195.198H220.462V191.328ZM225.916 180.672C229.39 180.672 231.64 181.896 231.64 183.93C231.64 185.946 229.39 187.17 225.916 187.17C222.424 187.17 220.192 185.946 220.192 183.93C220.192 181.896 222.424 180.672 225.916 180.672ZM225.916 181.896C223.36 181.896 221.722 182.652 221.722 183.93C221.722 185.208 223.36 185.964 225.916 185.964C228.472 185.964 230.11 185.208 230.11 183.93C230.11 182.652 228.472 181.896 225.916 181.896ZM247.292 182.526H252.26V183.75H247.292V182.526ZM247.292 186.162H252.26V187.404H247.292V186.162ZM242.414 190.626H253.268V196.404H251.774V191.832H242.414V190.626ZM251.774 180.132H253.268V189.726H251.774V180.132ZM244.322 181.032C246.716 181.032 248.516 182.652 248.516 184.956C248.516 187.26 246.716 188.862 244.322 188.862C241.91 188.862 240.128 187.26 240.128 184.956C240.128 182.652 241.91 181.032 244.322 181.032ZM244.322 182.31C242.738 182.31 241.568 183.408 241.568 184.956C241.568 186.504 242.738 187.584 244.322 187.584C245.906 187.584 247.094 186.504 247.094 184.956C247.094 183.408 245.906 182.31 244.322 182.31ZM260.431 181.536H261.655V184.452C261.655 188.052 259.711 191.562 257.137 192.93L256.219 191.742C258.577 190.554 260.431 187.422 260.431 184.452V181.536ZM260.701 181.536H261.907V184.452C261.907 187.314 263.725 190.284 266.029 191.436L265.111 192.624C262.591 191.274 260.701 187.944 260.701 184.452V181.536ZM267.451 180.132H268.963V196.404H267.451V180.132ZM268.603 186.72H271.627V187.98H268.603V186.72ZM278.513 187.692H279.755C283.013 187.692 284.831 187.638 287.009 187.242L287.171 188.448C284.939 188.844 283.067 188.916 279.755 188.916H278.513V187.692ZM278.513 181.14H285.947V182.346H279.989V188.268H278.513V181.14ZM279.521 184.362H285.641V185.568H279.521V184.362ZM280.169 190.572H290.393V196.188H280.169V190.572ZM288.935 191.76H281.627V194.982H288.935V191.76ZM288.899 180.132H290.393V189.708H288.899V180.132ZM289.979 184.164H292.805V185.424H289.979V184.164ZM306.214 180.132H307.708V189.978H306.214V180.132ZM303.514 185.064H306.88V186.306H303.514V185.064ZM297.16 190.842H307.708V196.188H297.16V190.842ZM306.25 192.048H298.618V194.982H306.25V192.048ZM294.352 181.824H303.766V183.03H294.352V181.824ZM299.05 183.858C301.246 183.858 302.812 185.046 302.812 186.774C302.812 188.502 301.246 189.654 299.05 189.654C296.854 189.654 295.288 188.502 295.288 186.774C295.288 185.046 296.854 183.858 299.05 183.858ZM299.05 185.01C297.682 185.01 296.71 185.712 296.71 186.774C296.71 187.818 297.682 188.52 299.05 188.52C300.418 188.52 301.39 187.818 301.39 186.774C301.39 185.712 300.418 185.01 299.05 185.01ZM298.312 179.97H299.806V182.688H298.312V179.97ZM322.982 183.75H327.896V184.992H322.982V183.75ZM322.982 188.898H327.896V190.14H322.982V188.898ZM319.994 181.374C322.352 181.374 324.044 183.588 324.044 187.044C324.044 190.518 322.352 192.732 319.994 192.732C317.618 192.732 315.944 190.518 315.944 187.044C315.944 183.588 317.618 181.374 319.994 181.374ZM319.994 182.724C318.428 182.724 317.348 184.416 317.348 187.044C317.348 189.69 318.428 191.418 319.994 191.418C321.56 191.418 322.64 189.69 322.64 187.044C322.64 184.416 321.56 182.724 319.994 182.724ZM327.572 180.114H329.048V196.422H327.572V180.114ZM344.49 180.132H345.912V190.428H344.49V180.132ZM341.844 184.542H344.922V185.784H341.844V184.542ZM341.016 180.456H342.42V189.852H341.016V180.456ZM332.124 182.076H340.368V183.264H332.124V182.076ZM336.264 184.092C338.298 184.092 339.72 185.208 339.72 186.882C339.72 188.574 338.298 189.672 336.264 189.672C334.212 189.672 332.79 188.574 332.79 186.882C332.79 185.208 334.212 184.092 336.264 184.092ZM336.264 185.208C334.986 185.208 334.122 185.874 334.122 186.882C334.122 187.908 334.986 188.556 336.264 188.556C337.524 188.556 338.388 187.908 338.388 186.882C338.388 185.874 337.524 185.208 336.264 185.208ZM335.526 180.258H336.984V182.742H335.526V180.258ZM340.584 190.716C343.968 190.716 346.002 191.724 346.002 193.542C346.002 195.342 343.968 196.368 340.584 196.368C337.164 196.368 335.148 195.342 335.148 193.542C335.148 191.724 337.164 190.716 340.584 190.716ZM340.584 191.868C338.082 191.868 336.624 192.462 336.624 193.542C336.624 194.622 338.082 195.234 340.584 195.234C343.05 195.234 344.526 194.622 344.526 193.542C344.526 192.462 343.05 191.868 340.584 191.868ZM356.331 181.909L356.165 191.235H354.395L354.228 181.909H356.331ZM355.283 195.121C354.929 195.121 354.627 194.998 354.375 194.751C354.124 194.499 354 194.197 354.005 193.843C354 193.494 354.124 193.195 354.375 192.948C354.627 192.697 354.929 192.571 355.283 192.571C355.628 192.571 355.926 192.697 356.178 192.948C356.429 193.195 356.557 193.494 356.561 193.843C356.557 194.077 356.495 194.293 356.376 194.489C356.261 194.68 356.108 194.834 355.916 194.949C355.724 195.064 355.513 195.121 355.283 195.121ZM30.86 202.672H32.084V203.968C32.084 207.028 30.302 209.476 27.53 210.448L26.792 209.242C29.258 208.432 30.86 206.38 30.86 203.968V202.672ZM31.13 202.672H32.336V203.932C32.336 206.128 33.938 208.036 36.332 208.792L35.558 209.962C32.894 209.044 31.13 206.776 31.13 203.932V202.672ZM38.024 202.132H39.518V210.61H38.024V202.132ZM38.87 205.678H41.912V206.92H38.87V205.678ZM29.186 211.366H39.518V215.272H30.698V217.702H29.222V214.138H38.06V212.554H29.186V211.366ZM29.222 217.036H40.112V218.224H29.222V217.036ZM51.2526 204.994H55.8066V206.218H51.2526V204.994ZM51.2526 208.468H55.8426V209.71H51.2526V208.468ZM44.1966 203.536H51.6306V211.168H44.1966V203.536ZM50.1546 204.742H45.6546V209.962H50.1546V204.742ZM55.3386 202.15H56.8326V214.03H55.3386V202.15ZM46.3746 216.82H57.2286V218.044H46.3746V216.82ZM46.3746 212.95H47.8686V217.378H46.3746V212.95ZM68.1352 207.64H72.6712V208.864H68.1352V207.64ZM64.2112 203.536H65.4352V206.434C65.4352 210.088 63.5092 213.58 60.9352 214.966L59.9812 213.778C62.3752 212.59 64.2112 209.458 64.2112 206.434V203.536ZM64.4992 203.536H65.7052V206.434C65.7052 209.404 67.5412 212.356 69.8992 213.472L69.0172 214.678C66.3892 213.346 64.4992 209.998 64.4992 206.434V203.536ZM71.9332 202.114H73.4092V218.422H71.9332V202.114ZM92.3375 202.114H93.8495V218.422H92.3375V202.114ZM93.4895 208.54H96.5135V209.8H93.4895V208.54ZM82.0235 213.112H83.3015C86.3075 213.112 88.4135 213.004 90.8435 212.554L91.0055 213.814C88.5035 214.282 86.3615 214.372 83.3015 214.372H82.0235V213.112ZM82.0235 203.698H89.5835V204.922H83.4995V213.67H82.0235V203.698ZM102.182 203.536H103.406V206.452C103.406 210.196 101.39 213.67 98.726 215.02L97.808 213.796C100.22 212.644 102.182 209.53 102.182 206.452V203.536ZM102.434 203.536H103.658V206.452C103.658 209.422 105.602 212.41 108.014 213.526L107.114 214.714C104.468 213.418 102.434 210.07 102.434 206.452V203.536ZM109.706 202.114H111.2V218.422H109.706V202.114ZM121.074 211.672H122.478V213.706H125.322V211.672H126.708V218.188H121.074V211.672ZM122.478 214.822V217.018H125.322V214.822H122.478ZM129.858 211.582H131.01V212.932C131.01 215.146 129.894 217.378 127.644 218.332L126.888 217.198C128.85 216.37 129.858 214.588 129.858 212.932V211.582ZM130.164 211.582H131.316V212.932C131.316 214.678 132.324 216.442 134.286 217.198L133.53 218.332C131.262 217.396 130.164 215.236 130.164 212.932V211.582ZM127.392 205.948H131.766V207.19H127.392V205.948ZM123.648 202.852C126.078 202.852 127.842 204.364 127.842 206.596C127.842 208.81 126.078 210.34 123.648 210.34C121.218 210.34 119.454 208.81 119.454 206.596C119.454 204.364 121.218 202.852 123.648 202.852ZM123.648 204.094C122.046 204.094 120.894 205.12 120.894 206.596C120.894 208.054 122.046 209.098 123.648 209.098C125.25 209.098 126.402 208.054 126.402 206.596C126.402 205.12 125.25 204.094 123.648 204.094ZM131.1 202.132H132.594V210.754H131.1V202.132ZM143.123 202.402C146.705 202.402 148.847 203.41 148.847 205.228C148.847 207.046 146.705 208.054 143.123 208.054C139.523 208.054 137.399 207.046 137.399 205.228C137.399 203.41 139.523 202.402 143.123 202.402ZM143.123 203.536C140.459 203.536 138.929 204.148 138.929 205.228C138.929 206.308 140.459 206.92 143.123 206.92C145.769 206.92 147.299 206.308 147.299 205.228C147.299 204.148 145.769 203.536 143.123 203.536ZM135.761 209.134H150.467V210.34H135.761V209.134ZM137.543 211.726H148.595V215.398H139.055V217.378H137.579V214.318H147.119V212.878H137.543V211.726ZM137.579 217.054H149.081V218.224H137.579V217.054ZM163.671 202.708H164.985V203.608C164.985 206.722 161.817 208.954 158.433 209.53L157.839 208.324C160.809 207.874 163.671 205.93 163.671 203.608V202.708ZM163.941 202.708H165.237V203.608C165.237 205.876 168.135 207.874 171.069 208.324L170.475 209.53C167.127 208.954 163.941 206.686 163.941 203.608V202.708ZM163.671 212.212H165.147V218.404H163.671V212.212ZM157.101 211.294H171.807V212.536H157.101V211.294ZM175.514 209.728H186.692V210.952H175.514V209.728ZM173.66 215.11H188.402V216.37H173.66V215.11ZM180.248 210.25H181.742V215.614H180.248V210.25ZM175.514 203.428H186.53V204.652H177.008V210.268H175.514V203.428ZM199.032 212.14H200.184V213.022C200.184 215.146 198.852 217.288 196.512 218.188L195.756 217.072C197.808 216.334 199.032 214.588 199.032 213.022V212.14ZM199.356 212.14H200.472V213.022C200.472 214.66 201.444 216.406 203.388 217.198L202.758 218.332C200.418 217.414 199.356 215.182 199.356 213.022V212.14ZM205.044 212.14H206.16V213.022C206.16 214.93 205.08 217.342 202.758 218.332L202.128 217.198C204.054 216.316 205.044 214.426 205.044 213.022V212.14ZM205.35 212.14H206.502V213.022C206.502 214.696 207.708 216.37 209.778 217.072L209.022 218.188C206.646 217.324 205.35 215.272 205.35 213.022V212.14ZM206.808 202.15H208.32V211.438H206.808V202.15ZM199.59 203.086C202.056 203.086 203.82 204.634 203.82 206.884C203.82 209.134 202.056 210.664 199.59 210.664C197.124 210.664 195.342 209.134 195.342 206.884C195.342 204.634 197.124 203.086 199.59 203.086ZM199.59 204.328C197.97 204.328 196.8 205.372 196.8 206.884C196.8 208.396 197.97 209.422 199.59 209.422C201.21 209.422 202.38 208.396 202.38 206.884C202.38 205.372 201.21 204.328 199.59 204.328ZM213.521 207.01H224.573V208.234H213.521V207.01ZM211.523 210.412H226.283V211.636H211.523V210.412ZM213.521 202.726H214.997V207.622H213.521V202.726ZM213.413 216.784H224.663V218.008H213.413V216.784ZM213.413 213.256H214.889V217.108H213.413V213.256ZM240.261 204.526H245.229V205.75H240.261V204.526ZM240.261 208.162H245.229V209.404H240.261V208.162ZM235.383 212.626H246.237V218.404H244.743V213.832H235.383V212.626ZM244.743 202.132H246.237V211.726H244.743V202.132ZM237.291 203.032C239.685 203.032 241.485 204.652 241.485 206.956C241.485 209.26 239.685 210.862 237.291 210.862C234.879 210.862 233.097 209.26 233.097 206.956C233.097 204.652 234.879 203.032 237.291 203.032ZM237.291 204.31C235.707 204.31 234.537 205.408 234.537 206.956C234.537 208.504 235.707 209.584 237.291 209.584C238.875 209.584 240.063 208.504 240.063 206.956C240.063 205.408 238.875 204.31 237.291 204.31ZM253.399 203.536H254.623V206.452C254.623 210.052 252.679 213.562 250.105 214.93L249.187 213.742C251.545 212.554 253.399 209.422 253.399 206.452V203.536ZM253.669 203.536H254.875V206.452C254.875 209.314 256.693 212.284 258.997 213.436L258.079 214.624C255.559 213.274 253.669 209.944 253.669 206.452V203.536ZM260.419 202.132H261.931V218.404H260.419V202.132ZM261.571 208.72H264.595V209.98H261.571V208.72ZM277.824 202.132H279.318V218.404H277.824V202.132ZM273.054 203.878H274.53C274.53 208.594 272.406 212.716 266.97 215.38L266.178 214.174C270.876 211.906 273.054 208.45 273.054 204.13V203.878ZM266.916 203.878H273.702V205.102H266.916V203.878ZM294.815 202.132H296.237V212.428H294.815V202.132ZM292.169 206.542H295.247V207.784H292.169V206.542ZM291.341 202.456H292.745V211.852H291.341V202.456ZM282.449 204.076H290.693V205.264H282.449V204.076ZM286.589 206.092C288.623 206.092 290.045 207.208 290.045 208.882C290.045 210.574 288.623 211.672 286.589 211.672C284.537 211.672 283.115 210.574 283.115 208.882C283.115 207.208 284.537 206.092 286.589 206.092ZM286.589 207.208C285.311 207.208 284.447 207.874 284.447 208.882C284.447 209.908 285.311 210.556 286.589 210.556C287.849 210.556 288.713 209.908 288.713 208.882C288.713 207.874 287.849 207.208 286.589 207.208ZM285.851 202.258H287.309V204.742H285.851V202.258ZM290.909 212.716C294.293 212.716 296.327 213.724 296.327 215.542C296.327 217.342 294.293 218.368 290.909 218.368C287.489 218.368 285.473 217.342 285.473 215.542C285.473 213.724 287.489 212.716 290.909 212.716ZM290.909 213.868C288.407 213.868 286.949 214.462 286.949 215.542C286.949 216.622 288.407 217.234 290.909 217.234C293.375 217.234 294.851 216.622 294.851 215.542C294.851 214.462 293.375 213.868 290.909 213.868Z" fill="black"/>
<path d="M31.2202 275L33.0099 264.091H34.0753L32.2855 275H31.2202ZM26.2557 271.974L26.4261 270.909H34.5653L34.3949 271.974H26.2557ZM27.3849 275L29.1747 264.091H30.2401L28.4503 275H27.3849ZM26.8949 268.182L27.0653 267.116H35.2045L35.0341 268.182H26.8949ZM41.7029 268.985H42.9329V271.07H41.7029V268.985ZM42.3329 262.775C45.3179 262.775 47.1029 263.6 47.1029 265.115C47.1029 266.63 45.3179 267.47 42.3329 267.47C39.3329 267.47 37.5629 266.63 37.5629 265.115C37.5629 263.6 39.3329 262.775 42.3329 262.775ZM42.3329 263.72C40.1129 263.72 38.8379 264.23 38.8379 265.115C38.8379 266.015 40.1129 266.525 42.3329 266.525C44.5379 266.525 45.8129 266.015 45.8129 265.115C45.8129 264.23 44.5379 263.72 42.3329 263.72ZM36.1979 268.34H48.4529V269.36H36.1979V268.34ZM37.6829 270.605H46.8929V273.665H38.9429V275.315H37.7129V272.765H45.6629V271.565H37.6829V270.605ZM37.7129 275.045H47.2979V276.02H37.7129V275.045ZM49.9967 269.765H62.2967V270.77H49.9967V269.765ZM51.5567 263.03H60.7067V266.27H52.8167V268.085H51.5867V265.355H59.4917V264.005H51.5567V263.03ZM51.5867 267.635H61.0067V268.61H51.5867V267.635ZM56.1167 271.805C59.0867 271.805 60.8117 272.57 60.8117 273.995C60.8117 275.405 59.0867 276.17 56.1167 276.17C53.1467 276.17 51.4367 275.405 51.4367 273.995C51.4367 272.57 53.1467 271.805 56.1167 271.805ZM56.1167 272.735C53.9267 272.735 52.6967 273.185 52.6967 273.995C52.6967 274.775 53.9267 275.225 56.1167 275.225C58.3067 275.225 59.5517 274.775 59.5517 273.995C59.5517 273.185 58.3067 272.735 56.1167 272.735ZM65.3555 268.94H74.6705V269.96H65.3555V268.94ZM63.8105 273.425H76.0955V274.475H63.8105V273.425ZM69.3005 269.375H70.5455V273.845H69.3005V269.375ZM65.3555 263.69H74.5355V264.71H66.6005V269.39H65.3555V263.69ZM86.2983 275L88.0881 264.091H89.1534L87.3636 275H86.2983ZM81.3338 271.974L81.5043 270.909H89.6435L89.473 271.974H81.3338ZM82.4631 275L84.2528 264.091H85.3182L83.5284 275H82.4631ZM81.973 268.182L82.1435 267.116H90.2827L90.1122 268.182H81.973ZM91.291 269.375H103.546V270.365H91.291V269.375ZM96.796 267.035H98.026V269.765H96.796V267.035ZM92.641 271.685H102.046V276.275H100.801V272.705H92.641V271.685ZM92.836 266.735H102.136V267.755H92.836V266.735ZM92.836 263.15H102.016V264.17H94.081V267.26H92.836V263.15ZM106.635 268.94H115.95V269.96H106.635V268.94ZM105.09 273.425H117.375V274.475H105.09V273.425ZM110.58 269.375H111.825V273.845H110.58V269.375ZM106.635 263.69H115.815V264.71H107.88V269.39H106.635V263.69ZM127.578 275L129.367 264.091H130.433L128.643 275H127.578ZM122.613 271.974L122.784 270.909H130.923L130.752 271.974H122.613ZM123.742 275L125.532 264.091H126.597L124.808 275H123.742ZM123.252 268.182L123.423 267.116H131.562L131.392 268.182H123.252ZM138.735 264.605H142.875V265.625H138.735V264.605ZM138.735 267.635H142.875V268.67H138.735V267.635ZM134.67 271.355H143.715V276.17H142.47V272.36H134.67V271.355ZM142.47 262.61H143.715V270.605H142.47V262.61ZM136.26 263.36C138.255 263.36 139.755 264.71 139.755 266.63C139.755 268.55 138.255 269.885 136.26 269.885C134.25 269.885 132.765 268.55 132.765 266.63C132.765 264.71 134.25 263.36 136.26 263.36ZM136.26 264.425C134.94 264.425 133.965 265.34 133.965 266.63C133.965 267.92 134.94 268.82 136.26 268.82C137.58 268.82 138.57 267.92 138.57 266.63C138.57 265.34 137.58 264.425 136.26 264.425ZM149.684 263.78H150.704V266.21C150.704 269.21 149.084 272.135 146.939 273.275L146.174 272.285C148.139 271.295 149.684 268.685 149.684 266.21V263.78ZM149.909 263.78H150.914V266.21C150.914 268.595 152.429 271.07 154.349 272.03L153.584 273.02C151.484 271.895 149.909 269.12 149.909 266.21V263.78ZM155.534 262.61H156.794V276.17H155.534V262.61ZM156.494 268.1H159.014V269.15H156.494V268.1ZM168.857 275L170.647 264.091H171.712L169.922 275H168.857ZM163.892 271.974L164.063 270.909H172.202L172.032 271.974H163.892ZM165.022 275L166.811 264.091H167.877L166.087 275H165.022ZM164.532 268.182L164.702 267.116H172.841L172.671 268.182H164.532ZM183.12 262.625H184.365V272.795H183.12V262.625ZM183.975 267.065H186.375V268.115H183.975V267.065ZM173.88 264.26H181.89V265.265H173.88V264.26ZM177.885 266.015C179.805 266.015 181.125 267.02 181.125 268.55C181.125 270.065 179.805 271.07 177.885 271.07C175.95 271.07 174.63 270.065 174.63 268.55C174.63 267.02 175.95 266.015 177.885 266.015ZM177.885 266.99C176.655 266.99 175.815 267.605 175.815 268.55C175.815 269.48 176.655 270.095 177.885 270.095C179.1 270.095 179.94 269.48 179.94 268.55C179.94 267.605 179.1 266.99 177.885 266.99ZM177.255 262.61H178.5V264.785H177.255V262.61ZM175.92 274.85H184.98V275.87H175.92V274.85ZM175.92 271.985H177.165V275.285H175.92V271.985ZM189.208 263.24H197.938V264.26H189.208V263.24ZM187.648 268.1H199.933V269.12H187.648V268.1ZM193.153 268.79H194.383V271.985H193.153V268.79ZM197.128 263.24H198.343V264.245C198.343 265.37 198.343 266.735 197.893 268.595L196.678 268.445C197.128 266.63 197.128 265.34 197.128 264.245V263.24ZM188.923 271.58H198.433V276.17H197.188V272.6H188.923V271.58ZM207.552 265.625H211.647V266.66H207.552V265.625ZM207.552 269.915H211.647V270.95H207.552V269.915ZM205.062 263.645C207.027 263.645 208.437 265.49 208.437 268.37C208.437 271.265 207.027 273.11 205.062 273.11C203.082 273.11 201.687 271.265 201.687 268.37C201.687 265.49 203.082 263.645 205.062 263.645ZM205.062 264.77C203.757 264.77 202.857 266.18 202.857 268.37C202.857 270.575 203.757 272.015 205.062 272.015C206.367 272.015 207.267 270.575 207.267 268.37C207.267 266.18 206.367 264.77 205.062 264.77ZM211.377 262.595H212.607V276.185H211.377V262.595ZM225.476 262.61H226.661V271.19H225.476V262.61ZM223.271 266.285H225.836V267.32H223.271V266.285ZM222.581 262.88H223.751V270.71H222.581V262.88ZM215.171 264.23H222.041V265.22H215.171V264.23ZM218.621 265.91C220.316 265.91 221.501 266.84 221.501 268.235C221.501 269.645 220.316 270.56 218.621 270.56C216.911 270.56 215.726 269.645 215.726 268.235C215.726 266.84 216.911 265.91 218.621 265.91ZM218.621 266.84C217.556 266.84 216.836 267.395 216.836 268.235C216.836 269.09 217.556 269.63 218.621 269.63C219.671 269.63 220.391 269.09 220.391 268.235C220.391 267.395 219.671 266.84 218.621 266.84ZM218.006 262.715H219.221V264.785H218.006V262.715ZM222.221 271.43C225.041 271.43 226.736 272.27 226.736 273.785C226.736 275.285 225.041 276.14 222.221 276.14C219.371 276.14 217.691 275.285 217.691 273.785C217.691 272.27 219.371 271.43 222.221 271.43ZM222.221 272.39C220.136 272.39 218.921 272.885 218.921 273.785C218.921 274.685 220.136 275.195 222.221 275.195C224.276 275.195 225.506 274.685 225.506 273.785C225.506 272.885 224.276 272.39 222.221 272.39Z" fill="#262626"/>
</svg>
