<svg xmlns="http://www.w3.org/2000/svg" width="400" height="300" fill="none"><path fill="#fff" fill-opacity=".5" d="M0 30C0 13.432 13.432 0 30 0h340c16.569 0 30 13.432 30 30v240c0 16.569-13.431 30-30 30H30c-16.568 0-30-13.431-30-30z"/><path fill="#000" d="M39.329 36.288h2.926v2.838h-2.926zm1.496-9.504c4.642 0 7.37 1.21 7.37 3.454s-2.728 3.476-7.37 3.476c-4.664 0-7.37-1.232-7.37-3.476s2.706-3.454 7.37-3.454m0 2.134c-2.948 0-4.334.418-4.334 1.32 0 .946 1.386 1.342 4.334 1.342s4.334-.396 4.334-1.342c0-.902-1.386-1.32-4.334-1.32m-9.218 5.676H50.02v2.31H31.607zm2.112 3.63h14.08v5.236H36.623v1.804H33.74v-3.828h11.176v-1.034H33.719zm.022 6.402h14.586v2.2H33.74zm18.104-7.458h18.458v2.266H51.845zm2.266-10.076h13.948v5.478H57.037v2.222h-2.904v-4.29h11.044v-1.188H54.11zm.022 6.688h14.322v2.222H54.133zm6.886 6.688c4.532 0 7.15 1.144 7.15 3.278 0 2.112-2.618 3.256-7.15 3.256-4.554 0-7.15-1.144-7.15-3.256 0-2.134 2.596-3.278 7.15-3.278m0 2.112c-2.882 0-4.18.352-4.18 1.166 0 .77 1.298 1.122 4.18 1.122s4.18-.352 4.18-1.122c0-.814-1.298-1.166-4.18-1.166m13.22-6.908h14.322v2.332H74.24zm-2.134 6.6h18.436v2.398H72.105zm7.722-5.544h2.926v6.314h-2.926zm-5.588-8.756h14.168v2.354H77.165v6.358H74.24zm28.829.426v19.93h-5.132v-1.851h2.898V30.25h-2.898v-1.852zM33.488 99.782h1.476v2.502h-1.476zm.756-7.452c3.582 0 5.724.99 5.724 2.808s-2.142 2.826-5.724 2.826c-3.6 0-5.724-1.008-5.724-2.826s2.124-2.808 5.724-2.808m0 1.134c-2.664 0-4.194.612-4.194 1.674 0 1.08 1.53 1.692 4.194 1.692 2.646 0 4.176-.612 4.176-1.692 0-1.062-1.53-1.674-4.176-1.674m-7.362 5.544h14.706v1.224H26.882zm1.782 2.718h11.052v3.672h-9.54v1.98H28.7v-3.06h9.54v-1.44h-9.576zm.036 5.328h11.502v1.17H28.7zm14.74-6.336H58.2v1.206H43.44zm1.873-8.082h10.98v3.888h-9.468v2.178h-1.476v-3.276h9.486v-1.62h-9.522zm.036 5.526h11.304v1.17H45.349zm5.436 5.004c3.564 0 5.634.918 5.634 2.628 0 1.692-2.07 2.61-5.634 2.61s-5.616-.918-5.616-2.61c0-1.71 2.052-2.628 5.616-2.628m0 1.116c-2.628 0-4.104.54-4.104 1.512 0 .936 1.476 1.476 4.104 1.476s4.122-.54 4.122-1.476c0-.972-1.494-1.512-4.122-1.512m11.086-4.554H73.05v1.224H61.871zm-1.854 5.382H74.76v1.26H60.017zm6.588-4.86H68.1v5.364h-1.494zm-4.734-6.822h11.016v1.224h-9.522v5.616h-1.494zm26.794 2.322h4.914v1.242h-4.913zm0 5.148h4.914v1.242h-4.913zm-2.988-7.524c2.358 0 4.05 2.214 4.05 5.67 0 3.474-1.692 5.688-4.05 5.688-2.376 0-4.05-2.214-4.05-5.688 0-3.456 1.675-5.67 4.05-5.67m0 1.35c-1.565 0-2.646 1.692-2.646 4.32 0 2.646 1.08 4.374 2.646 4.374s2.646-1.728 2.646-4.374c0-2.628-1.08-4.32-2.645-4.32m7.578-2.61h1.477v16.308h-1.477zm16.919.018h1.422v10.296h-1.422zm-2.646 4.41h3.078v1.242h-3.078zm-.828-4.086h1.404v9.396H106.7zm-8.892 1.62h8.244v1.188h-8.244zm4.14 2.016c2.034 0 3.456 1.116 3.456 2.79 0 1.692-1.422 2.79-3.456 2.79-2.052 0-3.474-1.098-3.474-2.79 0-1.674 1.422-2.79 3.474-2.79m0 1.116c-1.278 0-2.142.666-2.142 1.674 0 1.026.864 1.674 2.142 1.674 1.26 0 2.124-.648 2.124-1.674 0-1.008-.864-1.674-2.124-1.674m-.738-4.95h1.458v2.484h-1.458zm5.058 10.458c3.384 0 5.418 1.008 5.418 2.826 0 1.8-2.034 2.826-5.418 2.826-3.42 0-5.436-1.026-5.436-2.826 0-1.818 2.016-2.826 5.436-2.826m0 1.152c-2.502 0-3.96.594-3.96 1.674s1.458 1.692 3.96 1.692c2.466 0 3.942-.612 3.942-1.692s-1.476-1.674-3.942-1.674m14.302-11.25h11.952v1.17H120.57zm.072 4.266h11.808v1.152h-11.808zm2.394-3.816h1.494v4.572h-1.494zm5.544 0h1.476v4.572h-1.476zm-9.378 6.318h14.706v1.206h-14.706zm1.782 2.628h11.052v3.564h-9.54v1.962h-1.476v-3.024h9.54v-1.386h-9.576zm.036 5.076h11.502v1.134H121.02zm15.281-3.816h1.08c1.98 0 3.78-.072 5.976-.45l.126 1.242c-2.25.396-4.086.45-6.102.45h-1.08zm-.036-9.378h6.102v5.724h-4.608v4.122h-1.458v-5.346h4.608V95.12h-4.644zm11.88-1.764h1.44v16.272h-1.44zm-2.754 6.426h3.132v1.224h-3.132zm-.936-6.066h1.404v15.084h-1.404zm19.799-.36h1.494v16.308h-1.494zm-5.004 5.364h5.49v1.224h-5.49zm-6.03-3.546h1.476v10.08h-1.476zm0 9.288h1.26c2.52 0 4.77-.144 7.272-.666l.18 1.26c-2.592.504-4.878.666-7.452.666h-1.26zm23.234-9.329-.166 9.326h-1.77l-.167-9.326zm-1.048 13.212a1.25 1.25 0 0 1-.908-.37 1.22 1.22 0 0 1-.37-.908 1.19 1.19 0 0 1 .37-.895 1.24 1.24 0 0 1 .908-.377q.518 0 .895.377a1.23 1.23 0 0 1 .198 1.541 1.3 1.3 0 0 1-.46.46 1.2 1.2 0 0 1-.633.172M27.036 142v-1.457q0-.607.236-1.228.242-.626.626-1.163.39-.543.806-.895l1.33.729q-.346.563-.55 1.176a4.2 4.2 0 0 0-.199 1.374V142zm3.208 0v-1.457q0-.607.237-1.228a5.3 5.3 0 0 1 .626-1.163q.39-.543.806-.895l1.33.729q-.346.563-.55 1.176a4.2 4.2 0 0 0-.199 1.374V142zm11.696-3.834h4.932v1.926H41.94zm0 3.618h4.932v1.926H41.94zm-4.788 4.77H48.51v6.048h-2.394v-4.158h-8.964zm8.964-10.62h2.394v9.864h-2.394zm-6.948.864c2.484 0 4.392 1.728 4.392 4.122 0 2.412-1.908 4.14-4.392 4.14-2.502 0-4.41-1.728-4.41-4.14 0-2.394 1.908-4.122 4.41-4.122m0 2.034c-1.224 0-2.124.774-2.124 2.088 0 1.332.9 2.106 2.124 2.106 1.206 0 2.124-.774 2.124-2.106 0-1.314-.918-2.088-2.124-2.088m15.694-1.62h1.944v2.43c0 4.122-1.44 7.992-4.59 9.54l-1.44-1.926c2.808-1.314 4.086-4.518 4.086-7.614zm.486 0h1.908v2.43c0 2.988 1.188 6.03 3.852 7.326l-1.44 1.908c-3.006-1.53-4.32-5.238-4.32-9.234zm6.426-1.278h2.412v16.668h-2.412zm1.872 6.408h2.952v1.998h-2.952zm7.775 2.034h2.394v3.942h-2.394zm1.17-7.47c2.574 0 4.536 1.71 4.536 4.104s-1.962 4.104-4.536 4.104c-2.592 0-4.536-1.71-4.536-4.104s1.944-4.104 4.536-4.104m0 2.034c-1.26 0-2.196.756-2.196 2.07 0 1.296.936 2.07 2.196 2.07s2.196-.774 2.196-2.07c0-1.314-.936-2.07-2.196-2.07m5.85-3.006h2.394v16.668h-2.394zm1.656 6.516h2.934v1.998h-2.934zm-12.312 6.84-.288-1.926c2.88-.018 6.768 0 10.08-.45l.18 1.746c-3.456.648-7.164.648-9.972.63m31.046-13.356h2.394v10.044h-2.394zm1.728 4.104h2.88V142h-2.88zm-10.17 6.66h10.836v5.724H90.389zm8.496 1.89h-6.138v1.944h6.138zm-10.782-11.16h9.81v1.89h-9.81zm4.914 2.376c2.412 0 4.086 1.224 4.086 3.006 0 1.8-1.674 2.988-4.086 2.988-2.43 0-4.104-1.188-4.104-2.988 0-1.782 1.674-3.006 4.104-3.006m0 1.782c-1.08 0-1.8.414-1.8 1.224s.72 1.242 1.8 1.242c1.062 0 1.8-.432 1.8-1.242s-.738-1.224-1.8-1.224m-1.206-5.76h2.394v2.628H91.81zm14.884 1.998h2.016c0 4.23-.396 7.956-2.466 11.268l-1.836-.99c1.944-3.06 2.286-5.958 2.286-10.08zm-1.746 0h3.024v1.926h-3.024zm5.472 0h2.016c0 4.356-.252 8.514-2.484 12.078l-1.836-1.008c2.124-3.312 2.304-6.696 2.304-10.854zm-1.206 0h2.556v1.926h-2.556zm7.632-1.89h2.286v16.668h-2.286zm-5.22 6.246h2.358v1.926h-2.358zm1.998-5.886h2.232v15.57h-2.232zm18.287-.36h2.376v16.668h-2.376zm1.836 6.498h2.952v1.998h-2.952zm-12.6-4.032h9.702v1.908h-9.702zm4.878 2.844c2.43 0 4.23 1.656 4.23 3.978s-1.8 3.978-4.23 3.978-4.23-1.656-4.23-3.978 1.8-3.978 4.23-3.978m0 1.944c-1.134 0-1.944.756-1.944 2.034s.81 2.034 1.944 2.034 1.944-.756 1.944-2.034-.81-2.034-1.944-2.034m-1.206-6.984h2.394v2.916h-2.394zm14.831 4.23h11.556v1.89h-11.556zm-1.872 3.618h15.102v1.908h-15.102zm1.872-7.524h2.376v4.842h-2.376zm-.162 13.806h11.808v1.908h-11.808zm0-3.042h2.394v3.546h-2.394zm26.167-7.956h4.536v1.926h-4.536zm0 5.166h4.536v1.926h-4.536zm-2.88-7.416c2.484 0 4.302 2.304 4.302 5.94 0 3.672-1.818 5.976-4.302 5.976-2.502 0-4.302-2.304-4.302-5.976 0-3.636 1.8-5.94 4.302-5.94m0 2.178c-1.206 0-2.034 1.314-2.034 3.762 0 2.484.828 3.816 2.034 3.816 1.224 0 2.034-1.332 2.034-3.816 0-2.448-.81-3.762-2.034-3.762m7.038-3.348h2.376v16.722h-2.376zm16.883.018h2.268v10.44h-2.268zm-2.034 4.104h2.664v1.944h-2.664zm-1.422-3.78h2.232v9.576h-2.232zm-8.55 1.386h8.082v1.836h-8.082zm4.068 2.376c2.088 0 3.6 1.188 3.6 2.916s-1.512 2.898-3.6 2.898-3.6-1.17-3.6-2.898 1.512-2.916 3.6-2.916m0 1.71c-.882 0-1.476.432-1.476 1.206s.594 1.206 1.476 1.206c.864 0 1.458-.432 1.458-1.206s-.594-1.206-1.458-1.206m-1.206-5.634h2.358v2.808h-2.358zm5.778 10.458c3.564 0 5.724 1.08 5.724 3.024 0 1.926-2.16 3.024-5.724 3.024-3.582 0-5.742-1.098-5.742-3.024 0-1.944 2.16-3.024 5.742-3.024m0 1.782c-2.232 0-3.348.378-3.348 1.242 0 .846 1.116 1.242 3.348 1.242 2.214 0 3.33-.396 3.33-1.242 0-.864-1.116-1.242-3.33-1.242m10.863-10.427v1.457q0 .607-.243 1.228a5.2 5.2 0 0 1-.62 1.15 5.1 5.1 0 0 1-.812.908l-1.329-.729q.294-.486.524-1.093.23-.614.23-1.457v-1.464zm3.19 0v1.457q0 .607-.243 1.228a5.2 5.2 0 0 1-.62 1.15 5.2 5.2 0 0 1-.812.908l-1.33-.729q.294-.486.524-1.093.231-.614.231-1.457v-1.464zM33.488 187.782h1.476v2.502h-1.476zm.756-7.452c3.582 0 5.724.99 5.724 2.808s-2.142 2.826-5.724 2.826c-3.6 0-5.724-1.008-5.724-2.826s2.124-2.808 5.724-2.808m0 1.134c-2.664 0-4.194.612-4.194 1.674 0 1.08 1.53 1.692 4.194 1.692 2.646 0 4.176-.612 4.176-1.692 0-1.062-1.53-1.674-4.176-1.674m-7.362 5.544h14.706v1.224H26.882zm1.782 2.718h11.052v3.672h-9.54v1.98H28.7v-3.06h9.54v-1.44h-9.576zm.036 5.328h11.502v1.17H28.7zm14.74-6.336H58.2v1.206H43.44zm1.873-8.082h10.98v3.888h-9.468v2.178h-1.476v-3.276h9.486v-1.62h-9.522zm.036 5.526h11.304v1.17H45.349zm5.436 5.004c3.564 0 5.634.918 5.634 2.628 0 1.692-2.07 2.61-5.634 2.61s-5.616-.918-5.616-2.61c0-1.71 2.052-2.628 5.616-2.628m0 1.116c-2.628 0-4.104.54-4.104 1.512 0 .936 1.476 1.476 4.104 1.476s4.122-.54 4.122-1.476c0-.972-1.494-1.512-4.122-1.512m11.086-4.554H73.05v1.224H61.871zm-1.854 5.382H74.76v1.26H60.017zm6.588-4.86H68.1v5.364h-1.494zm-4.734-6.822h11.016v1.224h-9.522v5.616h-1.494zm21.293 5.022h3.078v1.242h-3.078zm5.796-6.318h1.44v16.272h-1.44zm-3.222.342h1.422v15.12h-1.422zm-5.508 1.008c2.106 0 3.474 2.178 3.474 5.67s-1.368 5.67-3.474 5.67-3.456-2.178-3.456-5.67 1.35-5.67 3.456-5.67m0 1.386c-1.278 0-2.088 1.656-2.088 4.284s.81 4.284 2.088 4.284c1.296 0 2.106-1.656 2.106-4.284s-.81-4.284-2.106-4.284m29.548-2.754h1.494v9.522h-1.494zm-9.774 10.278h5.31v6.012h-1.494v-4.788h-3.816zm6.084 0h5.184v6.012h-1.494v-4.788h-3.69zm-.792-7.956h4.968v1.224h-4.968zm0 3.654h4.968v1.224h-4.968zm-2.97-5.112c2.394 0 4.194 1.62 4.194 3.906 0 2.268-1.8 3.888-4.194 3.888-2.412 0-4.194-1.62-4.194-3.888 0-2.286 1.782-3.906 4.194-3.906m0 1.278c-1.584 0-2.754 1.08-2.754 2.628s1.17 2.628 2.754 2.628 2.772-1.08 2.772-2.628-1.188-2.628-2.772-2.628m19.457 1.494h4.914v1.242h-4.914zm0 5.148h4.914v1.242h-4.914zm-2.988-7.524c2.358 0 4.05 2.214 4.05 5.67 0 3.474-1.692 5.688-4.05 5.688-2.376 0-4.05-2.214-4.05-5.688 0-3.456 1.674-5.67 4.05-5.67m0 1.35c-1.566 0-2.646 1.692-2.646 4.32 0 2.646 1.08 4.374 2.646 4.374s2.646-1.728 2.646-4.374c0-2.628-1.08-4.32-2.646-4.32m7.578-2.61h1.476v16.308h-1.476zm8.692 10.026h1.152v.882c0 2.124-1.332 4.266-3.672 5.166l-.756-1.116c2.052-.738 3.276-2.484 3.276-4.05zm.324 0h1.116v.882c0 1.638.972 3.384 2.916 4.176l-.63 1.134c-2.34-.918-3.402-3.15-3.402-5.31zm5.688 0h1.116v.882c0 1.908-1.08 4.32-3.402 5.31l-.63-1.134c1.926-.882 2.916-2.772 2.916-4.176zm.306 0h1.152v.882c0 1.674 1.206 3.348 3.276 4.05l-.756 1.116c-2.376-.864-3.672-2.916-3.672-5.166zm1.458-9.99h1.512v9.288h-1.512zm-7.218.936c2.466 0 4.23 1.548 4.23 3.798s-1.764 3.78-4.23 3.78-4.248-1.53-4.248-3.78 1.782-3.798 4.248-3.798m0 1.242c-1.62 0-2.79 1.044-2.79 2.556s1.17 2.538 2.79 2.538 2.79-1.026 2.79-2.538-1.17-2.556-2.79-2.556m13.931 2.682h11.052v1.224h-11.052zm-1.998 3.402h14.76v1.224h-14.76zm1.998-7.686h1.476v4.896h-1.476zm-.108 14.058h11.25v1.224h-11.25zm0-3.528h1.476v3.852h-1.476zm23.428-9.72h1.224v2.916c0 3.6-1.944 7.11-4.518 8.478l-.918-1.188c2.358-1.188 4.212-4.32 4.212-7.29zm.27 0h1.206v2.916c0 2.862 1.818 5.832 4.122 6.984l-.918 1.188c-2.52-1.35-4.41-4.68-4.41-8.172zm6.75-1.404h1.512v16.272h-1.512zm1.152 6.588h3.024v1.26h-3.024zm8.171 3.474h1.53v6.21h-1.53zm5.598 0h1.53v6.21h-1.53zm-9.378-.81h14.76v1.242h-14.76zm7.344-8.604c3.402 0 5.688 1.368 5.688 3.546 0 2.16-2.286 3.546-5.688 3.546-3.384 0-5.688-1.386-5.688-3.546 0-2.178 2.304-3.546 5.688-3.546m0 1.206c-2.484 0-4.176.918-4.176 2.34s1.692 2.34 4.176 2.34 4.158-.918 4.158-2.34-1.674-2.34-4.158-2.34m16.288-.738h1.584c0 4.104-3.006 6.912-7.758 8.082l-.594-1.188c4.266-1.026 6.768-3.294 6.768-6.174zm-5.958 0h6.786v1.206h-6.786zm10.728-1.116h1.494v8.91h-1.494zm-9.108 9.81h10.854v1.206h-10.854zm-.162 5.004h11.196v1.206h-11.196zm2.376-4.428h1.476v5.022h-1.476zm4.95 0h1.476v5.022h-1.476zm6.659-1.836h14.706v1.224h-14.706zm1.908 6.138h11.178v1.224h-11.178zm0-3.492h1.494v3.87h-1.494zm5.454-10.656c3.474 0 5.724 1.224 5.724 3.258 0 2.016-2.25 3.24-5.724 3.24-3.492 0-5.724-1.224-5.724-3.24 0-2.034 2.232-3.258 5.724-3.258m0 1.224c-2.556 0-4.194.756-4.194 2.034s1.638 2.034 4.194 2.034 4.194-.756 4.194-2.034-1.638-2.034-4.194-2.034m21.376.63h4.968v1.224h-4.968zm0 3.636h4.968v1.242h-4.968zm-4.878 4.464h10.854v5.778h-1.494v-4.572h-9.36zm9.36-10.494h1.494v9.594h-1.494zm-7.452.9c2.394 0 4.194 1.62 4.194 3.924s-1.8 3.906-4.194 3.906c-2.412 0-4.194-1.602-4.194-3.906s1.782-3.924 4.194-3.924m0 1.278c-1.584 0-2.754 1.098-2.754 2.646s1.17 2.628 2.754 2.628 2.772-1.08 2.772-2.628-1.188-2.646-2.772-2.646m16.109-.774h1.224v2.916c0 3.6-1.944 7.11-4.518 8.478l-.918-1.188c2.358-1.188 4.212-4.32 4.212-7.29zm.27 0h1.206v2.916c0 2.862 1.818 5.832 4.122 6.984l-.918 1.188c-2.52-1.35-4.41-4.68-4.41-8.172zm6.75-1.404h1.512v16.272h-1.512zm1.152 6.588h3.024v1.26h-3.024zm9.91.972h1.242c3.258 0 5.076-.054 7.254-.45l.162 1.206c-2.232.396-4.104.468-7.416.468h-1.242zm0-6.552h7.434v1.206h-5.958v5.922h-1.476zm1.008 3.222h6.12v1.206h-6.12zm.648 6.21h10.224v5.616h-10.224zm8.766 1.188h-7.308v3.222h7.308zm-.036-11.628h1.494v9.576h-1.494zm1.08 4.032h2.826v1.26h-2.826zm16.235-4.032h1.494v9.846h-1.494zm-2.7 4.932h3.366v1.242h-3.366zm-6.354 5.778h10.548v5.346H297.16zm9.09 1.206h-7.632v2.934h7.632zm-11.898-10.224h9.414v1.206h-9.414zm4.698 2.034c2.196 0 3.762 1.188 3.762 2.916s-1.566 2.88-3.762 2.88-3.762-1.152-3.762-2.88 1.566-2.916 3.762-2.916m0 1.152c-1.368 0-2.34.702-2.34 1.764 0 1.044.972 1.746 2.34 1.746s2.34-.702 2.34-1.746c0-1.062-.972-1.764-2.34-1.764m-.738-5.04h1.494v2.718h-1.494zm24.67 3.78h4.914v1.242h-4.914zm0 5.148h4.914v1.242h-4.914zm-2.988-7.524c2.358 0 4.05 2.214 4.05 5.67 0 3.474-1.692 5.688-4.05 5.688-2.376 0-4.05-2.214-4.05-5.688 0-3.456 1.674-5.67 4.05-5.67m0 1.35c-1.566 0-2.646 1.692-2.646 4.32 0 2.646 1.08 4.374 2.646 4.374s2.646-1.728 2.646-4.374c0-2.628-1.08-4.32-2.646-4.32m7.578-2.61h1.476v16.308h-1.476zm16.918.018h1.422v10.296h-1.422zm-2.646 4.41h3.078v1.242h-3.078zm-.828-4.086h1.404v9.396h-1.404zm-8.892 1.62h8.244v1.188h-8.244zm4.14 2.016c2.034 0 3.456 1.116 3.456 2.79 0 1.692-1.422 2.79-3.456 2.79-2.052 0-3.474-1.098-3.474-2.79 0-1.674 1.422-2.79 3.474-2.79m0 1.116c-1.278 0-2.142.666-2.142 1.674 0 1.026.864 1.674 2.142 1.674 1.26 0 2.124-.648 2.124-1.674 0-1.008-.864-1.674-2.124-1.674m-.738-4.95h1.458v2.484h-1.458zm5.058 10.458c3.384 0 5.418 1.008 5.418 2.826 0 1.8-2.034 2.826-5.418 2.826-3.42 0-5.436-1.026-5.436-2.826 0-1.818 2.016-2.826 5.436-2.826m0 1.152c-2.502 0-3.96.594-3.96 1.674s1.458 1.692 3.96 1.692c2.466 0 3.942-.612 3.942-1.692s-1.476-1.674-3.942-1.674m15.747-9.959-.166 9.326h-1.77l-.167-9.326zm-1.048 13.212a1.25 1.25 0 0 1-.908-.37 1.22 1.22 0 0 1-.37-.908 1.19 1.19 0 0 1 .37-.895 1.24 1.24 0 0 1 .908-.377q.517 0 .895.377a1.23 1.23 0 0 1 .198 1.541 1.3 1.3 0 0 1-.46.46 1.2 1.2 0 0 1-.633.172M30.86 202.672h1.224v1.296c0 3.06-1.782 5.508-4.554 6.48l-.738-1.206c2.466-.81 4.068-2.862 4.068-5.274zm.27 0h1.206v1.26c0 2.196 1.602 4.104 3.996 4.86l-.774 1.17c-2.664-.918-4.428-3.186-4.428-6.03zm6.894-.54h1.494v8.478h-1.494zm.846 3.546h3.042v1.242H38.87zm-9.684 5.688h10.332v3.906h-8.82v2.43h-1.476v-3.564h8.838v-1.584h-8.874zm.036 5.67h10.89v1.188h-10.89zm22.03-12.042h4.555v1.224h-4.554zm0 3.474h4.59v1.242h-4.59zm-7.055-4.932h7.434v7.632h-7.434zm5.958 1.206h-4.5v5.22h4.5zm5.184-2.592h1.494v11.88h-1.494zm-8.964 14.67h10.854v1.224H46.375zm0-3.87h1.494v4.428h-1.494zm21.76-5.31h4.536v1.224h-4.536zm-3.924-4.104h1.224v2.898c0 3.654-1.926 7.146-4.5 8.532l-.954-1.188c2.394-1.188 4.23-4.32 4.23-7.344zm.288 0h1.206v2.898c0 2.97 1.836 5.922 4.194 7.038l-.882 1.206c-2.628-1.332-4.518-4.68-4.518-8.244zm7.434-1.422h1.476v16.308h-1.476zm20.405 0h1.512v16.308h-1.512zm1.152 6.426h3.023v1.26H93.49zm-11.466 4.572h1.278c3.005 0 5.111-.108 7.541-.558l.162 1.26c-2.501.468-4.643.558-7.703.558h-1.279zm0-9.414h7.56v1.224h-6.085v8.748h-1.475zm20.158-.162h1.224v2.916c0 3.744-2.016 7.218-4.68 8.568l-.918-1.224c2.412-1.152 4.374-4.266 4.374-7.344zm.252 0h1.224v2.916c0 2.97 1.944 5.958 4.356 7.074l-.9 1.188c-2.646-1.296-4.68-4.644-4.68-8.262zm7.272-1.422h1.494v16.308h-1.494zm11.368 9.558h1.404v2.034h2.844v-2.034h1.386v6.516h-5.634zm1.404 3.15v2.196h2.844v-2.196zm7.38-3.24h1.152v1.35c0 2.214-1.116 4.446-3.366 5.4l-.756-1.134c1.962-.828 2.97-2.61 2.97-4.266zm.306 0h1.152v1.35c0 1.746 1.008 3.51 2.97 4.266l-.756 1.134c-2.268-.936-3.366-3.096-3.366-5.4zm-2.772-5.634h4.374v1.242h-4.374zm-3.744-3.096c2.43 0 4.194 1.512 4.194 3.744 0 2.214-1.764 3.744-4.194 3.744s-4.194-1.53-4.194-3.744c0-2.232 1.764-3.744 4.194-3.744m0 1.242c-1.602 0-2.754 1.026-2.754 2.502 0 1.458 1.152 2.502 2.754 2.502s2.754-1.044 2.754-2.502c0-1.476-1.152-2.502-2.754-2.502m7.452-1.962h1.494v8.622H131.1zm12.023.27c3.582 0 5.724 1.008 5.724 2.826s-2.142 2.826-5.724 2.826c-3.6 0-5.724-1.008-5.724-2.826s2.124-2.826 5.724-2.826m0 1.134c-2.664 0-4.194.612-4.194 1.692s1.53 1.692 4.194 1.692c2.646 0 4.176-.612 4.176-1.692s-1.53-1.692-4.176-1.692m-7.362 5.598h14.706v1.206h-14.706zm1.782 2.592h11.052v3.672h-9.54v1.98h-1.476v-3.06h9.54v-1.44h-9.576zm.036 5.328h11.502v1.17h-11.502zm26.092-14.346h1.314v.9c0 3.114-3.168 5.346-6.552 5.922l-.594-1.206c2.97-.45 5.832-2.394 5.832-4.716zm.27 0h1.296v.9c0 2.268 2.898 4.266 5.832 4.716l-.594 1.206c-3.348-.576-6.534-2.844-6.534-5.922zm-.27 9.504h1.476v6.192h-1.476zm-6.57-.918h14.706v1.242h-14.706zm18.413-1.566h11.178v1.224h-11.178zm-1.854 5.382h14.742v1.26H173.66zm6.588-4.86h1.494v5.364h-1.494zm-4.734-6.822h11.016v1.224h-9.522v5.616h-1.494zm23.518 8.712h1.152v.882c0 2.124-1.332 4.266-3.672 5.166l-.756-1.116c2.052-.738 3.276-2.484 3.276-4.05zm.324 0h1.116v.882c0 1.638.972 3.384 2.916 4.176l-.63 1.134c-2.34-.918-3.402-3.15-3.402-5.31zm5.688 0h1.116v.882c0 1.908-1.08 4.32-3.402 5.31l-.63-1.134c1.926-.882 2.916-2.772 2.916-4.176zm.306 0h1.152v.882c0 1.674 1.206 3.348 3.276 4.05l-.756 1.116c-2.376-.864-3.672-2.916-3.672-5.166zm1.458-9.99h1.512v9.288h-1.512zm-7.218.936c2.466 0 4.23 1.548 4.23 3.798s-1.764 3.78-4.23 3.78-4.248-1.53-4.248-3.78 1.782-3.798 4.248-3.798m0 1.242c-1.62 0-2.79 1.044-2.79 2.556s1.17 2.538 2.79 2.538 2.79-1.026 2.79-2.538-1.17-2.556-2.79-2.556m13.931 2.682h11.052v1.224h-11.052zm-1.998 3.402h14.76v1.224h-14.76zm1.998-7.686h1.476v4.896h-1.476zm-.108 14.058h11.25v1.224h-11.25zm0-3.528h1.476v3.852h-1.476zm26.848-8.73h4.968v1.224h-4.968zm0 3.636h4.968v1.242h-4.968zm-4.878 4.464h10.854v5.778h-1.494v-4.572h-9.36zm9.36-10.494h1.494v9.594h-1.494zm-7.452.9c2.394 0 4.194 1.62 4.194 3.924s-1.8 3.906-4.194 3.906c-2.412 0-4.194-1.602-4.194-3.906s1.782-3.924 4.194-3.924m0 1.278c-1.584 0-2.754 1.098-2.754 2.646s1.17 2.628 2.754 2.628 2.772-1.08 2.772-2.628-1.188-2.646-2.772-2.646m16.108-.774h1.224v2.916c0 3.6-1.944 7.11-4.518 8.478l-.918-1.188c2.358-1.188 4.212-4.32 4.212-7.29zm.27 0h1.206v2.916c0 2.862 1.818 5.832 4.122 6.984l-.918 1.188c-2.52-1.35-4.41-4.68-4.41-8.172zm6.75-1.404h1.512v16.272h-1.512zm1.152 6.588h3.024v1.26h-3.024zm16.253-6.588h1.494v16.272h-1.494zm-4.77 1.746h1.476c0 4.716-2.124 8.838-7.56 11.502l-.792-1.206c4.698-2.268 6.876-5.724 6.876-10.044zm-6.138 0h6.786v1.224h-6.786zm27.899-1.746h1.422v10.296h-1.422zm-2.646 4.41h3.078v1.242h-3.078zm-.828-4.086h1.404v9.396h-1.404zm-8.892 1.62h8.244v1.188h-8.244zm4.14 2.016c2.034 0 3.456 1.116 3.456 2.79 0 1.692-1.422 2.79-3.456 2.79-2.052 0-3.474-1.098-3.474-2.79 0-1.674 1.422-2.79 3.474-2.79m0 1.116c-1.278 0-2.142.666-2.142 1.674 0 1.026.864 1.674 2.142 1.674 1.26 0 2.124-.648 2.124-1.674 0-1.008-.864-1.674-2.124-1.674m-.738-4.95h1.458v2.484h-1.458zm5.058 10.458c3.384 0 5.418 1.008 5.418 2.826 0 1.8-2.034 2.826-5.418 2.826-3.42 0-5.436-1.026-5.436-2.826 0-1.818 2.016-2.826 5.436-2.826m0 1.152c-2.502 0-3.96.594-3.96 1.674s1.458 1.692 3.96 1.692c2.466 0 3.942-.612 3.942-1.692s-1.476-1.674-3.942-1.674"/><path fill="#262626" d="m31.22 275 1.79-10.909h1.065L32.285 275zm-4.964-3.026.17-1.065h8.14l-.171 1.065zM27.385 275l1.79-10.909h1.065L28.45 275zm-.49-6.818.17-1.066h8.14l-.17 1.066zm14.808.803h1.23v2.085h-1.23zm.63-6.21c2.985 0 4.77.825 4.77 2.34s-1.785 2.355-4.77 2.355c-3 0-4.77-.84-4.77-2.355s1.77-2.34 4.77-2.34m0 .945c-2.22 0-3.495.51-3.495 1.395 0 .9 1.275 1.41 3.495 1.41 2.205 0 3.48-.51 3.48-1.41 0-.885-1.275-1.395-3.48-1.395m-6.135 4.62h12.255v1.02H36.198zm1.485 2.265h9.21v3.06h-7.95v1.65h-1.23v-2.55h7.95v-1.2h-7.98zm.03 4.44h9.585v.975h-9.585zm12.284-5.28h12.3v1.005h-12.3zm1.56-6.735h9.15v3.24h-7.89v1.815h-1.23v-2.73h7.905v-1.35h-7.935zm.03 4.605h9.42v.975h-9.42zm4.53 4.17c2.97 0 4.695.765 4.695 2.19 0 1.41-1.725 2.175-4.695 2.175s-4.68-.765-4.68-2.175c0-1.425 1.71-2.19 4.68-2.19m0 .93c-2.19 0-3.42.45-3.42 1.26 0 .78 1.23 1.23 3.42 1.23s3.435-.45 3.435-1.23c0-.81-1.245-1.26-3.435-1.26m9.239-3.795h9.315v1.02h-9.315zm-1.545 4.485h12.285v1.05H63.81zm5.49-4.05h1.245v4.47H69.3zm-3.945-5.685h9.18v1.02H66.6v4.68h-1.244zM86.298 275l1.79-10.909h1.065L87.363 275zm-4.964-3.026.17-1.065h8.14l-.171 1.065zm1.13 3.026 1.789-10.909h1.065L83.528 275zm-.491-6.818.17-1.066h8.14l-.17 1.066zm9.318 1.193h12.255v.99H91.291zm5.505-2.34h1.23v2.73h-1.23zm-4.155 4.65h9.405v4.59h-1.245v-3.57h-8.16zm.195-4.95h9.3v1.02h-9.3zm0-3.585h9.18v1.02h-7.935v3.09h-1.245zm13.799 5.79h9.315v1.02h-9.315zm-1.545 4.485h12.285v1.05H105.09zm5.49-4.05h1.245v4.47h-1.245zm-3.945-5.685h9.18v1.02h-7.935v4.68h-1.245zM127.578 275l1.789-10.909h1.066L128.643 275zm-4.965-3.026.171-1.065h8.139l-.171 1.065zm1.129 3.026 1.79-10.909h1.065L124.808 275zm-.49-6.818.171-1.066h8.139l-.17 1.066zm15.483-3.577h4.14v1.02h-4.14zm0 3.03h4.14v1.035h-4.14zm-4.065 3.72h9.045v4.815h-1.245v-3.81h-7.8zm7.8-8.745h1.245v7.995h-1.245zm-6.21.75c1.995 0 3.495 1.35 3.495 3.27s-1.5 3.255-3.495 3.255c-2.01 0-3.495-1.335-3.495-3.255s1.485-3.27 3.495-3.27m0 1.065c-1.32 0-2.295.915-2.295 2.205s.975 2.19 2.295 2.19 2.31-.9 2.31-2.19-.99-2.205-2.31-2.205m13.424-.645h1.02v2.43c0 3-1.62 5.925-3.765 7.065l-.765-.99c1.965-.99 3.51-3.6 3.51-6.075zm.225 0h1.005v2.43c0 2.385 1.515 4.86 3.435 5.82l-.765.99c-2.1-1.125-3.675-3.9-3.675-6.81zm5.625-1.17h1.26v13.56h-1.26zm.96 5.49h2.52v1.05h-2.52zm12.363 6.9 1.79-10.909h1.065L169.922 275zm-4.965-3.026.171-1.065h8.139l-.17 1.065zm1.13 3.026 1.789-10.909h1.066L166.087 275zm-.49-6.818.17-1.066h8.139l-.17 1.066zm18.588-5.557h1.245v10.17h-1.245zm.855 4.44h2.4v1.05h-2.4zm-10.095-2.805h8.01v1.005h-8.01zm4.005 1.755c1.92 0 3.24 1.005 3.24 2.535 0 1.515-1.32 2.52-3.24 2.52-1.935 0-3.255-1.005-3.255-2.52 0-1.53 1.32-2.535 3.255-2.535m0 .975c-1.23 0-2.07.615-2.07 1.56 0 .93.84 1.545 2.07 1.545 1.215 0 2.055-.615 2.055-1.545 0-.945-.84-1.56-2.055-1.56m-.63-4.38h1.245v2.175h-1.245zm-1.335 12.24h9.06v1.02h-9.06zm0-2.865h1.245v3.3h-1.245zm13.288-8.745h8.73v1.02h-8.73zm-1.56 4.86h12.285v1.02h-12.285zm5.505.69h1.23v3.195h-1.23zm3.975-5.55h1.215v1.005c0 1.125 0 2.49-.45 4.35l-1.215-.15c.45-1.815.45-3.105.45-4.2zm-8.205 8.34h9.51v4.59h-1.245v-3.57h-8.265zm18.629-5.955h4.095v1.035h-4.095zm0 4.29h4.095v1.035h-4.095zm-2.49-6.27c1.965 0 3.375 1.845 3.375 4.725 0 2.895-1.41 4.74-3.375 4.74-1.98 0-3.375-1.845-3.375-4.74 0-2.88 1.395-4.725 3.375-4.725m0 1.125c-1.305 0-2.205 1.41-2.205 3.6 0 2.205.9 3.645 2.205 3.645s2.205-1.44 2.205-3.645c0-2.19-.9-3.6-2.205-3.6m6.315-2.175h1.23v13.59h-1.23zm14.099.015h1.185v8.58h-1.185zm-2.205 3.675h2.565v1.035h-2.565zm-.69-3.405h1.17v7.83h-1.17zm-7.41 1.35h6.87v.99h-6.87zm3.45 1.68c1.695 0 2.88.93 2.88 2.325 0 1.41-1.185 2.325-2.88 2.325-1.71 0-2.895-.915-2.895-2.325 0-1.395 1.185-2.325 2.895-2.325m0 .93c-1.065 0-1.785.555-1.785 1.395 0 .855.72 1.395 1.785 1.395 1.05 0 1.77-.54 1.77-1.395 0-.84-.72-1.395-1.77-1.395m-.615-4.125h1.215v2.07h-1.215zm4.215 8.715c2.82 0 4.515.84 4.515 2.355 0 1.5-1.695 2.355-4.515 2.355-2.85 0-4.53-.855-4.53-2.355 0-1.515 1.68-2.355 4.53-2.355m0 .96c-2.085 0-3.3.495-3.3 1.395s1.215 1.41 3.3 1.41c2.055 0 3.285-.51 3.285-1.41s-1.23-1.395-3.285-1.395"/></svg>